<?xml version="1.0" standalone="no"?>
<!DOCTYPE svg PUBLIC "-//W3C//DTD SVG 1.1//EN" "http://www.w3.org/Graphics/SVG/1.1/DTD/svg11.dtd" >
<svg xmlns="http://www.w3.org/2000/svg">
<metadata>
Created by FontPrep 20130207 at Fri Oct 24 15:36:28 2014
 By Sergey Romanov
Font software Copyright (c) 2012 Intel Corporation. Licensed under the Apache License, Version 2.0.  http://www.apache.org/licenses/LICENSE-2.0
</metadata>
<defs>
<font id="7953af41a877b5115bfa86d8b5145f1e" horiz-adv-x='1024' >
  <font-face 
    font-family="ClearSans"
    font-weight="400"
    font-stretch="normal"
    units-per-em="2048"
    panose-1="2 11 5 3 3 2 2 2 3 4"
    ascent="1489"
    descent="-559"
    x-height="1049"
    cap-height="1384"
    bbox="-377 -629 2673 2068"
    underline-thickness="102"
    underline-position="-103"
    unicode-range="U+000D-FEFF"
  />
<missing-glyph horiz-adv-x="1024" 
d="M512 594l-332 -496h662zM569 682l332 -498v994zM123 186l330 496l-330 496v-992zM512 768l330 498h-662zM25 1362h972v-1362h-972v1362z" />
    <glyph glyph-name="f_f" unicode="ff" horiz-adv-x="1266" 
d="M1154 1370q-84 0 -118 -44t-34 -175v-102h233v-144h-233v-905h-172v905h-154v144h154v102q0 189 72 279t251 90q113 0 203 -39l-47 -148q-71 37 -155 37zM521 1370q-84 0 -118 -44t-34 -175v-102h233v-144h-233v-905h-172v905h-154v144h154v102q-1 189 71 279t252 90
q113 0 203 -39l-47 -148q-71 37 -155 37z" />
    <glyph glyph-name="fi" unicode="fi" horiz-adv-x="1143" 
d="M521 1370q-84 0 -118 -44t-34 -175v-102h233v-144h-233v-905h-172v905h-154v144h154v102q-1 189 71 279t252 90q113 0 203 -39l-47 -148q-71 37 -155 37zM801 0v1049h172v-1049h-172zM1000 1312q0 -58 -27 -78q-27 -22 -88 -22t-85 27t-24 78t26 75t86 25t86 -23t26 -82z
" />
    <glyph glyph-name="fl" unicode="fl" horiz-adv-x="1159" 
d="M521 1370q-84 0 -118 -44t-34 -175v-102h233v-144h-233v-905h-172v905h-154v144h154v102q-1 189 71 279t252 90q113 0 203 -39l-47 -148q-71 37 -155 37zM809 0v1489h172v-1489h-172z" />
    <glyph glyph-name="f_f_i" unicode="ffi" horiz-adv-x="1776" 
d="M1154 1370q-84 0 -118 -44t-34 -175v-102h233v-144h-233v-905h-172v905h-154v144h154v102q0 189 72 279t251 90q113 0 203 -39l-47 -148q-71 37 -155 37zM521 1370q-84 0 -118 -44t-34 -175v-102h233v-144h-233v-905h-172v905h-154v144h154v102q-1 189 71 279t252 90
q113 0 203 -39l-47 -148q-71 37 -155 37zM1434 0v1049h172v-1049h-172zM1633 1312q0 -58 -27 -78q-27 -22 -88 -22t-85 27t-24 78t26 75t86 25t86 -23t26 -82z" />
    <glyph glyph-name="f_f_l" unicode="ffl" horiz-adv-x="1792" 
d="M1154 1370q-84 0 -118 -44t-34 -175v-102h233v-144h-233v-905h-172v905h-154v144h154v102q0 189 72 279t251 90q113 0 203 -39l-47 -148q-71 37 -155 37zM521 1370q-84 0 -118 -44t-34 -175v-102h233v-144h-233v-905h-172v905h-154v144h154v102q-1 189 71 279t252 90
q113 0 203 -39l-47 -148q-71 37 -155 37zM1442 0v1489h172v-1489h-172z" />
    <glyph glyph-name=".notdef" horiz-adv-x="1024" 
d="M512 594l-332 -496h662zM569 682l332 -498v994zM123 186l330 496l-330 496v-992zM512 768l330 498h-662zM25 1362h972v-1362h-972v1362z" />
    <glyph glyph-name=".null" horiz-adv-x="0" 
 />
    <glyph glyph-name="nonmarkingreturn" unicode="&#xd;" horiz-adv-x="553" 
 />
    <glyph glyph-name="NULL" horiz-adv-x="0" 
 />
    <glyph glyph-name="NULL" horiz-adv-x="0" 
 />
    <glyph glyph-name="space" unicode=" " horiz-adv-x="553" 
 />
    <glyph glyph-name="exclam" unicode="!" horiz-adv-x="555" 
d="M399 96q0 -62 -29.5 -86t-97.5 -24t-92 30t-24 86t28 82.5t94 26.5t93.5 -26.5t27.5 -88.5zM352 399h-145l-29 985h199z" />
    <glyph glyph-name="quotedbl" unicode="&#x22;" horiz-adv-x="924" 
d="M342 834h-127l-41 550h209zM709 834h-127l-41 550h209z" />
    <glyph glyph-name="numbersign" unicode="#" horiz-adv-x="1446" 
d="M616 868l-96 -352h311l97 352h-312zM1227 516v-123h-299l-105 -393h-129l103 393h-310l-104 -393h-129l104 393h-256v123h289l96 352h-268v125h301l105 391h129l-105 -391h309l107 391h129l-104 -391h253v-125h-286l-94 -352h264z" />
    <glyph glyph-name="dollar" unicode="$" horiz-adv-x="1264" 
d="M936 408q0 80 -53.5 127t-171.5 79v-397q103 10 164 60.5t61 130.5zM375 983q0 -76 59.5 -115t147.5 -61v360q-207 -15 -207 -184zM1108 415q0 -144 -103.5 -237t-293.5 -102v-209h-129v209q-271 13 -408 237l139 82q92 -159 269 -178v426q-217 49 -299 124.5t-82 216.5
t105 229.5t276 95.5v104h129v-104q169 -8 252.5 -77t136.5 -153l-142 -82q-87 157 -247 170v-391q219 -52 308 -134.5t89 -226.5z" />
    <glyph glyph-name="percent" unicode="%" horiz-adv-x="2089" 
d="M494 664q86 0 131 67t45 241t-46 241t-130 67t-125.5 -31t-59.5 -94t-18 -187t18 -183t58.5 -90t126.5 -31zM1610 102q133 0 161.5 92t28.5 218t-29.5 216.5t-160.5 90.5q-100 0 -145.5 -68.5t-45.5 -240.5t45.5 -240t145.5 -68zM478 530q-192 0 -278.5 116t-86.5 325
q0 442 366 442q193 0 281 -118.5t88 -324.5t-89 -323t-281 -117zM580 -51l778 1487h166l-781 -1487h-163zM1976 412q0 -443 -366 -443q-366 -1 -367 441q0 442 367 442q194 0 280 -115.5t86 -324.5z" />
    <glyph glyph-name="ampersand" unicode="&#x26;" horiz-adv-x="1425" 
d="M324 356q0 -105 84.5 -170t210.5 -65t198 37t111 69l-367 435q-104 -68 -151.5 -111.5t-66.5 -85.5t-19 -109zM834 1136q0 66 -43 105t-133 39t-137.5 -45t-47.5 -113t41 -129t94 -125q106 59 166 130.5t60 137.5zM297 1098q0 315 371 315q163 0 252.5 -75.5t89.5 -189.5
t-72 -208.5t-229 -189.5l331 -392q92 108 131 271l156 -39q-63 -231 -180 -359l196 -231h-223l-94 111q-102 -79 -197 -109.5t-204 -30.5q-228 0 -358 106t-130 278t88.5 256t233.5 169q-162 186 -162 318z" />
    <glyph glyph-name="quotesingle" unicode="'" horiz-adv-x="557" 
d="M342 834h-127l-41 550h209z" />
    <glyph glyph-name="parenleft" unicode="(" horiz-adv-x="797" 
d="M154 564q0 280 88 507.5t278 448.5h195q-195 -188 -297.5 -433t-102.5 -527t104 -525t296 -430h-195q-190 218 -278 448.5t-88 510.5z" />
    <glyph glyph-name="parenright" unicode=")" horiz-adv-x="797" 
d="M481 561q0 256 -93 504t-306 455h194q189 -218 278 -446t89 -508t-85.5 -506t-281.5 -455h-194q399 393 399 956z" />
    <glyph glyph-name="asterisk" unicode="*" horiz-adv-x="948" 
d="M799 905l-271 158l2 -268h-112l2 268l-270 -160l-58 98l285 156l-285 156l58 96l270 -158l-2 269h112l-4 -269l273 158l57 -98l-285 -154l285 -156z" />
    <glyph glyph-name="plus" unicode="+" horiz-adv-x="1427" 
d="M784 514v-477h-143v477h-477v143h477v480h143v-480h480v-143h-480z" />
    <glyph glyph-name="comma" unicode="," horiz-adv-x="555" 
d="M266 -14q-59 0 -84.5 26t-25.5 84t27 86.5t93 28.5t94.5 -34t28.5 -128t-36.5 -194.5t-75.5 -147.5h-105q37 46 60.5 125.5t23.5 153.5z" />
    <glyph glyph-name="hyphen" unicode="-" horiz-adv-x="827" 
d="M102 440v172h623v-172h-623z" />
    <glyph glyph-name="period" unicode="." horiz-adv-x="555" 
d="M399 96q0 -62 -29.5 -86t-97.5 -24t-92 30t-24 86t28 82.5t94 26.5t93.5 -26.5t27.5 -88.5z" />
    <glyph glyph-name="slash" unicode="/" horiz-adv-x="991" 
d="M174 -299h-166l715 1819h168z" />
    <glyph glyph-name="zero" unicode="0" horiz-adv-x="1264" 
d="M944 689q0 290 -75.5 424t-236.5 134t-237 -135t-76 -424t76 -424t237 -135t236.5 135t75.5 425zM1139 690q0 -371 -124 -546t-384 -175t-383 174t-123 545t123 545t384 174t384 -173t123 -544z" />
    <glyph glyph-name="one" unicode="1" horiz-adv-x="1264" 
d="M616 0v989h-335v129q136 8 205.5 32t108.5 73t69 161h133v-1384h-181z" />
    <glyph glyph-name="two" unicode="2" horiz-adv-x="1188" 
d="M586 1413q201 0 318.5 -99.5t117.5 -282.5t-81.5 -290.5t-175 -201.5t-417.5 -371h719v-168h-928v195q386 328 497.5 454t151 203.5t39.5 175.5t-68 159.5t-178 61.5t-177.5 -47t-114.5 -123l-154 99q136 235 451 235z" />
    <glyph glyph-name="three" unicode="3" horiz-adv-x="1188" 
d="M571 1413q274 0 351 -116.5t77 -236.5q0 -246 -278 -315q131 -10 217 -98t86 -252q0 -213 -129 -318.5t-365 -105.5q-141 0 -257.5 55.5t-170.5 147.5l154 98q37 -57 107.5 -98t164.5 -41q156 0 228.5 66.5t72.5 208.5q0 247 -317 247h-102v160h86q143 0 226 61.5
t83 169.5t-67.5 156.5t-178.5 48.5q-190 0 -289 -153l-155 98q123 217 456 217z" />
    <glyph glyph-name="four" unicode="4" horiz-adv-x="1264" 
d="M778 467v653l-530 -653h530zM956 307v-307h-178v307h-712v178l720 899h170v-917h191v-160h-191z" />
    <glyph glyph-name="five" unicode="5" horiz-adv-x="1188" 
d="M598 868q213 0 329.5 -108t116.5 -322t-125.5 -340.5t-373.5 -126.5q-160 0 -270.5 59.5t-161.5 143.5l153 100q35 -55 104.5 -98t170.5 -43q155 0 233 83t78 217t-80 207t-229 73t-258 -72h-90l75 743h725v-167h-573l-43 -396q88 47 219 47z" />
    <glyph glyph-name="six" unicode="6" horiz-adv-x="1188" 
d="M608 131q282 0 283 311q0 283 -281 283q-78 0 -156.5 -27.5t-131.5 -60.5q0 -266 71 -386t215 -120zM591 -29q-468 0 -468 695q0 356 144 551.5t399 195.5q217 0 362 -133l-115 -143q-59 57 -114.5 86.5t-132.5 29.5q-304 0 -342 -473q57 41 144 74t189 33
q191 0 305.5 -107.5t114.5 -335.5t-125 -350.5t-361 -122.5z" />
    <glyph glyph-name="seven" unicode="7" horiz-adv-x="1264" 
d="M139 1217v167h967v-172l-528 -1212h-205l547 1217h-781z" />
    <glyph glyph-name="eight" unicode="8" horiz-adv-x="1188" 
d="M295 363q0 -115 73.5 -178.5t228.5 -63.5t226.5 65.5t71.5 176.5t-84.5 174t-214.5 122q-128 -53 -214.5 -117t-86.5 -179zM862 1064q0 87 -66.5 144.5t-203.5 57.5t-200.5 -57.5t-63.5 -145.5q0 -54 36.5 -107.5t231.5 -144.5q125 51 195.5 108.5t70.5 144.5zM1079 356
q0 -194 -131.5 -289.5t-361.5 -95.5t-352.5 98.5t-122.5 286.5q0 267 299 379q-116 57 -191.5 123.5t-75.5 200.5q0 168 115 261t336 93t337 -90t116 -262q0 -134 -80 -204.5t-189 -121.5q158 -69 229.5 -159t71.5 -220z" />
    <glyph glyph-name="nine" unicode="9" horiz-adv-x="1188" 
d="M578 659q77 0 156 28t132 61q0 189 -45.5 347t-242.5 158q-138 0 -210.5 -80.5t-72.5 -230.5q0 -283 283 -283zM523 131q149 0 235 113.5t106 359.5q-153 -106 -338 -106q-186 0 -300.5 106.5t-114.5 333.5t124.5 351t342.5 124q260 0 373.5 -173t113.5 -501
q0 -496 -184 -632t-367 -136q-228 0 -373 135l113 142q120 -117 269 -117z" />
    <glyph glyph-name="colon" unicode=":" horiz-adv-x="555" 
d="M399 96q0 -62 -29.5 -86t-97.5 -24t-92 30t-24 86t28 82.5t94 26.5t93.5 -26.5t27.5 -88.5zM399 934q0 -62 -29.5 -86.5t-97.5 -24.5t-92 30t-24 86t28 83t94 27t93.5 -26.5t27.5 -88.5z" />
    <glyph glyph-name="semicolon" unicode=";" horiz-adv-x="555" 
d="M399 49q0 -94 -36.5 -194.5t-75.5 -147.5h-105q36 46 60 128t24 151q-59 0 -84.5 26t-25.5 84t28 86.5t94 28.5t93.5 -34t27.5 -128zM399 934q0 -62 -29.5 -86.5t-97.5 -24.5t-92 30t-24 86t28 83t94 27t93.5 -26.5t27.5 -88.5z" />
    <glyph glyph-name="less" unicode="&#x3c;" horiz-adv-x="1427" 
d="M164 524v125l1100 463v-156l-902 -370l902 -369v-156z" />
    <glyph glyph-name="equal" unicode="=" horiz-adv-x="1427" 
d="M164 283v143h1100v-143h-1100zM164 745v144h1100v-144h-1100z" />
    <glyph glyph-name="greater" unicode="&#x3e;" horiz-adv-x="1427" 
d="M164 61v156l899 369l-899 370v156l1100 -463v-125z" />
    <glyph glyph-name="question" unicode="?" horiz-adv-x="1049" 
d="M567 96q0 -62 -29.5 -86t-97.5 -24t-92 30t-24 86t28 82.5t94 26.5t93.5 -26.5t27.5 -88.5zM485 1413q208 0 331.5 -94.5t123.5 -270.5t-115 -274.5t-295 -195.5v-199h-174v274q223 106 306 190.5t83 186.5t-66.5 160.5t-191.5 58.5q-184 0 -268 -141l-151 98
q115 207 417 207z" />
    <glyph glyph-name="at" unicode="@" horiz-adv-x="1935" 
d="M967 870q-148 0 -210.5 -89t-62.5 -261q0 -317 236 -317q101 0 248 106v482q-123 79 -211 79zM1815 569q0 -266 -102 -409.5t-281 -143.5q-107 0 -165.5 31t-78.5 111q-146 -115 -282 -115t-217.5 58t-125 167t-43.5 248q0 240 111 373t309 133q124 0 240 -82v53h170
v-723q0 -65 21.5 -88.5t74.5 -23.5q97 0 156 108.5t59 294.5q0 343 -175.5 527t-502.5 184q-201 0 -364 -93t-254 -260t-91 -368q0 -327 188.5 -523t516.5 -196q241 0 428 45l33 -143q-185 -43 -452 -43t-461 105.5t-300 302.5t-106 445t110 446t309 310.5t441 112.5
q396 0 615 -224.5t219 -619.5z" />
    <glyph glyph-name="A" unicode="A" horiz-adv-x="1288" 
d="M414 528h450l-225 674zM51 0l473 1384h240l473 -1384h-195l-120 360h-564l-118 -360h-189z" />
    <glyph glyph-name="B" unicode="B" horiz-adv-x="1272" 
d="M965 411q0 89 -33.5 138.5t-103.5 72.5t-226 23h-235v-477h188q176 0 255 23.5t117 77t38 142.5zM881 1024q0 110 -66 153.5t-235 43.5h-213v-412h204q166 0 238 52.5t72 162.5zM1157 406q0 -213 -136 -309.5t-388 -96.5h-451v1384h410q254 0 366.5 -73t112.5 -227
t-61.5 -227t-153.5 -101q137 -19 219 -101t82 -249z" />
    <glyph glyph-name="C" unicode="C" horiz-adv-x="1321" 
d="M129 692q0 362 146.5 541.5t451.5 179.5q236 0 339 -82.5t157 -177.5l-152 -100q-44 74 -115.5 135t-228.5 61q-208 0 -305.5 -138.5t-97.5 -416.5t96 -418.5t309 -140.5q118 0 205 46.5t156 160.5l153 -100q-66 -106 -169.5 -188.5t-338.5 -82.5q-311 0 -458.5 179.5
t-147.5 541.5z" />
    <glyph glyph-name="D" unicode="D" horiz-adv-x="1292" 
d="M979 692q0 200 -44 312t-145 162.5t-282 50.5h-154v-1049h154q182 0 281.5 50.5t144.5 162t45 311.5zM1174 690q0 -252 -65.5 -402t-202 -219t-384.5 -69h-352v1384h348q242 0 382 -69.5t207 -221t67 -403.5z" />
    <glyph glyph-name="E" unicode="E" horiz-adv-x="1153" 
d="M182 0v1384h846v-167h-661v-404h565v-168h-565v-477h661v-168h-846z" />
    <glyph glyph-name="F" unicode="F" horiz-adv-x="1108" 
d="M367 1217v-404h555v-168h-555v-645h-185v1384h838v-167h-653z" />
    <glyph glyph-name="G" unicode="G" horiz-adv-x="1391" 
d="M129 690q0 723 600 723q170 0 293.5 -60t202.5 -200l-150 -102q-49 90 -130 144t-218 54q-209 0 -306 -138t-97 -426t105 -419t312 -131q132 0 297 72v328h-336v167h521v-596q-113 -63 -224.5 -99t-257.5 -36q-312 0 -462 179t-150 540z" />
    <glyph glyph-name="H" unicode="H" horiz-adv-x="1364" 
d="M997 0v633h-630v-633h-185v1384h185v-583h630v583h185v-1384h-185z" />
    <glyph glyph-name="I" unicode="I" horiz-adv-x="770" 
d="M668 0h-566v160h191v1067h-191v157h566v-157h-191v-1067h191v-160z" />
    <glyph glyph-name="J" unicode="J" horiz-adv-x="885" 
d="M700 377q0 -203 -89 -305.5t-300 -102.5q-137 0 -260 51l68 158q32 -16 91.5 -30.5t119.5 -14.5t104 28t63 92.5t19 199.5v931h184v-1007z" />
    <glyph glyph-name="K" unicode="K" horiz-adv-x="1264" 
d="M367 0h-185v1384h185v-679l585 679h230l-566 -636l594 -748h-235l-477 614l-131 -147v-467z" />
    <glyph glyph-name="L" unicode="L" horiz-adv-x="1038" 
d="M182 0v1384h185v-1216h626v-168h-811z" />
    <glyph glyph-name="M" unicode="M" horiz-adv-x="1593" 
d="M1235 0v1147l-383 -770h-115l-379 770v-1147h-176v1384h250l367 -753l370 753h242v-1384h-176z" />
    <glyph glyph-name="N" unicode="N" horiz-adv-x="1386" 
d="M360 0h-178v1384h271l573 -1087v1087h178v-1384h-219l-625 1188v-1188z" />
    <glyph glyph-name="O" unicode="O" horiz-adv-x="1364" 
d="M1051 690q0 289 -86.5 424t-282.5 135t-282.5 -135t-86.5 -423t87.5 -422t281.5 -134t281.5 133t87.5 422zM1245 691q0 -372 -140.5 -546t-424.5 -174t-422.5 176.5t-138.5 542.5t137 544.5t424 178.5t426 -175t139 -547z" />
    <glyph glyph-name="P" unicode="P" horiz-adv-x="1182" 
d="M889 952q0 131 -72 198t-246 67h-204v-580h178q146 0 213.5 28.5t99 92t31.5 194.5zM1083 931q0 -239 -117.5 -350.5t-381.5 -111.5h-217v-469h-185v1384h410q259 0 375 -107t116 -346z" />
    <glyph glyph-name="Q" unicode="Q" horiz-adv-x="1364" 
d="M1051 684q0 281 -82.5 423t-280.5 142t-286.5 -133.5t-88.5 -424.5t89.5 -423.5t281.5 -132.5t279.5 134t87.5 415zM681 1413q564 1 564 -699q0 -348 -108.5 -524t-335.5 -213q44 -143 217 -143q94 0 174 25l57 -152q-103 -35 -225 -35q-190 0 -290.5 80t-141.5 223
q-246 27 -359.5 205t-113.5 530t139 527.5t423 175.5z" />
    <glyph glyph-name="R" unicode="R" horiz-adv-x="1237" 
d="M903 981q0 137 -69.5 188.5t-223.5 51.5h-243v-492h231q223 0 264 78t41 174zM367 565v-565h-185v1384h430q258 0 370 -95t112 -279t-68.5 -283.5t-222.5 -132.5l375 -594h-217l-353 565h-241z" />
    <glyph glyph-name="S" unicode="S" horiz-adv-x="1227" 
d="M612 -29q-187 0 -312 66t-204 205l150 100q117 -207 362 -207q147 0 231.5 61.5t84.5 168.5q0 158 -128 197.5t-210 59.5t-170 47t-189.5 93t-101.5 251t118.5 292.5t330.5 107.5t324 -69.5t177 -178.5l-147 -104q-54 90 -131.5 139t-205.5 49t-203 -59.5t-75 -158.5
t70 -140.5t214 -77.5q144 -37 229 -64.5t185.5 -98.5t100.5 -268t-127.5 -304t-372.5 -107z" />
    <glyph glyph-name="T" unicode="T" horiz-adv-x="1184" 
d="M684 1217v-1217h-184v1217h-459v167h1102v-167h-459z" />
    <glyph glyph-name="U" unicode="U" horiz-adv-x="1405" 
d="M1223 578q0 -227 -51 -358t-160.5 -191t-305.5 -60t-309.5 61t-164 193t-50.5 355v806h185v-786q0 -182 33 -280.5t104.5 -141.5t197.5 -43t198.5 42.5t105 135.5t32.5 283v790h185v-806z" />
    <glyph glyph-name="V" unicode="V" horiz-adv-x="1225" 
d="M733 0h-248l-434 1384h193l370 -1206l371 1206h189z" />
    <glyph glyph-name="W" unicode="W" horiz-adv-x="1757" 
d="M1356 0h-221l-261 1108l-262 -1108h-217l-327 1384h184l258 -1118l262 1118h209l266 -1126l262 1126h181z" />
    <glyph glyph-name="X" unicode="X" horiz-adv-x="1208" 
d="M53 0l449 694l-436 690h217l327 -546l338 546h207l-442 -684l442 -700h-217l-336 557l-342 -557h-207z" />
    <glyph glyph-name="Y" unicode="Y" horiz-adv-x="1147" 
d="M666 0h-187v526l-438 858h209l325 -673l332 673h199l-440 -849v-535z" />
    <glyph glyph-name="Z" unicode="Z" horiz-adv-x="1163" 
d="M92 0v176l729 1041h-698v167h917v-165l-737 -1051h754v-168h-965z" />
    <glyph glyph-name="bracketleft" unicode="[" horiz-adv-x="805" 
d="M195 -395v1884h487v-133h-330v-1618h330v-133h-487z" />
    <glyph glyph-name="backslash" unicode="\" horiz-adv-x="991" 
d="M817 -299l-717 1819h168l715 -1819h-166z" />
    <glyph glyph-name="bracketright" unicode="]" horiz-adv-x="805" 
d="M123 -395v133h330v1618h-330v133h487v-1884h-487z" />
    <glyph glyph-name="asciicircum" unicode="^" horiz-adv-x="1243" 
d="M948 594l-325 637l-328 -637h-152l404 790h149l404 -790h-152z" />
    <glyph glyph-name="underscore" unicode="_" horiz-adv-x="1024" 
d="M-10 -256v102h1044v-102h-1044z" />
    <glyph glyph-name="grave" unicode="`" 
d="M541 1208l-273 361h236l178 -361h-141z" />
    <glyph glyph-name="a" unicode="a" horiz-adv-x="1100" 
d="M287 302q0 -96 47 -137.5t143 -41.5t176 63.5t113 89.5v256l-168 -16q-171 -15 -241 -66.5t-70 -147.5zM516 1079q226 0 324 -82t98 -284v-713h-172v131q-80 -70 -161 -116t-183 -46q-150 0 -231.5 91.5t-81.5 217.5t42.5 197t123 112.5t233.5 59.5l258 23v51
q0 121 -68 165t-180 44t-169.5 -37t-82.5 -80l-141 86q99 180 391 180z" />
    <glyph glyph-name="b" unicode="b" horiz-adv-x="1174" 
d="M619 926q-132 0 -277 -135v-555q57 -48 132 -80.5t147 -32.5q116 0 187 97.5t71 307.5t-64 304t-196 94zM1057 531q0 -264 -108.5 -413t-303.5 -149q-84 0 -164 34t-139 83v-86h-172v1489h172v-545q59 57 142 96t178 39q194 0 294.5 -142t100.5 -406z" />
    <glyph glyph-name="c" unicode="c" horiz-adv-x="1030" 
d="M582 -31q-465 0 -465 413.5t116 555t342 141.5q259 0 369 -192l-141 -86q-39 61 -91.5 95t-138.5 34q-151 0 -214.5 -109.5t-63.5 -279.5t46 -296t239 -126q84 0 137 31.5t100 97.5l141 -86q-49 -84 -136 -138.5t-240 -54.5z" />
    <glyph glyph-name="d" unicode="d" horiz-adv-x="1174" 
d="M545 123q146 0 286 135v555q-137 113 -262 113t-199.5 -98.5t-74.5 -307.5q0 -397 250 -397zM831 0v104q-59 -57 -142 -96t-177 -39q-189 0 -292 142.5t-103 402.5t112 412.5t310 152.5q159 0 292 -116v526h173v-1489h-173z" />
    <glyph glyph-name="e" unicode="e" horiz-adv-x="1081" 
d="M809 639q-4 297 -243 297q-126 0 -187.5 -70.5t-81.5 -226.5h512zM569 1079q408 0 408 -479v-96h-682q0 -208 71 -296.5t228 -88.5q70 0 123 29.5t102 95.5l142 -88q-60 -90 -146 -138.5t-233 -48.5q-465 0 -465 547q0 288 112.5 425.5t339.5 137.5z" />
    <glyph glyph-name="f" unicode="f" horiz-adv-x="633" 
d="M521 1370q-84 0 -118 -44.5t-34 -174.5v-102h233v-144h-233v-905h-172v905h-154v144h154v102q0 190 71.5 279.5t251.5 89.5q113 0 203 -39l-47 -148q-71 37 -155 37z" />
    <glyph glyph-name="g" unicode="g" horiz-adv-x="1174" 
d="M562 926q-132 0 -199.5 -102t-67.5 -294q0 -376 250 -376q144 0 286 135v524q-137 113 -269 113zM117 533q0 258 113 402t309 144q159 0 292 -116v86h173v-1026q0 -211 -105 -314.5t-341 -103.5t-386 98l64 139q136 -94 300 -94t229.5 61.5t65.5 202.5v123
q-140 -135 -326 -135t-287 137.5t-101 395.5z" />
    <glyph glyph-name="h" unicode="h" horiz-adv-x="1163" 
d="M829 0v618q0 150 -14.5 199.5t-48.5 72.5t-100 23t-154 -50t-170 -122v-741h-172v1489h172v-596q73 73 170 129.5t195 56.5q152 0 223 -86.5t71 -292.5v-700h-172z" />
    <glyph glyph-name="i" unicode="i" horiz-adv-x="512" 
d="M170 0v1049h172v-1049h-172zM369 1312q0 -58 -27 -79t-88 -21t-85 27t-24 78t26 75.5t86 24.5t86 -23.5t26 -81.5z" />
    <glyph glyph-name="j" unicode="j" horiz-adv-x="537" 
d="M358 -45q0 -190 -74 -270t-239 -80q-100 0 -188 30l43 142q73 -29 154 -29t106.5 58.5t25.5 168.5v1074h172v-1094zM385 1312q0 -58 -26.5 -79t-88.5 -21t-85 27t-23 78t26 75.5t86 24.5t85.5 -23.5t25.5 -81.5z" />
    <glyph glyph-name="k" unicode="k" horiz-adv-x="1049" 
d="M342 0h-172v1489h172v-930l426 490h211l-418 -459l440 -590h-213l-333 471l-113 -125v-346z" />
    <glyph glyph-name="l" unicode="l" horiz-adv-x="528" 
d="M178 0v1489h172v-1489h-172z" />
    <glyph glyph-name="m" unicode="m" horiz-adv-x="1712" 
d="M674 1079q214 0 254 -205q82 87 167 146t185 59t158 -40.5t85 -117t27 -221.5v-700h-172v618q0 156 -12 206t-42 69.5t-86 19.5t-121.5 -37t-170.5 -135v-741h-172v618q0 148 -12 200t-41 73.5t-90 21.5q-117 0 -289 -172v-741h-172v1049h172v-156q171 186 332 186z" />
    <glyph glyph-name="n" unicode="n" horiz-adv-x="1163" 
d="M829 0v618q0 150 -15 200t-48.5 72.5t-99.5 22.5t-154 -50t-170 -122v-741h-172v1049h172v-156q73 73 170 129.5t195 56.5q152 0 223 -86.5t71 -292.5v-700h-172z" />
    <glyph glyph-name="o" unicode="o" horiz-adv-x="1157" 
d="M862 526q0 210 -70.5 307t-213.5 97t-213 -97.5t-70 -306.5t67.5 -308t213.5 -99t216 98.5t70 308.5zM1040 524q0 -274 -117.5 -414.5t-342.5 -140.5t-344 138.5t-119 416.5t119.5 416.5t344.5 138.5t342 -140.5t117 -414.5z" />
    <glyph glyph-name="p" unicode="p" horiz-adv-x="1174" 
d="M629 926q-147 0 -287 -135v-555q134 -113 260 -113t201.5 98t75.5 307q0 398 -250 398zM1057 535q0 -261 -112.5 -413.5t-309.5 -152.5q-157 0 -293 117v-481h-172v1444h172v-105q59 57 142 96t178 39q187 0 291 -141.5t104 -402.5z" />
    <glyph glyph-name="q" unicode="q" horiz-adv-x="1174" 
d="M553 926q-117 0 -187.5 -98.5t-70.5 -307.5t63.5 -303t195.5 -94t277 135v555q-57 47 -131.5 80t-146.5 33zM831 -395v499q-59 -57 -142 -96t-177 -39q-191 0 -293 139t-102 406t108 416t303 149q84 0 164 -33.5t139 -82.5v86h173v-1444h-173z" />
    <glyph glyph-name="r" unicode="r" horiz-adv-x="811" 
d="M644 891q-64 0 -135.5 -35.5t-166.5 -130.5v-725h-172v1049h172v-170q72 73 151.5 129.5t160.5 56.5t120 -21l-37 -165q-29 12 -93 12z" />
    <glyph glyph-name="s" unicode="s" horiz-adv-x="991" 
d="M487 -31q-131 0 -235 49.5t-152 139.5l138 84q79 -127 254 -127q114 0 170.5 43.5t56.5 120.5t-62 107t-192 65q-187 43 -263.5 119t-76.5 208t100 216.5t257 84.5t250 -54t136 -130l-137 -84q-82 123 -233 123q-86 0 -145.5 -38t-59.5 -114t52.5 -108t196.5 -68
t244.5 -95t100.5 -217t-104 -241.5t-296 -83.5z" />
    <glyph glyph-name="t" unicode="t" horiz-adv-x="729" 
d="M496 -31q-160 0 -229.5 84t-69.5 264v588h-150v144h150v292h172v-292h266v-144h-266v-555q0 -127 25.5 -182t107.5 -55t147 28l45 -141q-100 -31 -198 -31z" />
    <glyph glyph-name="u" unicode="u" horiz-adv-x="1163" 
d="M821 156q-187 -187 -371 -187q-200 0 -244 119t-44 260v701h172v-619q0 -150 15.5 -200t49.5 -72.5t99 -22.5t153 50.5t170 121.5v742h172v-1049h-172v156z" />
    <glyph glyph-name="v" unicode="v" horiz-adv-x="1008" 
d="M588 0h-170l-367 1049h185l272 -824l270 824h178z" />
    <glyph glyph-name="w" unicode="w" horiz-adv-x="1475" 
d="M1153 0h-160l-256 803l-256 -803h-157l-261 1049h179l178 -799l250 799h143l256 -799l170 799h172z" />
    <glyph glyph-name="x" unicode="x" horiz-adv-x="1012" 
d="M741 0l-241 399l-250 -399h-195l348 518l-344 531h211l242 -398l248 398h196l-348 -519l348 -530h-215z" />
    <glyph glyph-name="y" unicode="y" horiz-adv-x="1040" 
d="M190 -252q121 0 205 219l35 90l-383 992h186l289 -768l291 768h180l-448 -1129q-71 -173 -152 -244t-198 -71t-199 30l43 142q65 -29 151 -29z" />
    <glyph glyph-name="z" unicode="z" horiz-adv-x="934" 
d="M82 0v131l547 774h-535v144h742v-125l-549 -779h565v-145h-770z" />
    <glyph glyph-name="braceleft" unicode="{" horiz-adv-x="977" 
d="M805 -395q-180 0 -286.5 98t-106.5 283v147q0 178 -74.5 267t-216.5 89h-19v148h19q291 0 291 356v146q0 188 107.5 284.5t285.5 96.5h69v-134h-51q-131 0 -192.5 -65.5t-61.5 -198.5v-172q0 -157 -73.5 -249.5t-206.5 -139.5q280 -95 280 -387v-172q0 -133 61.5 -198.5
t192.5 -65.5h51v-133h-69z" />
    <glyph glyph-name="bar" unicode="|" horiz-adv-x="852" 
d="M348 -395v1915h156v-1915h-156z" />
    <glyph glyph-name="braceright" unicode="}" horiz-adv-x="977" 
d="M102 -395v133h52q131 0 192.5 65.5t61.5 198.5v172q0 292 280 387q-133 47 -206.5 139.5t-73.5 249.5v172q0 133 -61.5 198.5t-192.5 65.5h-52v134h70q193 0 293 -98.5t100 -282.5v-146q0 -356 291 -356h18v-148h-18q-142 0 -216.5 -89t-74.5 -267v-147
q0 -185 -105.5 -283t-287.5 -98h-70z" />
    <glyph glyph-name="asciitilde" unicode="~" horiz-adv-x="1427" 
d="M469 901q61 0 125.5 -24.5t129 -54t125.5 -54.5t113 -25t96.5 16t84.5 38.5t121 89.5v-160q-17 -12 -97 -69.5t-169 -57.5t-157.5 24.5t-136 54.5t-130 54.5t-109.5 24.5q-136 0 -301 -144v160q159 127 305 127z" />
    <glyph glyph-name="uni00A0" unicode="&#xa0;" horiz-adv-x="553" 
 />
    <glyph glyph-name="exclamdown" unicode="&#xa1;" horiz-adv-x="555" 
d="M178 -395l25 1087h145l29 -1087h-199zM399 964q0 -56 -27.5 -83t-93.5 -27t-94 26t-28 88t29 86.5t97 24.5t92.5 -29.5t24.5 -85.5z" />
    <glyph glyph-name="cent" unicode="&#xa2;" horiz-adv-x="1030" 
d="M295 550q0 -161 29.5 -257t111.5 -141l170 776l-16 2h-17q-151 0 -214.5 -109.5t-63.5 -270.5zM117 522q0 274 116 415.5t342 141.5q32 0 64 -4l47 213h119l-53 -237q125 -43 192 -164l-141 -86q-41 61 -86 90l-168 -772h31q84 0 137 31.5t100 97.5l141 -86
q-49 -84 -136 -138.5t-240 -54.5q-34 0 -66 4l-51 -233h-119l55 256q-284 95 -284 526z" />
    <glyph glyph-name="sterling" unicode="&#xa3;" horiz-adv-x="1264" 
d="M991 1104q-99 158 -308 158q-116 0 -187.5 -64.5t-71.5 -181.5q0 -76 24 -176t27 -121h381v-131h-373q0 -175 -41 -276.5t-120 -155.5h837v-156h-1046v156q122 25 151 154.5t29 277.5h-156v131h150l-10 49q-44 159 -44 276q0 173 127 271t342 98q306 0 443 -219z" />
    <glyph glyph-name="currency" unicode="&#xa4;" horiz-adv-x="1264" 
d="M885 588q0 106 -73.5 181t-179.5 75t-175.5 -75.5t-69.5 -182.5q0 -66 31 -124t88.5 -93t124.5 -35q109 0 181.5 74t72.5 180zM242 592q0 130 69 219l-192 195l92 92l192 -191q101 76 231 76t226 -74l193 189l90 -92l-187 -191q74 -96 74 -220t-76 -237l189 -194l-90 -90
l-195 190q-99 -69 -227 -69q-127 0 -223 71l-197 -192l-92 90l194 198q-71 100 -71 230z" />
    <glyph glyph-name="yen" unicode="&#xa5;" horiz-adv-x="1264" 
d="M1126 760v-121h-374l-29 -45v-105h403v-120h-403v-369h-184v369h-402v120h402v97l-33 53h-369v121h299l-370 624h208l361 -624l364 624h199l-375 -624h303z" />
    <glyph glyph-name="brokenbar" unicode="&#xa6;" horiz-adv-x="852" 
d="M348 -395v637h156v-637h-156zM348 883v637h156v-637h-156z" />
    <glyph glyph-name="section" unicode="&#xa7;" horiz-adv-x="1081" 
d="M276 557q0 -118 225 -239l101 -56q90 60 146.5 108t56.5 125t-88.5 142.5t-233.5 146.5q-90 -55 -148.5 -110.5t-58.5 -116.5zM516 -225q219 -1 219 137q0 64 -50.5 109t-203.5 126t-262.5 168.5t-109.5 229.5q0 104 68.5 179t174.5 138q-92 64 -136 123t-44 131
q0 135 98.5 216t296.5 81q270 0 383 -147l-127 -97q-87 101 -252 101q-219 0 -219 -146q0 -59 55.5 -103t200.5 -125t220 -141.5t110 -122.5t35 -148t-59.5 -155t-182.5 -145q100 -67 142 -127.5t42 -124.5q0 -151 -108.5 -225t-286.5 -74q-263 0 -383 148l127 96
q95 -102 252 -102z" />
    <glyph glyph-name="dieresis" unicode="&#xa8;" 
d="M457 1312q0 -58 -24.5 -81t-86.5 -23t-83 29t-21 80t24 77.5t84 26.5t83.5 -25.5t23.5 -83.5zM852 1312q0 -58 -24 -81t-86 -23t-83.5 29t-21.5 80t23.5 77.5t83.5 26.5t84 -25.5t24 -83.5z" />
    <glyph glyph-name="copyright" unicode="&#xa9;" horiz-adv-x="1855" 
d="M952 170q-204 0 -299.5 109t-95.5 333t94 334.5t308 110.5t307 -176l-119 -74q-29 51 -73 89t-128 38q-135 0 -189.5 -81t-54.5 -243t59 -239.5t191 -77.5t207 133l119 -72q-57 -96 -136 -140t-190 -44zM926 -68q180 0 337 90.5t246.5 247.5t89.5 340t-90.5 340
t-246 246.5t-335.5 89.5t-335.5 -90.5t-245.5 -247.5t-90 -339t89 -338t245 -247.5t336 -91.5zM928 -197q-220 0 -405.5 107.5t-292.5 294t-107 406.5t106 404.5t293.5 291t407.5 106.5t404 -106t290.5 -293.5t106.5 -405.5t-106.5 -405.5t-291.5 -293.5t-405 -106z" />
    <glyph glyph-name="ordfeminine" unicode="&#xaa;" horiz-adv-x="780" 
d="M227 1016q0 -101 113 -101q47 0 91 29t87 64v145l-98 -10q-92 -8 -142.5 -33t-50.5 -94zM306 799q-103 0 -158.5 60.5t-55.5 159.5t62.5 155.5t205.5 72.5l158 13v24q0 72 -39 96.5t-114 24.5q-113 0 -158 -78l-109 66q31 51 91.5 89t192.5 38t200.5 -52.5t68.5 -189.5
v-461h-133v72q-109 -90 -212 -90z" />
    <glyph glyph-name="guillemotleft" unicode="&#xab;" horiz-adv-x="1225" 
d="M465 53l-393 471l393 471h197l-394 -471l394 -471h-197zM954 53l-393 471l393 471h197l-393 -471l393 -471h-197z" />
    <glyph glyph-name="logicalnot" unicode="&#xac;" horiz-adv-x="1427" 
d="M1120 367v460h-956v144h1100v-604h-144z" />
    <glyph glyph-name="uni00AD" unicode="&#xad;" horiz-adv-x="827" 
d="M102 440v172h623v-172h-623z" />
    <glyph glyph-name="registered" unicode="&#xae;" horiz-adv-x="1855" 
d="M782 657h129q103 0 138.5 31.5t35.5 107.5t-36.5 106t-130.5 30h-136v-275zM643 201v850h275q151 0 232 -52.5t81 -178.5t-46 -183t-124 -80l233 -356h-164l-217 336h-131v-336h-139zM926 -68q180 0 337 90.5t246.5 247.5t89.5 340t-90.5 340t-246 246.5t-335.5 89.5
t-335.5 -90.5t-245.5 -247.5t-90 -339t89 -338t245 -247.5t336 -91.5zM928 -197q-220 0 -405.5 107.5t-292.5 294t-107 406.5t106 404.5t293.5 291t407.5 106.5t404 -106t290.5 -293.5t106.5 -405.5t-106.5 -405.5t-291.5 -293.5t-405 -106z" />
    <glyph glyph-name="macron" unicode="&#xaf;" 
d="M238 1255v140h610v-140h-610z" />
    <glyph glyph-name="degree" unicode="&#xb0;" horiz-adv-x="864" 
d="M594 1240q0 66 -46 113.5t-116 47.5t-116 -47.5t-46 -113.5t48 -114.5t116 -48.5t114 48.5t46 114.5zM713 1241q0 -76 -39 -143t-103 -103.5t-137 -36.5q-119 0 -200.5 84t-81.5 198t80 197t198 83t200.5 -81.5t82.5 -197.5z" />
    <glyph glyph-name="plusminus" unicode="&#xb1;" horiz-adv-x="1427" 
d="M164 0v143h1100v-143h-1100zM784 809v-479h-143v479h-477v143h477v478h143v-478h480v-143h-480z" />
    <glyph glyph-name="twosuperior" unicode="&#xb2;" horiz-adv-x="889" 
d="M115 655v138q74 52 208.5 161t195 180t58.5 136t-46 95t-103 30q-108 0 -188 -111l-134 78q106 162 326 162q148 0 230.5 -63.5t82.5 -180.5q0 -85 -38.5 -147t-122.5 -137t-260 -210h450v-131h-659z" />
    <glyph glyph-name="threesuperior" unicode="&#xb3;" horiz-adv-x="889" 
d="M559 1292q0 105 -145 105q-117 0 -187 -99l-133 76q40 56 107.5 103t225.5 47q157 0 230.5 -63.5t73.5 -151.5q0 -140 -139 -193q67 -24 110 -78.5t43 -132.5q0 -133 -92 -200.5t-258 -67.5q-102 0 -186 39t-125 102l133 74q27 -35 73 -60.5t103 -25.5q180 0 180 145
q0 70 -48 100.5t-140 30.5h-90v127h78q86 0 136 32t50 91z" />
    <glyph glyph-name="acute" unicode="&#xb4;" 
d="M623 1208h-142l178 361h236z" />
    <glyph glyph-name="mu" unicode="&#xb5;" horiz-adv-x="1169" 
d="M842 119q-118 -150 -266 -150q-80 0 -137.5 15.5t-125.5 66.5v-446h-174v1444h174v-793q43 -53 113 -85t143 -32q153 0 273 144v766h176v-1049h-166z" />
    <glyph glyph-name="paragraph" unicode="&#xb6;" horiz-adv-x="1257" 
d="M1004 1356v-1751h-160v1751h-195v-1751h-160v1040q-120 0 -219 51.5t-155 148t-56 224.5q0 191 132.5 305.5t347.5 114.5h657v-133h-192z" />
    <glyph glyph-name="periodcentered" unicode="&#xb7;" horiz-adv-x="555" 
d="M399 744q0 -62 -29.5 -86.5t-97.5 -24.5t-92 29.5t-24 85.5t28 83t94 27t93.5 -26t27.5 -88z" />
    <glyph glyph-name="cedilla" unicode="&#xb8;" 
d="M575 -31q164 -41 164 -197q0 -72 -68.5 -119.5t-166.5 -47.5t-168 17.5t-92 29.5l51 100q96 -33 192 -33q121 0 121 78q0 40 -42.5 68t-133.5 35l62 118h106z" />
    <glyph glyph-name="onesuperior" unicode="&#xb9;" horiz-adv-x="889" 
d="M406 655v586h-224v107q129 4 182.5 37.5t77.5 119.5h125v-850h-161z" />
    <glyph glyph-name="ordmasculine" unicode="&#xba;" horiz-adv-x="825" 
d="M588 1158q0 112 -37 179.5t-133 67.5t-137 -58.5t-41 -188.5t41 -187.5t137 -57.5t133 66.5t37 178.5zM723 1157q0 -176 -79.5 -267t-231.5 -91t-231 91.5t-79 269.5t80 269t232 91t230.5 -93.5t78.5 -269.5z" />
    <glyph glyph-name="guillemotright" unicode="&#xbb;" horiz-adv-x="1225" 
d="M270 53h-196l393 471l-393 471h196l394 -471zM760 53h-197l393 471l-393 471h197l393 -471z" />
    <glyph glyph-name="onequarter" unicode="&#xbc;" horiz-adv-x="1946" 
d="M645 -51h-164l779 1487h166zM385 540v586h-224v107q129 3 183 37t77 120h125v-850h-161zM1577 299v325l-299 -325h299zM1737 174v-183h-160v183h-477v125l496 542h141v-542h127v-125h-127z" />
    <glyph glyph-name="onehalf" unicode="&#xbd;" horiz-adv-x="1946" 
d="M561 -51h-164l779 1487h166zM308 540v586h-224v107q128 3 182 37t78 120h125v-850h-161zM1141 -11v138q75 52 209 161t194 180t59 136q-2 65 -46 95t-103 30q-108 0 -188 -111l-134 78q106 162 326 162q148 0 230 -64t83 -180q-1 -85 -39 -147t-122 -137t-260 -210h450
v-131h-659z" />
    <glyph glyph-name="threequarters" unicode="&#xbe;" horiz-adv-x="1946" 
d="M749 -51h-164l779 1487h166zM1577 297v325l-299 -325h299zM1737 172v-183h-160v183h-477v125l496 542h141v-542h127v-125h-127zM579 1177q0 105 -145 105q-117 0 -187 -99l-133 76q40 55 82 85q93 64 251 65q157 1 231 -63t73 -152q0 -140 -139 -193q67 -25 110 -79
t43 -132q0 -132 -92 -200t-258 -68q-102 0 -186 39t-125 102l133 74q27 -35 73 -61t103 -25q180 0 180 145q0 70 -48 100t-140 31h-90v127h78q86 0 136 32t50 91z" />
    <glyph glyph-name="questiondown" unicode="&#xbf;" horiz-adv-x="1049" 
d="M561 -231q188 0 268 141l152 -98q-114 -207 -418 -207q-211 0 -332.5 98t-121.5 286t115 295.5t294 211.5v196h174v-272q-179 -106 -252.5 -166t-105 -118.5t-31.5 -153.5t66.5 -154t191.5 -59zM725 964q0 -56 -27.5 -83t-93.5 -27t-94.5 26t-28.5 88t29.5 86.5
t97.5 24.5t92.5 -29.5t24.5 -85.5z" />
    <glyph glyph-name="Agrave" unicode="&#xc0;" horiz-adv-x="1288" 
d="M414 528h450l-225 674zM51 0l473 1384h240l473 -1384h-195l-120 360h-564l-118 -360h-189zM637 1544l-273 361h236l178 -361h-141z" />
    <glyph glyph-name="Aacute" unicode="&#xc1;" horiz-adv-x="1288" 
d="M414 528h450l-225 674zM51 0l473 1384h240l473 -1384h-195l-120 360h-564l-118 -360h-189zM662 1544h-142l178 361h236z" />
    <glyph glyph-name="Acircumflex" unicode="&#xc2;" horiz-adv-x="1288" 
d="M414 528h450l-225 674zM51 0l473 1384h240l473 -1384h-195l-120 360h-564l-118 -360h-189zM827 1544l-184 238l-185 -238h-149l229 361h211l228 -361h-150z" />
    <glyph glyph-name="Atilde" unicode="&#xc3;" horiz-adv-x="1288" 
d="M414 528h450l-225 674zM51 0l473 1384h240l473 -1384h-195l-120 360h-564l-118 -360h-189zM495 1819q57 -1 97 -23t75 -48t66 -48t67 -23q88 0 97 129h121q-19 -262 -232 -262q-65 0 -105 22t-71 51q-30 29 -58 51t-74 22q-82 0 -91 -133h-121q6 125 68 193t161 69z" />
    <glyph glyph-name="Adieresis" unicode="&#xc4;" horiz-adv-x="1288" 
d="M414 528h450l-225 674zM51 0l473 1384h240l473 -1384h-195l-120 360h-564l-118 -360h-189zM557 1648q-1 -58 -25 -80q-24 -24 -86 -24t-82 29q-22 29 -22 80t24 77t84 27t84 -25t23 -84zM952 1648q0 -58 -24 -80q-24 -24 -86 -24t-84 29t-21 80q-1 51 23 77t84 27t84 -25
t24 -84z" />
    <glyph glyph-name="Aring" unicode="&#xc5;" horiz-adv-x="1288" 
d="M414 528h450l-225 674zM51 0l473 1384h240l473 -1384h-195l-120 360h-564l-118 -360h-189zM741 1692q1 100 -97 100t-98 -100t98 -101q98 1 97 101zM841 1692q0 -90 -48 -144q-47 -54 -151 -53q-104 -1 -150 55t-46 143t47 141t151 54t150 -53q47 -53 47 -143z" />
    <glyph glyph-name="AE" unicode="&#xc6;" horiz-adv-x="1747" 
d="M834 1217h-140l-252 -666h392v666zM834 0v383h-453l-145 -383h-191l533 1384h1044v-167h-604v-408h526v-168h-526v-473h604v-168h-788z" />
    <glyph glyph-name="Ccedilla" unicode="&#xc7;" horiz-adv-x="1321" 
d="M815 -31q164 -41 164 -197q0 -72 -68.5 -119.5t-166.5 -47.5t-168 17.5t-93 29.5l52 100q92 -33 203 -33q110 0 110 78q0 40 -42.5 68t-133.5 35l37 71q-297 9 -438.5 188t-141.5 537t146.5 537.5t451.5 179.5q236 0 339 -82.5t157 -177.5l-152 -100q-44 74 -115.5 135
t-228.5 61q-208 0 -305.5 -138.5t-97.5 -416.5t96 -418.5t309 -140.5q118 0 205 46.5t156 160.5l153 -100q-78 -131 -180.5 -191.5t-245.5 -75.5z" />
    <glyph glyph-name="Egrave" unicode="&#xc8;" horiz-adv-x="1153" 
d="M182 0v1384h846v-167h-661v-404h565v-168h-565v-477h661v-168h-846zM613 1544l-273 361h236l178 -361h-141z" />
    <glyph glyph-name="Eacute" unicode="&#xc9;" horiz-adv-x="1153" 
d="M182 0v1384h846v-167h-661v-404h565v-168h-565v-477h661v-168h-846zM623 1544h-142l178 361h236z" />
    <glyph glyph-name="Ecircumflex" unicode="&#xca;" horiz-adv-x="1153" 
d="M182 0v1384h846v-167h-661v-404h565v-168h-565v-477h661v-168h-846zM788 1544l-184 238l-185 -238h-149l229 361h211l228 -361h-150z" />
    <glyph glyph-name="Edieresis" unicode="&#xcb;" horiz-adv-x="1153" 
d="M182 0v1384h846v-167h-661v-404h565v-168h-565v-477h661v-168h-846zM502 1648q0 -58 -24 -80q-24 -24 -86 -24t-84 29t-21 80q-1 51 23 77t84 27t84 -25t24 -84zM897 1648q-1 -58 -25 -80q-24 -24 -86 -24t-82 29q-22 29 -22 80t24 77t84 27t84 -25t23 -84z" />
    <glyph glyph-name="Igrave" unicode="&#xcc;" horiz-adv-x="770" 
d="M668 0h-566v160h191v1067h-191v157h566v-157h-191v-1067h191v-160zM365 1544l-273 361h236l178 -361h-141z" />
    <glyph glyph-name="Iacute" unicode="&#xcd;" horiz-adv-x="770" 
d="M668 0h-566v160h191v1067h-191v157h566v-157h-191v-1067h191v-160zM437 1544h-142l178 361h236z" />
    <glyph glyph-name="Icircumflex" unicode="&#xce;" horiz-adv-x="770" 
d="M668 0h-566v160h191v1067h-191v157h566v-157h-191v-1067h191v-160zM575 1544l-184 238l-185 -238h-149l229 361h211l228 -361h-150z" />
    <glyph glyph-name="Idieresis" unicode="&#xcf;" horiz-adv-x="770" 
d="M668 0h-566v160h191v1067h-191v157h566v-157h-191v-1067h191v-160zM305 1648q-1 -58 -25 -80q-24 -24 -86 -24t-82 29q-22 29 -22 80t24 77t84 27t84 -25t23 -84zM700 1648q0 -58 -24 -80q-24 -24 -86 -24t-84 29t-21 80q-1 51 23 77t84 27t84 -25t24 -84z" />
    <glyph glyph-name="Eth" unicode="&#xd0;" horiz-adv-x="1378" 
d="M1055 694q0 292 -115 407.5t-401 115.5h-172v-449h335v-141h-335v-459h172q198 0 307 50.5t159 164t50 311.5zM1249 688q0 -250 -70 -400t-217 -219t-413 -69h-367v627h-119v141h119v616h365q261 0 410.5 -70.5t220.5 -223t71 -402.5z" />
    <glyph glyph-name="Ntilde" unicode="&#xd1;" horiz-adv-x="1386" 
d="M360 0h-178v1384h271l573 -1087v1087h178v-1384h-219l-625 1188v-1188zM526 1819q56 -1 96 -23t76 -48q35 -26 66 -48t67 -23q88 0 97 129h121q-19 -262 -232 -262q-65 0 -105 22t-71 51t-59 51t-73 22q-82 0 -91 -133h-121q5 125 67 193t162 69z" />
    <glyph glyph-name="Ograve" unicode="&#xd2;" horiz-adv-x="1364" 
d="M1051 690q-1 289 -87 424t-282 135t-282 -135t-87 -423t87 -422t282 -134t281 133q88 133 88 422zM1245 691q-1 -372 -141 -546t-424 -174t-422 177q-138 176 -139 542q0 366 137 544t424 179q287 0 426 -175t139 -547zM717 1544l-273 361h236l178 -361h-141z" />
    <glyph glyph-name="Oacute" unicode="&#xd3;" horiz-adv-x="1364" 
d="M1051 690q-1 289 -87 424t-282 135t-282 -135t-87 -423t87 -422t282 -134t281 133q88 133 88 422zM1245 691q-1 -372 -141 -546t-424 -174t-422 177q-138 176 -139 542q0 366 137 544t424 179q287 0 426 -175t139 -547zM727 1544h-142l178 361h236z" />
    <glyph glyph-name="Ocircumflex" unicode="&#xd4;" horiz-adv-x="1364" 
d="M1051 690q-1 289 -87 424t-282 135t-282 -135t-87 -423t87 -422t282 -134t281 133q88 133 88 422zM1245 691q-1 -372 -141 -546t-424 -174t-422 177q-138 176 -139 542q0 366 137 544t424 179q287 0 426 -175t139 -547zM866 1544l-184 238l-185 -238h-149l229 361h211
l228 -361h-150z" />
    <glyph glyph-name="Otilde" unicode="&#xd5;" horiz-adv-x="1364" 
d="M1051 690q-1 289 -87 424t-282 135t-282 -135t-87 -423t87 -422t282 -134t281 133q88 133 88 422zM1245 691q-1 -372 -141 -546t-424 -174t-422 177q-138 176 -139 542q0 366 137 544t424 179q287 0 426 -175t139 -547zM534 1819q56 -1 96 -23t76 -48q35 -26 66 -48
t67 -23q88 0 97 129h121q-19 -262 -232 -262q-65 0 -105 22t-71 51t-59 51t-73 22q-82 0 -91 -133h-121q5 125 67 193t162 69z" />
    <glyph glyph-name="Odieresis" unicode="&#xd6;" horiz-adv-x="1364" 
d="M1051 690q-1 289 -87 424t-282 135t-282 -135t-87 -423t87 -422t282 -134t281 133q88 133 88 422zM1245 691q-1 -372 -141 -546t-424 -174t-422 177q-138 176 -139 542q0 366 137 544t424 179q287 0 426 -175t139 -547zM596 1648q0 -58 -24 -80q-24 -24 -86 -24t-84 29
t-21 80q-1 51 23 77t84 27t84 -25t24 -84zM991 1648q-1 -58 -25 -80q-24 -24 -86 -24t-82 29q-22 29 -22 80t24 77t84 27t84 -25t23 -84z" />
    <glyph glyph-name="multiply" unicode="&#xd7;" horiz-adv-x="1427" 
d="M1120 78l-407 407l-406 -407l-102 102l407 406l-407 407l102 101l406 -406l407 406l101 -101l-406 -407l406 -406z" />
    <glyph glyph-name="Oslash" unicode="&#xd8;" horiz-adv-x="1364" 
d="M667 1249q-354 0 -354 -532q0 -262 58 -391l565 823q-88 100 -269 100zM1051 692q0 211 -47 338l-560 -813q84 -82 238 -82q193 0 281 133t88 424zM119 691q0 365 137 543.5t426 178.5q225 0 360 -110l129 186h150l-195 -283q119 -177 119 -532q0 -703 -563 -703
q-213 0 -340 97l-125 -183h-149l184 271q-133 170 -133 535z" />
    <glyph glyph-name="Ugrave" unicode="&#xd9;" horiz-adv-x="1405" 
d="M1223 578q0 -227 -51 -358q-50 -131 -160 -191t-306 -60t-310 61t-164 193t-50 355v806h185v-786q0 -182 33 -280q32 -98 104 -142q72 -43 198 -43q126 1 199 43t105 135t32 283v790h185v-806zM707 1544l-273 361h236l178 -361h-141z" />
    <glyph glyph-name="Uacute" unicode="&#xda;" horiz-adv-x="1405" 
d="M1223 578q0 -227 -51 -358q-50 -131 -160 -191t-306 -60t-310 61t-164 193t-50 355v806h185v-786q0 -182 33 -280q32 -98 104 -142q72 -43 198 -43q126 1 199 43t105 135t32 283v790h185v-806zM748 1544h-142l178 361h236z" />
    <glyph glyph-name="Ucircumflex" unicode="&#xdb;" horiz-adv-x="1405" 
d="M1223 578q0 -227 -51 -358q-50 -131 -160 -191t-306 -60t-310 61t-164 193t-50 355v806h185v-786q0 -182 33 -280q32 -98 104 -142q72 -43 198 -43q126 1 199 43t105 135t32 283v790h185v-806zM887 1544l-184 238l-185 -238h-149l229 361h211l228 -361h-150z" />
    <glyph glyph-name="Udieresis" unicode="&#xdc;" horiz-adv-x="1405" 
d="M1223 578q0 -227 -51 -358q-50 -131 -160 -191t-306 -60t-310 61t-164 193t-50 355v806h185v-786q0 -182 33 -280q32 -98 104 -142q72 -43 198 -43q126 1 199 43t105 135t32 283v790h185v-806zM617 1648q-1 -58 -25 -80q-24 -24 -86 -24t-82 29q-22 29 -22 80t24 77
t84 27t84 -25t23 -84zM1012 1648q0 -58 -24 -80q-24 -24 -86 -24t-84 29t-21 80q-1 51 23 77t84 27t84 -25t24 -84z" />
    <glyph glyph-name="Yacute" unicode="&#xdd;" horiz-adv-x="1147" 
d="M666 0h-187v526l-438 858h209l325 -673l332 673h199l-440 -849v-535zM623 1544h-142l178 361h236z" />
    <glyph glyph-name="Thorn" unicode="&#xde;" horiz-adv-x="1182" 
d="M889 736q0 130 -71.5 197.5t-246.5 67.5h-204v-579h178q146 0 213.5 28.5t99 92t31.5 193.5zM1083 716q0 -239 -117.5 -350.5t-381.5 -111.5h-217v-254h-185v1384h185v-215h225q259 0 375 -107t116 -346z" />
    <glyph glyph-name="germandbls" unicode="&#xdf;" horiz-adv-x="1171" 
d="M958 1196q0 -283 -253 -324q174 -20 262 -130.5t88 -282.5q0 -490 -408 -490q-74 0 -190 31v162q99 -41 184 -41q127 0 181.5 87.5t54.5 229.5t-43 210.5t-122.5 99t-232.5 30.5v152q160 0 232.5 61.5t72.5 186.5q0 192 -209 192q-121 0 -177 -75t-56 -253v-1042h-172
v1034q0 261 102 373.5t290 112.5q396 0 396 -324z" />
    <glyph glyph-name="agrave" unicode="&#xe0;" horiz-adv-x="1100" 
d="M287 302q0 -96 47 -138q47 -41 143 -41q95 -1 221 99q34 28 68 54v256l-168 -16q-171 -14 -241 -66t-70 -148zM516 1079q226 0 324 -82t98 -284v-713h-172v131q-80 -70 -161 -116t-183 -46q-150 -1 -232 91t-81 218t43 196q42 72 122 114t234 59l258 23v51q0 121 -68 165
t-180 44t-170 -37t-82 -80l-141 86q99 180 391 180zM535 1208l-273 361h236l178 -361h-141z" />
    <glyph glyph-name="aacute" unicode="&#xe1;" horiz-adv-x="1100" 
d="M287 302q0 -96 47 -138q47 -41 143 -41q95 -1 221 99q34 28 68 54v256l-168 -16q-171 -14 -241 -66t-70 -148zM516 1079q226 0 324 -82t98 -284v-713h-172v131q-80 -70 -161 -116t-183 -46q-150 -1 -232 91t-81 218t43 196q42 72 122 114t234 59l258 23v51q0 121 -68 165
t-180 44t-170 -37t-82 -80l-141 86q99 180 391 180zM566 1208h-142l178 361h236z" />
    <glyph glyph-name="acircumflex" unicode="&#xe2;" horiz-adv-x="1100" 
d="M287 302q0 -96 47 -138q47 -41 143 -41q95 -1 221 99q34 28 68 54v256l-168 -16q-171 -14 -241 -66t-70 -148zM516 1079q226 0 324 -82t98 -284v-713h-172v131q-80 -70 -161 -116t-183 -46q-150 -1 -232 91t-81 218t43 196q42 72 122 114t234 59l258 23v51q0 121 -68 165
t-180 44t-170 -37t-82 -80l-141 86q99 180 391 180zM704 1208l-184 238l-185 -238h-149l229 361h211l228 -361h-150z" />
    <glyph glyph-name="atilde" unicode="&#xe3;" horiz-adv-x="1100" 
d="M287 302q0 -96 47 -138q47 -41 143 -41q95 -1 221 99q34 28 68 54v256l-168 -16q-171 -14 -241 -66t-70 -148zM516 1079q226 0 324 -82t98 -284v-713h-172v131q-80 -70 -161 -116t-183 -46q-150 -1 -232 91t-81 218t43 196q42 72 122 114t234 59l258 23v51q0 121 -68 165
t-180 44t-170 -37t-82 -80l-141 86q99 180 391 180zM385 1483q57 -1 97 -23t75 -48t66 -48t67 -23q88 0 97 129h121q-19 -262 -232 -262q-65 0 -105 22t-71 51q-30 29 -58 51t-74 22q-82 0 -91 -133h-121q6 125 68 193t161 69z" />
    <glyph glyph-name="adieresis" unicode="&#xe4;" horiz-adv-x="1100" 
d="M287 302q0 -96 47 -138q47 -41 143 -41q95 -1 221 99q34 28 68 54v256l-168 -16q-171 -14 -241 -66t-70 -148zM516 1079q226 0 324 -82t98 -284v-713h-172v131q-80 -70 -161 -116t-183 -46q-150 -1 -232 91t-81 218t43 196q42 72 122 114t234 59l258 23v51q0 121 -68 165
t-180 44t-170 -37t-82 -80l-141 86q99 180 391 180zM434 1312q0 -58 -24 -80q-24 -24 -86 -24t-84 29t-21 80q-1 51 23 77t84 27t84 -25t24 -84zM829 1312q-1 -58 -25 -80q-24 -24 -86 -24t-82 29q-22 29 -22 80t24 77t84 27t84 -25t23 -84z" />
    <glyph glyph-name="aring" unicode="&#xe5;" horiz-adv-x="1100" 
d="M287 302q0 -96 47 -138q47 -41 143 -41q95 -1 221 99q34 28 68 54v256l-168 -16q-171 -14 -241 -66t-70 -148zM516 1079q226 0 324 -82t98 -284v-713h-172v131q-80 -70 -161 -116t-183 -46q-150 -1 -232 91t-81 218t43 196q42 72 122 114t234 59l258 23v51q0 121 -68 165
t-180 44t-170 -37t-82 -80l-141 86q99 180 391 180zM618 1354q0 100 -98 100t-97 -100q-1 -100 97 -101q98 1 98 101zM718 1354q0 -90 -48 -144t-152 -53q-104 -1 -149 55q-46 56 -46 143t47 141q46 54 150 54t151 -53t47 -143z" />
    <glyph glyph-name="ae" unicode="&#xe6;" horiz-adv-x="1724" 
d="M1210 936q-127 0 -193.5 -70.5t-76.5 -226.5h512q-2 141 -58.5 219t-183.5 78zM287 297q0 -174 180 -174q82 0 161 42t163 107q-16 51 -20.5 95.5t-4.5 164.5l-168 -16q-126 -11 -218.5 -48t-92.5 -171zM1235 -31q-285 0 -391 183q-95 -81 -213 -132t-217 -51
q-140 0 -222.5 90.5t-82.5 242.5t95 238t304 107l258 23v51q0 121 -68 165t-180 44t-169.5 -37t-82.5 -80l-141 86q103 180 391 180t365 -149q103 149 319 149t318 -117.5t102 -361.5v-96h-682q0 -200 68.5 -292.5t218.5 -92.5q84 0 135 29.5t102 95.5l142 -88
q-60 -90 -144 -138.5t-225 -48.5z" />
    <glyph glyph-name="ccedilla" unicode="&#xe7;" horiz-adv-x="1030" 
d="M651 -31q164 -41 164 -197q0 -72 -68.5 -119.5t-166.5 -47.5t-168 17.5t-93 29.5l52 100q92 -33 203 -33q110 0 110 78q0 40 -42.5 68t-133.5 35l37 71q-428 22 -428 551q0 274 116 415.5t342 141.5q259 0 369 -192l-141 -86q-39 61 -91.5 95t-138.5 34
q-151 0 -214.5 -109.5t-63.5 -279.5t46 -296t239 -126q84 0 137 31.5t100 97.5l141 -86q-97 -166 -305 -189z" />
    <glyph glyph-name="egrave" unicode="&#xe8;" horiz-adv-x="1081" 
d="M809 639q-4 297 -243 297q-126 0 -188 -70t-81 -227h512zM569 1079q408 0 408 -479v-96h-682q0 -208 71 -296t228 -89q70 -1 123 29t102 96l142 -88q-60 -90 -146 -138t-233 -49q-465 0 -465 547q1 288 113 426t339 137zM553 1208l-273 361h236l178 -361h-141z" />
    <glyph glyph-name="eacute" unicode="&#xe9;" horiz-adv-x="1081" 
d="M809 639q-4 297 -243 297q-126 0 -188 -70t-81 -227h512zM569 1079q408 0 408 -479v-96h-682q0 -208 71 -296t228 -89q70 -1 123 29t102 96l142 -88q-60 -90 -146 -138t-233 -49q-465 0 -465 547q1 288 113 426t339 137zM586 1208h-142l178 361h236z" />
    <glyph glyph-name="ecircumflex" unicode="&#xea;" horiz-adv-x="1081" 
d="M809 639q-4 297 -243 297q-126 0 -188 -70t-81 -227h512zM569 1079q408 0 408 -479v-96h-682q0 -208 71 -296t228 -89q70 -1 123 29t102 96l142 -88q-60 -90 -146 -138t-233 -49q-465 0 -465 547q1 288 113 426t339 137zM743 1208l-184 238l-185 -238h-149l229 361h211
l228 -361h-150z" />
    <glyph glyph-name="edieresis" unicode="&#xeb;" horiz-adv-x="1081" 
d="M809 639q-4 297 -243 297q-126 0 -188 -70t-81 -227h512zM569 1079q408 0 408 -479v-96h-682q0 -208 71 -296t228 -89q70 -1 123 29t102 96l142 -88q-60 -90 -146 -138t-233 -49q-465 0 -465 547q1 288 113 426t339 137zM473 1312q-1 -58 -25 -80q-24 -24 -86 -24t-82 29
q-22 29 -22 80t24 77t84 27t84 -25t23 -84zM868 1312q0 -58 -24 -80q-24 -24 -86 -24t-84 29t-21 80q-1 51 23 77t84 27t84 -25t24 -84z" />
    <glyph glyph-name="igrave" unicode="&#xec;" horiz-adv-x="512" 
d="M242 1208l-273 361h236l178 -361h-141zM170 0v1049h172v-1049h-172z" />
    <glyph glyph-name="iacute" unicode="&#xed;" horiz-adv-x="512" 
d="M283 1208h-142l178 361h236zM170 0v1049h172v-1049h-172z" />
    <glyph glyph-name="icircumflex" unicode="&#xee;" horiz-adv-x="512" 
d="M170 0v1049h172v-1049h-172zM442 1208l-184 238l-185 -238h-149l229 361h211l228 -361h-150z" />
    <glyph glyph-name="idieresis" unicode="&#xef;" horiz-adv-x="512" 
d="M152 1312q0 -58 -24 -80q-24 -24 -86 -24t-84 29t-21 80q-1 51 23 77t84 27t84 -25t24 -84zM547 1312q-1 -58 -25 -80q-24 -24 -86 -24t-82 29q-22 29 -22 80t24 77t84 27t84 -25t23 -84zM170 0v1049h172v-1049h-172z" />
    <glyph glyph-name="eth" unicode="&#xf0;" horiz-adv-x="1157" 
d="M862 508q0 204 -70 297.5t-216 93.5t-213.5 -92.5t-67.5 -294.5t69.5 -297.5t213.5 -95.5t214 92.5t70 296.5zM1040 510q0 -264 -117 -402.5t-344 -138.5t-344.5 138.5t-117.5 396.5t110.5 401.5t311.5 143.5q126 0 235 -80q-20 65 -81 159t-136 168l-195 -112l-53 84
l183 104q-73 84 -175 148h166q80 -47 117 -84l148 84l57 -82l-125 -72q360 -360 360 -856z" />
    <glyph glyph-name="ntilde" unicode="&#xf1;" horiz-adv-x="1163" 
d="M829 0v618q0 150 -15 200t-49 72q-33 22 -99 23q-66 0 -154 -50t-170 -122v-741h-172v1049h172v-156q73 73 170 129t195 57q152 -1 223 -87t71 -292v-700h-172zM448 1483q56 -1 96 -23t76 -48q35 -26 66 -48t67 -23q88 0 97 129h121q-19 -262 -232 -262q-65 0 -105 22
t-71 51t-59 51t-73 22q-82 0 -91 -133h-121q5 125 67 193t162 69z" />
    <glyph glyph-name="ograve" unicode="&#xf2;" horiz-adv-x="1157" 
d="M862 526q0 210 -70 307t-214 97q-143 0 -213 -98t-70 -306q-1 -209 67 -308t214 -99t216 98q70 99 70 309zM1040 524q0 -274 -118 -415q-118 -140 -342 -140q-225 1 -344 139t-119 416q-1 278 119 417q120 138 345 138q225 -1 342 -141t117 -414zM559 1208l-273 361h236
l178 -361h-141z" />
    <glyph glyph-name="oacute" unicode="&#xf3;" horiz-adv-x="1157" 
d="M862 526q0 210 -70 307t-214 97q-143 0 -213 -98t-70 -306q-1 -209 67 -308t214 -99t216 98q70 99 70 309zM1040 524q0 -274 -118 -415q-118 -140 -342 -140q-225 1 -344 139t-119 416q-1 278 119 417q120 138 345 138q225 -1 342 -141t117 -414zM596 1208h-142l178 361
h236z" />
    <glyph glyph-name="ocircumflex" unicode="&#xf4;" horiz-adv-x="1157" 
d="M862 526q0 210 -70 307t-214 97q-143 0 -213 -98t-70 -306q-1 -209 67 -308t214 -99t216 98q70 99 70 309zM1040 524q0 -274 -118 -415q-118 -140 -342 -140q-225 1 -344 139t-119 416q-1 278 119 417q120 138 345 138q225 -1 342 -141t117 -414zM764 1208l-184 238
l-185 -238h-149l229 361h211l228 -361h-150z" />
    <glyph glyph-name="otilde" unicode="&#xf5;" horiz-adv-x="1157" 
d="M862 526q0 210 -70 307t-214 97q-143 0 -213 -98t-70 -306q-1 -209 67 -308t214 -99t216 98q70 99 70 309zM1040 524q0 -274 -118 -415q-118 -140 -342 -140q-225 1 -344 139t-119 416q-1 278 119 417q120 138 345 138q225 -1 342 -141t117 -414zM432 1483q56 -1 96 -23
t76 -48q35 -26 66 -48t67 -23q88 0 97 129h121q-19 -262 -232 -262q-65 0 -105 22t-71 51t-59 51t-73 22q-82 0 -91 -133h-121q5 125 67 193t162 69z" />
    <glyph glyph-name="odieresis" unicode="&#xf6;" horiz-adv-x="1157" 
d="M862 526q0 210 -70 307t-214 97q-143 0 -213 -98t-70 -306q-1 -209 67 -308t214 -99t216 98q70 99 70 309zM1040 524q0 -274 -118 -415q-118 -140 -342 -140q-225 1 -344 139t-119 416q-1 278 119 417q120 138 345 138q225 -1 342 -141t117 -414zM494 1312q0 -58 -24 -80
q-24 -24 -86 -24t-84 29t-21 80q-1 51 23 77t84 27t84 -25t24 -84zM889 1312q-1 -58 -25 -80q-24 -24 -86 -24t-82 29q-22 29 -22 80t24 77t84 27t84 -25t23 -84z" />
    <glyph glyph-name="divide" unicode="&#xf7;" horiz-adv-x="1427" 
d="M623 43v180h180v-180h-180zM164 514v143h1100v-143h-1100zM623 948v180h180v-180h-180z" />
    <glyph glyph-name="oslash" unicode="&#xf8;" horiz-adv-x="1157" 
d="M580 119q282 1 282 379q0 182 -37 272l-415 -602q63 -49 170 -49zM580 930q-285 0 -285 -384q0 -188 41 -282l420 608q-68 58 -176 58zM117 526q0 276 119.5 414.5t343.5 138.5q161 0 268 -71l80 116h141l-137 -198q108 -145 108 -411t-117.5 -406t-342.5 -140
q-158 0 -261 66l-75 -111h-142l129 189q-114 137 -114 413z" />
    <glyph glyph-name="ugrave" unicode="&#xf9;" horiz-adv-x="1163" 
d="M821 156q-187 -187 -371 -187q-200 1 -258 159q-30 80 -30 220v701h172v-619q0 -150 16 -200t49 -72q34 -22 99 -23q65 1 153 51t170 121v742h172v-1049h-172v156zM576 1208l-273 361h236l178 -361h-141z" />
    <glyph glyph-name="uacute" unicode="&#xfa;" horiz-adv-x="1163" 
d="M821 156q-187 -187 -371 -187q-200 1 -258 159q-30 80 -30 220v701h172v-619q0 -150 16 -200t49 -72q34 -22 99 -23q65 1 153 51t170 121v742h172v-1049h-172v156zM609 1208h-142l178 361h236z" />
    <glyph glyph-name="ucircumflex" unicode="&#xfb;" horiz-adv-x="1163" 
d="M821 156q-187 -187 -371 -187q-200 1 -258 159q-30 80 -30 220v701h172v-619q0 -150 16 -200t49 -72q34 -22 99 -23q65 1 153 51t170 121v742h172v-1049h-172v156zM766 1208l-184 238l-185 -238h-149l229 361h211l228 -361h-150z" />
    <glyph glyph-name="udieresis" unicode="&#xfc;" horiz-adv-x="1163" 
d="M821 156q-187 -187 -371 -187q-200 1 -258 159q-30 80 -30 220v701h172v-619q0 -150 16 -200t49 -72q34 -22 99 -23q65 1 153 51t170 121v742h172v-1049h-172v156zM492 1312q0 -58 -24 -80q-24 -24 -86 -24t-84 29t-21 80q-1 51 23 77t84 27t84 -25t24 -84zM887 1312
q-1 -58 -25 -80q-24 -24 -86 -24t-82 29q-22 29 -22 80t24 77t84 27t84 -25t23 -84z" />
    <glyph glyph-name="yacute" unicode="&#xfd;" horiz-adv-x="1040" 
d="M190 -252q121 0 205 219l35 90l-383 992h186l289 -768l291 768h180l-448 -1129q-71 -173 -152 -244t-198 -71t-199 30l43 142q65 -29 151 -29zM547 1208h-142l178 361h236z" />
    <glyph glyph-name="thorn" unicode="&#xfe;" horiz-adv-x="1174" 
d="M629 926q-147 0 -287 -135v-555q134 -113 260 -113t201.5 98t75.5 307q0 398 -250 398zM1057 535q0 -261 -112.5 -413.5t-309.5 -152.5q-157 0 -293 117v-481h-172v1884h172v-545q59 57 142 96t178 39q187 0 291 -141.5t104 -402.5z" />
    <glyph glyph-name="ydieresis" unicode="&#xff;" horiz-adv-x="1040" 
d="M190 -252q121 0 205 219l35 90l-383 992h186l289 -768l291 768h180l-448 -1129q-71 -173 -152 -244t-198 -71t-199 30l43 142q65 -29 151 -29zM436 1312q0 -58 -24 -80q-24 -24 -86 -24t-84 29t-21 80q-1 51 23 77t84 27t84 -25t24 -84zM831 1312q-1 -58 -25 -80
q-24 -24 -86 -24t-82 29q-22 29 -22 80t24 77t84 27t84 -25t23 -84z" />
    <glyph glyph-name="Amacron" unicode="&#x100;" horiz-adv-x="1288" 
d="M414 528h450l-225 674zM51 0l473 1384h240l473 -1384h-195l-120 360h-564l-118 -360h-189zM340 1591v140h610v-140h-610z" />
    <glyph glyph-name="amacron" unicode="&#x101;" horiz-adv-x="1100" 
d="M287 302q0 -96 47 -138q47 -41 143 -41q95 -1 221 99q34 28 68 54v256l-168 -16q-171 -14 -241 -66t-70 -148zM516 1079q226 0 324 -82t98 -284v-713h-172v131q-80 -70 -161 -116t-183 -46q-150 -1 -232 91t-81 218t43 196q42 72 122 114t234 59l258 23v51q0 121 -68 165
t-180 44t-170 -37t-82 -80l-141 86q99 180 391 180zM226 1255v140h610v-140h-610z" />
    <glyph glyph-name="Abreve" unicode="&#x102;" horiz-adv-x="1288" 
d="M414 528h450l-225 674zM51 0l473 1384h240l473 -1384h-195l-120 360h-564l-118 -360h-189zM643 1679q102 1 147 31t57 94h127q0 -124 -86 -204t-240 -79q-154 0 -242 81q-87 81 -87 202h127q27 -125 197 -125z" />
    <glyph glyph-name="abreve" unicode="&#x103;" horiz-adv-x="1100" 
d="M287 302q0 -96 47 -138q47 -41 143 -41q95 -1 221 99q34 28 68 54v256l-168 -16q-171 -14 -241 -66t-70 -148zM516 1079q226 0 324 -82t98 -284v-713h-172v131q-80 -70 -161 -116t-183 -46q-150 -1 -232 91t-81 218t43 196q42 72 122 114t234 59l258 23v51q0 121 -68 165
t-180 44t-170 -37t-82 -80l-141 86q99 180 391 180zM531 1364q102 0 147 30t57 95h127q0 -123 -86 -203t-240 -80t-242 81q-87 81 -87 202h127q27 -125 197 -125z" />
    <glyph glyph-name="Aogonek" unicode="&#x104;" horiz-adv-x="1288" 
d="M414 528h450l-225 674zM842 -211q0 153 190 240l-110 331h-564l-118 -360h-189l473 1384h240l473 -1384q-128 -40 -191 -82t-63 -102q0 -72 60.5 -72t136.5 39l55 -109q-108 -69 -198 -69q-91 0 -143 45.5t-52 138.5z" />
    <glyph glyph-name="aogonek" unicode="&#x105;" horiz-adv-x="1100" 
d="M287 302q0 -96 47 -137.5t143 -41.5t176 63.5t113 89.5v256l-168 -16q-171 -15 -241 -66.5t-70 -147.5zM543 -211q0 164 223 254v88q-80 -70 -161 -116t-183 -46q-150 0 -231.5 91.5t-81.5 217.5t42.5 197t123 112.5t233.5 59.5l258 23v51q0 121 -68 165t-180 44
t-169.5 -37t-82.5 -80l-141 86q99 180 391 180q226 0 324 -82t98 -284v-713q-128 -40 -191 -82t-63 -102q0 -72 60.5 -72t136.5 39l55 -109q-108 -69 -198 -69q-91 0 -143 45.5t-52 138.5z" />
    <glyph glyph-name="Cacute" unicode="&#x106;" horiz-adv-x="1321" 
d="M129 692q1 362 147 541q146 180 451 180q237 -1 377 -113q66 -52 119 -147l-152 -100q-44 75 -89 113q-98 84 -255 83q-207 -1 -305 -139t-98 -416t96 -418t309 -141q118 1 205 47t156 160l153 -100q-67 -106 -135 -160q-139 -111 -373 -111q-311 -1 -459 179t-147 542z
M729 1544h-142l178 361h236z" />
    <glyph glyph-name="cacute" unicode="&#x107;" horiz-adv-x="1030" 
d="M582 -31q-465 0 -465 553q0 274 116 416t342 141q259 0 369 -192l-141 -86q-39 61 -91 95t-139 34q-151 0 -215 -110t-63 -279q0 -170 30 -252q62 -170 255 -170q84 -1 137 31t100 98l141 -86q-49 -84 -136 -138t-240 -55zM594 1208h-142l178 361h236z" />
    <glyph glyph-name="Ccircumflex" unicode="&#x108;" horiz-adv-x="1321" 
d="M129 692q1 362 147 541q146 180 451 180q237 -1 377 -113q66 -52 119 -147l-152 -100q-44 75 -89 113q-98 84 -255 83q-207 -1 -305 -139t-98 -416t96 -418t309 -141q118 1 205 47t156 160l153 -100q-67 -106 -135 -160q-139 -111 -373 -111q-311 -1 -459 179t-147 542z
M909 1544l-184 238l-185 -238h-149l229 361h211l228 -361h-150z" />
    <glyph glyph-name="ccircumflex" unicode="&#x109;" horiz-adv-x="1030" 
d="M582 -31q-465 0 -465 553q0 274 116 416t342 141q259 0 369 -192l-141 -86q-39 61 -91 95t-139 34q-151 0 -215 -110t-63 -279q0 -170 30 -252q62 -170 255 -170q84 -1 137 31t100 98l141 -86q-49 -84 -136 -138t-240 -55zM766 1208l-184 238l-185 -238h-149l229 361h211
l228 -361h-150z" />
    <glyph glyph-name="Cdotaccent" unicode="&#x10a;" horiz-adv-x="1321" 
d="M129 692q1 362 147 541q146 180 451 180q237 -1 377 -113q66 -52 119 -147l-152 -100q-44 75 -89 113q-98 84 -255 83q-207 -1 -305 -139t-98 -416t96 -418t309 -141q118 1 205 47t156 160l153 -100q-67 -106 -135 -160q-139 -111 -373 -111q-311 -1 -459 179t-147 542z
M821 1657q-1 -61 -27 -87t-92 -26t-90 31q-22 31 -22 87t24 84t90 28t92 -28t25 -89z" />
    <glyph glyph-name="cdotaccent" unicode="&#x10b;" horiz-adv-x="1030" 
d="M582 -31q-465 0 -465 553q0 274 116 416t342 141q259 0 369 -192l-141 -86q-39 61 -91 95t-139 34q-151 0 -215 -110t-63 -279q0 -170 30 -252q62 -170 255 -170q84 -1 137 31t100 98l141 -86q-49 -84 -136 -138t-240 -55zM694 1321q0 -61 -26 -87t-94 -26q-66 0 -88 31
t-23 87q1 56 25 84t90 28t90 -28q26 -28 26 -89z" />
    <glyph glyph-name="Ccaron" unicode="&#x10c;" horiz-adv-x="1321" 
d="M129 692q1 362 147 541q146 180 451 180q237 -1 377 -113q66 -52 119 -147l-152 -100q-44 75 -89 113q-98 84 -255 83q-207 -1 -305 -139t-98 -416t96 -418t309 -141q118 1 205 47t156 160l153 -100q-67 -106 -135 -160q-139 -111 -373 -111q-311 -1 -459 179t-147 542z
M809 1544h-211l-227 361h149l185 -238l184 238h150z" />
    <glyph glyph-name="ccaron" unicode="&#x10d;" horiz-adv-x="1030" 
d="M582 -31q-465 0 -465 553q0 274 116 416t342 141q259 0 369 -192l-141 -86q-39 61 -91 95t-139 34q-151 0 -215 -110t-63 -279q0 -170 30 -252q62 -170 255 -170q84 -1 137 31t100 98l141 -86q-49 -84 -136 -138t-240 -55zM682 1208h-211l-227 361h149l185 -238l184 238
h150z" />
    <glyph glyph-name="Dcaron" unicode="&#x10e;" horiz-adv-x="1292" 
d="M979 692q0 200 -44 312t-145 162t-282 51h-154v-1049h154q182 0 282 50t144 162q45 112 45 312zM1174 690q0 -252 -66 -402t-202 -219t-384 -69h-352v1384h348q242 0 382 -70t207 -220q67 -152 67 -404zM721 1544h-211l-227 361h149l185 -238l184 238h150z" />
    <glyph glyph-name="dcaron" unicode="&#x10f;" horiz-adv-x="1251" 
d="M545 123q146 0 286 135v555q-137 113 -262 113t-199.5 -98.5t-74.5 -307.5q0 -397 250 -397zM831 0v104q-59 -57 -142 -96t-177 -39q-189 0 -292 142.5t-103 402.5t112 412.5t310 152.5q159 0 292 -116v526h173v-1489h-173zM1202 1128h-119l64 361h215z" />
    <glyph glyph-name="Dcroat" unicode="&#x110;" horiz-adv-x="1378" 
d="M1055 694q0 292 -115 408t-401 115h-172v-449h335v-141h-335v-459h172q198 0 307 50t159 164t50 312zM1249 688q0 -250 -70 -400t-217 -219t-413 -69h-367v627h-119v141h119v616h365q261 0 411 -70t220 -223q71 -153 71 -403z" />
    <glyph glyph-name="dcroat" unicode="&#x111;" horiz-adv-x="1174" 
d="M545 123q146 0 286 135v555q-137 113 -262 113t-199.5 -98.5t-74.5 -307.5q0 -397 250 -397zM831 0v104q-59 -57 -142 -96t-177 -39q-189 0 -292 142.5t-103 402.5t112 412.5t310 152.5q159 0 292 -116v231h-301v139h301v156h173v-156h137v-139h-137v-1194h-173z" />
    <glyph glyph-name="Emacron" unicode="&#x112;" horiz-adv-x="1153" 
d="M182 0v1384h846v-167h-661v-404h565v-168h-565v-477h661v-168h-846zM304 1591v140h610v-140h-610z" />
    <glyph glyph-name="emacron" unicode="&#x113;" horiz-adv-x="1081" 
d="M809 639q-4 297 -243 297q-126 0 -188 -70t-81 -227h512zM569 1079q408 0 408 -479v-96h-682q0 -208 71 -296t228 -89q70 -1 123 29t102 96l142 -88q-60 -90 -146 -138t-233 -49q-465 0 -465 547q1 288 113 426t339 137zM285 1255v140h610v-140h-610z" />
    <glyph glyph-name="Ebreve" unicode="&#x114;" horiz-adv-x="1153" 
d="M182 0v1384h846v-167h-661v-404h565v-168h-565v-477h661v-168h-846zM643 1700q102 0 147 30t57 95h127q0 -123 -86 -203t-240 -80t-242 81q-87 81 -87 202h127q27 -125 197 -125z" />
    <glyph glyph-name="ebreve" unicode="&#x115;" horiz-adv-x="1081" 
d="M809 639q-4 297 -243 297q-126 0 -188 -70t-81 -227h512zM569 1079q408 0 408 -479v-96h-682q0 -208 71 -296t228 -89q70 -1 123 29t102 96l142 -88q-60 -90 -146 -138t-233 -49q-465 0 -465 547q1 288 113 426t339 137zM901 1489q0 -123 -86 -203q-87 -80 -241 -80
t-241 81t-87 202h127q27 -125 197 -125q102 0 147 30t57 95h127z" />
    <glyph glyph-name="Edotaccent" unicode="&#x116;" horiz-adv-x="1153" 
d="M182 0v1384h846v-167h-661v-404h565v-168h-565v-477h661v-168h-846zM714 1657q0 -61 -26 -87t-94 -26q-66 0 -88 31t-23 87q1 56 25 84t90 28t90 -28q26 -28 26 -89z" />
    <glyph glyph-name="edotaccent" unicode="&#x117;" horiz-adv-x="1081" 
d="M809 639q-4 297 -243 297q-126 0 -188 -70t-81 -227h512zM569 1079q408 0 408 -479v-96h-682q0 -208 71 -296t228 -89q70 -1 123 29t102 96l142 -88q-60 -90 -146 -138t-233 -49q-465 0 -465 547q1 288 113 426t339 137zM675 1321q-1 -61 -27 -87t-92 -26t-90 31
q-22 31 -22 87t24 84t90 28t92 -28t25 -89z" />
    <glyph glyph-name="Eogonek" unicode="&#x118;" horiz-adv-x="1153" 
d="M633 -211q0 127 137 211h-588v1384h846v-167h-661v-404h565v-168h-565v-477h661v-168q-131 -41 -192.5 -83.5t-61.5 -100.5q0 -72 60.5 -72t136.5 39l55 -109q-108 -69 -199 -69q-92 0 -143 47.5t-51 136.5z" />
    <glyph glyph-name="eogonek" unicode="&#x119;" horiz-adv-x="1081" 
d="M809 639q-4 297 -243 297q-126 0 -187.5 -70.5t-81.5 -226.5h512zM569 1079q408 0 408 -479v-96h-682q0 -208 71 -296.5t228 -88.5q70 0 123 29.5t102 95.5l142 -88q-42 -62 -74 -88q-162 -160 -162 -263q0 -61 74 -61q47 0 123 39l55 -109q-108 -69 -192 -69
q-85 0 -143 39.5t-58 115.5t21 120t69 93q-38 -4 -78 -4q-240 0 -359.5 133.5t-119.5 417.5t112.5 421.5t339.5 137.5z" />
    <glyph glyph-name="Ecaron" unicode="&#x11a;" horiz-adv-x="1153" 
d="M182 0v1384h846v-167h-661v-404h565v-168h-565v-477h661v-168h-846zM682 1544h-211l-227 361h149l185 -238l184 238h150z" />
    <glyph glyph-name="ecaron" unicode="&#x11b;" horiz-adv-x="1081" 
d="M809 639q-4 297 -243 297q-126 0 -188 -70t-81 -227h512zM569 1079q408 0 408 -479v-96h-682q0 -208 71 -296t228 -89q70 -1 123 29t102 96l142 -88q-60 -90 -146 -138t-233 -49q-465 0 -465 547q1 288 113 426t339 137zM663 1208h-211l-227 361h149l185 -238l184 238
h150z" />
    <glyph glyph-name="Gcircumflex" unicode="&#x11c;" horiz-adv-x="1391" 
d="M129 690q0 723 600 723q169 0 293 -60t203 -200l-150 -102q-49 90 -130 144t-218 54q-209 0 -306 -138t-97 -426t105 -419t312 -131q132 0 297 72v328h-336v167h521v-596q-113 -63 -225 -99t-257 -36q-312 0 -462 179t-150 540zM909 1544l-184 238l-185 -238h-149
l229 361h211l228 -361h-150z" />
    <glyph glyph-name="gcircumflex" unicode="&#x11d;" horiz-adv-x="1174" 
d="M562 926q-132 0 -200 -102t-67 -294q0 -376 250 -376q144 0 286 135v524q-137 113 -269 113zM117 533q0 258 113 402t309 144q159 0 292 -116v86h173v-1026q0 -211 -104 -315t-342 -103q-236 0 -386 98l64 139q136 -94 300 -94t230 62t65 202v123q-140 -135 -326 -135
t-287 138t-101 395zM776 1208l-184 238l-185 -238h-149l229 361h211l228 -361h-150z" />
    <glyph glyph-name="Gbreve" unicode="&#x11e;" horiz-adv-x="1391" 
d="M129 690q0 723 600 723q169 0 293 -60t203 -200l-150 -102q-49 90 -130 144t-218 54q-209 0 -306 -138t-97 -426t105 -419t312 -131q132 0 297 72v328h-336v167h521v-596q-113 -63 -225 -99t-257 -36q-312 0 -462 179t-150 540zM1056 1825q0 -123 -86 -203t-240 -80
t-242 81q-87 81 -87 202h127q27 -125 197 -125q102 0 147 30t57 95h127z" />
    <glyph glyph-name="gbreve" unicode="&#x11f;" horiz-adv-x="1174" 
d="M562 926q-132 0 -200 -102t-67 -294q0 -376 250 -376q144 0 286 135v524q-137 113 -269 113zM117 533q0 258 113 402t309 144q159 0 292 -116v86h173v-1026q0 -211 -104 -315t-342 -103q-236 0 -386 98l64 139q136 -94 300 -94t230 62t65 202v123q-140 -135 -326 -135
t-287 138t-101 395zM888 1489q0 -123 -86 -203t-240 -80t-242 81q-87 81 -87 202h127q27 -125 197 -125q102 0 147 30t57 95h127z" />
    <glyph glyph-name="Gdotaccent" unicode="&#x120;" horiz-adv-x="1391" 
d="M129 690q0 723 600 723q169 0 293 -60t203 -200l-150 -102q-49 90 -130 144t-218 54q-209 0 -306 -138t-97 -426t105 -419t312 -131q132 0 297 72v328h-336v167h521v-596q-113 -63 -225 -99t-257 -36q-312 0 -462 179t-150 540zM825 1657q-1 -61 -27 -87t-92 -26t-90 31
q-22 31 -22 87t24 84t90 28t92 -28t25 -89z" />
    <glyph glyph-name="gdotaccent" unicode="&#x121;" horiz-adv-x="1174" 
d="M562 926q-132 0 -200 -102t-67 -294q0 -376 250 -376q144 0 286 135v524q-137 113 -269 113zM117 533q0 258 113 402t309 144q159 0 292 -116v86h173v-1026q0 -211 -104 -315t-342 -103q-236 0 -386 98l64 139q136 -94 300 -94t230 62t65 202v123q-140 -135 -326 -135
t-287 138t-101 395zM673 1321q-1 -61 -27 -87t-92 -26t-90 31q-22 31 -22 87t24 84t90 28t92 -28t25 -89z" />
    <glyph glyph-name="Gcommaaccent" unicode="&#x122;" horiz-adv-x="1391" 
d="M129 690q0 723 600 723q169 0 293 -60t203 -200l-150 -102q-49 90 -130 144t-218 54q-209 0 -306 -138t-97 -426t105 -419t312 -131q132 0 297 72v328h-336v167h521v-596q-113 -63 -225 -99t-257 -36q-312 0 -462 179t-150 540zM631 -258q0 115 118 115q65 0 95 -33
t30 -111t-36 -138t-72 -105h-105q29 38 55 79t27 82q-59 0 -85 26t-27 85z" />
    <glyph glyph-name="gcommaaccent" unicode="&#x123;" horiz-adv-x="1174" 
d="M562 926q-132 0 -200 -102t-67 -294q0 -376 250 -376q144 0 286 135v524q-137 113 -269 113zM117 533q0 258 113 402t309 144q159 0 292 -116v86h173v-1026q0 -211 -104 -315t-342 -103q-236 0 -386 98l64 139q136 -94 300 -94t230 62t65 202v123q-140 -135 -326 -135
t-287 138t-101 395zM557 1165q-125 -1 -125 129q0 64 22 122t86 136h105q-29 -40 -55 -80t-27 -81q59 0 85 -26t27 -85q0 -115 -118 -115z" />
    <glyph glyph-name="Hcircumflex" unicode="&#x124;" horiz-adv-x="1364" 
d="M997 0v633h-630v-633h-185v1384h185v-583h630v583h185v-1384h-185zM870 1544l-184 238l-185 -238h-149l229 361h211l228 -361h-150z" />
    <glyph glyph-name="hcircumflex" unicode="&#x125;" horiz-adv-x="1163" 
d="M829 0v618q-1 150 -15 200t-48 72q-34 23 -100 23t-154 -50t-170 -122v-741h-172v1489h172v-596q73 73 170 129t195 57q152 -1 223 -87t71 -292v-700h-172zM815 1544l-184 238l-185 -238h-149l229 361h211l228 -361h-150z" />
    <glyph glyph-name="Hbar" unicode="&#x126;" horiz-adv-x="1364" 
d="M997 801v221h-630v-221h630zM997 0v633h-630v-633h-185v1022h-151v143h151v219h185v-219h630v219h185v-219h151v-143h-151v-1022h-185z" />
    <glyph glyph-name="hbar" unicode="&#x127;" horiz-adv-x="1163" 
d="M829 0v618q0 150 -14.5 199.5t-48.5 72.5t-100 23t-154 -50t-170 -122v-741h-172v1194h-168v139h168v156h172v-156h270v-139h-270v-301q73 73 170 129.5t195 56.5q152 0 223 -86.5t71 -292.5v-700h-172z" />
    <glyph glyph-name="Itilde" unicode="&#x128;" horiz-adv-x="770" 
d="M668 0h-566v160h191v1067h-191v157h566v-157h-191v-1067h191v-160zM239 1819q57 -1 97 -23t75 -48t66 -48t67 -23q88 0 97 129h121q-19 -262 -232 -262q-65 0 -105 22t-71 51q-30 29 -58 51t-74 22q-82 0 -91 -133h-121q6 125 68 193t161 69z" />
    <glyph glyph-name="itilde" unicode="&#x129;" horiz-adv-x="512" 
d="M112 1483q56 -1 96 -23t76 -48q35 -26 66 -48t67 -23q88 0 97 129h121q-19 -262 -232 -262q-65 0 -105 22t-71 51t-59 51t-73 22q-82 0 -91 -133h-121q5 125 67 193t162 69zM170 0v1049h172v-1049h-172z" />
    <glyph glyph-name="Imacron" unicode="&#x12a;" horiz-adv-x="770" 
d="M668 0h-566v160h191v1067h-191v157h566v-157h-191v-1067h191v-160zM88 1591v140h610v-140h-610z" />
    <glyph glyph-name="imacron" unicode="&#x12b;" horiz-adv-x="512" 
d="M-47 1255v140h610v-140h-610zM170 0v1049h172v-1049h-172z" />
    <glyph glyph-name="Ibreve" unicode="&#x12c;" horiz-adv-x="770" 
d="M668 0h-566v160h191v1067h-191v157h566v-157h-191v-1067h191v-160zM716 1825q0 -123 -86 -203t-240 -80t-242 81q-87 81 -87 202h127q27 -125 197 -125q102 0 147 30t57 95h127z" />
    <glyph glyph-name="ibreve" unicode="&#x12d;" horiz-adv-x="512" 
d="M585 1489q0 -123 -86 -203q-87 -80 -241 -80t-241 81t-87 202h127q27 -125 197 -125q102 0 147 30t57 95h127zM170 0v1049h172v-1049h-172z" />
    <glyph glyph-name="Iogonek" unicode="&#x12e;" horiz-adv-x="770" 
d="M272 -211q0 127 138 211h-308v160h191v1067h-191v157h566v-157h-191v-1067h191v-160q-131 -41 -192.5 -82.5t-61.5 -101.5q0 -72 73 -72q50 0 123 39l56 -109q-110 -69 -201 -69t-142 47t-51 137z" />
    <glyph glyph-name="iogonek" unicode="&#x12f;" horiz-adv-x="512" 
d="M369 1312q0 -58 -27 -79t-88 -21t-85 27t-24 78t26 75.5t86 24.5t86 -23.5t26 -81.5zM-12 -220q0 163 182 249v1020h172v-1049q-111 -33 -162 -86t-51 -98q0 -72 60.5 -72t136.5 39l55 -109q-108 -69 -198 -69q-91 0 -143 45.5t-52 129.5z" />
    <glyph glyph-name="Idotaccent" unicode="&#x130;" horiz-adv-x="770" 
d="M668 0h-566v160h191v1067h-191v157h566v-157h-191v-1067h191v-160zM507 1657q-1 -61 -27 -87t-92 -26t-90 31q-22 31 -22 87t24 84t90 28t92 -28t25 -89z" />
    <glyph glyph-name="dotlessi" unicode="&#x131;" horiz-adv-x="512" 
d="M170 0v1049h172v-1049h-172z" />
    <glyph glyph-name="IJ" unicode="&#x132;" horiz-adv-x="1593" 
d="M668 0h-566v160h191v1067h-191v157h566v-157h-191v-1067h191v-160zM1409 377q0 -203 -89 -305t-300 -103q-137 0 -260 51l68 158q32 -16 92 -30t120 -15q60 0 103 28q44 29 63 93t19 199v931h184v-1007z" />
    <glyph glyph-name="ij" unicode="&#x133;" horiz-adv-x="1049" 
d="M170 0v1049h172v-1049h-172zM369 1312q0 -58 -27 -78q-27 -22 -88 -22t-85 27t-24 78t26 75t86 25t86 -23t26 -82zM868 -45q0 -190 -74 -270t-239 -80q-100 0 -188 30l43 142q73 -29 154 -29q80 0 106 58t26 169v1074h172v-1094zM895 1312q-1 -58 -27 -78
q-26 -22 -88 -22t-84 27q-24 27 -24 78t26 75t86 25t86 -23t25 -82z" />
    <glyph glyph-name="Jcircumflex" unicode="&#x134;" horiz-adv-x="885" 
d="M700 377q0 -203 -89 -305t-300 -103q-137 0 -260 51l68 158q32 -16 92 -30q59 -14 119 -15q60 0 104 28q44 29 63 93t19 199v931h184v-1007zM793 1544l-184 238l-185 -238h-149l229 361h211l228 -361h-150z" />
    <glyph glyph-name="jcircumflex" unicode="&#x135;" horiz-adv-x="537" 
d="M358 -45q0 -190 -74 -270t-239 -80q-100 0 -188 30l43 142q73 -29 154 -29q80 0 106 58t26 169v1074h172v-1094zM461 1208l-184 238l-185 -238h-149l229 361h211l228 -361h-150z" />
    <glyph glyph-name="Kcommaaccent" unicode="&#x136;" horiz-adv-x="1264" 
d="M367 0h-185v1384h185v-679l585 679h230l-566 -636l594 -748h-235l-477 614l-131 -147v-467zM508 -258q0 115 118 115q66 0 96 -33t29 -111q1 -78 -35 -138t-73 -105h-105q30 38 56 79t26 82q-60 0 -86 26t-26 85z" />
    <glyph glyph-name="kcommaaccent" unicode="&#x137;" horiz-adv-x="1049" 
d="M342 0h-172v1489h172v-930l426 490h211l-418 -459l440 -590h-213l-333 471l-113 -125v-346zM402 -258q0 115 118 115q66 0 96 -33t29 -111q1 -78 -35 -138t-73 -105h-105q30 38 56 79t26 82q-60 0 -86 26t-26 85z" />
    <glyph glyph-name="kgreenlandic" unicode="&#x138;" horiz-adv-x="1049" 
d="M342 0h-172v1047h172v-488l377 434q51 69 123 71t141 -15l-47 -142q-20 8 -44 8t-36 -8t-27 -22l-268 -295l440 -590h-213l-333 471l-113 -125v-346z" />
    <glyph glyph-name="Lacute" unicode="&#x139;" horiz-adv-x="1038" 
d="M182 0v1384h185v-1216h626v-168h-811zM551 1544h-142l178 361h236z" />
    <glyph glyph-name="lacute" unicode="&#x13a;" horiz-adv-x="528" 
d="M178 0v1489h172v-1489h-172zM281 1546h-142l178 361h236z" />
    <glyph glyph-name="Lcommaaccent" unicode="&#x13b;" horiz-adv-x="1038" 
d="M182 0v1384h185v-1216h626v-168h-811zM486 -258q0 115 118 115q66 0 96 -33t29 -111q1 -78 -35 -138t-73 -105h-105q30 38 56 79t26 82q-60 0 -86 26t-26 85z" />
    <glyph glyph-name="lcommaaccent" unicode="&#x13c;" horiz-adv-x="528" 
d="M178 0v1489h172v-1489h-172zM144 -258q0 115 118 115q66 0 96 -33t29 -111q1 -78 -35 -138t-73 -105h-105q30 38 56 79t26 82q-60 0 -86 26t-26 85z" />
    <glyph glyph-name="Lcaron" unicode="&#x13d;" horiz-adv-x="1038" 
d="M182 0v1384h185v-1216h626v-168h-811zM637 1026h-121l66 361h215z" />
    <glyph glyph-name="lcaron" unicode="&#x13e;" horiz-adv-x="608" 
d="M553 1128h-121l66 361h215zM178 0v1489h172v-1489h-172z" />
    <glyph glyph-name="Ldot" unicode="&#x13f;" horiz-adv-x="1038" 
d="M182 0v1384h185v-1216h626v-168h-811zM892 748q0 -61 -26 -87t-94 -26q-66 0 -88 31t-23 87q1 56 25 84t90 28t90 -28q26 -28 26 -89z" />
    <glyph glyph-name="ldot" unicode="&#x140;" horiz-adv-x="717" 
d="M178 0v1489h172v-1489h-172zM729 748q-1 -61 -27 -87t-92 -26t-90 31q-22 31 -22 87t24 84t90 28t92 -28t25 -89z" />
    <glyph glyph-name="Lslash" unicode="&#x141;" horiz-adv-x="1038" 
d="M182 0v505l-151 -122v174l151 122v705h185v-556l249 202v-174l-249 -202v-486h626v-168h-811z" />
    <glyph glyph-name="lslash" unicode="&#x142;" horiz-adv-x="528" 
d="M350 0h-172v596l-147 -127v170l147 125v725h172v-578l148 127v-170l-148 -127v-741z" />
    <glyph glyph-name="Nacute" unicode="&#x143;" horiz-adv-x="1386" 
d="M360 0h-178v1384h271l573 -1087v1087h178v-1384h-219l-625 1188v-1188zM719 1544h-142l178 361h236z" />
    <glyph glyph-name="nacute" unicode="&#x144;" horiz-adv-x="1163" 
d="M829 0v618q0 150 -15 200t-49 72q-33 22 -99 23q-66 0 -154 -50t-170 -122v-741h-172v1049h172v-156q73 73 170 129t195 57q152 -1 223 -87t71 -292v-700h-172zM623 1208h-142l178 361h236z" />
    <glyph glyph-name="Ncommaaccent" unicode="&#x145;" horiz-adv-x="1386" 
d="M360 0h-178v1384h271l573 -1087v1087h178v-1384h-219l-625 1188v-1188zM596 -258q0 115 118 115q66 0 96 -33t29 -111q1 -78 -35 -138t-73 -105h-105q30 38 56 79t26 82q-60 0 -86 26t-26 85z" />
    <glyph glyph-name="ncommaaccent" unicode="&#x146;" horiz-adv-x="1163" 
d="M829 0v618q0 150 -15 200t-49 72q-33 22 -99 23q-66 0 -154 -50t-170 -122v-741h-172v1049h172v-156q73 73 170 129t195 57q152 -1 223 -87t71 -292v-700h-172zM459 -258q0 115 118 115q65 0 95 -33t30 -111t-36 -138t-72 -105h-105q29 38 55 79t27 82q-59 0 -85 26
t-27 85z" />
    <glyph glyph-name="Ncaron" unicode="&#x147;" horiz-adv-x="1386" 
d="M360 0h-178v1384h271l573 -1087v1087h178v-1384h-219l-625 1188v-1188zM788 1544h-211l-227 361h149l185 -238l184 238h150z" />
    <glyph glyph-name="ncaron" unicode="&#x148;" horiz-adv-x="1163" 
d="M829 0v618q0 150 -15 200t-49 72q-33 22 -99 23q-66 0 -154 -50t-170 -122v-741h-172v1049h172v-156q73 73 170 129t195 57q152 -1 223 -87t71 -292v-700h-172zM698 1208h-211l-227 361h149l185 -238l184 238h150z" />
    <glyph glyph-name="napostrophe" unicode="&#x149;" horiz-adv-x="1280" 
d="M946 0v618q0 150 -15 200t-49 72t-100 23q-66 0 -153 -50q-88 -50 -170 -122v-741h-172v1049h172v-156q73 73 170 129t195 57q152 -1 223 -87t71 -292v-700h-172zM225 1252q-1 -94 -37 -196q-36 -100 -75 -147h-105q36 44 60 130t24 149q-58 0 -84 26t-26 84t28 86t94 29
t94 -33t27 -128z" />
    <glyph glyph-name="Eng" unicode="&#x14a;" horiz-adv-x="1386" 
d="M895 -252q82 0 106.5 59.5t24.5 192.5l-666 1188v-1188h-178v1384h271l573 -1046v1046h178v-1429q0 -185 -75 -267.5t-244 -82.5q-101 0 -189 30l43 142q74 -29 156 -29z" />
    <glyph glyph-name="eng" unicode="&#x14b;" horiz-adv-x="1163" 
d="M170 0v1049h172v-156q73 73 170 129.5t195 56.5q152 0 223 -86.5t71 -292.5v-745q0 -190 -74 -270t-239 -80q-100 0 -188 30l43 142q73 -29 154 -29t106.5 58.5t25.5 168.5v643q0 150 -15 200t-48.5 72.5t-99.5 22.5t-154 -50t-170 -122v-741h-172z" />
    <glyph glyph-name="Omacron" unicode="&#x14c;" horiz-adv-x="1364" 
d="M1051 690q-1 289 -87 424t-282 135t-282 -135t-87 -423t87 -422t282 -134t281 133q88 133 88 422zM1245 691q-1 -372 -141 -546t-424 -174t-422 177q-138 176 -139 542q0 366 137 544t424 179q287 0 426 -175t139 -547zM375 1591v140h610v-140h-610z" />
    <glyph glyph-name="omacron" unicode="&#x14d;" horiz-adv-x="1157" 
d="M862 526q0 210 -70 307t-214 97q-143 0 -213 -98t-70 -306q-1 -209 67 -308t214 -99t216 98q70 99 70 309zM1040 524q0 -274 -118 -415q-118 -140 -342 -140q-225 1 -344 139t-119 416q-1 278 119 417q120 138 345 138q225 -1 342 -141t117 -414zM271 1255v140h610v-140
h-610z" />
    <glyph glyph-name="Obreve" unicode="&#x14e;" horiz-adv-x="1364" 
d="M1051 690q-1 289 -87 424t-282 135t-282 -135t-87 -423t87 -422t282 -134t281 133q88 133 88 422zM1245 691q-1 -372 -141 -546t-424 -174t-422 177q-138 176 -139 542q0 366 137 544t424 179q287 0 426 -175t139 -547zM674 1700q102 0 147 30t57 95h127q0 -123 -86 -203
q-87 -80 -241 -80t-241 81t-87 202h127q27 -125 197 -125z" />
    <glyph glyph-name="obreve" unicode="&#x14f;" horiz-adv-x="1157" 
d="M862 526q0 210 -70 307t-214 97q-143 0 -213 -98t-70 -306q-1 -209 67 -308t214 -99t216 98q70 99 70 309zM1040 524q0 -274 -118 -415q-118 -140 -342 -140q-225 1 -344 139t-119 416q-1 278 119 417q120 138 345 138q225 -1 342 -141t117 -414zM580 1364q102 0 147 30
t57 95h127q0 -123 -86 -203q-87 -80 -241 -80t-241 81t-87 202h127q27 -125 197 -125z" />
    <glyph glyph-name="Ohungarumlaut" unicode="&#x150;" horiz-adv-x="1364" 
d="M1051 690q-1 289 -87 424t-282 135t-282 -135t-87 -423t87 -422t282 -134t281 133q88 133 88 422zM1245 691q-1 -372 -141 -546t-424 -174t-422 177q-138 176 -139 542q0 366 137 544t424 179q287 0 426 -175t139 -547zM557 1544h-142l178 361h236zM905 1544h-142
l179 361h235z" />
    <glyph glyph-name="ohungarumlaut" unicode="&#x151;" horiz-adv-x="1157" 
d="M862 526q0 210 -70 307t-214 97q-143 0 -213 -98t-70 -306q-1 -209 67 -308t214 -99t216 98q70 99 70 309zM1040 524q0 -274 -118 -415q-118 -140 -342 -140q-225 1 -344 139t-119 416q-1 278 119 417q120 138 345 138q225 -1 342 -141t117 -414zM455 1208h-142l178 361
h236zM803 1208h-142l179 361h235z" />
    <glyph glyph-name="OE" unicode="&#x152;" horiz-adv-x="1849" 
d="M729 1249q-216 0 -310.5 -135.5t-94.5 -422.5t95.5 -421.5t309.5 -134.5q121 0 205 43v1028q-84 43 -205 43zM727 -29q-305 0 -451.5 177.5t-146.5 543.5t145.5 543.5t452.5 177.5q124 0 223 -29h774v-167h-604v-408h525v-168h-525v-473h604v-168h-772q-102 -29 -225 -29
z" />
    <glyph glyph-name="oe" unicode="&#x153;" horiz-adv-x="1821" 
d="M580 119q282 0 282 397q0 153 -45.5 283.5t-236.5 130.5q-145 0 -215 -97.5t-70 -306.5t67.5 -308t217.5 -99zM1306 936q-126 0 -191.5 -68.5t-78.5 -228.5h512q-2 141 -59 219t-183 78zM1716 600v-96h-682v-21q0 -188 74 -276t225 -88q72 0 124 29.5t102 95.5l141 -88
q-60 -90 -145 -138.5t-220 -48.5q-274 0 -389 193q-121 -193 -356 -193q-473 0 -473 553q0 281 119.5 419t343.5 138q120 0 217.5 -51t148.5 -141q104 192 363 192q203 0 305 -117t102 -362z" />
    <glyph glyph-name="Racute" unicode="&#x154;" horiz-adv-x="1237" 
d="M903 981q1 137 -69 189t-224 51h-243v-492h231q223 1 277 103q28 54 28 149zM367 565v-565h-185v1384h430q258 0 370 -95t112 -279t-68 -284q-68 -99 -223 -132l375 -594h-217l-353 565h-241zM633 1544h-142l178 361h236z" />
    <glyph glyph-name="racute" unicode="&#x155;" horiz-adv-x="811" 
d="M644 891q-64 1 -136 -35t-166 -131v-725h-172v1049h172v-170q72 73 152 129t160 57q81 0 120 -21l-37 -165q-29 12 -93 12zM422 1208h-142l178 361h236z" />
    <glyph glyph-name="Rcommaaccent" unicode="&#x156;" horiz-adv-x="1237" 
d="M903 981q1 137 -69 189t-224 51h-243v-492h231q223 1 277 103q28 54 28 149zM367 565v-565h-185v1384h430q258 0 370 -95t112 -279t-68 -284q-68 -99 -223 -132l375 -594h-217l-353 565h-241zM516 -258q0 115 118 115q66 0 96 -33t29 -111q1 -78 -35 -138t-73 -105h-105
q30 38 56 79t26 82q-60 0 -86 26t-26 85z" />
    <glyph glyph-name="rcommaaccent" unicode="&#x157;" horiz-adv-x="811" 
d="M644 891q-64 1 -136 -35t-166 -131v-725h-172v1049h172v-170q72 73 152 129t160 57q81 0 120 -21l-37 -165q-29 12 -93 12zM140 -258q0 115 118 115q66 0 96 -33t29 -111q1 -78 -35 -138t-73 -105h-105q30 38 56 79t26 82q-60 0 -86 26t-26 85z" />
    <glyph glyph-name="Rcaron" unicode="&#x158;" horiz-adv-x="1237" 
d="M903 981q1 137 -69 189t-224 51h-243v-492h231q223 1 277 103q28 54 28 149zM367 565v-565h-185v1384h430q258 0 370 -95t112 -279t-68 -284q-68 -99 -223 -132l375 -594h-217l-353 565h-241zM713 1544h-211l-227 361h149l185 -238l184 238h150z" />
    <glyph glyph-name="rcaron" unicode="&#x159;" horiz-adv-x="811" 
d="M644 891q-64 1 -136 -35t-166 -131v-725h-172v1049h172v-170q72 73 152 129t160 57q81 0 120 -21l-37 -165q-29 12 -93 12zM563 1208h-211l-227 361h149l185 -238l184 238h150z" />
    <glyph glyph-name="Sacute" unicode="&#x15a;" horiz-adv-x="1227" 
d="M612 -29q-187 0 -312 66t-204 205l150 100q117 -207 362 -207q148 -1 232 61t84 169q0 157 -199 219q-57 18 -139 38t-170 48q-88 26 -152 68q-138 90 -139 275q1 185 119 293t330 107q212 1 324 -69t177 -179l-147 -104q-54 90 -132 139t-205 49q-128 1 -203 -59
t-75 -159t87 -151q53 -31 197 -67q144 -37 229 -65q84 -28 148 -72q138 -97 138 -294t-128 -304t-372 -107zM627 1544h-142l178 361h236z" />
    <glyph glyph-name="sacute" unicode="&#x15b;" horiz-adv-x="991" 
d="M487 -31q-131 -1 -235 49t-152 140l138 84q79 -127 254 -127q114 -1 170 43t57 121q0 77 -82 117q-42 20 -172 55q-187 43 -263 119t-77 208q0 132 100 217q100 84 257 84t250 -54t136 -130l-137 -84q-82 123 -233 123q-86 0 -146 -38t-59 -114q0 -76 52 -107
q53 -33 197 -69t212 -76q133 -78 133 -236t-104 -242t-296 -83zM533 1208h-142l178 361h236z" />
    <glyph glyph-name="Scircumflex" unicode="&#x15c;" horiz-adv-x="1227" 
d="M612 -29q-187 0 -312 66t-204 205l150 100q117 -207 362 -207q148 -1 232 61t84 169q0 157 -199 219q-57 18 -139 38t-170 48q-88 26 -152 68q-138 90 -139 275q1 185 119 293t330 107q212 1 324 -69t177 -179l-147 -104q-54 90 -132 139t-205 49q-128 1 -203 -59
t-75 -159t87 -151q53 -31 197 -67q144 -37 229 -65q84 -28 148 -72q138 -97 138 -294t-128 -304t-372 -107zM786 1544l-184 238l-185 -238h-149l229 361h211l228 -361h-150z" />
    <glyph glyph-name="scircumflex" unicode="&#x15d;" horiz-adv-x="991" 
d="M487 -31q-131 -1 -235 49t-152 140l138 84q79 -127 254 -127q114 -1 170 43t57 121q0 77 -82 117q-42 20 -172 55q-187 43 -263 119t-77 208q0 132 100 217q100 84 257 84t250 -54t136 -130l-137 -84q-82 123 -233 123q-86 0 -146 -38t-59 -114q0 -76 52 -107
q53 -33 197 -69t212 -76q133 -78 133 -236t-104 -242t-296 -83zM686 1208l-184 238l-185 -238h-149l229 361h211l228 -361h-150z" />
    <glyph glyph-name="Scedilla" unicode="&#x15e;" horiz-adv-x="1227" 
d="M686 -31q164 -41 164 -197q0 -72 -69 -119.5t-167 -47.5t-167.5 17.5t-92.5 29.5l52 100q92 -33 203 -33q110 0 110 78q0 40 -42.5 68t-133.5 35l37 73q-339 7 -484 269l150 100q117 -207 362 -207q147 0 231.5 61.5t84.5 168.5q0 158 -128 197.5t-210 59.5t-170 47
t-189.5 93t-101.5 251t118.5 292.5t330.5 107.5t324 -69.5t177 -178.5l-147 -104q-54 90 -131.5 139t-205.5 49t-203 -59.5t-75 -158.5t70 -140.5t214 -77.5q144 -37 329.5 -97t185.5 -327q0 -379 -424 -414z" />
    <glyph glyph-name="scedilla" unicode="&#x15f;" horiz-adv-x="991" 
d="M561 -31q164 -41 164 -197q0 -72 -68.5 -119.5t-166.5 -47.5t-168 17.5t-93 29.5l52 100q92 -33 203 -33q110 0 110 78q0 40 -42.5 68t-133.5 35l37 71q-146 6 -233 62.5t-122 124.5l138 84q79 -127 254 -127q114 0 170.5 43.5t56.5 120.5t-62 107t-192 65
q-187 43 -263.5 119t-76.5 208t100 216.5t257 84.5t250 -54t136 -130l-137 -84q-82 123 -233 123q-86 0 -145.5 -38t-59.5 -114t52.5 -108t196.5 -68t244.5 -95t100.5 -228q0 -266 -324 -310z" />
    <glyph glyph-name="Scaron" unicode="&#x160;" horiz-adv-x="1227" 
d="M612 -29q-187 0 -312 66t-204 205l150 100q117 -207 362 -207q148 -1 232 61t84 169q0 157 -199 219q-57 18 -139 38t-170 48q-88 26 -152 68q-138 90 -139 275q1 185 119 293t330 107q212 1 324 -69t177 -179l-147 -104q-54 90 -132 139t-205 49q-128 1 -203 -59
t-75 -159t87 -151q53 -31 197 -67q144 -37 229 -65q84 -28 148 -72q138 -97 138 -294t-128 -304t-372 -107zM706 1544h-211l-227 361h149l185 -238l184 238h150z" />
    <glyph glyph-name="scaron" unicode="&#x161;" horiz-adv-x="991" 
d="M487 -31q-131 -1 -235 49t-152 140l138 84q79 -127 254 -127q114 -1 170 43t57 121q0 77 -82 117q-42 20 -172 55q-187 43 -263 119t-77 208q0 132 100 217q100 84 257 84t250 -54t136 -130l-137 -84q-82 123 -233 123q-86 0 -146 -38t-59 -114q0 -76 52 -107
q53 -33 197 -69t212 -76q133 -78 133 -236t-104 -242t-296 -83zM612 1208h-211l-227 361h149l185 -238l184 238h150z" />
    <glyph glyph-name="uni0162" unicode="&#x162;" horiz-adv-x="1184" 
d="M643 -31q164 -41 164 -197q0 -72 -68.5 -119.5t-166.5 -47.5t-168 17.5t-93 29.5l51 100q96 -33 205 -33t109 78q0 40 -42.5 68t-133.5 35l51 100h-51v1217h-459v167h1102v-167h-459v-1217h-27z" />
    <glyph glyph-name="uni0163" unicode="&#x163;" horiz-adv-x="729" 
d="M496 -31q163 -41 163 -197q0 -72 -68.5 -119.5t-166.5 -47.5t-168 17.5t-92 29.5l51 100q96 -33 204 -33q109 0 109 78q0 41 -43.5 68.5t-132.5 34.5l41 80q-104 24 -150 107t-46 230v588h-150v144h150v292h172v-292h266v-144h-266v-555q0 -127 25.5 -182t107.5 -55
t147 28l45 -141q-100 -31 -198 -31z" />
    <glyph glyph-name="Tcaron" unicode="&#x164;" horiz-adv-x="1184" 
d="M684 1217v-1217h-184v1217h-459v167h1102v-167h-459zM696 1544h-211l-227 361h149l185 -238l184 238h150z" />
    <glyph glyph-name="tcaron" unicode="&#x165;" horiz-adv-x="729" 
d="M496 -31q-160 0 -229.5 84t-69.5 264v588h-150v144h150v292h172v-292h266v-144h-266v-555q0 -127 25.5 -182t107.5 -55t147 28l45 -141q-100 -31 -198 -31zM596 1128h-121l66 361h215z" />
    <glyph glyph-name="Tbar" unicode="&#x166;" horiz-adv-x="1184" 
d="M684 1217v-412h213v-139h-213v-666h-184v666h-213v139h213v412h-459v167h1102v-167h-459z" />
    <glyph glyph-name="tbar" unicode="&#x167;" horiz-adv-x="729" 
d="M369 580v-230q0 -127 25.5 -182t107.5 -55t147 28l45 -141q-100 -31 -198 -31q-160 0 -229.5 84t-69.5 264v263h-166v139h166v186h-150v144h150v292h172v-292h266v-144h-266v-186h272v-139h-272z" />
    <glyph glyph-name="Utilde" unicode="&#x168;" horiz-adv-x="1405" 
d="M1223 578q0 -227 -51 -358q-50 -131 -160 -191t-306 -60t-310 61t-164 193t-50 355v806h185v-786q0 -182 33 -280q32 -98 104 -142q72 -43 198 -43q126 1 199 43t105 135t32 283v790h185v-806zM563 1819q57 -1 97 -23t75 -48t66 -48t67 -23q88 0 97 129h121
q-19 -262 -232 -262q-65 0 -105 22t-71 51q-30 29 -58 51t-74 22q-82 0 -91 -133h-121q6 125 68 193t161 69z" />
    <glyph glyph-name="utilde" unicode="&#x169;" horiz-adv-x="1163" 
d="M821 156q-187 -187 -371 -187q-200 1 -258 159q-30 80 -30 220v701h172v-619q0 -150 16 -200t49 -72q34 -22 99 -23q65 1 153 51t170 121v742h172v-1049h-172v156zM426 1483q56 -1 96 -23t76 -48q35 -26 66 -48t67 -23q88 0 97 129h121q-19 -262 -232 -262q-65 0 -105 22
t-71 51t-59 51t-73 22q-82 0 -91 -133h-121q5 125 67 193t162 69z" />
    <glyph glyph-name="Umacron" unicode="&#x16a;" horiz-adv-x="1405" 
d="M1223 578q0 -227 -51 -358q-50 -131 -160 -191t-306 -60t-310 61t-164 193t-50 355v806h185v-786q0 -182 33 -280q32 -98 104 -142q72 -43 198 -43q126 1 199 43t105 135t32 283v790h185v-806zM398 1591v140h610v-140h-610z" />
    <glyph glyph-name="umacron" unicode="&#x16b;" horiz-adv-x="1163" 
d="M821 156q-187 -187 -371 -187q-200 1 -258 159q-30 80 -30 220v701h172v-619q0 -150 16 -200t49 -72q34 -22 99 -23q65 1 153 51t170 121v742h172v-1049h-172v156zM277 1255v140h610v-140h-610z" />
    <glyph glyph-name="Ubreve" unicode="&#x16c;" horiz-adv-x="1405" 
d="M1223 578q0 -227 -51 -358q-50 -131 -160 -191t-306 -60t-310 61t-164 193t-50 355v806h185v-786q0 -182 33 -280q32 -98 104 -142q72 -43 198 -43q126 1 199 43t105 135t32 283v790h185v-806zM703 1700q102 0 147 30t57 95h127q0 -123 -86 -203t-240 -80t-242 81
q-87 81 -87 202h127q27 -125 197 -125z" />
    <glyph glyph-name="ubreve" unicode="&#x16d;" horiz-adv-x="1163" 
d="M821 156q-187 -187 -371 -187q-200 1 -258 159q-30 80 -30 220v701h172v-619q0 -150 16 -200t49 -72q34 -22 99 -23q65 1 153 51t170 121v742h172v-1049h-172v156zM580 1364q102 0 147 30t57 95h127q0 -123 -86 -203q-87 -80 -241 -80t-241 81t-87 202h127
q27 -125 197 -125z" />
    <glyph glyph-name="Uring" unicode="&#x16e;" horiz-adv-x="1405" 
d="M1223 578q0 -227 -51 -358q-50 -131 -160 -191t-306 -60t-310 61t-164 193t-50 355v806h185v-786q0 -182 33 -280q32 -98 104 -142q72 -43 198 -43q126 1 199 43t105 135t32 283v790h185v-806zM801 1692q1 100 -97 100t-98 -100t98 -101q98 1 97 101zM901 1692
q0 -90 -48 -144q-47 -54 -151 -53q-104 -1 -150 55t-46 143t47 141t151 54t150 -53q47 -53 47 -143z" />
    <glyph glyph-name="uring" unicode="&#x16f;" horiz-adv-x="1163" 
d="M821 156q-187 -187 -371 -187q-200 1 -258 159q-30 80 -30 220v701h172v-619q0 -150 16 -200t49 -72q34 -22 99 -23q65 1 153 51t170 121v742h172v-1049h-172v156zM649 1356q1 100 -97 100t-98 -100t98 -101q98 1 97 101zM749 1356q0 -90 -48 -144q-47 -54 -151 -53
q-104 -1 -150 55t-46 143t47 141t151 54t150 -53q47 -53 47 -143z" />
    <glyph glyph-name="Uhungarumlaut" unicode="&#x170;" horiz-adv-x="1405" 
d="M1223 578q0 -227 -51 -358q-50 -131 -160 -191t-306 -60t-310 61t-164 193t-50 355v806h185v-786q0 -182 33 -280q32 -98 104 -142q72 -43 198 -43q126 1 199 43t105 135t32 283v790h185v-806zM578 1544h-142l178 361h236zM926 1544h-142l179 361h235z" />
    <glyph glyph-name="uhungarumlaut" unicode="&#x171;" horiz-adv-x="1163" 
d="M821 156q-187 -187 -371 -187q-200 1 -258 159q-30 80 -30 220v701h172v-619q0 -150 16 -200t49 -72q34 -22 99 -23q65 1 153 51t170 121v742h172v-1049h-172v156zM457 1208h-142l178 361h236zM805 1208h-142l179 361h235z" />
    <glyph glyph-name="Uogonek" unicode="&#x172;" horiz-adv-x="1405" 
d="M829 -240q0 74 20.5 124t55.5 106q-82 -21 -200 -21q-196 0 -309 61t-163.5 193t-50.5 355v806h185v-786q0 -182 33 -280.5t104.5 -141.5t197.5 -43t198.5 42.5t105 135.5t32.5 283v790h185v-806q0 -316 -103 -453q-149 -197 -149 -320q0 -61 73 -61q50 0 123 39l56 -109
q-197 -124 -295.5 -56t-98.5 142z" />
    <glyph glyph-name="uogonek" unicode="&#x173;" horiz-adv-x="1163" 
d="M821 156q-187 -187 -371 -187q-200 0 -244 119t-44 260v701h172v-619q0 -150 15.5 -200t49.5 -72.5t99 -22.5t153 50.5t170 121.5v742h172v-1049q-131 -41 -192.5 -83.5t-61.5 -100.5q0 -72 60.5 -72t136.5 39l55 -109q-108 -69 -199 -69q-92 0 -143 47t-51 137
q0 164 223 254v113z" />
    <glyph glyph-name="Wcircumflex" unicode="&#x174;" horiz-adv-x="1757" 
d="M1356 0h-221l-261 1108l-262 -1108h-217l-327 1384h184l258 -1118l262 1118h209l266 -1126l262 1126h181zM1063 1544l-184 238l-185 -238h-149l229 361h211l228 -361h-150z" />
    <glyph glyph-name="wcircumflex" unicode="&#x175;" horiz-adv-x="1475" 
d="M1153 0h-160l-256 803l-256 -803h-157l-261 1049h179l178 -799l250 799h143l256 -799l170 799h172zM930 1208l-184 238l-185 -238h-149l229 361h211l228 -361h-150z" />
    <glyph glyph-name="Ycircumflex" unicode="&#x176;" horiz-adv-x="1147" 
d="M666 0h-187v526l-438 858h209l325 -673l332 673h199l-440 -849v-535zM760 1544l-184 238l-185 -238h-149l229 361h211l228 -361h-150z" />
    <glyph glyph-name="ycircumflex" unicode="&#x177;" horiz-adv-x="1040" 
d="M190 -252q121 0 205 219l35 90l-383 992h186l289 -768l291 768h180l-448 -1129q-71 -173 -152 -244t-198 -71t-199 30l43 142q65 -29 151 -29zM706 1208l-184 238l-185 -238h-149l229 361h211l228 -361h-150z" />
    <glyph glyph-name="Ydieresis" unicode="&#x178;" horiz-adv-x="1147" 
d="M666 0h-187v526l-438 858h209l325 -673l332 673h199l-440 -849v-535zM490 1648q0 -58 -24 -80q-24 -24 -86 -24t-84 29t-21 80q-1 51 23 77t84 27t84 -25t24 -84zM885 1648q-1 -58 -25 -80q-24 -24 -86 -24t-82 29q-22 29 -22 80t24 77t84 27t84 -25t23 -84z" />
    <glyph glyph-name="Zacute" unicode="&#x179;" horiz-adv-x="1163" 
d="M92 0v176l729 1041h-698v167h917v-165l-737 -1051h754v-168h-965zM574 1542h-142l178 361h236z" />
    <glyph glyph-name="zacute" unicode="&#x17a;" horiz-adv-x="934" 
d="M82 0v131l547 774h-535v144h742v-125l-549 -779h565v-145h-770zM484 1208h-142l178 361h236z" />
    <glyph glyph-name="Zdotaccent" unicode="&#x17b;" horiz-adv-x="1163" 
d="M92 0v176l729 1041h-698v167h917v-165l-737 -1051h754v-168h-965zM645 1655q-1 -61 -27 -87t-92 -26t-90 31q-22 31 -22 87t24 84t90 28t92 -28t25 -89z" />
    <glyph glyph-name="zdotaccent" unicode="&#x17c;" horiz-adv-x="934" 
d="M82 0v131l547 774h-535v144h742v-125l-549 -779h565v-145h-770zM555 1321q-1 -61 -27 -87t-92 -26t-90 31q-22 31 -22 87t24 84t90 28t92 -28t25 -89z" />
    <glyph glyph-name="Zcaron" unicode="&#x17d;" horiz-adv-x="1163" 
d="M92 0v176l729 1041h-698v167h917v-165l-737 -1051h754v-168h-965zM651 1542h-211l-227 361h149l185 -238l184 238h150z" />
    <glyph glyph-name="zcaron" unicode="&#x17e;" horiz-adv-x="934" 
d="M82 0v131l547 774h-535v144h742v-125l-549 -779h565v-145h-770zM559 1208h-211l-227 361h149l185 -238l184 238h150z" />
    <glyph glyph-name="longs" unicode="&#x17f;" horiz-adv-x="592" 
d="M521 1370q-84 0 -118 -44.5t-34 -174.5v-1151h-172v905h-134v144h134v102q0 190 71.5 279.5t251.5 89.5q113 0 203 -39l-47 -148q-71 37 -155 37z" />
    <glyph glyph-name="florin" unicode="&#x192;" horiz-adv-x="1100" 
d="M866 1370q-53 0 -84.5 -26.5t-60.5 -159.5l-31 -135h209l-29 -144h-211l-219 -1022q-20 -98 -74.5 -189t-207.5 -91q-119 0 -224 39l35 137q95 -27 161 -27t96 41t65 199l194 913h-172l31 144h172l33 143q39 174 108.5 251t204.5 77q68 0 120 -14.5t87 -24.5l-47 -148
q-103 37 -156 37z" />
    <glyph glyph-name="Ohorn" unicode="&#x1a0;" horiz-adv-x="1487" 
d="M1051 690q0 289 -86.5 424t-282.5 135t-282.5 -135t-86.5 -423t87.5 -422t281.5 -134t281.5 133t87.5 422zM1520 1446v-182q0 -167 -71 -243.5t-212 -76.5h-12q20 -114 20 -252q0 -373 -140.5 -547t-424.5 -174t-422.5 176.5t-138.5 542.5t137 544.5t426 178.5
q207 0 329 -87t179 -247h37q71 0 102 41t31 144v182h160z" />
    <glyph glyph-name="ohorn" unicode="&#x1a1;" horiz-adv-x="1249" 
d="M862 526q0 210 -70.5 307t-213.5 97t-213 -97.5t-70 -306.5t67.5 -308t213.5 -99t216 98.5t70 308.5zM1040 522q0 -273 -117.5 -413t-342.5 -140t-344 138.5t-119 416.5t119.5 416.5t343.5 138.5q317 0 417 -274q68 2 96.5 44t28.5 140v141h160v-141q0 -305 -252 -319
q10 -87 10 -148z" />
    <glyph glyph-name="Uhorn" unicode="&#x1af;" horiz-adv-x="1524" 
d="M1223 1079h41q71 0 102 41t31 144v182h159v-182q0 -170 -71.5 -245t-210.5 -75h-51v-366q0 -227 -51 -358t-160.5 -191t-305.5 -60t-309.5 61t-164 193t-50.5 355v806h185v-786q0 -182 33 -280.5t104.5 -141.5t197.5 -43t198.5 42.5t105 135.5t32.5 283v790h185v-305z
" />
    <glyph glyph-name="uhorn" unicode="&#x1b0;" horiz-adv-x="1286" 
d="M821 156q-187 -187 -371 -187q-200 0 -244 119t-44 260v701h172v-619q0 -150 15.5 -200t49.5 -72.5t99 -22.5t153 50.5t170 121.5v742h172v-244h33q72 0 102.5 41t30.5 143v141h160v-141q0 -166 -69.5 -242.5t-213.5 -76.5h-43v-670h-172v156z" />
    <glyph glyph-name="Acaron" unicode="&#x1cd;" horiz-adv-x="1288" 
d="M414 528h450l-225 674zM51 0l473 1384h240l473 -1384h-195l-120 360h-564l-118 -360h-189zM751 1544h-211l-227 361h149l185 -238l184 238h150z" />
    <glyph glyph-name="acaron" unicode="&#x1ce;" horiz-adv-x="1100" 
d="M287 302q0 -96 47 -138q47 -41 143 -41q95 -1 221 99q34 28 68 54v256l-168 -16q-171 -14 -241 -66t-70 -148zM516 1079q226 0 324 -82t98 -284v-713h-172v131q-80 -70 -161 -116t-183 -46q-150 -1 -232 91t-81 218t43 196q42 72 122 114t234 59l258 23v51q0 121 -68 165
t-180 44t-170 -37t-82 -80l-141 86q99 180 391 180zM653 1208h-211l-227 361h149l185 -238l184 238h150z" />
    <glyph glyph-name="Icaron" unicode="&#x1cf;" horiz-adv-x="770" 
d="M668 0h-566v160h191v1067h-191v157h566v-157h-191v-1067h191v-160zM491 1544h-211l-227 361h149l185 -238l184 238h150z" />
    <glyph glyph-name="icaron" unicode="&#x1d0;" horiz-adv-x="512" 
d="M170 0v1049h172v-1049h-172zM362 1208h-211l-227 361h149l185 -238l184 238h150z" />
    <glyph glyph-name="Ocaron" unicode="&#x1d1;" horiz-adv-x="1364" 
d="M1051 690q-1 289 -87 424t-282 135t-282 -135t-87 -423t87 -422t282 -134t281 133q88 133 88 422zM1245 691q-1 -372 -141 -546t-424 -174t-422 177q-138 176 -139 542q0 366 137 544t424 179q287 0 426 -175t139 -547zM786 1544h-211l-227 361h149l185 -238l184 238h150
z" />
    <glyph glyph-name="ocaron" unicode="&#x1d2;" horiz-adv-x="1157" 
d="M862 526q0 210 -70 307t-214 97q-143 0 -213 -98t-70 -306q-1 -209 67 -308t214 -99t216 98q70 99 70 309zM1040 524q0 -274 -118 -415q-118 -140 -342 -140q-225 1 -344 139t-119 416q-1 278 119 417q120 138 345 138q225 -1 342 -141t117 -414zM682 1208h-211l-227 361
h149l185 -238l184 238h150z" />
    <glyph glyph-name="Ucaron" unicode="&#x1d3;" horiz-adv-x="1405" 
d="M1223 578q0 -227 -51 -358q-50 -131 -160 -191t-306 -60t-310 61t-164 193t-50 355v806h185v-786q0 -182 33 -280q32 -98 104 -142q72 -43 198 -43q126 1 199 43t105 135t32 283v790h185v-806zM807 1544h-211l-227 361h149l185 -238l184 238h150z" />
    <glyph glyph-name="ucaron" unicode="&#x1d4;" horiz-adv-x="1163" 
d="M821 156q-187 -187 -371 -187q-200 1 -258 159q-30 80 -30 220v701h172v-619q0 -150 16 -200t49 -72q34 -22 99 -23q65 1 153 51t170 121v742h172v-1049h-172v156zM686 1208h-211l-227 361h149l185 -238l184 238h150z" />
    <glyph glyph-name="Udieresismacron" unicode="&#x1d5;" horiz-adv-x="1405" 
d="M1223 578q0 -227 -51 -358q-50 -131 -160 -191t-306 -60t-310 61t-164 193t-50 355v806h185v-786q0 -182 33 -280q32 -98 104 -142q72 -43 198 -43q126 1 199 43t105 135t32 283v790h185v-806zM396 1794v139h610v-139h-610zM615 1608q-1 -58 -25 -82t-86 -23
q-62 0 -82 29q-22 29 -22 80q0 52 24 78t84 26t84 -26q24 -24 23 -82zM1010 1608q0 -58 -24 -82t-86 -23q-62 0 -84 29t-21 80q-1 52 23 78t84 26t84 -26q24 -24 24 -82z" />
    <glyph glyph-name="udieresismacron" unicode="&#x1d6;" horiz-adv-x="1163" 
d="M821 156q-187 -187 -371 -187q-200 1 -258 159q-30 80 -30 220v701h172v-619q0 -150 16 -200t49 -72q34 -22 99 -23q65 1 153 51t170 121v742h172v-1049h-172v156zM275 1458v139h610v-139h-610zM494 1272q0 -58 -24 -82t-86 -23q-62 0 -84 29t-21 80q-1 52 23 78t84 26
t84 -26q24 -24 24 -82zM889 1272q-1 -58 -25 -82t-86 -23q-62 0 -82 29q-22 29 -22 80q0 52 24 78t84 26t84 -26q24 -24 23 -82z" />
    <glyph glyph-name="Udieresisacute" unicode="&#x1d7;" horiz-adv-x="1405" 
d="M1223 578q0 -227 -51 -358q-50 -131 -160 -191t-306 -60t-310 61t-164 193t-50 355v806h185v-786q0 -182 33 -280q32 -98 104 -142q72 -43 198 -43q126 1 199 43t105 135t32 283v790h185v-806zM619 1737l123 311h235l-217 -311h-141zM613 1608q-1 -58 -25 -82t-86 -23
q-62 0 -82 29q-22 29 -22 80q0 52 24 78t84 26t84 -26q24 -24 23 -82zM1008 1608q0 -58 -24 -82t-86 -23q-62 0 -84 29t-21 80q-1 52 23 78t84 26t84 -26q24 -24 24 -82z" />
    <glyph glyph-name="udieresisacute" unicode="&#x1d8;" horiz-adv-x="1163" 
d="M821 156q-187 -187 -371 -187q-200 1 -258 159q-30 80 -30 220v701h172v-619q0 -150 16 -200t49 -72q34 -22 99 -23q65 1 153 51t170 121v742h172v-1049h-172v156zM498 1401l123 311h235l-217 -311h-141zM492 1272q0 -58 -24 -82t-86 -23q-62 0 -84 29t-21 80
q-1 52 23 78t84 26t84 -26q24 -24 24 -82zM887 1272q-1 -58 -25 -82t-86 -23q-62 0 -82 29q-22 29 -22 80q0 52 24 78t84 26t84 -26q24 -24 23 -82z" />
    <glyph glyph-name="Udieresiscaron" unicode="&#x1d9;" horiz-adv-x="1405" 
d="M1223 578q0 -227 -51 -358q-50 -131 -160 -191t-306 -60t-310 61t-164 193t-50 355v806h185v-786q0 -182 33 -280q32 -98 104 -142q72 -43 198 -43q126 1 199 43t105 135t32 283v790h185v-806zM518 2048l185 -172l184 172h150l-230 -289h-211l-227 289h149zM617 1608
q-1 -58 -25 -82t-86 -23q-62 0 -82 29q-22 29 -22 80q0 52 24 78t84 26t84 -26q24 -24 23 -82zM1012 1608q0 -58 -24 -82t-86 -23q-62 0 -84 29t-21 80q-1 52 23 78t84 26t84 -26q24 -24 24 -82z" />
    <glyph glyph-name="udieresiscaron" unicode="&#x1da;" horiz-adv-x="1163" 
d="M821 156q-187 -187 -371 -187q-200 1 -258 159q-30 80 -30 220v701h172v-619q0 -150 16 -200t49 -72q34 -22 99 -23q65 1 153 51t170 121v742h172v-1049h-172v156zM397 1712l185 -172l184 172h150l-230 -289h-211l-227 289h149zM496 1272q0 -58 -24 -82t-86 -23
q-62 0 -84 29t-21 80q-1 52 23 78t84 26t84 -26q24 -24 24 -82zM891 1272q-1 -58 -25 -82t-86 -23q-62 0 -82 29q-22 29 -22 80q0 52 24 78t84 26t84 -26q24 -24 23 -82z" />
    <glyph glyph-name="Udieresisgrave" unicode="&#x1db;" horiz-adv-x="1405" 
d="M1223 578q0 -227 -51 -358q-50 -131 -160 -191t-306 -60t-310 61t-164 193t-50 355v806h185v-786q0 -182 33 -280q32 -98 104 -142q72 -43 198 -43q126 1 199 43t105 135t32 283v790h185v-806zM643 1737l-217 311h236l123 -311h-142zM613 1608q-1 -58 -25 -82t-86 -23
q-62 0 -82 29q-22 29 -22 80q0 52 24 78t84 26t84 -26q24 -24 23 -82zM1008 1608q0 -58 -24 -82t-86 -23q-62 0 -84 29t-21 80q-1 52 23 78t84 26t84 -26q24 -24 24 -82z" />
    <glyph glyph-name="udieresisgrave" unicode="&#x1dc;" horiz-adv-x="1163" 
d="M821 156q-187 -187 -371 -187q-200 1 -258 159q-30 80 -30 220v701h172v-619q0 -150 16 -200t49 -72q34 -22 99 -23q65 1 153 51t170 121v742h172v-1049h-172v156zM522 1401l-217 311h236l123 -311h-142zM492 1272q0 -58 -24 -82t-86 -23q-62 0 -84 29t-21 80
q-1 52 23 78t84 26t84 -26q24 -24 24 -82zM887 1272q-1 -58 -25 -82t-86 -23q-62 0 -82 29q-22 29 -22 80q0 52 24 78t84 26t84 -26q24 -24 23 -82z" />
    <glyph glyph-name="Aringacute" unicode="&#x1fa;" horiz-adv-x="1288" 
d="M700 1749h-141l125 276h236zM739 1497q0 100 -97 100t-97 -100t97 -100t97 100zM414 528h450l-225 674zM840 1490q0 -97 -62 -149l459 -1341h-195l-120 360h-564l-118 -360h-189l457 1339q-64 49 -64 147q0 208 198 208t198 -204z" />
    <glyph glyph-name="aringacute" unicode="&#x1fb;" horiz-adv-x="1100" 
d="M287 302q0 -96 47 -138q47 -41 143 -41q95 -1 221 99q34 28 68 54v256l-168 -16q-171 -14 -241 -66t-70 -148zM516 1079q226 0 324 -82t98 -284v-713h-172v131q-80 -70 -161 -116t-183 -46q-150 -1 -232 91t-81 218t43 196q42 72 122 114t234 59l258 23v51q0 121 -68 165
t-180 44t-170 -37t-82 -80l-141 86q99 180 391 180zM618 1354q0 100 -98 100t-97 -100q-1 -100 97 -101q98 1 98 101zM718 1354q0 -90 -48 -144t-152 -53q-104 -1 -149 55q-46 56 -46 143t47 141q46 54 150 54t151 -53t47 -143zM549 1605h-142l178 361h236z" />
    <glyph glyph-name="AEacute" unicode="&#x1fc;" horiz-adv-x="1747" 
d="M834 1217h-140l-252 -666h392v666zM834 0v383h-453l-145 -383h-191l533 1384h1044v-167h-604v-408h526v-168h-526v-473h604v-168h-788zM992 1544h-142l178 361h236z" />
    <glyph glyph-name="aeacute" unicode="&#x1fd;" horiz-adv-x="1724" 
d="M1210 936q-128 0 -194 -70t-76 -227h512q-2 141 -58 219t-184 78zM287 297q0 -174 180 -174q82 0 161 42t163 107q-17 52 -21 96t-4 164l-168 -16q-126 -12 -187 -36q-124 -50 -124 -183zM1235 -31q-285 0 -391 183q-95 -81 -213 -132t-217 -51q-140 1 -222 91t-83 242
q0 152 95 238t304 107l258 23v51q0 121 -68 165t-180 44t-170 -37t-82 -80l-141 86q103 180 391 180t365 -149q103 149 319 149q216 1 318 -117t102 -362v-96h-682q0 -200 68 -292t219 -93q84 -1 135 29t102 96l142 -88q-60 -90 -144 -138t-225 -49zM881 1208h-142l178 361
h236z" />
    <glyph glyph-name="Oslashacute" unicode="&#x1fe;" horiz-adv-x="1364" 
d="M727 1544h-142l178 361h236zM667 1249q-354 0 -354 -532q0 -262 58 -391l565 823q-88 100 -269 100zM1051 692q0 211 -47 338l-560 -813q84 -82 238 -82q193 0 281 133t88 424zM119 691q0 365 137 543t426 179q225 0 360 -110l129 186h150l-195 -283q119 -177 119 -532
q0 -703 -563 -703q-213 0 -340 97l-125 -183h-149l184 271q-133 170 -133 535z" />
    <glyph glyph-name="oslashacute" unicode="&#x1ff;" horiz-adv-x="1157" 
d="M596 1208h-142l178 361h236zM580 119q282 1 282 379q0 182 -37 272l-415 -602q63 -49 170 -49zM580 930q-285 0 -285 -384q0 -188 41 -282l420 608q-68 58 -176 58zM117 526q-1 276 119 415q120 138 344 138q161 0 268 -71l80 116h141l-137 -198q108 -145 108 -411
t-118 -406t-342 -140q-158 0 -261 66l-75 -111h-142l129 189q-114 137 -114 413z" />
    <glyph glyph-name="Scommaaccent" unicode="&#x218;" horiz-adv-x="1227" 
d="M612 -29q-187 0 -312 66t-204 205l150 100q117 -207 362 -207q148 -1 232 61t84 169q0 157 -199 219q-57 18 -139 38t-170 48q-88 26 -152 68q-138 90 -139 275q1 185 119 293t330 107q212 1 324 -69t177 -179l-147 -104q-54 90 -132 139t-205 49q-128 1 -203 -59
t-75 -159t87 -151q53 -31 197 -67q144 -37 229 -65q84 -28 148 -72q138 -97 138 -294t-128 -304t-372 -107zM523 -258q0 115 118 115q65 0 95 -33t30 -111t-36 -138t-72 -105h-105q29 38 55 79t27 82q-59 0 -85 26t-27 85z" />
    <glyph glyph-name="scommaaccent" unicode="&#x219;" horiz-adv-x="991" 
d="M487 -31q-131 -1 -235 49t-152 140l138 84q79 -127 254 -127q114 -1 170 43t57 121q0 77 -82 117q-42 20 -172 55q-187 43 -263 119t-77 208q0 132 100 217q100 84 257 84t250 -54t136 -130l-137 -84q-82 123 -233 123q-86 0 -146 -38t-59 -114q0 -76 52 -107
q53 -33 197 -69t212 -76q133 -78 133 -236t-104 -242t-296 -83zM398 -258q0 115 118 115q66 0 96 -33t29 -111q1 -78 -35 -138t-73 -105h-105q30 38 56 79t26 82q-60 0 -86 26t-26 85z" />
    <glyph glyph-name="uni021A" unicode="&#x21a;" horiz-adv-x="1184" 
d="M684 1217v-1217h-184v1217h-459v167h1102v-167h-459zM480 -258q0 115 118 115q66 0 96 -33t29 -111q1 -78 -35 -138t-73 -105h-105q30 38 56 79t26 82q-60 0 -86 26t-26 85z" />
    <glyph glyph-name="uni021B" unicode="&#x21b;" horiz-adv-x="729" 
d="M496 -31q-160 0 -230 84t-69 264v588h-150v144h150v292h172v-292h266v-144h-266v-555q-1 -127 25 -182t108 -55t147 28l45 -141q-100 -31 -198 -31zM332 -258q0 115 118 115q66 0 96 -33t29 -111q1 -78 -35 -138t-73 -105h-105q30 38 56 79t26 82q-60 0 -86 26t-26 85z
" />
    <glyph glyph-name="dotlessj" unicode="&#x237;" horiz-adv-x="537" 
d="M358 -45q0 -190 -74 -270t-239 -80q-100 0 -188 30l43 142q73 -29 154 -29t106.5 58.5t25.5 168.5v1074h172v-1094z" />
    <glyph glyph-name="uni02C0" unicode="&#x2c0;" horiz-adv-x="991" 
d="M428 1413q212 0 333.5 -104.5t121.5 -291.5t-112 -292.5t-298 -214.5v-510h-174v586q175 95 287 184t112 236q0 112 -71.5 180.5t-196.5 68.5q-186 0 -268 -141l-152 92q115 207 418 207z" />
    <glyph glyph-name="circumflex" unicode="&#x2c6;" 
d="M727 1208l-184 238l-185 -238h-149l229 361h211l228 -361h-150z" />
    <glyph glyph-name="caron" unicode="&#x2c7;" 
d="M647 1208h-211l-227 361h149l185 -238l184 238h150z" />
    <glyph glyph-name="uni02C9" unicode="&#x2c9;" 
d="M238 1255v140h610v-140h-610z" />
    <glyph glyph-name="breve" unicode="&#x2d8;" 
d="M870 1489q0 -124 -86 -203.5t-240 -79.5t-241.5 81t-87.5 202h127q27 -125 197 -125q102 0 147 30.5t57 94.5h127z" />
    <glyph glyph-name="dotaccent" unicode="&#x2d9;" 
d="M659 1321q0 -61 -26.5 -87t-92.5 -26t-89 31t-23 87t24 84t90 28t91.5 -28t25.5 -89z" />
    <glyph glyph-name="ring" unicode="&#x2da;" 
d="M639 1354q1 100 -97 100t-98 -100t98 -101q98 1 97 101zM739 1354q0 -90 -47.5 -143.5t-151.5 -53.5t-150 55.5t-46 142.5t47 141t151 54t150.5 -53t46.5 -143z" />
    <glyph glyph-name="ogonek" unicode="&#x2db;" horiz-adv-x="930" 
d="M305 -210q0 91 79 166t245 120l71 -76q-133 -42 -193.5 -84t-60.5 -100q0 -72 60.5 -72t136.5 39l55 -109q-108 -69 -199 -69q-92 0 -143 47t-51 138z" />
    <glyph glyph-name="tilde" unicode="&#x2dc;" 
d="M395 1483q56 0 96.5 -22.5t75.5 -48.5t66 -48.5t67 -22.5q88 0 97 129h121q-19 -262 -232 -262q-65 0 -105 22.5t-71 50.5t-58.5 50.5t-73.5 22.5q-82 0 -91 -133h-121q6 125 67.5 193.5t161.5 68.5z" />
    <glyph glyph-name="hungarumlaut" unicode="&#x2dd;" 
d="M367 1208h-142l178 361h236zM715 1208h-142l179 361h235z" />
    <glyph glyph-name="gravecomb" unicode="&#x300;" horiz-adv-x="0" 
d="M-2 1208l-272 361h235l178 -361h-141z" />
    <glyph glyph-name="acutecomb" unicode="&#x301;" horiz-adv-x="0" 
d="M80 1208h-141l178 361h235z" />
    <glyph glyph-name="uni0302" unicode="&#x302;" horiz-adv-x="0" 
d="M184 1208l-184 238l-184 -238h-150l230 361h210l228 -361h-150z" />
    <glyph glyph-name="tildecomb" unicode="&#x303;" horiz-adv-x="0" 
d="M-165 1354q-82 0 -91 -133h-121q6 125 67.5 193.5t162.5 68.5q55 0 96 -22.5t75.5 -48.5t65.5 -48.5t68 -22.5q87 0 96 129h121q-17 -262 -232 -262q-65 0 -105 22.5t-70.5 50.5t-58.5 50.5t-74 22.5z" />
    <glyph glyph-name="uni0304" unicode="&#x304;" horiz-adv-x="0" 
d="M-305 1255v140h610v-140h-610z" />
    <glyph glyph-name="uni0306" unicode="&#x306;" horiz-adv-x="0" 
d="M328 1489q0 -125 -87 -204t-241 -79t-241 81t-87 202h127q29 -125 197 -125q102 0 147 30.5t58 94.5h127z" />
    <glyph glyph-name="uni0307" unicode="&#x307;" horiz-adv-x="0" 
d="M117 1321q0 -61 -27.5 -87t-93.5 -26t-88.5 31t-22.5 87t24.5 84t90.5 28t91.5 -28t25.5 -89z" />
    <glyph glyph-name="uni0308" unicode="&#x308;" horiz-adv-x="0" 
d="M-90 1312q0 -58 -24 -81t-86 -23t-83.5 29t-21.5 80t23.5 77.5t83.5 26.5t84 -25.5t24 -83.5zM305 1312q0 -58 -24.5 -81t-86.5 -23t-83 29t-21 80t24 77.5t84 26.5t83.5 -25.5t23.5 -83.5z" />
    <glyph glyph-name="hookabovecomb" unicode="&#x309;" horiz-adv-x="0" 
d="M-182 1438q58 53 191 53q75 0 123 -38t48 -99q0 -137 -147 -156v-37h-99v113h25q74 0 74 55t-63 55t-107 -32z" />
    <glyph glyph-name="uni030A" unicode="&#x30a;" horiz-adv-x="0" 
d="M102 1346q0 106 -103 106t-103 -106t103 -107q103 1 103 107zM-190 1346q0 188 143 188t189 -51t46 -137t-46 -137.5t-145 -51.5t-143 53.5t-44 135.5z" />
    <glyph glyph-name="uni030C" unicode="&#x30c;" horiz-adv-x="0" 
d="M104 1208h-210l-228 361h150l184 -238l184 238h150z" />
    <glyph glyph-name="dotbelowcomb" unicode="&#x323;" 
d="M659 -260q0 -62 -26.5 -87.5t-92.5 -25.5t-89 31t-23 87t24 84t90 28t91.5 -27.5t25.5 -89.5z" />
    <glyph glyph-name="uni0374" unicode="&#x374;" horiz-adv-x="420" 
d="M203 1128h-121l65 361h215z" />
    <glyph glyph-name="uni0375" unicode="&#x375;" horiz-adv-x="420" 
d="M227 129h121l-65 -360h-215z" />
    <glyph glyph-name="uni037E" unicode="&#x37e;" horiz-adv-x="555" 
d="M399 49q0 -94 -36.5 -194.5t-75.5 -147.5h-105q36 46 60 128t24 151q-59 0 -84.5 26t-25.5 84t28 86.5t94 28.5t93.5 -34t27.5 -128zM399 934q0 -62 -29.5 -86.5t-97.5 -24.5t-92 30t-24 86t28 83t94 27t93.5 -26.5t27.5 -88.5z" />
    <glyph glyph-name="tonos" unicode="&#x384;" horiz-adv-x="414" 
d="M141 1208h-141l178 361h236z" />
    <glyph glyph-name="dieresistonos" unicode="&#x385;" horiz-adv-x="0" 
d="M887 1569l-213 -361h-139l122 361h230zM451 1298q0 -56 -25 -77t-84 -21t-79.5 27t-20.5 77t21.5 75.5t80.5 25.5t83 -25.5t24 -81.5zM1071 1298q0 -56 -24.5 -77t-84.5 -21t-80 27t-20 77t21 75.5t81 25.5t83.5 -25.5t23.5 -81.5z" />
    <glyph glyph-name="Alphatonos" unicode="&#x386;" horiz-adv-x="1288" 
d="M414 528h450l-225 674zM51 0l473 1384h240l473 -1384h-195l-120 360h-564l-118 -360h-189zM401 1384l-213 -360h-147l123 360h237z" />
    <glyph glyph-name="anoteleia" unicode="&#x387;" horiz-adv-x="555" 
d="M399 744q0 -62 -29.5 -86.5t-97.5 -24.5t-92 29.5t-24 85.5t28 83t94 27t93.5 -26t27.5 -88z" />
    <glyph glyph-name="Epsilontonos" unicode="&#x388;" horiz-adv-x="1393" 
d="M422 0v1384h846v-167h-661v-404h565v-168h-565v-477h661v-168h-846zM362 1384l-213 -360h-147l123 360h237z" />
    <glyph glyph-name="Etatonos" unicode="&#x389;" horiz-adv-x="1604" 
d="M1237 0v633h-630v-633h-185v1384h185v-583h630v583h185v-1384h-185zM362 1384l-213 -360h-147l123 360h237z" />
    <glyph glyph-name="Iotatonos" unicode="&#x38a;" horiz-adv-x="1059" 
d="M957 0h-566v160h191v1067h-191v157h566v-157h-191v-1067h191v-160zM362 1384l-213 -360h-147l123 360h237z" />
    <glyph glyph-name="Omicrontonos" unicode="&#x38c;" horiz-adv-x="1554" 
d="M1241 690q-1 289 -87 424t-282 135t-282 -135t-87 -423t87 -422t282 -134t281 133q88 133 88 422zM1435 691q-1 -372 -141 -546t-424 -174t-422 177q-138 176 -139 542q0 366 137 544t424 179q287 0 426 -175t139 -547zM362 1384l-213 -360h-147l123 360h237z" />
    <glyph glyph-name="Upsilontonos" unicode="&#x38e;" horiz-adv-x="1497" 
d="M1016 0h-187v526l-438 858h209l325 -673l332 673h199l-440 -849v-535zM362 1384l-213 -360h-147l123 360h237z" />
    <glyph glyph-name="Omegatonos" unicode="&#x38f;" horiz-adv-x="1657" 
d="M854 1413q573 1 573 -585q0 -282 -80 -426q-80 -142 -241 -183v-51h290v-168h-454v322q109 12 170 64q121 102 121 411q1 239 -91 345t-280 107q-188 -1 -278 -111t-89 -341q0 -159 26 -251q25 -92 83 -145q58 -52 182 -79v-322h-454v168h290v51q-164 45 -242 187
t-79 405q0 183 65 319q66 136 190 210q124 73 298 73zM362 1384l-213 -360h-147l123 360h237z" />
    <glyph glyph-name="iotadieresistonos" unicode="&#x390;" horiz-adv-x="614" 
d="M420 -31q-140 1 -196 77t-56 255v748h174v-744q0 -106 20 -151t82 -45q60 0 107 18l41 -135q-78 -23 -172 -23zM490 1569l-213 -361h-139l122 361h230zM54 1298q0 -56 -25 -76q-25 -22 -84 -22t-79 26t-21 78q-1 50 21 76t81 25q59 1 83 -25t24 -82zM674 1298
q0 -56 -24 -76q-24 -22 -84 -22t-80 26t-21 78q-1 50 21 76t82 25q60 1 82 -25q24 -26 24 -82z" />
    <glyph glyph-name="Alpha" unicode="&#x391;" horiz-adv-x="1288" 
d="M414 528h450l-225 674zM51 0l473 1384h240l473 -1384h-195l-120 360h-564l-118 -360h-189z" />
    <glyph glyph-name="Beta" unicode="&#x392;" horiz-adv-x="1272" 
d="M965 411q1 89 -33 139t-104 72q-70 23 -226 23h-235v-477h188q176 0 255 24t117 76q38 54 38 143zM881 1024q0 110 -66 154t-235 43h-213v-412h204q166 0 238 53q72 52 72 162zM1157 406q0 -214 -136 -310t-388 -96h-451v1384h410q254 0 366 -72t113 -228
q1 -154 -61 -227t-154 -101q137 -19 219 -101t82 -249z" />
    <glyph glyph-name="Gamma" unicode="&#x393;" horiz-adv-x="1067" 
d="M367 1223v-1223h-185v1384h844v-161h-659z" />
    <glyph glyph-name="uni0394" unicode="&#x394;" horiz-adv-x="1260" 
d="M981 160l-303 887q-16 46 -53 172h-4l-24 -87l-331 -972h715zM1208 0h-1157v88q115 313 231 648t234 648h234q386 -1098 458 -1296v-88z" />
    <glyph glyph-name="Epsilon" unicode="&#x395;" horiz-adv-x="1153" 
d="M182 0v1384h846v-167h-661v-404h565v-168h-565v-477h661v-168h-846z" />
    <glyph glyph-name="Zeta" unicode="&#x396;" horiz-adv-x="1163" 
d="M92 0v176l729 1041h-698v167h917v-165l-737 -1051h754v-168h-965z" />
    <glyph glyph-name="Eta" unicode="&#x397;" horiz-adv-x="1364" 
d="M997 0v633h-630v-633h-185v1384h185v-583h630v583h185v-1384h-185z" />
    <glyph glyph-name="Theta" unicode="&#x398;" horiz-adv-x="1446" 
d="M483 618v177h478v-177h-478zM1133 691q0 293 -98.5 428.5t-312.5 135.5t-311.5 -135.5t-97.5 -428.5t98.5 -427.5t310.5 -134.5t311.5 134.5t99.5 427.5zM1327 691q0 -371 -148.5 -545.5t-454.5 -174.5t-455.5 175.5t-149.5 545.5t147 545.5t456 175.5t457 -175.5
t148 -546.5z" />
    <glyph glyph-name="Iota" unicode="&#x399;" horiz-adv-x="770" 
d="M668 0h-566v160h191v1067h-191v157h566v-157h-191v-1067h191v-160z" />
    <glyph glyph-name="Kappa" unicode="&#x39a;" horiz-adv-x="1264" 
d="M367 0h-185v1384h185v-679l585 679h230l-566 -636l594 -748h-235l-477 614l-131 -147v-467z" />
    <glyph glyph-name="Lambda" unicode="&#x39b;" horiz-adv-x="1229" 
d="M51 0l447 1384h237l443 -1384h-193l-373 1204l-374 -1204h-187z" />
    <glyph glyph-name="Mu" unicode="&#x39c;" horiz-adv-x="1593" 
d="M1235 0v1147l-383 -770h-115l-379 770v-1147h-176v1384h250l367 -753l370 753h242v-1384h-176z" />
    <glyph glyph-name="Nu" unicode="&#x39d;" horiz-adv-x="1386" 
d="M360 0h-178v1384h271l573 -1087v1087h178v-1384h-219l-625 1188v-1188z" />
    <glyph glyph-name="Xi" unicode="&#x39e;" horiz-adv-x="1102" 
d="M125 0v168h852v-168h-852zM184 645v168h731v-168h-731zM125 1217v167h852v-167h-852z" />
    <glyph glyph-name="Omicron" unicode="&#x39f;" horiz-adv-x="1364" 
d="M1051 690q-1 289 -87 424t-282 135t-282 -135t-87 -423t87 -422t282 -134t281 133q88 133 88 422zM1245 691q-1 -372 -141 -546t-424 -174t-422 177q-138 176 -139 542q0 366 137 544t424 179q287 0 426 -175t139 -547z" />
    <glyph glyph-name="Pi" unicode="&#x3a0;" horiz-adv-x="1327" 
d="M182 0v1384h963v-1384h-184v1217h-594v-1217h-185z" />
    <glyph glyph-name="Rho" unicode="&#x3a1;" horiz-adv-x="1182" 
d="M889 952q0 131 -72 198t-246 67h-204v-580h178q145 1 213 29t100 92t31 194zM1083 931q1 -239 -117 -351t-382 -111h-217v-469h-185v1384h410q259 0 375 -107t116 -346z" />
    <glyph glyph-name="Sigma" unicode="&#x3a3;" horiz-adv-x="1108" 
d="M74 0v170l512 535l-512 518v161h911v-165h-674l482 -494v-39l-500 -520h723v-166h-942z" />
    <glyph glyph-name="Tau" unicode="&#x3a4;" horiz-adv-x="1184" 
d="M684 1217v-1217h-184v1217h-459v167h1102v-167h-459z" />
    <glyph glyph-name="Upsilon" unicode="&#x3a5;" horiz-adv-x="1147" 
d="M666 0h-187v526l-438 858h209l325 -673l332 673h199l-440 -849v-535z" />
    <glyph glyph-name="Phi" unicode="&#x3a6;" horiz-adv-x="1499" 
d="M313 690q0 -201 77 -311.5t265 -132.5v893q-188 -23 -265 -135.5t-77 -313.5zM1188 691q0 202 -80 315.5t-274 132.5v-893q192 18 273 130.5t81 314.5zM834 -49h-179v139q-272 21 -404 165t-132 436t131 436.5t405 164.5v144h179v-142q280 -18 413 -163.5t133 -440.5
t-133 -439.5t-413 -160.5v-139z" />
    <glyph glyph-name="Chi" unicode="&#x3a7;" horiz-adv-x="1208" 
d="M53 0l449 694l-436 690h217l327 -546l338 546h207l-442 -684l442 -700h-217l-336 557l-342 -557h-207z" />
    <glyph glyph-name="Psi" unicode="&#x3a8;" horiz-adv-x="1493" 
d="M1362 801q0 -260 -128.5 -391.5t-397.5 -149.5v-305h-179v305q-268 18 -397 150t-129 391v583h184v-563q0 -177 87.5 -282.5t254.5 -124.5v970h179v-970q165 18 254.5 124t89.5 279v567h182v-583z" />
    <glyph glyph-name="uni03A9" unicode="&#x3a9;" horiz-adv-x="1364" 
d="M672 1413q573 1 573 -585q0 -282 -80 -426q-80 -142 -241 -183v-51h290v-168h-454v322q109 12 170 64q121 102 121 411q1 239 -91 345t-280 107q-188 -1 -278 -111t-89 -341q0 -159 26 -251q25 -92 83 -145q58 -52 182 -79v-322h-454v168h290v51q-164 45 -242 187
t-79 405q0 183 65 319q66 136 190 210q124 73 298 73z" />
    <glyph glyph-name="Iotadieresis" unicode="&#x3aa;" horiz-adv-x="770" 
d="M668 0h-566v160h191v1067h-191v157h566v-157h-191v-1067h191v-160zM305 1648q-1 -58 -25 -80q-24 -24 -86 -24t-82 29q-22 29 -22 80t24 77t84 27t84 -25t23 -84zM700 1648q0 -58 -24 -80q-24 -24 -86 -24t-84 29t-21 80q-1 51 23 77t84 27t84 -25t24 -84z" />
    <glyph glyph-name="Upsilondieresis" unicode="&#x3ab;" horiz-adv-x="1147" 
d="M666 0h-187v526l-438 858h209l325 -673l332 673h199l-440 -849v-535zM490 1648q0 -58 -24 -80q-24 -24 -86 -24t-84 29t-21 80q-1 51 23 77t84 27t84 -25t24 -84zM885 1648q-1 -58 -25 -80q-24 -24 -86 -24t-82 29q-22 29 -22 80t24 77t84 27t84 -25t23 -84z" />
    <glyph glyph-name="alphatonos" unicode="&#x3ac;" horiz-adv-x="1219" 
d="M297 516q0 -385 227 -385q280 0 307 639q-115 160 -258 160q-276 0 -276 -414zM979 575v-270q0 -116 20 -156q19 -40 71 -40t97 18l41 -135q-60 -23 -170 -23q-110 -1 -157 65t-54 208q-41 -142 -127 -208t-194 -65q-189 -1 -289 143t-100 410q0 172 52 298
q51 126 147 192q96 67 221 67q192 0 305 -137q6 82 10 107h174q-47 -329 -47 -474zM624 1208h-141l178 361h236z" />
    <glyph glyph-name="epsilontonos" unicode="&#x3ad;" horiz-adv-x="1044" 
d="M587 1208h-141l178 361h236zM129 287q0 87 47 147t115 88q-68 30 -115 90t-47 151t52 165q107 152 375 151q268 0 376 -192l-141 -86q-39 61 -95 98t-156 37t-166 -47t-67 -142q0 -95 103 -123q51 -14 161 -14h222v-143h-232q-131 0 -193 -40t-61 -129q-1 -89 71 -137
t172 -48q100 1 156 35t99 100l141 -86q-113 -193 -381 -193q-214 0 -325 83t-111 235z" />
    <glyph glyph-name="etatonos" unicode="&#x3ae;" horiz-adv-x="1169" 
d="M655 918q-118 0 -311 -175v-743h-174v1049h174v-158q188 188 351 188t238 -99t75 -300v-1075h-174v1013q0 220 -69 272q-36 28 -110 28zM624 1208h-141l178 361h236z" />
    <glyph glyph-name="iotatonos" unicode="&#x3af;" horiz-adv-x="614" 
d="M420 -31q-140 1 -196 77t-56 255v748h174v-744q0 -106 20 -151t82 -45q60 0 107 18l41 -135q-78 -23 -172 -23zM274 1208h-141l178 361h236z" />
    <glyph glyph-name="upsilondieresistonos" unicode="&#x3b0;" horiz-adv-x="1143" 
d="M846 556q0 243 -80 493h184q24 -55 50 -207t26 -283q0 -298 -109 -444t-332 -146t-323 99t-100 286v695h176v-689q0 -110 66 -178t178 -67q114 0 189 99t75 342zM801 1569l-213 -361h-139l122 361h230zM365 1298q0 -56 -25 -76q-25 -22 -84 -22q-60 0 -80 26t-20 78
q0 50 22 76t80 25q59 1 83 -25t24 -82zM985 1298q-1 -56 -25 -76q-24 -22 -84 -22t-80 26t-20 78q0 50 22 76t80 25q60 1 84 -25t23 -82z" />
    <glyph glyph-name="alpha" unicode="&#x3b1;" horiz-adv-x="1219" 
d="M297 516q0 -385 227 -385q280 0 307 639q-115 160 -258 160q-276 0 -276 -414zM979 575v-270q0 -116 19.5 -156t71.5 -40t97 18l41 -135q-60 -23 -170 -23t-157 65.5t-54 207.5q-41 -142 -127 -207.5t-194 -65.5q-189 0 -289 143.5t-100 409.5q0 172 52 297.5
t147.5 192.5t220.5 67q192 0 305 -137q6 82 10 107h174q-47 -329 -47 -474z" />
    <glyph glyph-name="beta" unicode="&#x3b2;" horiz-adv-x="1176" 
d="M641 117q109 0 176.5 90t67.5 235q0 314 -418 314v145q313 0 313 258q0 113 -53 164t-165 51t-169 -77.5t-57 -254.5v-829q39 -29 117.5 -62.5t187.5 -33.5zM1063 454q0 -152 -52 -258.5t-149.5 -166.5t-215.5 -60t-195.5 38t-114.5 69v-473h-174v1431q0 243 105 364.5
t293 121.5t292 -91t104 -241t-73.5 -236t-182.5 -108q166 -17 264.5 -127.5t98.5 -262.5z" />
    <glyph glyph-name="gamma" unicode="&#x3b3;" horiz-adv-x="1065" 
d="M809 1014v35h182v-43q0 -152 -59 -332t-153.5 -349.5t-196.5 -285.5v-434h-174v434l-357 1010h187l280 -848q168 235 229.5 460t61.5 353z" />
    <glyph glyph-name="delta" unicode="&#x3b4;" horiz-adv-x="1200" 
d="M903 455q0 148 -61.5 247t-210.5 193q-106 -20 -220 -123t-114 -319q0 -156 84 -247t221 -91t219 96t82 244zM567 1389q-71 0 -100 -27.5t-29 -67.5t30 -90.5t191 -143.5q160 -93 292 -222.5t132 -354.5q0 -159 -59 -275t-170.5 -177.5t-255.5 -61.5q-226 0 -353.5 131
t-127.5 355q0 130 53 239.5t140.5 180.5t193.5 96q-111 74 -177.5 140.5t-66.5 172.5t74 171t228 65t253.5 -28t140.5 -50l-61 -133q-174 80 -328 80z" />
    <glyph glyph-name="epsilon" unicode="&#x3b5;" horiz-adv-x="1044" 
d="M129 287q0 88 47 147.5t115 87.5q-68 29 -115 89.5t-47 151.5t79.5 203.5t347.5 112.5t376 -192l-141 -86q-39 61 -95 98t-156 37t-166.5 -47t-66.5 -142t77 -116t187 -21h222v-143h-232q-131 0 -192.5 -40t-61.5 -129t71.5 -137t171.5 -48t156 34.5t99 100.5l141 -86
q-113 -193 -381 -193q-214 0 -325 83t-111 235z" />
    <glyph glyph-name="zeta" unicode="&#x3b6;" horiz-adv-x="909" 
d="M692 -166q0 100 -125 127l-78 19q-146 30 -253 112t-107 357q0 327 165 558.5t300 333.5h-426v148h657v-125q-139 -92 -256.5 -241t-187.5 -325t-70 -306t27 -194t77.5 -103.5t145.5 -63.5l109 -26q100 -24 146 -82.5t46 -155.5t-67 -262h-179q76 150 76 229z" />
    <glyph glyph-name="eta" unicode="&#x3b7;" horiz-adv-x="1169" 
d="M655 918q-118 0 -311 -175v-743h-174v1049h174v-158q188 188 351 188t238 -99t75 -300v-1075h-174v1013q0 220 -52.5 260t-126.5 40z" />
    <glyph glyph-name="theta" unicode="&#x3b8;" horiz-adv-x="1169" 
d="M311 698q0 -247 26 -358t83.5 -168t161.5 -57t163 58.5t86 170t27 354.5h-547zM584 1522q168 0 266 -79t143 -231.5t45 -474.5t-44 -468.5t-141 -223t-268 -76.5t-268.5 77t-141.5 224.5t-44 466.5t45 472.5t142.5 233t265.5 79.5zM586 1376q-147 0 -211 -117t-64 -421
h547q-4 229 -31.5 331.5t-84.5 154.5t-156 52z" />
    <glyph glyph-name="iota" unicode="&#x3b9;" horiz-adv-x="614" 
d="M420 -31q-140 0 -196 76.5t-56 255.5v748h174v-744q0 -106 21 -151t81 -45t107 18l41 -135q-78 -23 -172 -23z" />
    <glyph glyph-name="kappa" unicode="&#x3ba;" horiz-adv-x="1057" 
d="M344 0h-174v1049h174v-504l436 504h207l-412 -461l435 -588h-209l-342 487l-115 -131v-356z" />
    <glyph glyph-name="lambda" unicode="&#x3bb;" horiz-adv-x="1092" 
d="M304 1522q88 0 138 -27.5t86 -93.5t72 -199l256 -915q44 -154 119 -154q27 0 47 8l47 -141q-69 -16 -143 -16t-137 47.5t-115 275.5l-131 545l-299 -852h-193l422 1055q-45 159 -80 239t-96 80q-84 0 -137 -41l-41 142q97 47 185 47z" />
    <glyph glyph-name="uni03BC" unicode="&#x3bc;" horiz-adv-x="1169" 
d="M842 119q-118 -150 -266 -150q-80 -1 -138 15t-125 67v-446h-174v1444h174v-793q43 -53 113 -85t143 -32q153 0 273 144v766h176v-1049h-166z" />
    <glyph glyph-name="nu" unicode="&#x3bd;" horiz-adv-x="1024" 
d="M791 1008v41h182v-35q0 -296 -156.5 -590.5t-261.5 -423.5h-160l-344 1049h189l268 -865q119 190 201 422t82 402z" />
    <glyph glyph-name="xi" unicode="&#x3be;" horiz-adv-x="911" 
d="M199 1077q0 210 178 277h-234v135h654v-141h-49q-149 0 -260 -37.5t-111 -231.5q0 -97 58 -155t159 -58h176v-145h-197q-100 0 -182 -86.5t-82 -188.5t25.5 -153t66.5 -83t93.5 -48.5t105.5 -30.5q153 -37 208.5 -100t55.5 -168t-65 -258h-168q71 161 71 224t-42 99
t-128 58t-244.5 75t-158.5 355q0 135 67.5 227t176.5 133q-72 41 -123 117t-51 184z" />
    <glyph glyph-name="omicron" unicode="&#x3bf;" horiz-adv-x="1157" 
d="M862 526q0 210 -70 307t-214 97q-143 0 -213 -98t-70 -306q-1 -209 67 -308t214 -99t216 98q70 99 70 309zM1040 524q0 -274 -118 -415q-118 -140 -342 -140q-225 1 -344 139t-119 416q-1 278 119 417q120 138 345 138q225 -1 342 -141t117 -414z" />
    <glyph glyph-name="pi" unicode="&#x3c0;" horiz-adv-x="1331" 
d="M326 1049h946v-140h-258v-604q0 -106 21 -144t85 -38t111 18l43 -135q-80 -22 -178 -22t-151.5 29t-79 96t-25.5 192v608h-357v-622q0 -210 -24 -287h-201q49 142 49 299v610q-41 0 -117 -12.5t-127 -36.5l-53 125q125 64 316 64z" />
    <glyph glyph-name="rho" unicode="&#x3c1;" horiz-adv-x="1178" 
d="M604 123q126 0 201.5 104t75.5 304t-72.5 301.5t-190.5 101.5t-211.5 -70t-93.5 -375v-188q52 -78 128.5 -128t162.5 -50zM139 -395v930q0 544 463 544q227 0 343 -144t116 -390q0 -182 -78.5 -379t-345.5 -197q-113 0 -195 45t-129 111v-520h-174z" />
    <glyph glyph-name="sigma1" unicode="&#x3c2;" horiz-adv-x="981" 
d="M690 -170q0 68 -41 99t-105 53t-139 47.5t-181.5 117t-106.5 375.5q0 557 469 557q258 0 368 -192l-141 -86q-39 63 -92 98t-139 35q-152 0 -218.5 -109.5t-66.5 -302.5q0 -260 127 -314t213 -82t154.5 -79t68.5 -186q0 -103 -65 -256h-177q72 157 72 225z" />
    <glyph glyph-name="sigma" unicode="&#x3c3;" horiz-adv-x="1245" 
d="M588 903q-201 0 -246 -125.5t-45 -296.5t74 -268.5t217 -97.5t221 97t78 277q0 279 -139 414h-160zM1065 501q0 -259 -125.5 -395.5t-353.5 -136.5t-348.5 136.5t-120.5 404.5t118.5 403.5t385.5 135.5h550v-146h-264q158 -143 158 -402z" />
    <glyph glyph-name="tau" unicode="&#x3c4;" horiz-adv-x="997" 
d="M944 905h-362v-600q0 -106 20.5 -144t80.5 -38t101 18l41 -135q-71 -22 -168 -22q-140 0 -194.5 69.5t-54.5 247.5v604h-97q-141 0 -239 -49l-54 127q123 66 304 66h622v-144z" />
    <glyph glyph-name="upsilon" unicode="&#x3c5;" horiz-adv-x="1143" 
d="M846 556q0 243 -80 493h184q24 -56 50 -207.5t26 -282.5q0 -298 -109 -444t-332 -146t-323 99t-100 286v695h176v-689q0 -110 65 -177.5t179 -67.5t189 99t75 342z" />
    <glyph glyph-name="phi" unicode="&#x3c6;" horiz-adv-x="1366" 
d="M1071 522q0 188 -66.5 290.5t-234.5 123.5v-823q168 20 234.5 120.5t66.5 288.5zM297 526q0 -206 70.5 -301t234.5 -114v825q-158 -18 -231.5 -111t-73.5 -299zM602 -395v368q-260 19 -372.5 152t-112.5 402t115 400.5t370 147.5v414h168v-414q246 -17 362.5 -148
t116.5 -403t-115.5 -402t-363.5 -149v-368h-168z" />
    <glyph glyph-name="chi" unicode="&#x3c7;" horiz-adv-x="1069" 
d="M204 1079q62 0 114.5 -41t93.5 -149l143 -400l238 560h188l-350 -697l168 -401q39 -101 71.5 -148t79.5 -47q18 0 49 13l48 -138q-70 -26 -144 -26t-121 40t-94.5 138t-159.5 424l-268 -592h-188l377 731l-196 484q-38 98 -92 98q-29 0 -63 -13l-43 134q87 30 149 30z
" />
    <glyph glyph-name="psi" unicode="&#x3c8;" horiz-adv-x="1378" 
d="M1262 559q0 -540 -476 -584v-370h-170v366q-233 13 -343.5 123.5t-110.5 321.5v633h174v-629q0 -127 69.5 -209t210.5 -98v1378h170v-1374q136 22 212.5 131.5t76.5 290.5q0 252 -71 510h184q30 -95 52 -239t22 -251z" />
    <glyph glyph-name="omega" unicode="&#x3c9;" horiz-adv-x="1636" 
d="M1520 401q0 -221 -103.5 -326.5t-273.5 -105.5q-123 0 -207 68.5t-119 189.5q-33 -121 -117 -189.5t-206 -68.5q-170 0 -273.5 103.5t-103.5 322.5q0 149 57 345.5t137 306.5l187 -35q-86 -120 -139.5 -287t-53.5 -303q0 -305 199 -305q92 0 158.5 100t66.5 318v274h180
v-274q0 -201 61 -309.5t163 -108.5q198 0 198 305q0 141 -53.5 304.5t-136.5 285.5l186 35q82 -114 137.5 -298.5t55.5 -347.5z" />
    <glyph glyph-name="iotadieresis" unicode="&#x3ca;" horiz-adv-x="614" 
d="M420 -31q-140 1 -196 77t-56 255v748h174v-744q0 -106 20 -151t82 -45q60 0 107 18l41 -135q-78 -23 -172 -23zM146 1312q0 -58 -24 -80q-24 -24 -86 -24t-84 29t-21 80q-1 51 23 77t84 27t84 -25t24 -84zM541 1312q-1 -58 -25 -80q-24 -24 -86 -24t-82 29q-22 29 -22 80
t24 77t84 27t84 -25t23 -84z" />
    <glyph glyph-name="upsilondieresis" unicode="&#x3cb;" horiz-adv-x="1143" 
d="M846 556q0 243 -80 493h184q24 -55 50 -207t26 -283q0 -298 -109 -444t-332 -146t-323 99t-100 286v695h176v-689q0 -110 66 -178t178 -67q114 0 189 99t75 342zM457 1312q-1 -58 -25 -80q-24 -24 -86 -24t-82 29q-22 29 -22 80t24 77t84 27t84 -25t23 -84zM852 1312
q0 -58 -24 -80q-24 -24 -86 -24t-84 29t-21 80q-1 51 23 77t84 27t84 -25t24 -84z" />
    <glyph glyph-name="omicrontonos" unicode="&#x3cc;" horiz-adv-x="1157" 
d="M862 526q0 210 -70 307t-214 97q-143 0 -213 -98t-70 -306q-1 -209 67 -308t214 -99t216 98q70 99 70 309zM1040 524q0 -274 -118 -415q-118 -140 -342 -140q-225 1 -344 139t-119 416q-1 278 119 417q120 138 345 138q225 -1 342 -141t117 -414zM624 1208h-141l178 361
h236z" />
    <glyph glyph-name="upsilontonos" unicode="&#x3cd;" horiz-adv-x="1143" 
d="M585 1208h-141l178 361h236zM846 556q0 243 -80 493h184q24 -55 50 -207t26 -283q0 -298 -109 -444t-332 -146t-323 99t-100 286v695h176v-689q0 -110 66 -178t178 -67q114 0 189 99t75 342z" />
    <glyph glyph-name="omegatonos" unicode="&#x3ce;" horiz-adv-x="1636" 
d="M1520 401q0 -221 -104 -327t-273 -105q-123 1 -207 69t-119 189q-33 -121 -117 -189t-206 -69q-170 -1 -274 103t-103 323q0 149 57 345t137 307l187 -35q-86 -120 -140 -287t-53 -303q0 -305 199 -305q92 0 158 100t67 318v274h180v-274q0 -201 61 -309t163 -109
q198 0 198 305q1 140 -53 304t-137 286l186 35q81 -115 137 -299t56 -347zM870 1208h-141l178 361h236z" />
    <glyph glyph-name="uni0400" unicode="&#x400;" horiz-adv-x="1153" 
d="M182 0v1384h846v-167h-661v-404h565v-168h-565v-477h661v-168h-846zM613 1544l-273 361h236l178 -361h-141z" />
    <glyph glyph-name="uni0401" unicode="&#x401;" horiz-adv-x="1153" 
d="M182 0v1384h846v-167h-661v-404h565v-168h-565v-477h661v-168h-846zM502 1648q0 -58 -24 -80q-24 -24 -86 -24t-84 29t-21 80q-1 51 23 77t84 27t84 -25t24 -84zM897 1648q-1 -58 -25 -80q-24 -24 -86 -24t-82 29q-22 29 -22 80t24 77t84 27t84 -25t23 -84z" />
    <glyph glyph-name="uni0402" unicode="&#x402;" horiz-adv-x="1360" 
d="M831 1229h-313v-422h211q295 0 424 -96.5t129 -306.5t-138.5 -307t-438.5 -97v154q145 0 226 23.5t118.5 75t37.5 161.5t-75.5 172.5t-257.5 62.5h-236v-649h-184v1229h-318v155h815v-155z" />
    <glyph glyph-name="uni0403" unicode="&#x403;" horiz-adv-x="1067" 
d="M367 1223v-1223h-185v1384h844v-161h-659zM578 1544h-142l178 361h236z" />
    <glyph glyph-name="uni0404" unicode="&#x404;" horiz-adv-x="1321" 
d="M129 692q0 362 146.5 541.5t451.5 179.5q236 0 339 -82.5t157 -177.5l-152 -100q-44 74 -115.5 135t-228.5 61q-201 0 -294 -125t-107 -344h673v-168h-673q12 -235 108 -356t295 -121q118 0 205 46.5t156 160.5l153 -100q-66 -106 -169.5 -188.5t-338.5 -82.5
q-311 0 -458.5 179.5t-147.5 541.5z" />
    <glyph glyph-name="uni0405" unicode="&#x405;" horiz-adv-x="1227" 
d="M612 -29q-187 0 -312 66t-204 205l150 100q117 -207 362 -207q148 -1 232 61t84 169q0 157 -199 219q-57 18 -139 38t-170 48q-88 26 -152 68q-138 90 -139 275q1 185 119 293t330 107q212 1 324 -69t177 -179l-147 -104q-54 90 -132 139t-205 49q-128 1 -203 -59
t-75 -159t87 -151q53 -31 197 -67q144 -37 229 -65q84 -28 148 -72q138 -97 138 -294t-128 -304t-372 -107z" />
    <glyph glyph-name="uni0406" unicode="&#x406;" horiz-adv-x="770" 
d="M668 0h-566v160h191v1067h-191v157h566v-157h-191v-1067h191v-160z" />
    <glyph glyph-name="uni0407" unicode="&#x407;" horiz-adv-x="770" 
d="M668 0h-566v160h191v1067h-191v157h566v-157h-191v-1067h191v-160zM305 1648q-1 -58 -25 -80q-24 -24 -86 -24t-82 29q-22 29 -22 80t24 77t84 27t84 -25t23 -84zM700 1648q0 -58 -24 -80q-24 -24 -86 -24t-84 29t-21 80q-1 51 23 77t84 27t84 -25t24 -84z" />
    <glyph glyph-name="uni0408" unicode="&#x408;" horiz-adv-x="885" 
d="M700 377q0 -203 -89 -305t-300 -103q-137 0 -260 51l68 158q32 -16 92 -30q59 -14 119 -15q60 0 104 28q44 29 63 93t19 199v931h184v-1007z" />
    <glyph glyph-name="uni0409" unicode="&#x409;" horiz-adv-x="1944" 
d="M1130 692v-530h213q158 0 247 58.5t89 197.5q0 104 -34.5 163t-107 85t-218.5 26h-189zM580 1223v-84q0 -528 -116 -841.5t-325 -313.5q-65 0 -123 20l33 148q22 -9 45 -9q152 0 226.5 277.5t74.5 789.5v174h735v-530h218q276 0 400 -105.5t124 -328.5t-132 -321.5
t-386 -98.5h-410v1223h-364z" />
    <glyph glyph-name="uni040A" unicode="&#x40a;" horiz-adv-x="1978" 
d="M1165 672v-510h213q158 0 247 58.5t89 197.5t-76 196.5t-284 57.5h-189zM979 0v672h-612v-672h-185v1384h185v-550h612v550h186v-550h215q277 0 402 -96.5t125 -318.5t-133.5 -320.5t-387.5 -98.5h-407z" />
    <glyph glyph-name="uni040B" unicode="&#x40b;" horiz-adv-x="1380" 
d="M806 721q-123 0 -300 -51v-670h-184v1229h-306v155h811v-155h-321v-412q184 62 354 62q215 0 307.5 -108t92.5 -339v-432h-185v348q0 166 -21 239.5t-73 103.5t-175 30z" />
    <glyph glyph-name="uni040C" unicode="&#x40c;" horiz-adv-x="1247" 
d="M668 1544h-142l178 361h236zM367 1384v-600h223q76 0 132 62q108 120 208 538h192q-70 -314 -154 -474t-212 -201q92 -33 152 -89t105 -139q43 -85 77 -203t75 -278h-194q-83 314 -131 420t-110 154t-159 47h-204v-621h-185v1384h185z" />
    <glyph glyph-name="uni040D" unicode="&#x40d;" horiz-adv-x="1391" 
d="M693 1544l-273 361h236l178 -361h-141zM182 0v1384h176v-1142l584 1142h266v-1384h-176v1194l-618 -1194h-232z" />
    <glyph glyph-name="uni040E" unicode="&#x40e;" horiz-adv-x="1196" 
d="M296 -29q-121 0 -226 35l57 154q64 -31 156 -31q145 0 202 143l27 66l-461 1046h199l364 -827l361 827h190l-518 -1167q-107 -246 -351 -246zM449 1776q24 -148 177 -148q76 0 114 37t49 111h157q0 -70 -40 -130q-82 -124 -286 -124q-205 0 -289 126q-40 60 -40 128h158z
" />
    <glyph glyph-name="uni040F" unicode="&#x40f;" horiz-adv-x="1399" 
d="M1217 0h-424v-262h-187v262h-424v1384h191v-1216h653v1216h191v-1384z" />
    <glyph glyph-name="uni0410" unicode="&#x410;" horiz-adv-x="1288" 
d="M414 528h450l-225 674zM51 0l473 1384h240l473 -1384h-195l-120 360h-564l-118 -360h-189z" />
    <glyph glyph-name="uni0411" unicode="&#x411;" horiz-adv-x="1239" 
d="M952 408q0 88 -35.5 141t-103.5 76.5t-213 23.5h-233v-487h194q160 0 236.5 25t115.5 79t39 142zM367 807h254q278 0 401 -92t123 -306t-137.5 -311.5t-376.5 -97.5h-449v1384h879v-157h-694v-420z" />
    <glyph glyph-name="uni0412" unicode="&#x412;" horiz-adv-x="1272" 
d="M965 411q1 89 -33 139t-104 72q-70 23 -226 23h-235v-477h188q176 0 255 24t117 76q38 54 38 143zM881 1024q0 110 -66 154t-235 43h-213v-412h204q166 0 238 53q72 52 72 162zM1157 406q0 -214 -136 -310t-388 -96h-451v1384h410q254 0 366 -72t113 -228
q1 -154 -61 -227t-154 -101q137 -19 219 -101t82 -249z" />
    <glyph glyph-name="uni0413" unicode="&#x413;" horiz-adv-x="1067" 
d="M367 1223v-1223h-185v1384h844v-161h-659z" />
    <glyph glyph-name="uni0414" unicode="&#x414;" horiz-adv-x="1313" 
d="M934 1223h-359q-15 -293 -82.5 -581t-168.5 -480h610v1061zM27 -262v424h116q69 132 158.5 439.5t93.5 782.5h723v-1222h168v-424h-180v262h-899v-262h-180z" />
    <glyph glyph-name="uni0415" unicode="&#x415;" horiz-adv-x="1153" 
d="M182 0v1384h846v-167h-661v-404h565v-168h-565v-477h661v-168h-846z" />
    <glyph glyph-name="uni0416" unicode="&#x416;" horiz-adv-x="1817" 
d="M1001 784h160q76 0 156.5 88.5t179.5 511.5h195q-71 -316 -156 -475t-211 -200q173 -62 237 -187t98 -243.5t75 -278.5h-195q-83 313 -131.5 419.5t-109.5 154t-156 47.5h-142v-621h-184v621h-141q-103 0 -167.5 -55t-117 -180.5t-115.5 -385.5h-194q74 304 123 420
t115.5 183.5t171.5 105.5q-129 43 -213 201.5t-154 473.5h194q76 -323 155 -461.5t183 -138.5h160v600h184v-600z" />
    <glyph glyph-name="uni0417" unicode="&#x417;" horiz-adv-x="1169" 
d="M526 129q336 0 336 270q0 113 -67.5 177.5t-210.5 64.5h-260v160h247q129 0 200 52t71 170t-72 176t-188 58t-205.5 -28.5t-175.5 -106.5l-111 142q80 67 192 108t312 41t322 -98t122 -285q0 -231 -215 -311q119 -39 175.5 -133t56.5 -206t-63.5 -207t-182.5 -148.5
t-279 -53.5q-336 0 -485 228l145 106q54 -80 144.5 -128t191.5 -48z" />
    <glyph glyph-name="uni0418" unicode="&#x418;" horiz-adv-x="1391" 
d="M182 0v1384h176v-1142l584 1142h266v-1384h-176v1194l-618 -1194h-232z" />
    <glyph glyph-name="uni0419" unicode="&#x419;" horiz-adv-x="1391" 
d="M182 0v1384h176v-1142l584 1142h266v-1384h-176v1194l-618 -1194h-232zM535 1776q24 -148 177 -148q76 0 114 37t49 111h157q0 -70 -40 -130q-82 -124 -286 -124q-205 0 -289 126q-40 60 -40 128h158z" />
    <glyph glyph-name="uni041A" unicode="&#x41a;" horiz-adv-x="1247" 
d="M367 1384v-600h223q77 0 159 90.5t181 509.5h192q-70 -313 -154.5 -473.5t-211.5 -201.5q92 -33 152.5 -88.5t104.5 -139.5t77.5 -202.5t74.5 -278.5h-194q-83 314 -131 420t-110.5 153.5t-158.5 47.5h-204v-621h-185v1384h185z" />
    <glyph glyph-name="uni041B" unicode="&#x41b;" horiz-adv-x="1337" 
d="M580 1223v-84q0 -528 -116 -841.5t-325 -313.5q-65 0 -123 20l33 148q22 -9 45 -9q152 0 226.5 277.5t74.5 789.5v174h760v-1384h-184v1223h-391z" />
    <glyph glyph-name="uni041C" unicode="&#x41c;" horiz-adv-x="1593" 
d="M1235 0v1147l-383 -770h-115l-379 770v-1147h-176v1384h250l367 -753l370 753h242v-1384h-176z" />
    <glyph glyph-name="uni041D" unicode="&#x41d;" horiz-adv-x="1364" 
d="M997 0v633h-630v-633h-185v1384h185v-583h630v583h185v-1384h-185z" />
    <glyph glyph-name="uni041E" unicode="&#x41e;" horiz-adv-x="1364" 
d="M1051 690q-1 289 -87 424t-282 135t-282 -135t-87 -423t87 -422t282 -134t281 133q88 133 88 422zM1245 691q-1 -372 -141 -546t-424 -174t-422 177q-138 176 -139 542q0 366 137 544t424 179q287 0 426 -175t139 -547z" />
    <glyph glyph-name="uni041F" unicode="&#x41f;" horiz-adv-x="1327" 
d="M182 0v1384h963v-1384h-184v1217h-594v-1217h-185z" />
    <glyph glyph-name="uni0420" unicode="&#x420;" horiz-adv-x="1182" 
d="M889 952q0 131 -72 198t-246 67h-204v-580h178q145 1 213 29t100 92t31 194zM1083 931q1 -239 -117 -351t-382 -111h-217v-469h-185v1384h410q259 0 375 -107t116 -346z" />
    <glyph glyph-name="uni0421" unicode="&#x421;" horiz-adv-x="1321" 
d="M129 692q1 362 147 541q146 180 451 180q237 -1 377 -113q66 -52 119 -147l-152 -100q-44 75 -89 113q-98 84 -255 83q-207 -1 -305 -139t-98 -416t96 -418t309 -141q118 1 205 47t156 160l153 -100q-67 -106 -135 -160q-139 -111 -373 -111q-311 -1 -459 179t-147 542z
" />
    <glyph glyph-name="uni0422" unicode="&#x422;" horiz-adv-x="1184" 
d="M684 1217v-1217h-184v1217h-459v167h1102v-167h-459z" />
    <glyph glyph-name="uni0423" unicode="&#x423;" horiz-adv-x="1196" 
d="M296 -29q-121 0 -226 35l57 154q64 -31 156 -31q145 0 202 143l27 66l-461 1046h199l364 -827l361 827h190l-518 -1167q-107 -246 -351 -246z" />
    <glyph glyph-name="uni0424" unicode="&#x424;" horiz-adv-x="1503" 
d="M1237 694q0 186 -92 283.5t-309 112.5v-787q217 12 309 108.5t92 282.5zM268 702q0 -194 91.5 -290.5t312.5 -108.5v787q-210 -13 -307 -103.5t-97 -284.5zM672 -47v197q-301 14 -447.5 143t-146.5 401t147.5 402.5t446.5 146.5v191h164v-191q301 -14 445 -143.5
t144 -403.5t-146 -403t-443 -143v-197h-164z" />
    <glyph glyph-name="uni0425" unicode="&#x425;" horiz-adv-x="1208" 
d="M53 0l449 694l-436 690h217l327 -546l338 546h207l-442 -684l442 -700h-217l-336 557l-342 -557h-207z" />
    <glyph glyph-name="uni0426" unicode="&#x426;" horiz-adv-x="1346" 
d="M182 0v1384h185v-1216h602v1216h182v-1222h168v-424h-180v262h-957z" />
    <glyph glyph-name="uni0427" unicode="&#x427;" horiz-adv-x="1253" 
d="M80 1384h184v-348q0 -169 21.5 -241.5t73 -102.5t185.5 -30t341 55v667h186v-1384h-186v563q-242 -59 -402 -59q-211 0 -307 104.5t-96 343.5v432z" />
    <glyph glyph-name="uni0428" unicode="&#x428;" horiz-adv-x="1898" 
d="M1532 162v1222h184v-1384h-1534v1384h185v-1222h491v1222h182v-1222h492z" />
    <glyph glyph-name="uni0429" unicode="&#x429;" horiz-adv-x="1911" 
d="M182 0v1384h185v-1222h491v1222h182v-1222h492v1222h184v-1222h168v-424h-180v262h-1522z" />
    <glyph glyph-name="uni042A" unicode="&#x42a;" horiz-adv-x="1434" 
d="M608 692v-530h223q158 0 247 58.5t89 197.5q0 105 -33 163t-106 84.5t-221 26.5h-199zM41 1223v161h567v-530h228q276 0 401 -104.5t125 -327.5t-133 -322.5t-387 -99.5h-418v1223h-383z" />
    <glyph glyph-name="uni042B" unicode="&#x42b;" horiz-adv-x="1714" 
d="M926 418q0 105 -33 163t-105.5 84.5t-222.5 26.5h-198v-530h225q158 0 246 58.5t88 197.5zM182 0v1384h185v-530h227q276 0 401 -104.5t125 -328.5t-134 -322.5t-386 -98.5h-418zM1348 1384h184v-1384h-184v1384z" />
    <glyph glyph-name="uni042C" unicode="&#x42c;" horiz-adv-x="1192" 
d="M926 418q0 105 -33 163t-105.5 84.5t-222.5 26.5h-198v-530h225q158 0 246 58.5t88 197.5zM182 0v1384h185v-530h227q276 0 401 -104.5t125 -328.5t-134 -322.5t-386 -98.5h-418z" />
    <glyph glyph-name="uni042D" unicode="&#x42d;" horiz-adv-x="1321" 
d="M645 1413q305 0 451.5 -179.5t146.5 -541.5t-147.5 -541.5t-458.5 -179.5q-178 0 -301 64t-207 207l154 100q64 -109 152 -158t208 -49q199 0 295 121t109 356h-674v168h674q-15 234 -113 351.5t-289 117.5q-150 0 -221.5 -57t-122.5 -139l-151 100q142 260 495 260z" />
    <glyph glyph-name="uni042E" unicode="&#x42e;" horiz-adv-x="1894" 
d="M1583 692q0 296 -88.5 429.5t-284.5 133.5t-283 -134.5t-87 -427.5t90 -428.5t282 -135.5t281.5 133.5t89.5 429.5zM1776 694q0 -722 -562 -723q-278 0 -416 159.5t-151 477.5h-280v-608h-185v1384h185v-614h280q13 319 150 481t421 162t421 -176.5t137 -542.5z" />
    <glyph glyph-name="uni042F" unicode="&#x42f;" horiz-adv-x="1237" 
d="M334 976q0 -142 69.5 -194.5t235.5 -52.5h231v492h-243q-154 0 -223.5 -51.5t-69.5 -193.5zM143 1009q0 184 112 279.5t370 95.5h430v-1384h-185v565h-241l-353 -565h-217l375 594q-153 33 -222 132t-69 283z" />
    <glyph glyph-name="uni0430" unicode="&#x430;" horiz-adv-x="1100" 
d="M287 302q0 -96 47 -138q47 -41 143 -41q95 -1 221 99q34 28 68 54v256l-168 -16q-171 -14 -241 -66t-70 -148zM516 1079q226 0 324 -82t98 -284v-713h-172v131q-80 -70 -161 -116t-183 -46q-150 -1 -232 91t-81 218t43 196q42 72 122 114t234 59l258 23v51q0 121 -68 165
t-180 44t-170 -37t-82 -80l-141 86q99 180 391 180z" />
    <glyph glyph-name="uni0431" unicode="&#x431;" horiz-adv-x="1114" 
d="M856 513q0 173 -63.5 259t-202.5 86q-81 0 -165 -45t-144 -117l-2 -43v-43q0 -239 82.5 -369t232.5 -130q123 0 192.5 114.5t69.5 287.5zM592 -31q-492 0 -492 684q0 375 81.5 550t226.5 223.5t270 64.5t283 31v-164q-168 -12 -295 -28.5t-213 -66t-129 -143.5t-43 -258
q65 64 157 101.5t191 37.5q405 0 405 -479q0 -258 -115.5 -405.5t-326.5 -147.5z" />
    <glyph glyph-name="uni0432" unicode="&#x432;" horiz-adv-x="1098" 
d="M819 306q0 100 -59.5 131.5t-204.5 31.5h-217v-332h147q166 0 250 34.5t84 134.5zM776 776q0 88 -59.5 113.5t-181.5 25.5h-197v-311h184q254 0 254 172zM995 319q0 -169 -114.5 -244t-335.5 -75h-375v1049h371q226 0 316.5 -55t90.5 -191q0 -183 -162 -248
q108 -24 158.5 -80t50.5 -156z" />
    <glyph glyph-name="uni0433" unicode="&#x433;" horiz-adv-x="881" 
d="M170 1049h694v-142h-520v-907h-174v1049z" />
    <glyph glyph-name="uni0434" unicode="&#x434;" horiz-adv-x="1100" 
d="M741 137v774h-262q-25 -446 -192 -774h454zM23 -231v368h98q96 189 146 430t50 482h592v-912h168v-368h-164v231h-727v-231h-163z" />
    <glyph glyph-name="uni0435" unicode="&#x435;" horiz-adv-x="1081" 
d="M809 639q-4 297 -243 297q-126 0 -188 -70t-81 -227h512zM569 1079q408 0 408 -479v-96h-682q0 -208 71 -296t228 -89q70 -1 123 29t102 96l142 -88q-60 -90 -146 -138t-233 -49q-465 0 -465 547q1 288 113 426t339 137z" />
    <glyph glyph-name="uni0436" unicode="&#x436;" horiz-adv-x="1493" 
d="M831 1049v-447h117q85 0 143.5 101t118.5 346h172q-70 -321 -137 -408.5t-129 -103.5q119 -35 167 -130.5t74.5 -187.5t61.5 -219h-174q-35 123 -62.5 209t-75.5 166t-175 80h-101v-455h-169v455h-103q-67 0 -111.5 -24.5t-77 -80t-60 -141.5t-62.5 -209h-174
q56 223 94 316t85 144.5t124 76.5q-63 15 -129.5 101.5t-138.5 410.5h174q71 -308 137.5 -377.5t124.5 -69.5h117v447h169z" />
    <glyph glyph-name="uni0437" unicode="&#x437;" horiz-adv-x="961" 
d="M244 618h219q117 0 172 33t55 107q0 172 -254 172q-86 0 -138 -34t-91 -95l-141 86q110 192 368 192q211 0 317.5 -85t106.5 -230q0 -94 -49 -153.5t-115 -80.5q62 -22 112 -83.5t50 -167.5q0 -310 -428 -310q-154 0 -241 54.5t-136 138.5l142 86q47 -66 100 -97.5
t151 -31.5t171 44t73 134q0 180 -215 180h-229v141z" />
    <glyph glyph-name="uni0438" unicode="&#x438;" horiz-adv-x="1190" 
d="M170 0v1049h162v-828l514 828h174v-1049h-162v811l-506 -811h-182z" />
    <glyph glyph-name="uni0439" unicode="&#x439;" horiz-adv-x="1190" 
d="M170 0v1049h162v-828l514 828h174v-1049h-162v811l-506 -811h-182zM432 1442q24 -148 177 -148q77 0 115 37t48 111h157q-1 -72 -41 -132q-83 -122 -286 -122t-287 124q-41 60 -41 130h158z" />
    <glyph glyph-name="uni043A" unicode="&#x43a;" horiz-adv-x="997" 
d="M338 1049v-447h147q59 0 123 65.5t137 381.5h175q-73 -327 -139.5 -412t-129.5 -100q75 -22 122 -71t86 -146.5t95 -319.5h-174q-35 123 -62.5 210t-60 141.5t-76.5 79t-112 24.5h-131v-455h-168v1049h168z" />
    <glyph glyph-name="uni043B" unicode="&#x43b;" horiz-adv-x="1090" 
d="M475 907v-73q0 -255 -43.5 -451.5t-123 -297.5t-187.5 -101q-60 0 -111 18l33 150q37 -7 63 -7q205 0 205 748v156h609v-1049h-168v907h-277z" />
    <glyph glyph-name="uni043C" unicode="&#x43c;" horiz-adv-x="1311" 
d="M1141 0h-162v799l-285 -523h-86l-276 523v-799h-162v1049h180l305 -539l308 539h178v-1049z" />
    <glyph glyph-name="uni043D" unicode="&#x43d;" horiz-adv-x="1186" 
d="M1016 0h-168v471h-510v-471h-168v1049h168v-439h510v439h168v-1049z" />
    <glyph glyph-name="uni043E" unicode="&#x43e;" horiz-adv-x="1157" 
d="M862 526q0 210 -70 307t-214 97q-143 0 -213 -98t-70 -306q-1 -209 67 -308t214 -99t216 98q70 99 70 309zM1040 524q0 -274 -118 -415q-118 -140 -342 -140q-225 1 -344 139t-119 416q-1 278 119 417q120 138 345 138q225 -1 342 -141t117 -414z" />
    <glyph glyph-name="uni043F" unicode="&#x43f;" horiz-adv-x="1169" 
d="M827 0v907h-485v-907h-172v1049h829v-1049h-172z" />
    <glyph glyph-name="uni0440" unicode="&#x440;" horiz-adv-x="1174" 
d="M629 926q-147 0 -287 -135v-555q134 -113 260 -113t202 98q75 98 75 307q0 398 -250 398zM1057 535q-1 -261 -113 -413t-309 -153q-157 0 -293 117v-481h-172v1444h172v-105q59 57 142 96t178 39q187 1 291 -141t104 -403z" />
    <glyph glyph-name="uni0441" unicode="&#x441;" horiz-adv-x="1030" 
d="M582 -31q-465 0 -465 553q0 274 116 416t342 141q259 0 369 -192l-141 -86q-39 61 -91 95t-139 34q-151 0 -215 -110t-63 -279q0 -170 30 -252q62 -170 255 -170q84 -1 137 31t100 98l141 -86q-49 -84 -136 -138t-240 -55z" />
    <glyph glyph-name="uni0442" unicode="&#x442;" horiz-adv-x="872" 
d="M856 911h-336v-911h-168v911h-336v138h840v-138z" />
    <glyph glyph-name="uni0443" unicode="&#x443;" horiz-adv-x="1040" 
d="M190 -252q121 0 205 219l35 90l-383 992h186l289 -768l291 768h180l-448 -1129q-71 -173 -152 -244t-198 -71t-199 30l43 142q65 -29 151 -29z" />
    <glyph glyph-name="uni0444" unicode="&#x444;" horiz-adv-x="1360" 
d="M1069 524q0 192 -67.5 291.5t-241.5 116.5v-815q174 16 241.5 115.5t67.5 291.5zM291 524q0 -192 68.5 -292.5t244.5 -116.5v817q-178 -17 -245.5 -116.5t-67.5 -291.5zM604 -395v368q-242 13 -364.5 140t-122.5 405t117 410.5t370 148.5v414h156v-414
q250 -17 366.5 -151t116.5 -402t-113 -400t-370 -151v-368h-156z" />
    <glyph glyph-name="uni0445" unicode="&#x445;" horiz-adv-x="1012" 
d="M741 0l-241 399l-250 -399h-195l348 518l-344 531h211l242 -398l248 398h196l-348 -519l348 -530h-215z" />
    <glyph glyph-name="uni0446" unicode="&#x446;" horiz-adv-x="1202" 
d="M170 0v1049h174v-908h500v908h174v-912h162v-368h-160v231h-850z" />
    <glyph glyph-name="uni0447" unicode="&#x447;" horiz-adv-x="1059" 
d="M82 1049h168v-269q0 -126 15 -190.5t49.5 -90.5t125.5 -26t281 76v500h168v-1049h-168v401l-83 -30q-159 -60 -257 -60q-155 0 -227 101t-72 307v330z" />
    <glyph glyph-name="uni0448" unicode="&#x448;" horiz-adv-x="1618" 
d="M1311 137v912h168v-1049h-1309v1049h168v-912h403v912h168v-912h402z" />
    <glyph glyph-name="uni0449" unicode="&#x449;" horiz-adv-x="1669" 
d="M170 0v1049h168v-912h403v912h168v-912h402v912h168v-912h168v-368h-164v231h-1313z" />
    <glyph glyph-name="uni044A" unicode="&#x44a;" horiz-adv-x="1108" 
d="M877 306q0 86 -24 129t-79 62t-174 19h-139v-379h160q137 0 196.5 41.5t59.5 127.5zM16 911v138h445v-396h164q227 0 327.5 -79.5t100.5 -259.5t-109.5 -247t-312.5 -67h-338v911h-277z" />
    <glyph glyph-name="uni044B" unicode="&#x44b;" horiz-adv-x="1421" 
d="M756 310q0 87 -38.5 146.5t-240.5 59.5h-139v-379h164q141 0 197.5 43t56.5 130zM338 653h164q227 0 328.5 -79.5t101.5 -250.5t-98.5 -247t-325.5 -76h-338v1049h168v-396zM1083 0v1049h168v-1049h-168z" />
    <glyph glyph-name="uni044C" unicode="&#x44c;" horiz-adv-x="987" 
d="M756 310q0 87 -38.5 146.5t-240.5 59.5h-139v-379h164q141 0 197.5 43t56.5 130zM338 653h164q227 0 328.5 -79.5t101.5 -250.5t-98.5 -247t-325.5 -76h-338v1049h168v-396z" />
    <glyph glyph-name="uni044D" unicode="&#x44d;" horiz-adv-x="1030" 
d="M440 1079q244 0 358.5 -142.5t114.5 -415.5t-117.5 -412.5t-346.5 -139.5q-154 0 -241 54.5t-136 138.5l141 86q47 -66 100.5 -97.5t137.5 -31.5q130 0 201 78.5t81 259.5h-512v141h512q-12 158 -76.5 245t-199.5 87q-86 0 -138.5 -34t-91.5 -95l-141 86q110 192 354 192
z" />
    <glyph glyph-name="uni044E" unicode="&#x44e;" horiz-adv-x="1565" 
d="M1278 522q0 420 -290 420t-290 -420q0 -202 74 -307.5t216 -105.5t216 106t74 307zM334 0h-164v1049h164v-459h196q31 489 459 489q228 0 343.5 -141.5t115.5 -412.5t-115 -413.5t-333 -142.5q-440 0 -470 492h-196v-461z" />
    <glyph glyph-name="uni044F" unicode="&#x44f;" horiz-adv-x="1053" 
d="M276 758q0 -86 24.5 -123t79.5 -53.5t161 -16.5h174v350h-185q-148 0 -201 -35.5t-53 -121.5zM106 760q0 160 97.5 224.5t306.5 64.5h373v-1049h-168v428h-219l-252 -428h-191l272 445q-219 60 -219 315z" />
    <glyph glyph-name="uni0450" unicode="&#x450;" horiz-adv-x="1081" 
d="M809 639q-4 297 -243 297q-126 0 -188 -70t-81 -227h512zM569 1079q408 0 408 -479v-96h-682q0 -208 71 -296t228 -89q70 -1 123 29t102 96l142 -88q-60 -90 -146 -138t-233 -49q-465 0 -465 547q1 288 113 426t339 137zM594 1208l-273 361h236l178 -361h-141z" />
    <glyph glyph-name="uni0451" unicode="&#x451;" horiz-adv-x="1081" 
d="M809 639q-4 297 -243 297q-126 0 -188 -70t-81 -227h512zM569 1079q408 0 408 -479v-96h-682q0 -208 71 -296t228 -89q70 -1 123 29t102 96l142 -88q-60 -90 -146 -138t-233 -49q-465 0 -465 547q1 288 113 426t339 137zM473 1312q-1 -58 -25 -80q-24 -24 -86 -24t-82 29
q-22 29 -22 80t24 77t84 27t84 -25t23 -84zM868 1312q0 -58 -24 -80q-24 -24 -86 -24t-84 29t-21 80q-1 51 23 77t84 27t84 -25t24 -84z" />
    <glyph glyph-name="uni0452" unicode="&#x452;" horiz-adv-x="1104" 
d="M604 1217h-295v-324q83 83 176 134.5t172 51.5q189 0 277 -139t88 -408q0 -421 -122 -654.5t-347 -264.5l-29 137q122 29 222 147.5t100 567.5q0 240 -50 344t-173 104q-56 0 -140.5 -46t-173.5 -126v-741h-172v1217h-114v133h114v141h172v-141h295v-133z" />
    <glyph glyph-name="uni0453" unicode="&#x453;" horiz-adv-x="881" 
d="M512 1208h-142l178 361h236zM170 1049h694v-142h-520v-907h-174v1049z" />
    <glyph glyph-name="uni0454" unicode="&#x454;" horiz-adv-x="1030" 
d="M582 -31q-465 0 -465 413.5t116 555t342 141.5q259 0 369 -192l-141 -86q-39 61 -91.5 95t-138.5 34q-135 0 -199.5 -87t-76.5 -245h512v-141h-512q10 -180 80.5 -259t202.5 -79q84 0 137 31.5t100 97.5l141 -86q-49 -84 -136 -138.5t-240 -54.5z" />
    <glyph glyph-name="uni0455" unicode="&#x455;" horiz-adv-x="991" 
d="M487 -31q-131 -1 -235 49t-152 140l138 84q79 -127 254 -127q114 -1 170 43t57 121q0 77 -82 117q-42 20 -172 55q-187 43 -263 119t-77 208q0 132 100 217q100 84 257 84t250 -54t136 -130l-137 -84q-82 123 -233 123q-86 0 -146 -38t-59 -114q0 -76 52 -107
q53 -33 197 -69t212 -76q133 -78 133 -236t-104 -242t-296 -83z" />
    <glyph glyph-name="uni0456" unicode="&#x456;" horiz-adv-x="512" 
d="M170 0v1049h172v-1049h-172zM369 1312q0 -58 -27 -78q-27 -22 -88 -22t-85 27t-24 78t26 75t86 25t86 -23t26 -82z" />
    <glyph glyph-name="uni0457" unicode="&#x457;" horiz-adv-x="512" 
d="M152 1312q0 -58 -24 -80q-24 -24 -86 -24t-84 29t-21 80q-1 51 23 77t84 27t84 -25t24 -84zM547 1312q-1 -58 -25 -80q-24 -24 -86 -24t-82 29q-22 29 -22 80t24 77t84 27t84 -25t23 -84zM170 0v1049h172v-1049h-172z" />
    <glyph glyph-name="uni0458" unicode="&#x458;" horiz-adv-x="537" 
d="M358 -45q0 -190 -74 -270t-239 -80q-100 0 -188 30l43 142q73 -29 154 -29q80 0 106 58t26 169v1074h172v-1094zM385 1312q-1 -58 -27 -78q-26 -22 -88 -22t-84 27q-24 27 -24 78t26 75t86 25t86 -23t25 -82z" />
    <glyph glyph-name="uni0459" unicode="&#x459;" horiz-adv-x="1567" 
d="M1335 300q0 92 -23.5 134.5t-77 62t-175.5 19.5h-139v-379h161q121 0 187.5 35.5t66.5 127.5zM311 1049h609v-396h161q228 0 329 -79.5t101 -251.5t-99 -247t-325 -75h-335v907h-277v-73q0 -255 -43.5 -451.5t-123 -297.5t-187.5 -101q-60 0 -111 18l33 150q37 -7 63 -7
q205 0 205 748v156z" />
    <glyph glyph-name="uni045A" unicode="&#x45a;" horiz-adv-x="1665" 
d="M1434 316q0 98 -57.5 134.5t-221.5 36.5h-139v-350h162q137 0 196.5 40.5t59.5 138.5zM848 0v487h-510v-487h-168v1049h168v-420h510v420h168v-420h164q227 0 328.5 -75.5t101.5 -239.5t-99 -239t-325 -75h-338z" />
    <glyph glyph-name="uni045B" unicode="&#x45b;" horiz-adv-x="1096" 
d="M674 1079q153 0 224 -88.5t71 -290.5v-700h-172v618q0 145 -14.5 197.5t-50 75t-100.5 22.5t-153 -50t-170 -122v-741h-172v1217h-121v133h121v139h172v-139h291v-133h-291v-324q73 73 170 129.5t195 56.5z" />
    <glyph glyph-name="uni045C" unicode="&#x45c;" horiz-adv-x="997" 
d="M545 1208h-142l178 361h236zM338 1049v-447h147q59 0 100 42q87 89 160 405h175q-72 -327 -164 -444q-42 -53 -105 -68q75 -22 122 -71q47 -48 86 -146t95 -320h-174q-34 123 -62 210q-28 88 -60 142t-77 78q-44 24 -112 25h-131v-455h-168v1049h168z" />
    <glyph glyph-name="uni045D" unicode="&#x45d;" horiz-adv-x="1190" 
d="M586 1208l-273 361h236l178 -361h-141zM170 0v1049h162v-828l514 828h174v-1049h-162v811l-506 -811h-182z" />
    <glyph glyph-name="uni045E" unicode="&#x45e;" horiz-adv-x="1040" 
d="M190 -252q121 0 205 219l35 90l-383 992h186l289 -768l291 768h180l-448 -1129q-71 -173 -152 -244t-198 -71t-199 30l43 142q65 -29 151 -29zM357 1442q24 -148 177 -148q76 0 114 37t49 111h157q0 -72 -40 -132q-83 -122 -287 -122q-203 0 -287 124q-41 60 -41 130h158
z" />
    <glyph glyph-name="uni045F" unicode="&#x45f;" horiz-adv-x="1128" 
d="M989 0h-340v-285h-170v285h-340v1049h174v-908h502v908h174v-1049z" />
    <glyph glyph-name="uni0490" unicode="&#x490;" horiz-adv-x="1055" 
d="M834 1634h180v-417h-641v-1217h-191v1384h652v250z" />
    <glyph glyph-name="uni0491" unicode="&#x491;" horiz-adv-x="850" 
d="M139 0v1049h527v307h168v-449h-521v-907h-174z" />
    <glyph glyph-name="Wgrave" unicode="&#x1e80;" horiz-adv-x="1757" 
d="M1356 0h-221l-261 1108l-262 -1108h-217l-327 1384h184l258 -1118l262 1118h209l266 -1126l262 1126h181zM863 1544l-273 361h236l178 -361h-141z" />
    <glyph glyph-name="wgrave" unicode="&#x1e81;" horiz-adv-x="1475" 
d="M1153 0h-160l-256 803l-256 -803h-157l-261 1049h179l178 -799l250 799h143l256 -799l170 799h172zM709 1208l-273 361h236l178 -361h-141z" />
    <glyph glyph-name="Wacute" unicode="&#x1e82;" horiz-adv-x="1757" 
d="M1356 0h-221l-261 1108l-262 -1108h-217l-327 1384h184l258 -1118l262 1118h209l266 -1126l262 1126h181zM924 1544h-142l178 361h236z" />
    <glyph glyph-name="wacute" unicode="&#x1e83;" horiz-adv-x="1475" 
d="M1153 0h-160l-256 803l-256 -803h-157l-261 1049h179l178 -799l250 799h143l256 -799l170 799h172zM791 1208h-142l178 361h236z" />
    <glyph glyph-name="Wdieresis" unicode="&#x1e84;" horiz-adv-x="1757" 
d="M1356 0h-221l-261 1108l-262 -1108h-217l-327 1384h184l258 -1118l262 1118h209l266 -1126l262 1126h181zM793 1648q-1 -58 -25 -80q-24 -24 -86 -24t-82 29q-22 29 -22 80t24 77t84 27t84 -25t23 -84zM1188 1648q0 -58 -24 -80q-24 -24 -86 -24t-84 29t-21 80
q-1 51 23 77t84 27t84 -25t24 -84z" />
    <glyph glyph-name="wdieresis" unicode="&#x1e85;" horiz-adv-x="1475" 
d="M1153 0h-160l-256 803l-256 -803h-157l-261 1049h179l178 -799l250 799h143l256 -799l170 799h172zM660 1312q0 -58 -24 -80q-24 -24 -86 -24t-84 29t-21 80q-1 51 23 77t84 27t84 -25t24 -84zM1055 1312q-1 -58 -25 -80q-24 -24 -86 -24t-82 29q-22 29 -22 80t24 77
t84 27t84 -25t23 -84z" />
    <glyph glyph-name="Eszett" unicode="&#x1e9e;" horiz-adv-x="1405" 
d="M682 1415q178 0 311 -31v-135q-133 0 -198.5 -57t-65.5 -157t49.5 -151t201.5 -104t239.5 -149t87.5 -269t-115 -282t-318 -109q-311 0 -423 271l157 86q82 -193 271 -193q100 0 169.5 56.5t69.5 160.5t-55 167t-216 117q-302 101 -302 378q0 148 114 237
q-162 0 -227 -73.5t-65 -266.5v-911h-185v889q0 268 120 397t380 129z" />
    <glyph glyph-name="Adotbelow" unicode="&#x1ea0;" horiz-adv-x="1288" 
d="M414 528h450l-225 674zM51 0l473 1384h240l473 -1384h-195l-120 360h-564l-118 -360h-189zM759 -260q-1 -62 -27 -88t-92 -25q-66 0 -90 31q-22 31 -22 87t24 84t90 28t92 -28q26 -27 25 -89z" />
    <glyph glyph-name="adotbelow" unicode="&#x1ea1;" horiz-adv-x="1100" 
d="M287 302q0 -96 47 -138q47 -41 143 -41q95 -1 221 99q34 28 68 54v256l-168 -16q-171 -14 -241 -66t-70 -148zM516 1079q226 0 324 -82t98 -284v-713h-172v131q-80 -70 -161 -116t-183 -46q-150 -1 -232 91t-81 218t43 196q42 72 122 114t234 59l258 23v51q0 121 -68 165
t-180 44t-170 -37t-82 -80l-141 86q99 180 391 180zM614 -260q0 -62 -26 -88t-94 -25q-66 0 -88 31t-23 87q1 56 25 84t90 28t90 -28q26 -27 26 -89z" />
    <glyph glyph-name="Ahookabove" unicode="&#x1ea2;" horiz-adv-x="1288" 
d="M414 528h450l-225 674zM51 0l473 1384h240l473 -1384h-195l-120 360h-564l-118 -360h-189zM612 1827q103 0 151 -38t48 -99q0 -138 -148 -156v-37h-98v113h25q73 0 73 55t-62 55t-107 -32l-46 86q61 53 164 53z" />
    <glyph glyph-name="ahookabove" unicode="&#x1ea3;" horiz-adv-x="1100" 
d="M287 302q0 -96 47 -138q47 -41 143 -41q95 -1 221 99q34 28 68 54v256l-168 -16q-171 -14 -241 -66t-70 -148zM516 1079q226 0 324 -82t98 -284v-713h-172v131q-80 -70 -161 -116t-183 -46q-150 -1 -232 91t-81 218t43 196q42 72 122 114t234 59l258 23v51q0 121 -68 165
t-180 44t-170 -37t-82 -80l-141 86q99 180 391 180zM514 1491q103 0 151 -38t48 -99q0 -137 -148 -156v-37h-98v113h25q73 0 73 55q-1 55 -63 55t-106 -32l-46 86q61 53 164 53z" />
    <glyph glyph-name="Acircumflexacute" unicode="&#x1ea4;" horiz-adv-x="1288" 
d="M414 528h450l-225 674zM51 0l473 1384h240l473 -1384h-195l-120 360h-564l-118 -360h-189zM827 1733l123 274h235l-217 -274h-141zM829 1503l-184 162l-185 -162h-149l229 279h211l228 -279h-150z" />
    <glyph glyph-name="acircumflexacute" unicode="&#x1ea5;" horiz-adv-x="1100" 
d="M287 302q0 -96 47 -138q47 -41 143 -41q95 -1 221 99q34 28 68 54v256l-168 -16q-171 -14 -241 -66t-70 -148zM516 1079q226 0 324 -82t98 -284v-713h-172v131q-80 -70 -161 -116t-183 -46q-150 -1 -232 91t-81 218t43 196q42 72 122 114t234 59l258 23v51q0 121 -68 165
t-180 44t-170 -37t-82 -80l-141 86q99 180 391 180zM717 1397l123 274h235l-217 -274h-141zM719 1167l-184 162l-185 -162h-149l229 279h211l228 -279h-150z" />
    <glyph glyph-name="Acircumflexgrave" unicode="&#x1ea6;" horiz-adv-x="1288" 
d="M414 528h450l-225 674zM51 0l473 1384h240l473 -1384h-195l-120 360h-564l-118 -360h-189zM321 1733l-217 274h236l122 -274h-141zM829 1503l-184 162l-185 -162h-149l229 279h211l228 -279h-150z" />
    <glyph glyph-name="acircumflexgrave" unicode="&#x1ea7;" horiz-adv-x="1100" 
d="M287 302q0 -96 47 -138q47 -41 143 -41q95 -1 221 99q34 28 68 54v256l-168 -16q-171 -14 -241 -66t-70 -148zM516 1079q226 0 324 -82t98 -284v-713h-172v131q-80 -70 -161 -116t-183 -46q-150 -1 -232 91t-81 218t43 196q42 72 122 114t234 59l258 23v51q0 121 -68 165
t-180 44t-170 -37t-82 -80l-141 86q99 180 391 180zM211 1397l-217 274h236l122 -274h-141zM719 1167l-184 162l-185 -162h-149l229 279h211l228 -279h-150z" />
    <glyph glyph-name="Acircumflexhookabove" unicode="&#x1ea8;" horiz-adv-x="1288" 
d="M414 528h450l-225 674zM51 0l473 1384h240l473 -1384h-195l-120 360h-564l-118 -360h-189zM925 2007q103 0 151 -38t48 -99q0 -137 -148 -156v-37h-98v113h25q73 0 73 56t-62 55q-62 0 -107 -33l-46 86q61 53 164 53zM829 1503l-184 162l-185 -162h-149l229 279h211
l228 -279h-150z" />
    <glyph glyph-name="acircumflexhookabove" unicode="&#x1ea9;" horiz-adv-x="1100" 
d="M287 302q0 -96 47 -138q47 -41 143 -41q95 -1 221 99q34 28 68 54v256l-168 -16q-171 -14 -241 -66t-70 -148zM516 1079q226 0 324 -82t98 -284v-713h-172v131q-80 -70 -161 -116t-183 -46q-150 -1 -232 91t-81 218t43 196q42 72 122 114t234 59l258 23v51q0 121 -68 165
t-180 44t-170 -37t-82 -80l-141 86q99 180 391 180zM815 1671q103 0 151 -38t48 -99q0 -137 -148 -156v-37h-98v113h25q73 0 73 56t-62 55q-62 0 -107 -33l-46 86q61 53 164 53zM719 1167l-184 162l-185 -162h-149l229 279h211l228 -279h-150z" />
    <glyph glyph-name="Acircumflextilde" unicode="&#x1eaa;" horiz-adv-x="1288" 
d="M414 528h450l-225 674zM51 0l473 1384h240l473 -1384h-195l-120 360h-564l-118 -360h-189zM802 1944q88 0 97 88h121q-19 -222 -232 -222q-83 0 -169 52q-33 20 -63 36t-76 17q-46 -1 -66 -25t-25 -67h-121q6 105 68 163t145 58q84 0 151 -35q66 -35 100 -50t70 -15z
M829 1503l-184 142l-185 -142h-149l229 258h211l228 -258h-150z" />
    <glyph glyph-name="acircumflextilde" unicode="&#x1eab;" horiz-adv-x="1100" 
d="M287 302q0 -96 47 -138q47 -41 143 -41q95 -1 221 99q34 28 68 54v256l-168 -16q-171 -14 -241 -66t-70 -148zM516 1079q226 0 324 -82t98 -284v-713h-172v131q-80 -70 -161 -116t-183 -46q-150 -1 -232 91t-81 218t43 196q42 72 122 114t234 59l258 23v51q0 121 -68 165
t-180 44t-170 -37t-82 -80l-141 86q99 180 391 180zM692 1628q88 0 97 88h121q-19 -221 -232 -221q-83 1 -169 53q-33 20 -63 35q-30 16 -76 16q-46 -1 -66 -25t-25 -67h-121q6 105 68 163t145 59q84 0 151 -35q66 -34 100 -50t70 -16zM719 1167l-184 162l-185 -162h-149
l229 279h211l228 -279h-150z" />
    <glyph glyph-name="Acircumflexdotbelow" unicode="&#x1eac;" horiz-adv-x="1288" 
d="M414 528h450l-225 674zM51 0l473 1384h240l473 -1384h-195l-120 360h-564l-118 -360h-189zM829 1544l-184 238l-185 -238h-149l229 361h211l228 -361h-150zM759 -260q-1 -62 -27 -88t-92 -25q-66 0 -90 31q-22 31 -22 87t24 84t90 28t92 -28q26 -27 25 -89z" />
    <glyph glyph-name="acircumflexdotbelow" unicode="&#x1ead;" horiz-adv-x="1100" 
d="M287 302q0 -96 47 -138q47 -41 143 -41q95 -1 221 99q34 28 68 54v256l-168 -16q-171 -14 -241 -66t-70 -148zM516 1079q226 0 324 -82t98 -284v-713h-172v131q-80 -70 -161 -116t-183 -46q-150 -1 -232 91t-81 218t43 196q42 72 122 114t234 59l258 23v51q0 121 -68 165
t-180 44t-170 -37t-82 -80l-141 86q99 180 391 180zM719 1208l-184 238l-185 -238h-149l229 361h211l228 -361h-150zM614 -260q0 -62 -26 -88t-94 -25q-66 0 -88 31t-23 87q1 56 25 84t90 28t90 -28q26 -27 26 -89z" />
    <glyph glyph-name="Abreveacute" unicode="&#x1eae;" horiz-adv-x="1288" 
d="M414 528h450l-225 674zM51 0l473 1384h240l473 -1384h-195l-120 360h-564l-118 -360h-189zM549 1733l122 274h236l-217 -274h-141zM639 1659q102 1 147 31t57 94h127q0 -124 -86 -204t-240 -79q-154 0 -242 81q-87 81 -87 202h127q27 -125 197 -125z" />
    <glyph glyph-name="abreveacute" unicode="&#x1eaf;" horiz-adv-x="1100" 
d="M287 302q0 -96 47 -138q47 -41 143 -41q95 -1 221 99q34 28 68 54v256l-168 -16q-171 -14 -241 -66t-70 -148zM516 1079q226 0 324 -82t98 -284v-713h-172v131q-80 -70 -161 -116t-183 -46q-150 -1 -232 91t-81 218t43 196q42 72 122 114t234 59l258 23v51q0 121 -68 165
t-180 44t-170 -37t-82 -80l-141 86q99 180 391 180zM441 1438l122 274h236l-217 -274h-141zM531 1364q102 0 147 30t57 95h127q0 -123 -86 -203t-240 -80t-242 81q-87 81 -87 202h127q27 -125 197 -125z" />
    <glyph glyph-name="Abrevegrave" unicode="&#x1eb0;" horiz-adv-x="1288" 
d="M414 528h450l-225 674zM51 0l473 1384h240l473 -1384h-195l-120 360h-564l-118 -360h-189zM598 1733l-217 274h235l123 -274h-141zM972 1784q0 -124 -86 -204t-240 -79q-154 0 -242 81q-87 81 -87 202h127q27 -125 197 -125q102 1 147 31t57 94h127z" />
    <glyph glyph-name="abrevegrave" unicode="&#x1eb1;" horiz-adv-x="1100" 
d="M287 302q0 -96 47 -138q47 -41 143 -41q95 -1 221 99q34 28 68 54v256l-168 -16q-171 -14 -241 -66t-70 -148zM516 1079q226 0 324 -82t98 -284v-713h-172v131q-80 -70 -161 -116t-183 -46q-150 -1 -232 91t-81 218t43 196q42 72 122 114t234 59l258 23v51q0 121 -68 165
t-180 44t-170 -37t-82 -80l-141 86q99 180 391 180zM488 1438l-217 274h235l123 -274h-141zM531 1364q102 0 147 30t57 95h127q0 -123 -86 -203t-240 -80t-242 81q-87 81 -87 202h127q27 -125 197 -125z" />
    <glyph glyph-name="Abrevehookabove" unicode="&#x1eb2;" horiz-adv-x="1288" 
d="M414 528h450l-225 674zM51 0l473 1384h240l473 -1384h-195l-120 360h-564l-118 -360h-189zM612 2068q104 0 152 -38t49 -99q0 -137 -148 -155v-37h-98v112h24q74 -1 74 55q-1 56 -63 56t-107 -33l-45 86q58 53 162 53zM972 1784q0 -124 -86 -204t-240 -79q-154 0 -242 81
q-87 81 -87 202h127q27 -125 197 -125q102 1 147 31t57 94h127z" />
    <glyph glyph-name="abrevehookabove" unicode="&#x1eb3;" horiz-adv-x="1100" 
d="M287 302q0 -96 47 -138q47 -41 143 -41q95 -1 221 99q34 28 68 54v256l-168 -16q-171 -14 -241 -66t-70 -148zM516 1079q226 0 324 -82t98 -284v-713h-172v131q-80 -70 -161 -116t-183 -46q-150 -1 -232 91t-81 218t43 196q42 72 122 114t234 59l258 23v51q0 121 -68 165
t-180 44t-170 -37t-82 -80l-141 86q99 180 391 180zM703 1636q0 -137 -148 -155v-37h-98v112h24q74 0 74 56q-1 56 -63 55q-62 0 -107 -33l-45 86q60 54 192 54q74 0 122 -38t49 -100zM531 1364q102 0 147 30t57 95h127q0 -123 -86 -203t-240 -80t-242 81q-87 81 -87 202
h127q27 -125 197 -125z" />
    <glyph glyph-name="Abrevetilde" unicode="&#x1eb4;" horiz-adv-x="1288" 
d="M414 528h450l-225 674zM51 0l473 1384h240l473 -1384h-195l-120 360h-564l-118 -360h-189zM802 1964q88 0 97 88h121q-19 -221 -232 -221q-83 1 -169 53q-33 20 -63 35q-30 16 -76 16q-46 -1 -66 -25t-25 -67h-121q6 105 68 163t146 58q85 0 151 -34q65 -34 99 -50
t70 -16zM972 1784q0 -124 -86 -204t-240 -79q-154 0 -242 81q-87 81 -87 202h127q27 -125 197 -125q102 1 147 31t57 94h127z" />
    <glyph glyph-name="abrevetilde" unicode="&#x1eb5;" horiz-adv-x="1100" 
d="M287 302q0 -96 47 -138q47 -41 143 -41q95 -1 221 99q34 28 68 54v256l-168 -16q-171 -14 -241 -66t-70 -148zM516 1079q226 0 324 -82t98 -284v-713h-172v131q-80 -70 -161 -116t-183 -46q-150 -1 -232 91t-81 218t43 196q42 72 122 114t234 59l258 23v51q0 121 -68 165
t-180 44t-170 -37t-82 -80l-141 86q99 180 391 180zM692 1669q88 0 97 88h121q-19 -221 -232 -221q-83 0 -169 52q-33 20 -63 36t-76 16t-66 -24t-25 -68h-121q6 105 68 163t146 58q85 -1 151 -35q65 -34 99 -50t70 -15zM531 1364q102 0 147 30t57 95h127q0 -123 -86 -203
t-240 -80t-242 81q-87 81 -87 202h127q27 -125 197 -125z" />
    <glyph glyph-name="Abrevedotbelow" unicode="&#x1eb6;" horiz-adv-x="1288" 
d="M414 528h450l-225 674zM51 0l473 1384h240l473 -1384h-195l-120 360h-564l-118 -360h-189zM641 1679q102 0 147 31t57 94h127q0 -122 -86 -202t-241 -80q-154 0 -241 81t-87 201h127q28 -125 197 -125zM761 -260q-1 -62 -27 -88t-92 -25q-66 0 -90 31q-22 31 -22 87
t24 84t90 28t92 -28q26 -27 25 -89z" />
    <glyph glyph-name="abrevedotbelow" unicode="&#x1eb7;" horiz-adv-x="1100" 
d="M287 302q0 -96 47 -138q47 -41 143 -41q95 -1 221 99q34 28 68 54v256l-168 -16q-171 -14 -241 -66t-70 -148zM516 1079q226 0 324 -82t98 -284v-713h-172v131q-80 -70 -161 -116t-183 -46q-150 -1 -232 91t-81 218t43 196q42 72 122 114t234 59l258 23v51q0 121 -68 165
t-180 44t-170 -37t-82 -80l-141 86q99 180 391 180zM531 1364q102 0 147 30t57 95h127q0 -123 -86 -203t-240 -80t-242 81q-87 81 -87 202h127q27 -125 197 -125zM614 -260q0 -62 -26 -88t-94 -25q-66 0 -88 31t-23 87q1 56 25 84t90 28t90 -28q26 -27 26 -89z" />
    <glyph glyph-name="Edotbelow" unicode="&#x1eb8;" horiz-adv-x="1153" 
d="M182 0v1384h846v-167h-661v-404h565v-168h-565v-477h661v-168h-846zM710 -260q0 -62 -26 -88t-94 -25q-66 0 -88 31t-23 87q1 56 25 84t90 28t90 -28q26 -27 26 -89z" />
    <glyph glyph-name="edotbelow" unicode="&#x1eb9;" horiz-adv-x="1081" 
d="M809 639q-4 297 -243 297q-126 0 -188 -70t-81 -227h512zM569 1079q408 0 408 -479v-96h-682q0 -208 71 -296t228 -89q70 -1 123 29t102 96l142 -88q-60 -90 -146 -138t-233 -49q-465 0 -465 547q1 288 113 426t339 137zM679 -260q-1 -62 -27 -88t-92 -25q-66 0 -90 31
q-22 31 -22 87t24 84t90 28t92 -28q26 -27 25 -89z" />
    <glyph glyph-name="Ehookabove" unicode="&#x1eba;" horiz-adv-x="1153" 
d="M182 0v1384h846v-167h-661v-404h565v-168h-565v-477h661v-168h-846zM590 1827q103 0 151 -38t48 -99q0 -138 -148 -156v-37h-98v113h25q73 0 73 55t-62 55t-107 -32l-46 86q61 53 164 53z" />
    <glyph glyph-name="ehookabove" unicode="&#x1ebb;" horiz-adv-x="1081" 
d="M809 639q-4 297 -243 297q-126 0 -188 -70t-81 -227h512zM569 1079q408 0 408 -479v-96h-682q0 -208 71 -296t228 -89q70 -1 123 29t102 96l142 -88q-60 -90 -146 -138t-233 -49q-465 0 -465 547q1 288 113 426t339 137zM544 1491q103 0 151 -38t48 -99q0 -137 -148 -156
v-37h-98v113h25q73 0 73 55q-1 55 -63 55q-63 0 -106 -32l-46 86q61 53 164 53z" />
    <glyph glyph-name="Etilde" unicode="&#x1ebc;" horiz-adv-x="1153" 
d="M182 0v1384h846v-167h-661v-404h565v-168h-565v-477h661v-168h-846zM471 1819q57 -1 97 -23t75 -48t66 -48t67 -23q88 0 97 129h121q-19 -262 -232 -262q-65 0 -105 22t-71 51q-30 29 -58 51t-74 22q-82 0 -91 -134h-121q6 125 68 194t161 69z" />
    <glyph glyph-name="etilde" unicode="&#x1ebd;" horiz-adv-x="1081" 
d="M809 639q-4 297 -243 297q-126 0 -188 -70t-81 -227h512zM569 1079q408 0 408 -479v-96h-682q0 -208 71 -296t228 -89q70 -1 123 29t102 96l142 -88q-60 -90 -146 -138t-233 -49q-465 0 -465 547q1 288 113 426t339 137zM415 1483q57 -1 97 -23t75 -48t66 -48t67 -23
q88 0 97 129h121q-19 -262 -232 -262q-65 0 -105 22t-71 51q-30 29 -58 51t-74 22q-82 0 -91 -133h-121q6 125 68 193t161 69z" />
    <glyph glyph-name="Ecircumflexacute" unicode="&#x1ebe;" horiz-adv-x="1153" 
d="M182 0v1384h846v-167h-661v-404h565v-168h-565v-477h661v-168h-846zM786 1733l123 274h235l-217 -274h-141zM788 1503l-184 162l-185 -162h-149l229 279h211l228 -279h-150z" />
    <glyph glyph-name="ecircumflexacute" unicode="&#x1ebf;" horiz-adv-x="1081" 
d="M809 639q-4 297 -243 297q-126 0 -188 -70t-81 -227h512zM569 1079q408 0 408 -479v-96h-682q0 -208 71 -296t228 -89q70 -1 123 29t102 96l142 -88q-60 -90 -146 -138t-233 -49q-465 0 -465 547q1 288 113 426t339 137zM756 1397l123 274h235l-217 -274h-141zM758 1167
l-184 162l-185 -162h-149l229 279h211l228 -279h-150z" />
    <glyph glyph-name="Ecircumflexgrave" unicode="&#x1ec0;" horiz-adv-x="1153" 
d="M182 0v1384h846v-167h-661v-404h565v-168h-565v-477h661v-168h-846zM280 1733l-217 274h236l122 -274h-141zM788 1503l-184 162l-185 -162h-149l229 279h211l228 -279h-150z" />
    <glyph glyph-name="ecircumflexgrave" unicode="&#x1ec1;" horiz-adv-x="1081" 
d="M809 639q-4 297 -243 297q-126 0 -188 -70t-81 -227h512zM569 1079q408 0 408 -479v-96h-682q0 -208 71 -296t228 -89q70 -1 123 29t102 96l142 -88q-60 -90 -146 -138t-233 -49q-465 0 -465 547q1 288 113 426t339 137zM250 1397l-217 274h236l122 -274h-141zM758 1167
l-184 162l-185 -162h-149l229 279h211l228 -279h-150z" />
    <glyph glyph-name="Ecircumflexhookabove" unicode="&#x1ec2;" horiz-adv-x="1153" 
d="M182 0v1384h846v-167h-661v-404h565v-168h-565v-477h661v-168h-846zM884 2007q103 0 151 -38t48 -99q0 -137 -148 -156v-37h-98v113h25q73 0 73 56t-62 55q-62 0 -107 -33l-46 86q61 53 164 53zM788 1503l-184 162l-185 -162h-149l229 279h211l228 -279h-150z" />
    <glyph glyph-name="ecircumflexhookabove" unicode="&#x1ec3;" horiz-adv-x="1081" 
d="M809 639q-4 297 -243 297q-126 0 -188 -70t-81 -227h512zM569 1079q408 0 408 -479v-96h-682q0 -208 71 -296t228 -89q70 -1 123 29t102 96l142 -88q-60 -90 -146 -138t-233 -49q-465 0 -465 547q1 288 113 426t339 137zM852 1671q103 0 151 -38t48 -99q0 -137 -148 -156
v-37h-98v113h25q73 0 73 56t-62 55q-62 0 -107 -33l-46 86q61 53 164 53zM756 1167l-184 162l-185 -162h-149l229 279h211l228 -279h-150z" />
    <glyph glyph-name="Ecircumflextilde" unicode="&#x1ec4;" horiz-adv-x="1153" 
d="M182 0v1384h846v-167h-661v-404h565v-168h-565v-477h661v-168h-846zM761 1944q88 0 97 88h121q-19 -222 -232 -222q-83 0 -169 52q-32 20 -62 36t-77 17q-47 -1 -67 -25t-24 -67h-121q5 105 67 163t146 58t151 -35q66 -35 100 -50t70 -15zM788 1503l-184 142l-185 -142
h-149l229 258h211l228 -258h-150z" />
    <glyph glyph-name="ecircumflextilde" unicode="&#x1ec5;" horiz-adv-x="1081" 
d="M809 639q-4 297 -243 297q-126 0 -188 -70t-81 -227h512zM569 1079q408 0 408 -479v-96h-682q0 -208 71 -296t228 -89q70 -1 123 29t102 96l142 -88q-60 -90 -146 -138t-233 -49q-465 0 -465 547q1 288 113 426t339 137zM731 1628q88 0 97 88h121q-19 -221 -232 -221
q-83 1 -169 53q-32 20 -62 35q-30 16 -77 16q-47 -1 -67 -25t-24 -67h-121q5 105 67 163t146 59q84 0 151 -35q66 -34 100 -50t70 -16zM758 1167l-184 162l-185 -162h-149l229 279h211l228 -279h-150z" />
    <glyph glyph-name="Ecircumflexdotbelow" unicode="&#x1ec6;" horiz-adv-x="1153" 
d="M182 0v1384h846v-167h-661v-404h565v-168h-565v-477h661v-168h-846zM788 1544l-184 238l-185 -238h-149l229 361h211l228 -361h-150zM710 -260q0 -62 -26 -88t-94 -25q-66 0 -88 31t-23 87q1 56 25 84t90 28t90 -28q26 -27 26 -89z" />
    <glyph glyph-name="ecircumflexdotbelow" unicode="&#x1ec7;" horiz-adv-x="1081" 
d="M809 639q-4 297 -243 297q-126 0 -188 -70t-81 -227h512zM569 1079q408 0 408 -479v-96h-682q0 -208 71 -296t228 -89q70 -1 123 29t102 96l142 -88q-60 -90 -146 -138t-233 -49q-465 0 -465 547q1 288 113 426t339 137zM758 1208l-184 238l-185 -238h-149l229 361h211
l228 -361h-150zM690 -260q0 -62 -26 -88t-94 -25q-66 0 -88 31t-23 87q1 56 25 84t90 28t90 -28q26 -27 26 -89z" />
    <glyph glyph-name="Ihookabove" unicode="&#x1ec8;" horiz-adv-x="770" 
d="M668 0h-566v160h191v1067h-191v157h566v-157h-191v-1067h191v-160zM370 1827q103 0 151 -38t48 -99q0 -138 -148 -156v-37h-98v113h25q73 0 73 55q-1 55 -63 55q-63 0 -106 -32l-46 86q61 53 164 53z" />
    <glyph glyph-name="ihookabove" unicode="&#x1ec9;" horiz-adv-x="512" 
d="M170 0v1049h172v-1049h-172zM241 1491q103 0 151 -38t48 -99q0 -137 -148 -156v-37h-98v113h25q73 0 73 55t-62 55t-107 -32l-46 86q61 53 164 53z" />
    <glyph glyph-name="Idotbelow" unicode="&#x1eca;" horiz-adv-x="770" 
d="M668 0h-566v160h191v1067h-191v157h566v-157h-191v-1067h191v-160zM503 -260q-1 -62 -27 -88t-92 -25q-66 0 -90 31q-22 31 -22 87t24 84t90 28t92 -28q26 -27 25 -89z" />
    <glyph glyph-name="idotbelow" unicode="&#x1ecb;" horiz-adv-x="512" 
d="M170 0v1049h172v-1049h-172zM369 1312q0 -58 -27 -78q-27 -22 -88 -22t-85 27t-24 78t26 75t86 25t86 -23t26 -82zM374 -260q0 -62 -26 -88t-94 -25q-66 0 -88 31t-23 87q1 56 25 84t90 28t90 -28q26 -27 26 -89z" />
    <glyph glyph-name="Odotbelow" unicode="&#x1ecc;" horiz-adv-x="1364" 
d="M1051 690q-1 289 -87 424t-282 135t-282 -135t-87 -423t87 -422t282 -134t281 133q88 133 88 422zM1245 691q-1 -372 -141 -546t-424 -174t-422 177q-138 176 -139 542q0 366 137 544t424 179q287 0 426 -175t139 -547zM796 -260q0 -62 -26 -88t-94 -25q-66 0 -88 31
t-23 87q1 56 25 84t90 28t90 -28q26 -27 26 -89z" />
    <glyph glyph-name="odotbelow" unicode="&#x1ecd;" horiz-adv-x="1157" 
d="M862 526q0 210 -70 307t-214 97q-143 0 -213 -98t-70 -306q-1 -209 67 -308t214 -99t216 98q70 99 70 309zM1040 524q0 -274 -118 -415q-118 -140 -342 -140q-225 1 -344 139t-119 416q-1 278 119 417q120 138 345 138q225 -1 342 -141t117 -414zM694 -260q0 -62 -26 -88
t-94 -25q-66 0 -88 31t-23 87q1 56 25 84t90 28t90 -28q26 -27 26 -89z" />
    <glyph glyph-name="Ohookabove" unicode="&#x1ece;" horiz-adv-x="1364" 
d="M1051 690q-1 289 -87 424t-282 135t-282 -135t-87 -423t87 -422t282 -134t281 133q88 133 88 422zM1245 691q-1 -372 -141 -546t-424 -174t-422 177q-138 176 -139 542q0 366 137 544t424 179q287 0 426 -175t139 -547zM862 1690q0 -138 -148 -156v-37h-98v113h25
q73 0 73 55t-62 55t-107 -32l-46 86q61 53 164 53t151 -38t48 -99z" />
    <glyph glyph-name="ohookabove" unicode="&#x1ecf;" horiz-adv-x="1157" 
d="M862 526q0 210 -70 307t-214 97q-143 0 -213 -98t-70 -306q-1 -209 67 -308t214 -99t216 98q70 99 70 309zM1040 524q0 -274 -118 -415q-118 -140 -342 -140q-225 1 -344 139t-119 416q-1 278 119 417q120 138 345 138q225 -1 342 -141t117 -414zM561 1491q103 0 151 -38
t48 -99q0 -137 -148 -156v-37h-98v113h25q73 0 73 55t-62 55t-107 -32l-46 86q61 53 164 53z" />
    <glyph glyph-name="Ocircumflexacute" unicode="&#x1ed0;" horiz-adv-x="1364" 
d="M1051 690q-1 289 -87 424t-282 135t-282 -135t-87 -423t87 -422t282 -134t281 133q88 133 88 422zM1245 691q-1 -372 -141 -546t-424 -174t-422 177q-138 176 -139 542q0 366 137 544t424 179q287 0 426 -175t139 -547zM858 1733l123 274h235l-217 -274h-141zM860 1503
l-184 162l-185 -162h-149l229 279h211l228 -279h-150z" />
    <glyph glyph-name="ocircumflexacute" unicode="&#x1ed1;" horiz-adv-x="1157" 
d="M862 526q0 210 -70 307t-214 97q-143 0 -213 -98t-70 -306q-1 -209 67 -308t214 -99t216 98q70 99 70 309zM1040 524q0 -274 -118 -415q-118 -140 -342 -140q-225 1 -344 139t-119 416q-1 278 119 417q120 138 345 138q225 -1 342 -141t117 -414zM756 1397l123 274h235
l-217 -274h-141zM758 1167l-184 162l-185 -162h-149l229 279h211l228 -279h-150z" />
    <glyph glyph-name="Ocircumflexgrave" unicode="&#x1ed2;" horiz-adv-x="1364" 
d="M1051 690q-1 289 -87 424t-282 135t-282 -135t-87 -423t87 -422t282 -134t281 133q88 133 88 422zM1245 691q-1 -372 -141 -546t-424 -174t-422 177q-138 176 -139 542q0 366 137 544t424 179q287 0 426 -175t139 -547zM352 1733l-217 274h236l122 -274h-141zM860 1503
l-184 162l-185 -162h-149l229 279h211l228 -279h-150z" />
    <glyph glyph-name="ocircumflexgrave" unicode="&#x1ed3;" horiz-adv-x="1157" 
d="M862 526q0 210 -70 307t-214 97q-143 0 -213 -98t-70 -306q-1 -209 67 -308t214 -99t216 98q70 99 70 309zM1040 524q0 -274 -118 -415q-118 -140 -342 -140q-225 1 -344 139t-119 416q-1 278 119 417q120 138 345 138q225 -1 342 -141t117 -414zM250 1397l-217 274h236
l122 -274h-141zM758 1167l-184 162l-185 -162h-149l229 279h211l228 -279h-150z" />
    <glyph glyph-name="Ocircumflexhookabove" unicode="&#x1ed4;" horiz-adv-x="1364" 
d="M1051 690q-1 289 -87 424t-282 135t-282 -135t-87 -423t87 -422t282 -134t281 133q88 133 88 422zM1245 691q-1 -372 -141 -546t-424 -174t-422 177q-138 176 -139 542q0 366 137 544t424 179q287 0 426 -175t139 -547zM956 2007q103 0 151 -38t48 -99q0 -137 -148 -156
v-37h-98v113h25q73 0 73 56t-62 55q-62 0 -107 -33l-46 86q61 53 164 53zM860 1503l-184 162l-185 -162h-149l229 279h211l228 -279h-150z" />
    <glyph glyph-name="ocircumflexhookabove" unicode="&#x1ed5;" horiz-adv-x="1157" 
d="M862 526q0 210 -70 307t-214 97q-143 0 -213 -98t-70 -306q-1 -209 67 -308t214 -99t216 98q70 99 70 309zM1040 524q0 -274 -118 -415q-118 -140 -342 -140q-225 1 -344 139t-119 416q-1 278 119 417q120 138 345 138q225 -1 342 -141t117 -414zM854 1671q103 0 151 -38
t48 -99q0 -137 -148 -156v-37h-98v113h25q73 0 73 56t-62 55q-62 0 -107 -33l-46 86q61 53 164 53zM758 1167l-184 162l-185 -162h-149l229 279h211l228 -279h-150z" />
    <glyph glyph-name="Ocircumflextilde" unicode="&#x1ed6;" horiz-adv-x="1364" 
d="M1051 690q-1 289 -87 424t-282 135t-282 -135t-87 -423t87 -422t282 -134t281 133q88 133 88 422zM1245 691q-1 -372 -141 -546t-424 -174t-422 177q-138 176 -139 542q0 366 137 544t424 179q287 0 426 -175t139 -547zM833 1944q88 0 97 88h121q-19 -222 -232 -222
q-83 0 -169 52q-32 20 -62 36t-77 17q-47 -1 -67 -25t-24 -67h-121q5 105 67 163t146 58t151 -35q66 -35 100 -50t70 -15zM860 1503l-184 142l-185 -142h-149l229 258h211l228 -258h-150z" />
    <glyph glyph-name="ocircumflextilde" unicode="&#x1ed7;" horiz-adv-x="1157" 
d="M862 526q0 210 -70 307t-214 97q-143 0 -213 -98t-70 -306q-1 -209 67 -308t214 -99t216 98q70 99 70 309zM1040 524q0 -274 -118 -415q-118 -140 -342 -140q-225 1 -344 139t-119 416q-1 278 119 417q120 138 345 138q225 -1 342 -141t117 -414zM731 1628q88 0 97 88
h121q-19 -221 -232 -221q-83 1 -169 53q-32 20 -62 35q-30 16 -77 16q-47 -1 -67 -25t-24 -67h-121q5 105 67 163t146 59q84 0 151 -35q66 -34 100 -50t70 -16zM758 1167l-184 162l-185 -162h-149l229 279h211l228 -279h-150z" />
    <glyph glyph-name="Ocircumflexdotbelow" unicode="&#x1ed8;" horiz-adv-x="1364" 
d="M1051 690q-1 289 -87 424t-282 135t-282 -135t-87 -423t87 -422t282 -134t281 133q88 133 88 422zM1245 691q-1 -372 -141 -546t-424 -174t-422 177q-138 176 -139 542q0 366 137 544t424 179q287 0 426 -175t139 -547zM866 1544l-184 238l-185 -238h-149l229 361h211
l228 -361h-150zM796 -260q0 -62 -26 -88t-94 -25q-66 0 -88 31t-23 87q1 56 25 84t90 28t90 -28q26 -27 26 -89z" />
    <glyph glyph-name="ocircumflexdotbelow" unicode="&#x1ed9;" horiz-adv-x="1157" 
d="M862 526q0 210 -70 307t-214 97q-143 0 -213 -98t-70 -306q-1 -209 67 -308t214 -99t216 98q70 99 70 309zM1040 524q0 -274 -118 -415q-118 -140 -342 -140q-225 1 -344 139t-119 416q-1 278 119 417q120 138 345 138q225 -1 342 -141t117 -414zM762 1208l-184 238
l-185 -238h-149l229 361h211l228 -361h-150zM694 -260q0 -62 -26 -88t-94 -25q-66 0 -88 31t-23 87q1 56 25 84t90 28t90 -28q26 -27 26 -89z" />
    <glyph glyph-name="Ohornacute" unicode="&#x1eda;" horiz-adv-x="1487" 
d="M1051 690q-1 289 -87 424t-282 135t-282 -135t-87 -423t87 -422t282 -134t281 133q88 133 88 422zM1520 1446v-182q0 -168 -71 -244t-212 -76h-12q20 -114 20 -252q-1 -373 -141 -547t-424 -174t-422 177q-138 176 -139 542q0 366 137 544t426 179q207 0 329 -87
t179 -247h37q71 0 102 41t31 144v182h160zM699 1544h-142l178 361h236z" />
    <glyph glyph-name="ohornacute" unicode="&#x1edb;" horiz-adv-x="1249" 
d="M862 526q0 210 -70 307t-214 97q-143 0 -213 -98t-70 -306q-1 -209 67 -308t214 -99t216 98q70 99 70 309zM1040 522q0 -273 -118 -413t-342 -140q-225 1 -344 139t-119 416q-1 278 119 417q120 138 344 138q317 0 417 -274q69 2 97 44t28 140v141h160v-141
q0 -305 -252 -319q10 -87 10 -148zM602 1208h-142l178 361h236z" />
    <glyph glyph-name="Ohorngrave" unicode="&#x1edc;" horiz-adv-x="1487" 
d="M1051 690q-1 289 -87 424t-282 135t-282 -135t-87 -423t87 -422t282 -134t281 133q88 133 88 422zM1520 1446v-182q0 -168 -71 -244t-212 -76h-12q20 -114 20 -252q-1 -373 -141 -547t-424 -174t-422 177q-138 176 -139 542q0 366 137 544t426 179q207 0 329 -87
t179 -247h37q71 0 102 41t31 144v182h160zM674 1544l-273 361h236l178 -361h-141z" />
    <glyph glyph-name="ohorngrave" unicode="&#x1edd;" horiz-adv-x="1249" 
d="M862 526q0 210 -70 307t-214 97q-143 0 -213 -98t-70 -306q-1 -209 67 -308t214 -99t216 98q70 99 70 309zM1040 522q0 -273 -118 -413t-342 -140q-225 1 -344 139t-119 416q-1 278 119 417q120 138 344 138q317 0 417 -274q69 2 97 44t28 140v141h160v-141
q0 -305 -252 -319q10 -87 10 -148zM578 1208l-273 361h236l178 -361h-141z" />
    <glyph glyph-name="Ohornhookabove" unicode="&#x1ede;" horiz-adv-x="1487" 
d="M1051 690q-1 289 -87 424t-282 135t-282 -135t-87 -423t87 -422t282 -134t281 133q88 133 88 422zM1520 1446v-182q0 -168 -71 -244t-212 -76h-12q20 -114 20 -252q-1 -373 -141 -547t-424 -174t-422 177q-138 176 -139 542q0 366 137 544t426 179q207 0 329 -87
t179 -247h37q71 0 102 41t31 144v182h160zM680 1827q103 0 151 -38t48 -99q0 -138 -148 -156v-37h-98v113h25q73 0 73 55t-62 55t-107 -32l-46 86q61 53 164 53z" />
    <glyph glyph-name="ohornhookabove" unicode="&#x1edf;" horiz-adv-x="1249" 
d="M862 526q0 210 -70 307t-214 97q-143 0 -213 -98t-70 -306q-1 -209 67 -308t214 -99t216 98q70 99 70 309zM1040 522q0 -273 -118 -413t-342 -140q-225 1 -344 139t-119 416q-1 278 119 417q120 138 344 138q317 0 417 -274q69 2 97 44t28 140v141h160v-141
q0 -305 -252 -319q10 -87 10 -148zM577 1491q103 0 151 -38t48 -99q0 -137 -148 -156v-37h-98v113h25q73 0 73 55t-62 55q-63 0 -107 -32l-46 86q61 53 164 53z" />
    <glyph glyph-name="Ohorntilde" unicode="&#x1ee0;" horiz-adv-x="1487" 
d="M1051 690q-1 289 -87 424t-282 135t-282 -135t-87 -423t87 -422t282 -134t281 133q88 133 88 422zM1520 1446v-182q0 -168 -71 -244t-212 -76h-12q20 -114 20 -252q-1 -373 -141 -547t-424 -174t-422 177q-138 176 -139 542q0 366 137 544t426 179q207 0 329 -87
t179 -247h37q71 0 102 41t31 144v182h160zM534 1819q56 -1 96 -23t76 -48q35 -26 66 -48t67 -23q88 0 97 129h121q-19 -262 -232 -262q-65 0 -105 22t-71 51t-59 51t-73 22q-82 0 -91 -134h-121q5 125 67 194t162 69z" />
    <glyph glyph-name="ohorntilde" unicode="&#x1ee1;" horiz-adv-x="1249" 
d="M862 526q0 210 -70 307t-214 97q-143 0 -213 -98t-70 -306q-1 -209 67 -308t214 -99t216 98q70 99 70 309zM1040 522q0 -273 -118 -413t-342 -140q-225 1 -344 139t-119 416q-1 278 119 417q120 138 344 138q317 0 417 -274q69 2 97 44t28 140v141h160v-141
q0 -305 -252 -319q10 -87 10 -148zM426 1483q56 -1 96 -23t76 -48q35 -26 66 -48t67 -23q88 0 97 129h121q-19 -262 -232 -262q-65 0 -105 22t-71 51t-59 51t-73 22q-82 0 -91 -133h-121q5 125 67 193t162 69z" />
    <glyph glyph-name="Ohorndotbelow" unicode="&#x1ee2;" horiz-adv-x="1487" 
d="M1051 690q-1 289 -87 424t-282 135t-282 -135t-87 -423t87 -422t282 -134t281 133q88 133 88 422zM1520 1446v-182q0 -168 -71 -244t-212 -76h-12q20 -114 20 -252q-1 -373 -141 -547t-424 -174t-422 177q-138 176 -139 542q0 366 137 544t426 179q207 0 329 -87
t179 -247h37q71 0 102 41t31 144v182h160zM796 -260q0 -62 -26 -88t-94 -25q-66 0 -88 31t-23 87q1 56 25 84t90 28t90 -28q26 -27 26 -89z" />
    <glyph glyph-name="ohorndotbelow" unicode="&#x1ee3;" horiz-adv-x="1249" 
d="M862 526q0 210 -70 307t-214 97q-143 0 -213 -98t-70 -306q-1 -209 67 -308t214 -99t216 98q70 99 70 309zM1040 522q0 -273 -118 -413t-342 -140q-225 1 -344 139t-119 416q-1 278 119 417q120 138 344 138q317 0 417 -274q69 2 97 44t28 140v141h160v-141
q0 -305 -252 -319q10 -87 10 -148zM690 -260q0 -62 -26 -88t-94 -25q-66 0 -88 31t-23 87q1 56 25 84t90 28t90 -28q26 -27 26 -89z" />
    <glyph glyph-name="Udotbelow" unicode="&#x1ee4;" horiz-adv-x="1405" 
d="M1223 578q0 -227 -51 -358q-50 -131 -160 -191t-306 -60t-310 61t-164 193t-50 355v806h185v-786q0 -182 33 -280q32 -98 104 -142q72 -43 198 -43q126 1 199 43t105 135t32 283v790h185v-806zM817 -260q-1 -62 -27 -88t-92 -25q-66 0 -90 31q-22 31 -22 87t24 84t90 28
t92 -28q26 -27 25 -89z" />
    <glyph glyph-name="udotbelow" unicode="&#x1ee5;" horiz-adv-x="1163" 
d="M821 156q-187 -187 -371 -187q-200 1 -258 159q-30 80 -30 220v701h172v-619q0 -150 16 -200t49 -72q34 -22 99 -23q65 1 153 51t170 121v742h172v-1049h-172v156zM663 -260q-1 -62 -27 -88t-92 -25q-66 0 -90 31q-22 31 -22 87t24 84t90 28t92 -28q26 -27 25 -89z" />
    <glyph glyph-name="Uhookabove" unicode="&#x1ee6;" horiz-adv-x="1405" 
d="M1223 578q0 -227 -51 -358q-50 -131 -160 -191t-306 -60t-310 61t-164 193t-50 355v806h185v-786q0 -182 33 -280q32 -98 104 -142q72 -43 198 -43q126 1 199 43t105 135t32 283v790h185v-806zM684 1827q103 0 151 -38t48 -99q0 -138 -148 -156v-37h-98v113h25
q73 0 73 55t-63 55t-106 -32l-46 86q61 53 164 53z" />
    <glyph glyph-name="uhookabove" unicode="&#x1ee7;" horiz-adv-x="1163" 
d="M821 156q-187 -187 -371 -187q-200 1 -258 159q-30 80 -30 220v701h172v-619q0 -150 16 -200t49 -72q34 -22 99 -23q65 1 153 51t170 121v742h172v-1049h-172v156zM555 1491q103 0 151 -38t48 -99q0 -137 -148 -156v-37h-98v113h25q73 0 73 55t-62 55q-63 0 -107 -32
l-46 86q61 53 164 53z" />
    <glyph glyph-name="Uhornacute" unicode="&#x1ee8;" horiz-adv-x="1524" 
d="M1223 1079h41q71 0 102 41t31 144v182h159v-182q0 -170 -72 -245t-210 -75h-51v-366q0 -227 -51 -358q-50 -131 -160 -191t-306 -60t-310 61t-164 193t-50 355v806h185v-786q0 -182 33 -280q32 -98 104 -142q72 -43 198 -43q126 1 199 43t105 135t32 283v790h185v-305z
M725 1544h-142l178 361h236z" />
    <glyph glyph-name="uhornacute" unicode="&#x1ee9;" horiz-adv-x="1286" 
d="M821 156q-187 -187 -371 -187q-200 1 -258 159q-30 80 -30 220v701h172v-619q0 -150 16 -200t49 -72q34 -22 99 -23q65 1 153 51t170 121v742h172v-244h33q72 0 102 41t31 143v141h160v-141q1 -167 -69 -243t-214 -76h-43v-670h-172v156zM615 1208h-142l178 361h236z" />
    <glyph glyph-name="Uhorngrave" unicode="&#x1eea;" horiz-adv-x="1524" 
d="M1223 1079h41q71 0 102 41t31 144v182h159v-182q0 -170 -72 -245t-210 -75h-51v-366q0 -227 -51 -358q-50 -131 -160 -191t-306 -60t-310 61t-164 193t-50 355v806h185v-786q0 -182 33 -280q32 -98 104 -142q72 -43 198 -43q126 1 199 43t105 135t32 283v790h185v-305z
M674 1544l-273 361h236l178 -361h-141z" />
    <glyph glyph-name="uhorngrave" unicode="&#x1eeb;" horiz-adv-x="1286" 
d="M821 156q-187 -187 -371 -187q-200 1 -258 159q-30 80 -30 220v701h172v-619q0 -150 16 -200t49 -72q34 -22 99 -23q65 1 153 51t170 121v742h172v-244h33q72 0 102 41t31 143v141h160v-141q1 -167 -69 -243t-214 -76h-43v-670h-172v156zM555 1208l-273 361h236l178 -361
h-141z" />
    <glyph glyph-name="Uhornhookabove" unicode="&#x1eec;" horiz-adv-x="1524" 
d="M1223 1079h41q71 0 102 41t31 144v182h159v-182q0 -170 -72 -245t-210 -75h-51v-366q0 -227 -51 -358q-50 -131 -160 -191t-306 -60t-310 61t-164 193t-50 355v806h185v-786q0 -182 33 -280q32 -98 104 -142q72 -43 198 -43q126 1 199 43t105 135t32 283v790h185v-305z
M881 1690q0 -138 -148 -156v-37h-98v113h25q73 0 73 55t-63 55t-106 -32l-46 86q61 53 164 53t151 -38t48 -99z" />
    <glyph glyph-name="uhornhookabove" unicode="&#x1eed;" horiz-adv-x="1286" 
d="M821 156q-187 -187 -371 -187q-200 1 -258 159q-30 80 -30 220v701h172v-619q0 -150 16 -200t49 -72q34 -22 99 -23q65 1 153 51t170 121v742h172v-244h33q72 0 102 41t31 143v141h160v-141q1 -167 -69 -243t-214 -76h-43v-670h-172v156zM559 1491q103 0 151 -38t48 -99
q0 -137 -148 -156v-37h-98v113h25q73 0 73 55t-62 55t-107 -32l-46 86q61 53 164 53z" />
    <glyph glyph-name="Uhorntilde" unicode="&#x1eee;" horiz-adv-x="1524" 
d="M1223 1079h41q71 0 102 41t31 144v182h159v-182q0 -170 -72 -245t-210 -75h-51v-366q0 -227 -51 -358q-50 -131 -160 -191t-306 -60t-310 61t-164 193t-50 355v806h185v-786q0 -182 33 -280q32 -98 104 -142q72 -43 198 -43q126 1 199 43t105 135t32 283v790h185v-305z
M569 1819q57 -1 97 -23t75 -48t66 -48t67 -23q88 0 97 129h121q-19 -262 -232 -262q-65 0 -105 22t-71 51q-30 29 -58 51t-74 22q-82 0 -91 -134h-121q6 125 68 194t161 69z" />
    <glyph glyph-name="uhorntilde" unicode="&#x1eef;" horiz-adv-x="1286" 
d="M821 156q-187 -187 -371 -187q-200 1 -258 159q-30 80 -30 220v701h172v-619q0 -150 16 -200t49 -72q34 -22 99 -23q65 1 153 51t170 121v742h172v-244h33q72 0 102 41t31 143v141h160v-141q1 -167 -69 -243t-214 -76h-43v-670h-172v156zM444 1483q56 -1 96 -23t76 -48
q35 -26 66 -48t67 -23q88 0 97 129h121q-19 -262 -232 -262q-65 0 -105 22t-71 51t-59 51t-73 22q-82 0 -91 -133h-121q5 125 67 193t162 69z" />
    <glyph glyph-name="Uhorndotbelow" unicode="&#x1ef0;" horiz-adv-x="1524" 
d="M1223 1079h41q71 0 102 41t31 144v182h159v-182q0 -170 -72 -245t-210 -75h-51v-366q0 -227 -51 -358q-50 -131 -160 -191t-306 -60t-310 61t-164 193t-50 355v806h185v-786q0 -182 33 -280q32 -98 104 -142q72 -43 198 -43q126 1 199 43t105 135t32 283v790h185v-305z
M813 -260q-1 -62 -27 -88t-92 -25q-66 0 -90 31q-22 31 -22 87t24 84t90 28t92 -28q26 -27 25 -89z" />
    <glyph glyph-name="uhorndotbelow" unicode="&#x1ef1;" horiz-adv-x="1286" 
d="M821 156q-187 -187 -371 -187q-200 1 -258 159q-30 80 -30 220v701h172v-619q0 -150 16 -200t49 -72q34 -22 99 -23q65 1 153 51t170 121v742h172v-244h33q72 0 102 41t31 143v141h160v-141q1 -167 -69 -243t-214 -76h-43v-670h-172v156zM690 -260q0 -62 -26 -88t-94 -25
q-66 0 -88 31t-23 87q1 56 25 84t90 28t90 -28q26 -27 26 -89z" />
    <glyph glyph-name="Ygrave" unicode="&#x1ef2;" horiz-adv-x="1147" 
d="M666 0h-187v526l-438 858h209l325 -673l332 673h199l-440 -849v-535zM578 1544l-273 361h236l178 -361h-141z" />
    <glyph glyph-name="ygrave" unicode="&#x1ef3;" horiz-adv-x="1040" 
d="M190 -252q121 0 205 219l35 90l-383 992h186l289 -768l291 768h180l-448 -1129q-71 -173 -152 -244t-198 -71t-199 30l43 142q65 -29 151 -29zM506 1208l-273 361h236l178 -361h-141z" />
    <glyph glyph-name="Ydotbelow" unicode="&#x1ef4;" horiz-adv-x="1147" 
d="M666 0h-187v526l-438 858h209l325 -673l332 673h199l-440 -849v-535zM688 -260q0 -62 -26 -88t-94 -25q-66 0 -88 31t-23 87q1 56 25 84t90 28t90 -28q26 -27 26 -89z" />
    <glyph glyph-name="ydotbelow" unicode="&#x1ef5;" horiz-adv-x="1040" 
d="M190 -252q121 0 205 219l35 90l-383 992h186l289 -768l291 768h180l-448 -1129q-71 -173 -152 -244t-198 -71t-199 30l43 142q65 -29 151 -29zM862 -260q0 -62 -26 -88t-94 -25q-66 0 -88 31t-23 87q1 56 25 84t90 28t90 -28q26 -27 26 -89z" />
    <glyph glyph-name="Yhookabove" unicode="&#x1ef6;" horiz-adv-x="1147" 
d="M666 0h-187v526l-438 858h209l325 -673l332 673h199l-440 -849v-535zM555 1827q103 0 151 -38t48 -99q0 -138 -148 -156v-37h-98v113h25q73 0 73 55t-62 55t-107 -32l-46 86q61 53 164 53z" />
    <glyph glyph-name="yhookabove" unicode="&#x1ef7;" horiz-adv-x="1040" 
d="M190 -252q121 0 205 219l35 90l-383 992h186l289 -768l291 768h180l-448 -1129q-71 -173 -152 -244t-198 -71t-199 30l43 142q65 -29 151 -29zM506 1491q103 0 151 -38t48 -99q0 -137 -148 -156v-37h-98v113h25q73 0 73 55q-1 55 -63 55t-106 -32l-46 86q61 53 164 53z
" />
    <glyph glyph-name="Ytilde" unicode="&#x1ef8;" horiz-adv-x="1147" 
d="M666 0h-187v526l-438 858h209l325 -673l332 673h199l-440 -849v-535zM426 1819q56 -1 96 -23t76 -48q35 -26 66 -48t67 -23q88 0 97 129h121q-19 -262 -232 -262q-65 0 -105 22t-71 51t-59 51t-73 22q-82 0 -91 -134h-121q5 125 67 194t162 69z" />
    <glyph glyph-name="ytilde" unicode="&#x1ef9;" horiz-adv-x="1040" 
d="M190 -252q121 0 205 219l35 90l-383 992h186l289 -768l291 768h180l-448 -1129q-71 -173 -152 -244t-198 -71t-199 30l43 142q65 -29 151 -29zM377 1483q57 -1 97 -23t75 -48t66 -48t67 -23q88 0 97 129h121q-19 -262 -232 -262q-65 0 -105 22t-71 51q-30 29 -58 51
t-74 22q-82 0 -91 -133h-121q6 125 68 193t161 69z" />
    <glyph glyph-name="uni2010" unicode="&#x2010;" horiz-adv-x="827" 
d="M102 440v172h623v-172h-623z" />
    <glyph glyph-name="endash" unicode="&#x2013;" 
d="M51 455v143h983v-143h-983z" />
    <glyph glyph-name="emdash" unicode="&#x2014;" horiz-adv-x="2109" 
d="M51 455v143h2007v-143h-2007z" />
    <glyph glyph-name="afii00208" unicode="&#x2015;" horiz-adv-x="2109" 
d="M51 455v143h2007v-143h-2007z" />
    <glyph glyph-name="underscoredbl" unicode="&#x2017;" horiz-adv-x="1024" 
d="M-10 -391v102h1044v-102h-1044zM-10 -207v102h1044v-102h-1044z" />
    <glyph glyph-name="quoteleft" unicode="&#x2018;" horiz-adv-x="555" 
d="M399 993q0 -112 -120 -112q-68 0 -95.5 33.5t-27.5 119.5t31.5 188t80.5 162h105q-34 -42 -59 -127.5t-25 -150.5q59 0 84.5 -26.5t25.5 -86.5z" />
    <glyph glyph-name="quoteright" unicode="&#x2019;" horiz-adv-x="555" 
d="M399 1252q0 -94 -36.5 -195t-75.5 -148h-105q35 44 59.5 130t24.5 149q-59 0 -84.5 26t-25.5 84t28 86.5t94 28.5t93.5 -33.5t27.5 -127.5z" />
    <glyph glyph-name="quotesinglbase" unicode="&#x201a;" horiz-adv-x="555" 
d="M399 49q0 -94 -36.5 -194.5t-75.5 -147.5h-105q35 44 59.5 130t24.5 149q-59 0 -84.5 26t-25.5 84t28 86.5t94 28.5t93.5 -34t27.5 -128z" />
    <glyph glyph-name="quotereversed" unicode="&#x201b;" horiz-adv-x="555" 
d="M156 1252q0 94 28 127.5t94 33.5t93.5 -28.5t27.5 -86.5t-25.5 -84t-84.5 -26q0 -65 24.5 -150t59.5 -129h-105q-39 47 -75.5 148t-36.5 195z" />
    <glyph glyph-name="quotedblleft" unicode="&#x201c;" horiz-adv-x="965" 
d="M399 993q0 -112 -120 -112q-68 0 -95.5 33.5t-27.5 119.5t31.5 188t80.5 162h105q-34 -42 -59 -127.5t-25 -150.5q59 0 84.5 -26.5t25.5 -86.5zM809 996q0 -58 -27.5 -86.5t-93.5 -28.5t-94.5 33.5t-28.5 117.5t32 190t81 162h104q-34 -43 -59 -130t-25 -148
q60 0 85.5 -26t25.5 -84z" />
    <glyph glyph-name="quotedblright" unicode="&#x201d;" horiz-adv-x="965" 
d="M399 1252q0 -94 -36.5 -195t-75.5 -148h-105q35 44 59.5 130t24.5 149q-59 0 -84.5 26t-25.5 84t28 86.5t94 28.5t93.5 -33.5t27.5 -127.5zM565 1300q0 113 121 113q68 0 95.5 -33.5t27.5 -127.5t-37 -195t-76 -148h-104q33 43 58.5 127.5t25.5 151.5q-60 0 -85.5 26.5
t-25.5 85.5z" />
    <glyph glyph-name="quotedblbase" unicode="&#x201e;" horiz-adv-x="965" 
d="M399 49q0 -94 -36.5 -194.5t-75.5 -147.5h-105q35 44 59.5 130t24.5 149q-59 0 -84.5 26t-25.5 84t28 86.5t94 28.5t93.5 -34t27.5 -128zM565 98q0 113 121 113q68 0 95.5 -34t27.5 -128t-37 -194.5t-76 -147.5h-104q33 43 58.5 127.5t25.5 151.5q-60 0 -85.5 26.5
t-25.5 85.5z" />
    <glyph glyph-name="dagger" unicode="&#x2020;" horiz-adv-x="1118" 
d="M625 864l30 -1259h-194l33 1259l-398 -22v178l398 -25l-27 525h182l-24 -525l397 25v-178z" />
    <glyph glyph-name="daggerdbl" unicode="&#x2021;" horiz-adv-x="1118" 
d="M625 76l26 -471h-186l27 471l-379 -25v180l379 -24l-19 354l19 354l-379 -24v180l379 -24l-27 471h186l-26 -471l379 24v-180l-379 24l18 -354l-18 -354l379 24v-180z" />
    <glyph glyph-name="bullet" unicode="&#x2022;" horiz-adv-x="774" 
d="M643 746q0 -106 -76 -181.5t-181 -75.5t-181 76.5t-76 182.5t76 181t183 75t181 -76t74 -182z" />
    <glyph glyph-name="ellipsis" unicode="&#x2026;" horiz-adv-x="2109" 
d="M1858 96q0 -62 -30 -86t-98 -24t-92 30t-24 86t28 82.5t94 26.5t94 -26.5t28 -88.5zM1176 96q0 -62 -30 -86t-98 -24t-92 30t-24 86t28 82.5t94 26.5t94 -26.5t28 -88.5zM494 96q0 -62 -30 -86t-98 -24t-92 30t-24 86t28 82.5t94 26.5t94 -26.5t28 -88.5z" />
    <glyph glyph-name="perthousand" unicode="&#x2030;" horiz-adv-x="2765" 
d="M270 950q0 -286 160 -286q77 0 113 32t52.5 89t16.5 181t-26.5 219t-145.5 95t-144.5 -89t-25.5 -241zM1663 404q0 126 -26 220.5t-146 94.5q-121 0 -146.5 -91t-25.5 -216t27.5 -217.5t146.5 -92.5q118 0 144 88t26 214zM2494 404q0 124 -25 219.5t-147 95.5t-147 -92.5
t-25 -212.5t26.5 -216t146.5 -96q119 0 145 89t26 213zM791 972q0 -202 -84.5 -322t-268.5 -120q-346 0 -346 442t348 441q187 0 269 -119.5t82 -321.5zM653 -51h-155l778 1487h158zM1841 410q0 -202 -84 -321.5t-269 -119.5t-265 117t-80 324q0 442 348 442q186 0 268 -120
t82 -322zM2673 410q0 -202 -83.5 -321.5t-269.5 -119.5t-266 117t-80 324q0 442 348 442q187 0 269 -120t82 -322z" />
    <glyph glyph-name="minute" unicode="&#x2032;" horiz-adv-x="557" 
d="M281 834h-127l41 550h208z" />
    <glyph glyph-name="second" unicode="&#x2033;" horiz-adv-x="1012" 
d="M281 834h-127l41 550h208zM736 834h-127l41 550h208z" />
    <glyph glyph-name="guilsinglleft" unicode="&#x2039;" horiz-adv-x="735" 
d="M465 53l-393 471l393 471h197l-394 -471l394 -471h-197z" />
    <glyph glyph-name="guilsinglright" unicode="&#x203a;" horiz-adv-x="735" 
d="M270 53h-196l393 471l-393 471h196l394 -471z" />
    <glyph glyph-name="exclamdbl" unicode="&#x203c;" horiz-adv-x="1110" 
d="M399 96q1 -62 -29 -86t-98 -24t-92 30t-24 86t28 82t94 27q66 -1 94 -27t27 -88zM352 399h-145l-29 985h199zM954 96q0 -62 -30 -86t-96 -24q-68 0 -92 30t-25 86t27 82t94 27q66 -1 94 -27t28 -88zM907 399h-145l-29 985h199z" />
    <glyph glyph-name="interrobang" unicode="&#x203d;" horiz-adv-x="1049" 
d="M745 1124q0 207 -215 230l-12 -553q94 63 160.5 134t66.5 189zM567 96q0 -62 -29.5 -86t-97.5 -24t-92 30t-24 86t28 82.5t94 26.5t93.5 -26.5t27.5 -88.5zM485 1520q214 0 334.5 -100t120.5 -288t-117 -296t-293 -207v-230h-174l-16 928q-75 -37 -121 -113l-151 99
q115 207 417 207z" />
    <glyph glyph-name="uni203E" unicode="&#x203e;" horiz-adv-x="1024" 
d="M-10 1526v102h1044v-102h-1044z" />
    <glyph glyph-name="fraction" unicode="&#x2044;" horiz-adv-x="244" 
d="M-160 -51h-164l779 1487h166z" />
    <glyph glyph-name="zero.superior" unicode="&#x2070;" horiz-adv-x="889" 
d="M633 1078q0 163 -45.5 239t-143.5 76t-143 -76t-45 -239t45 -238.5t143 -75.5t143.5 75.5t45.5 238.5zM805 1080q0 -228 -87.5 -335.5t-273.5 -107.5t-273 106.5t-87 334.5t87 335t273 107t273.5 -106t87.5 -334z" />
    <glyph glyph-name="four.superior" unicode="&#x2074;" horiz-adv-x="889" 
d="M520 963v325l-299 -325h299zM680 838v-183h-160v183h-477v125l496 542h141v-542h127v-125h-127z" />
    <glyph glyph-name="five.superior" unicode="&#x2075;" horiz-adv-x="889" 
d="M590 966.5q0 110.5 -198 110.5q-86 0 -156 -43h-86l53 471h524v-131h-385l-23 -188q46 16 121 16q150 0 235 -68t85 -202t-88 -214.5t-266 -80.5q-115 0 -195 43t-121 100l135 76q59 -90 193 -90q78 0 125 45t47 155.5z" />
    <glyph glyph-name="six.superior" unicode="&#x2076;" horiz-adv-x="889" 
d="M453 764q163 0 163 170q0 149 -165 149q-86 0 -175 -43q3 -149 46 -212.5t131 -63.5zM436 637q-334 0 -334 428q0 218 101 338.5t270 120.5t281 -94l-99 -109q-45 35 -84 55.5t-86 20.5q-83 0 -135.5 -59.5t-66.5 -174.5q101 49 218 49t199 -66.5t82 -208.5t-88 -221
t-258 -79z" />
    <glyph glyph-name="seven.superior" unicode="&#x2077;" horiz-adv-x="889" 
d="M88 1374v131h688v-121l-360 -729h-180l362 719h-510z" />
    <glyph glyph-name="eight.superior" unicode="&#x2078;" horiz-adv-x="889" 
d="M621 886q0 56 -54.5 92t-126.5 64q-107 -40 -144.5 -78t-37.5 -88t45 -84t137 -34t136.5 36t44.5 92zM596 1296q0 47 -39 78t-120 31t-118.5 -31.5t-37.5 -69.5t32.5 -68t128.5 -67q154 43 154 127zM94 883q0 144 185 225q-86 41 -124 85t-38 103q0 109 82.5 168.5
t240.5 59.5t240 -57.5t82 -168.5q0 -57 -39 -103t-129 -89q190 -67 190 -223q0 -123 -93 -184.5t-258 -61.5t-252 63.5t-87 182.5z" />
    <glyph glyph-name="nine.superior" unicode="&#x2079;" horiz-adv-x="889" 
d="M428 1077q96 0 172 51q0 269 -172 269q-82 0 -126 -43t-44 -125q0 -152 170 -152zM385 764q181 0 209 231q-92 -45 -214 -45t-204 66t-82 208t90 221t260 79q330 0 330 -416q0 -226 -99.5 -348.5t-275.5 -122.5t-288 96l98 111q88 -80 176 -80z" />
    <glyph glyph-name="n.superior" unicode="&#x207f;" horiz-adv-x="862" 
d="M476 1219q-77 0 -195 -103v-448h-138v649h138v-90q47 43 111.5 76.5t129.5 33.5q117 0 161 -61.5t44 -173.5v-434h-139v372q0 99 -17.5 139t-94.5 40z" />
    <glyph glyph-name="zero.inferior" unicode="&#x2080;" horiz-adv-x="889" 
d="M633 105q0 163 -45 239q-46 76 -144 76t-143 -76t-45 -239t45 -239t143 -75q98 -1 144 75q45 76 45 239zM805 106q0 -228 -87 -334q-88 -108 -274 -108t-273 106t-87 336q0 228 87 334t273 107q186 -1 274 -107q87 -106 87 -334z" />
    <glyph glyph-name="one.inferior" unicode="&#x2081;" horiz-adv-x="889" 
d="M406 -318v586h-224v107q128 3 182 37t78 120h125v-850h-161z" />
    <glyph glyph-name="two.inferior" unicode="&#x2082;" horiz-adv-x="889" 
d="M115 -318v138q75 52 209 161t194 180t59 136q-2 65 -46 95t-103 30q-108 0 -188 -111l-134 78q106 162 326 162q148 1 230 -63t83 -181q-1 -85 -39 -147t-122 -137t-260 -210h450v-131h-659z" />
    <glyph glyph-name="three.inferior" unicode="&#x2083;" horiz-adv-x="889" 
d="M559 319q0 105 -145 105q-117 0 -187 -99l-133 76q40 55 82 85q93 64 251 65q157 1 231 -63t73 -152q0 -140 -139 -193q67 -25 110 -79t43 -132q0 -132 -92 -200t-258 -68q-102 0 -186 39t-125 102l133 74q27 -35 73 -61t103 -25q180 0 180 145q0 70 -48 100t-140 31h-90
v127h78q86 0 136 32t50 91z" />
    <glyph glyph-name="four.inferior" unicode="&#x2084;" horiz-adv-x="889" 
d="M520 -10v325l-299 -325h299zM680 -135v-183h-160v183h-477v125l496 542h141v-542h127v-125h-127z" />
    <glyph glyph-name="five.inferior" unicode="&#x2085;" horiz-adv-x="889" 
d="M590 -39q0 143 -198 143q-86 0 -156 -43h-86l53 471h524v-131h-385l-23 -188q46 16 121 16q150 0 235 -68q85 -67 85 -201t-88 -215t-266 -81q-115 0 -195 43t-121 100l135 76q59 -90 193 -90q78 0 125 45t47 123z" />
    <glyph glyph-name="six.inferior" unicode="&#x2086;" horiz-adv-x="889" 
d="M453 -209q163 0 163 170q0 149 -165 149q-86 0 -175 -43q3 -149 46 -213t131 -63zM436 -336q-334 0 -334 428q0 218 101 338t270 121q169 0 281 -94l-99 -109q-45 36 -84 56t-86 20q-83 0 -135 -60t-67 -174q101 49 218 49q117 -1 199 -67t82 -208t-88 -221t-258 -79z
" />
    <glyph glyph-name="seven.inferior" unicode="&#x2087;" horiz-adv-x="889" 
d="M88 401v131h688v-121l-360 -729h-180l362 719h-510z" />
    <glyph glyph-name="eight.inferior" unicode="&#x2088;" horiz-adv-x="889" 
d="M621 -88q-1 56 -55 93q-54 36 -126 64q-106 -40 -144 -78q-38 -39 -38 -89t45 -84t137 -33q92 -1 136 35t45 92zM596 323q0 47 -39 78t-120 31t-119 -31t-37 -69t33 -69q32 -30 128 -67q154 43 154 127zM94 -90q0 144 185 225q-86 41 -124 85t-38 103q0 109 82 169
q83 60 241 59q158 1 240 -57t82 -169q0 -57 -39 -103t-129 -89q190 -67 190 -223q0 -122 -93 -184t-258 -62t-252 64t-87 182z" />
    <glyph glyph-name="nine.inferior" unicode="&#x2089;" horiz-adv-x="889" 
d="M428 104q96 0 172 51q0 269 -172 269q-82 0 -126 -43t-44 -125q0 -152 170 -152zM385 -209q181 0 209 231q-92 -45 -214 -45q-122 1 -204 67t-82 208t90 220q90 79 260 79q330 0 330 -416q0 -227 -100 -349t-275 -122q-176 0 -288 96l98 111q88 -80 176 -80z" />
    <glyph glyph-name="franc" unicode="&#x20a3;" horiz-adv-x="1264" 
d="M449 1217v-404h555v-168h-555v-287h350v-131h-350v-227h-185v227h-172v131h172v1026h838v-167h-653z" />
    <glyph glyph-name="lira" unicode="&#x20a4;" horiz-adv-x="1264" 
d="M991 1104q-99 158 -308 158q-116 0 -187.5 -64.5t-71.5 -181.5q0 -78 22 -168h416v-121h-391q12 -87 12 -149h379v-121h-389q-33 -217 -151 -301h837v-156h-1046v156q80 16 119.5 96t52.5 205h-158v121h166q0 91 -12 149h-154v121h129q-23 108 -23 196q0 173 127 271
t342 98q306 0 443 -219z" />
    </font>
</defs>
</svg>
