<?xml  version="1.0" encoding="UTF-8"?>
<!DOCTYPE svg PUBLIC "-//W3C//DTD SVG 1.0//EN" "http://www.w3.org/TR/2001/REC-SVG-20010904/DTD/svg10.dtd" >
<svg xmlns="http://www.w3.org/2000/svg" >
<metadata>
<version>1.0</version>
<id><![CDATA[Neo Sans Intel Light]]></id>
<vendor>Monotype Imaging Inc.</vendor>
<credits>
<name>Fonts.com WebFonts</name>
<URL>http://webfonts.fonts.com</URL>
<role>Home of the Web fonts</role>
</credits>
<license>
<URL>http://webfonts.fonts.com/Legal</URL>
</license>
<copyright><![CDATA[Digitized data (C) 2004, 2007 Agfa Monotype Corporation. Neo Sans(TM) is a trademark of Monotype Imaging Corp. and may be registered in certain jurisdictions.]]></copyright>
<trademark><![CDATA[Neo Sans(TM) is a trademark of Monotype Imaging Corp. and may be registered in certain jurisdictions.]]></trademark>
<licensee>
<name></name>
</licensee>
</metadata>
<defs >
<font horiz-adv-x="1001" id="46c37c6e-7aba-4484-b2e8-aa8f2296a93a">
<font-face font-family="" panose-1="2 11 3 3 2 2 2 2 2 4" ascent="2124" descent="-451" units-per-em="2048" alphabetic="0">
</font-face>
<missing-glyph horiz-adv-x="2048" d="M213 0V1536H1749V0H213ZM341 128H1621V1408H341V128Z"  />

<glyph unicode="&#xA;" />
<glyph unicode="&#xD;" />
<glyph unicode=" " horiz-adv-x="440" />
<glyph unicode="!" horiz-adv-x="377" d="M233 393Q233 377 222 366T195 354H182Q167 354 155 366T143 393V1483Q143 1498 155 1510T182 1522H195Q210 1522 221 1511T233 1483V393ZM233 27Q233 10 222 -1T195 -12H182Q166 -12 155 -1T143 27V178Q143 193 154 205T182 217H195Q212 217 222 206T233 178V27Z"  />
<glyph unicode="&quot;" horiz-adv-x="563" d="M504 1499Q504 1489 502 1483L403 1130Q397 1109 389 1101T365 1092H334Q315 1092 315 1112Q315 1124 317 1130L401 1483Q411 1522 442 1522H481Q504 1522 504 1499ZM248 1499Q248 1489 246 1483L147 1130Q141 1109 133 1101T109 1092H78Q59 1092 59 1112Q59 1124 61 1130L145 1483Q155 1522 186 1522H225Q248 1522 248 1499Z"  />
<glyph unicode="#" horiz-adv-x="1262" d="M1180 1018Q1180 1003 1167 993T1139 983H926L885 520H1098Q1133 520 1133 485V479Q1133 463 1121 454T1092 444H877L842 39Q838 0 805 0H786Q754 0 754 35V39L788 444H420L385 39Q383 23 373 12T348 0H328Q314 0 305 11T295 35V39L330 444H119Q82 444 82 479V485Q82 501 95 510T125 520H338L379 983H166Q150 983 140 992T129 1018V1026Q129 1041 141 1051T172 1061H385L422 1483Q423 1498 434 1510T461 1522H481Q495 1522 503 1512T512 1487V1483L475 1061H844L881 1483Q885 1522 920 1522H938Q969 1522 969 1487V1483L932 1061H1145Q1180 1061 1180 1026V1018ZM838 983H469L428 520H797L838 983Z"  />
<glyph unicode="$" horiz-adv-x="1147" d="M541 -223V-12Q347 -7 180 72Q170 78 165 81T155 87T147 98T143 115V143Q143 156 152 164T182 162Q379 74 567 74Q705 74 785 113T898 220T930 379Q930 452 900 502T810 596T614 725L485 805Q375 873 309 926T204 1046T164 1200Q164 1316 219 1388T358 1492T541 1530V1706Q541 1723 550 1734T573 1745H594Q608 1745 617 1734T627 1706V1530Q726 1525 819 1500T948 1456Q971 1446 977 1439T983 1415V1393Q983 1355 944 1370Q908 1386 855 1402T730 1432T584 1446Q256 1446 256 1198Q256 1135 286 1086T370 994T532 885L664 805Q787 731 864 671T983 539T1024 379Q1024 310 1006 247T944 128T822 36T627 -10V-223Q627 -240 618 -251T594 -262H573Q559 -262 550 -251T541 -223Z"  />
<glyph unicode="%" horiz-adv-x="1509" d="M623 1001Q623 841 555 761T362 680Q241 680 172 760T102 1001V1212Q102 1319 133 1390T223 1497T362 1532Q445 1532 503 1497T592 1390T623 1212V1001ZM539 1001V1212Q539 1450 362 1450Q186 1450 186 1212V1001Q186 764 362 764Q539 764 539 1001ZM1231 1479L373 27Q359 4 351 -4T330 -12H274Q258 -12 258 0Q258 9 270 31L1126 1483Q1146 1513 1151 1517T1171 1522H1225Q1243 1522 1243 1509Q1243 1499 1231 1479ZM1407 309Q1407 148 1339 68T1147 -12Q1024 -12 956 68T887 309V520Q887 680 955 760T1147 840Q1271 840 1339 761T1407 520V309ZM1323 309V520Q1323 758 1147 758Q971 758 971 520V309Q971 72 1147 72Q1323 72 1323 309Z"  />
<glyph unicode="&amp;" horiz-adv-x="1264" d="M1206 14Q1206 0 1190 0H1124Q1104 0 1092 14L963 152Q805 -12 545 -12Q464 -12 382 6T232 64T123 173T82 342V354Q82 437 111 504T208 635T393 774Q305 878 259 941T188 1051T156 1134T147 1206V1219Q147 1383 253 1457T539 1532Q639 1532 723 1501T860 1399T913 1219V1206Q913 1127 882 1062T782 932T592 797L524 756Q559 717 583 692T636 636T717 549L961 287Q1065 449 1065 713V735Q1065 774 1096 774H1124Q1157 774 1157 735V713Q1157 572 1124 446T1022 221L1202 27Q1206 19 1206 14ZM819 1206V1219Q819 1450 539 1450Q395 1450 319 1400T242 1219V1206Q242 1160 256 1119T318 1008T469 821L545 866Q657 932 715 984T796 1089T819 1206ZM905 215L651 487Q504 645 449 709Q343 643 285 592T202 486T178 354V342Q178 203 284 137T545 70Q662 70 752 108T905 215Z"  />
<glyph unicode="&apos;" horiz-adv-x="307" d="M248 1499Q248 1489 246 1483L147 1130Q141 1109 133 1101T109 1092H78Q59 1092 59 1112Q59 1124 61 1130L145 1483Q155 1522 186 1522H225Q248 1522 248 1499Z"  />
<glyph unicode="(" horiz-adv-x="502" d="M481 -389Q481 -399 465 -399H403Q380 -399 369 -385Q299 -298 249 -190T166 42T118 286T102 506V616Q102 715 117 836T166 1081T249 1314T369 1507Q380 1522 403 1522H465Q481 1522 481 1511Q481 1503 471 1493Q403 1421 352 1315T265 1085T212 838T195 616V506Q195 369 226 201T320 -121T471 -371Q481 -381 481 -389Z"  />
<glyph unicode=")" horiz-adv-x="502" d="M399 506Q399 399 384 281T336 43T253 -190T133 -385Q122 -399 98 -399H37Q20 -399 20 -389Q20 -382 31 -371Q119 -275 182 -122T276 200T307 506V616Q307 726 290 847T238 1086T152 1312T31 1493Q20 1504 20 1511Q20 1522 37 1522H98Q122 1522 133 1507Q200 1427 252 1314T336 1081T383 842T399 616V506Z"  />
<glyph unicode="*" horiz-adv-x="813" d="M764 1260Q764 1234 735 1227L469 1141L633 913Q643 900 643 889Q643 875 631 866L616 856Q607 850 600 850Q587 850 571 868L406 1096L242 868Q228 852 213 852Q203 852 197 856L180 866Q168 872 168 887Q168 900 178 913L344 1141L78 1227Q49 1234 49 1260Q49 1266 51 1268L57 1284Q63 1303 86 1303Q94 1303 100 1300L369 1214V1495Q369 1532 397 1532H416Q444 1532 444 1495V1214L713 1300Q719 1303 727 1303Q750 1303 756 1284L762 1268Q764 1266 764 1260Z"  />
<glyph unicode="+" horiz-adv-x="1147" d="M1030 791Q1030 758 989 758H616V387Q616 346 584 346H563Q548 346 539 358T530 387V758H160Q119 758 119 791V811Q119 844 160 844H530V1217Q530 1257 563 1257H584Q616 1257 616 1217V844H989Q1030 844 1030 811V791Z"  />
<glyph unicode="&#x2c;" horiz-adv-x="303" d="M246 195Q246 190 242 178L113 -166Q105 -187 97 -196T74 -205H49Q29 -205 29 -184Q29 -178 33 -166L141 178Q153 217 182 217H221Q246 217 246 195Z"  />
<glyph unicode="-" horiz-adv-x="664" d="M578 559Q578 544 568 535T539 526H125Q108 526 97 535T86 559V575Q86 592 97 602T125 612H539Q556 612 567 602T578 575V559Z"  />
<glyph unicode="." horiz-adv-x="303" d="M197 27Q197 11 186 0T158 -12H145Q129 -12 118 -1T106 27V178Q106 193 117 205T145 217H158Q175 217 186 205T197 178V27Z"  />
<glyph unicode="/" horiz-adv-x="598" d="M590 1507Q590 1497 588 1493L106 27Q94 -12 74 -12H29Q8 -12 8 12Q8 23 10 27L492 1493Q499 1513 505 1522T524 1532H567Q590 1532 590 1507Z"  />
<glyph unicode="0" horiz-adv-x="1147" d="M1044 559Q1044 272 920 130T573 -12Q351 -12 227 130T102 559V963Q102 1251 226 1391T573 1532Q796 1532 920 1392T1044 963V559ZM954 559V963Q954 1123 910 1232T781 1396T573 1450Q450 1450 366 1396T237 1233T193 963V559Q193 399 237 290T365 125T573 70Q757 70 855 194T954 559Z"  />
<glyph unicode="1" horiz-adv-x="1147" d="M635 41Q635 24 622 12T594 0H586Q569 0 557 12T545 41V1434L303 1403H293Q262 1403 262 1430V1440Q262 1474 303 1481L588 1522H598Q635 1522 635 1481V41Z"  />
<glyph unicode="2" horiz-adv-x="1147" d="M1004 1174Q1004 1095 979 1034T895 913T727 780L518 639Q394 556 332 483T253 341T236 166V84H944Q985 84 985 53V31Q985 0 944 0H184Q167 0 155 12T143 41V166Q143 247 154 314T200 446T298 577T461 709L670 850Q810 946 857 1011T905 1174Q905 1311 829 1378T600 1446Q445 1446 215 1362Q172 1348 172 1389V1403Q172 1422 180 1431T211 1448Q429 1532 600 1532Q721 1532 812 1493T953 1373T1004 1174Z"  />
<glyph unicode="3" horiz-adv-x="1147" d="M549 -12Q445 -12 345 8T190 53Q166 65 159 72T152 98V117Q152 158 201 141Q394 74 530 74Q718 74 808 159T899 422V463Q899 592 827 674T608 756H225Q208 756 197 766T186 793V807Q186 823 197 833T225 844H608Q754 844 826 927T899 1133V1157Q899 1263 862 1326T755 1416T584 1444Q429 1444 201 1374Q152 1358 152 1399V1413Q152 1432 160 1441T190 1458Q393 1530 584 1530Q703 1530 796 1493T942 1372T995 1157V1133Q995 899 793 797Q888 758 941 671T995 463V422Q995 281 938 183T780 36T549 -12Z"  />
<glyph unicode="4" horiz-adv-x="1147" d="M1090 477Q1090 461 1079 452T1051 442H846V39Q846 23 837 12T813 0H788Q756 0 756 39V442H188Q127 442 92 474T57 553Q57 594 86 639L659 1481Q693 1532 764 1532Q800 1532 823 1508T846 1434V528H1051Q1067 528 1078 519T1090 496V477ZM756 528V1421Q756 1438 743 1438Q734 1438 723 1421L164 600Q143 566 143 553Q143 528 188 528H756Z"  />
<glyph unicode="5" horiz-adv-x="1147" d="M137 113V127Q137 172 180 154Q380 72 543 72Q719 72 822 166T926 440V492Q926 618 875 687T717 782T432 809H215Q196 809 185 820T174 850V854L221 1487Q222 1501 235 1511T262 1522H930Q945 1522 958 1513T971 1489V1466Q971 1438 930 1438H309L272 893H481Q754 893 885 794T1016 492V440Q1016 333 981 248T882 104T731 17T543 -12Q436 -12 339 13T176 68Q154 78 146 86T137 113Z"  />
<glyph unicode="6" horiz-adv-x="1147" d="M946 514V524Q946 842 580 842Q393 842 201 793V518Q201 277 287 174T563 70Q753 70 849 174T946 514ZM612 1448Q502 1448 427 1426T302 1353T227 1216T201 999V872Q409 926 580 926Q708 926 810 888T974 761T1036 524V514Q1036 342 987 224T832 47T563 -12Q334 -12 223 118T111 518V999Q111 1191 165 1308T330 1478T612 1532Q773 1532 936 1479Q958 1472 966 1463T975 1434V1423Q975 1383 926 1399Q770 1448 612 1448Z"  />
<glyph unicode="7" horiz-adv-x="1147" d="M1038 1450Q1038 1425 1028 1405L373 20Q370 13 357 7T336 0H305Q274 0 274 31Q274 44 281 55L928 1405Q930 1409 930 1417Q930 1434 913 1434H147Q130 1434 118 1443T106 1466V1483Q106 1498 119 1510T147 1522H958Q994 1522 1016 1503T1038 1450Z"  />
<glyph unicode="8" horiz-adv-x="1147" d="M1053 403Q1053 199 922 94T573 -12Q356 -12 225 93T94 403V465Q94 524 118 589T189 710T307 797Q208 833 151 919T94 1114V1159Q94 1284 153 1368T322 1492T573 1532Q716 1532 825 1492T993 1368T1053 1159V1114Q1053 1046 1028 981T954 869T840 797Q942 751 997 656T1053 465V403ZM956 1114V1159Q956 1306 859 1376T573 1446Q385 1446 288 1376T190 1159V1114Q190 1047 218 987T313 885T489 844H657Q766 844 833 885T928 987T956 1114ZM956 403V465Q956 507 942 556T894 650T801 726T657 756H489Q407 756 348 726T254 649T205 555T190 465V403Q190 242 290 158T573 74Q758 74 857 158T956 403Z"  />
<glyph unicode="9" horiz-adv-x="1147" d="M201 1006V995Q201 678 567 678Q754 678 946 727V1001Q946 1242 860 1346T584 1450Q394 1450 298 1346T201 1006ZM535 72Q680 72 769 113T902 253T946 520V647Q901 635 835 622T701 602T567 594Q439 594 337 632T173 759T111 995V1006Q111 1271 225 1401T584 1532Q737 1532 837 1474T987 1299T1036 1001V520Q1036 329 981 212T816 42T535 -12Q368 -12 211 41Q189 49 181 58T172 86V96Q172 137 221 121Q370 72 535 72Z"  />
<glyph unicode=":" horiz-adv-x="324" d="M207 920Q207 904 196 893T168 881H156Q140 881 129 892T117 920V1071Q117 1086 128 1098T156 1110H168Q185 1110 196 1098T207 1071V920ZM207 27Q207 11 196 0T168 -12H156Q140 -12 129 -1T117 27V178Q117 193 128 205T156 217H168Q185 217 196 205T207 178V27Z"  />
<glyph unicode=";" horiz-adv-x="324" d="M207 920Q207 904 196 893T168 881H156Q140 881 129 892T117 920V1071Q117 1086 128 1098T156 1110H168Q185 1110 196 1098T207 1071V920ZM221 195Q221 190 217 178L88 -166Q79 -189 72 -197T49 -205H25Q4 -205 4 -184Q4 -178 8 -166L117 178Q128 217 158 217H197Q221 217 221 195Z"  />
<glyph unicode="&lt;" horiz-adv-x="1147" d="M862 326Q862 313 852 303L838 289Q829 281 817 281Q803 281 784 295L240 741Q209 766 209 801Q209 836 240 860L784 1307Q803 1321 817 1321Q829 1321 838 1313L852 1298Q862 1288 862 1276Q862 1258 846 1245L303 801L846 356Q862 343 862 326Z"  />
<glyph unicode="=" horiz-adv-x="1147" d="M989 995Q989 963 948 963H201Q160 963 160 995V1016Q160 1031 171 1040T201 1049H948Q966 1049 977 1041T989 1016V995ZM989 586Q989 553 948 553H201Q160 553 160 586V606Q160 639 201 639H948Q989 639 989 606V586Z"  />
<glyph unicode="&gt;" horiz-adv-x="1147" d="M967 801Q967 767 936 741L391 295Q374 281 358 281Q346 281 338 289L324 303Q313 312 313 326Q313 344 330 356L872 801L330 1245Q313 1257 313 1276Q313 1289 324 1298L338 1313Q346 1321 358 1321Q374 1321 391 1307L936 860Q967 835 967 801Z"  />
<glyph unicode="?" horiz-adv-x="827" d="M725 1219Q725 1126 679 1046T500 831L438 770Q384 716 359 682T325 612T315 516V393Q315 376 304 365T276 354H264Q248 354 237 365T225 393V516Q225 582 238 631T282 726T377 836L434 893Q513 972 555 1026T612 1122T627 1219V1235Q627 1452 362 1452Q288 1452 231 1439T82 1397Q65 1392 58 1398T51 1421V1438Q51 1454 59 1462T86 1477Q233 1532 369 1532Q437 1532 497 1517T610 1467T693 1374T725 1235V1219ZM315 27Q315 10 304 -1T276 -12H264Q248 -12 237 -1T225 27V178Q225 193 236 205T264 217H276Q293 217 304 206T315 178V27Z"  />
<glyph unicode="@" horiz-adv-x="1511" d="M1430 694Q1430 413 1341 273T1092 133Q1035 133 995 150T926 209Q885 180 816 157T676 133Q555 133 487 208T418 401Q418 422 420 438L442 680Q456 816 538 898T772 981Q896 981 1024 952Q1053 945 1053 926V922L999 352Q993 279 1015 245T1092 211Q1209 211 1275 327T1341 692Q1341 834 1307 937T1207 1109T1045 1212T819 1247Q647 1247 511 1176T295 981T201 707L172 416Q170 395 170 356Q170 224 227 115T403 -60T692 -125Q808 -125 950 -115Q974 -114 981 -118T989 -139Q989 -181 946 -186Q827 -203 684 -203Q543 -203 430 -159T237 -35T120 145T82 356Q82 395 84 416L113 709Q125 840 179 952T325 1149T545 1280T825 1327Q1122 1327 1276 1159T1430 694ZM961 883Q835 901 768 901Q549 901 528 678L506 438Q504 420 504 403Q504 319 551 268T676 217Q752 217 805 236T907 287L961 883Z"  />
<glyph unicode="A" horiz-adv-x="1227" d="M1169 25Q1169 -6 1137 -6H1112Q1086 -6 1079 20L907 575H317L150 20Q139 -6 117 -6H90Q59 -6 59 27Q59 39 61 45L481 1432Q497 1480 531 1506T614 1532Q663 1532 697 1507T745 1434L1165 45Q1169 33 1169 25ZM885 666L662 1409Q648 1450 614 1450Q577 1450 567 1411L342 666H885Z"  />
<glyph unicode="B" horiz-adv-x="1147" d="M1061 416Q1061 -14 489 -14Q329 -14 182 2Q143 5 143 41V1481Q143 1495 154 1506T182 1520Q350 1532 489 1532Q740 1532 896 1451T1053 1161V1139Q1053 1013 990 927T809 799Q929 764 995 675T1061 451V416ZM963 1139V1161Q963 1332 835 1392T489 1452Q420 1452 342 1449T233 1444V844H604Q803 844 883 925T963 1139ZM971 416V451Q971 587 888 671T604 756H233V80Q411 68 489 68Q627 68 733 95T905 199T971 416Z"  />
<glyph unicode="C" horiz-adv-x="1059" d="M604 -12Q501 -12 413 20T254 127T143 326T102 625V895Q102 1070 142 1194T254 1393T413 1500T604 1532Q709 1532 807 1505T958 1450Q978 1441 987 1433T997 1409V1391Q997 1370 988 1365T958 1366Q854 1404 779 1425T604 1446Q516 1446 442 1416T311 1320T224 1146T193 895V625Q193 339 305 207T604 74Q662 74 707 81T801 102T884 128T958 154Q981 160 989 155T997 129V111Q997 96 988 88T958 70Q797 -12 604 -12Z"  />
<glyph unicode="D" horiz-adv-x="1214" d="M1112 633Q1112 296 952 142T514 -12Q274 -12 178 4Q163 7 153 18T143 43V1477Q143 1506 178 1516Q274 1532 514 1532Q650 1532 758 1498T946 1388T1068 1188T1112 887V633ZM1022 633V887Q1022 1097 958 1221T780 1399T514 1452Q422 1452 381 1450T233 1440V76Q354 68 514 68Q665 68 779 121T957 300T1022 633Z"  />
<glyph unicode="E" horiz-adv-x="1051" d="M958 35Q958 19 948 10T920 0H391Q310 0 256 22T172 94T143 229V1292Q143 1377 172 1427T256 1500T391 1522H920Q937 1522 947 1513T958 1487V1470Q958 1455 948 1447T920 1438H391Q310 1438 272 1409T233 1292V842H920Q938 842 948 833T958 809V788Q958 773 948 764T920 754H233V229Q233 140 271 112T391 84H920Q938 84 948 76T958 51V35Z"  />
<glyph unicode="F" horiz-adv-x="1020" d="M958 788Q958 773 948 764T920 754H233V39Q233 23 224 12T199 0H178Q163 0 153 12T143 39V1292Q143 1377 172 1427T256 1500T391 1522H920Q937 1522 947 1513T958 1487V1470Q958 1455 948 1447T920 1438H391Q310 1438 272 1409T233 1292V842H920Q938 842 948 833T958 809V788Z"  />
<glyph unicode="G" horiz-adv-x="1163" d="M616 1448Q436 1448 315 1320T193 887V633Q193 352 303 213T616 74Q721 74 803 80T928 92V743Q928 782 963 782H983Q1018 782 1018 743V53Q1018 38 1008 27T983 14Q883 2 804 -5T616 -12Q466 -12 351 56T169 270T102 633V887Q102 1127 176 1271T367 1473T616 1532Q728 1532 840 1504T1001 1450Q1021 1441 1030 1433T1040 1409V1391Q1040 1370 1031 1365T1001 1366Q908 1400 816 1424T616 1448Z"  />
<glyph unicode="H" horiz-adv-x="1284" d="M1141 39Q1141 0 1106 0H1087Q1053 0 1053 39V772H233V39Q233 23 224 12T199 0H178Q163 0 153 12T143 39V1483Q143 1498 153 1510T178 1522H199Q214 1522 223 1511T233 1483V856H1053V1483Q1053 1522 1087 1522H1106Q1122 1522 1131 1511T1141 1483V39Z"  />
<glyph unicode="I" horiz-adv-x="418" d="M254 39Q254 22 244 11T219 0H199Q184 0 174 12T164 39V1483Q164 1498 174 1510T199 1522H219Q234 1522 244 1511T254 1483V39Z"  />
<glyph unicode="J" horiz-adv-x="418" d="M254 -123Q254 -220 227 -280T135 -370T-41 -399H-70Q-111 -399 -111 -371V-350Q-111 -319 -70 -319H-41Q45 -319 88 -304T147 -247T164 -123V1483Q164 1498 174 1510T199 1522H219Q234 1522 244 1511T254 1483V-123Z"  />
<glyph unicode="K" horiz-adv-x="1069" d="M1028 29Q1028 -4 989 -4Q958 -4 942 12L233 750V39Q233 23 224 12T199 0H178Q163 0 153 12T143 39V1483Q143 1498 155 1510T182 1522H195Q210 1522 221 1511T233 1483V827L930 1507Q954 1530 977 1530Q993 1530 1004 1520T1016 1495Q1016 1473 999 1458L311 791L1014 61Q1028 47 1028 29Z"  />
<glyph unicode="L" horiz-adv-x="948" d="M897 35Q897 0 858 0H391Q310 0 256 22T172 94T143 229V1483Q143 1498 153 1510T178 1522H199Q214 1522 223 1511T233 1483V229Q233 140 271 112T391 84H858Q897 84 897 51V35Z"  />
<glyph unicode="M" horiz-adv-x="1454" d="M1311 39Q1311 24 1301 12T1276 0H1255Q1241 0 1231 12T1221 39V1432Q1221 1446 1206 1446Q1194 1446 1186 1427L831 680Q810 637 787 622T727 606Q692 606 668 621T623 680L268 1427Q260 1446 248 1446Q233 1446 233 1432V39Q233 23 224 12T199 0H178Q163 0 153 12T143 39V1432Q143 1482 171 1507T248 1532Q313 1532 342 1468L700 717Q713 690 727 690Q741 690 754 717L1112 1468Q1141 1532 1206 1532Q1256 1532 1283 1508T1311 1432V39Z"  />
<glyph unicode="N" horiz-adv-x="1292" d="M1149 92Q1149 46 1123 17T1057 -12Q980 -12 950 49L260 1432Q253 1446 244 1446Q233 1446 233 1432V39Q233 23 224 12T199 0H178Q163 0 153 12T143 39V1432Q143 1478 170 1505T236 1532Q313 1532 342 1468L1030 88Q1037 74 1047 74Q1057 74 1057 92V1483Q1057 1500 1066 1511T1090 1522H1114Q1149 1522 1149 1483V92Z"  />
<glyph unicode="O" horiz-adv-x="1253" d="M1151 633Q1151 411 1085 267T901 56T627 -12Q471 -12 353 55T168 267T102 633V887Q102 1052 140 1176T249 1379T415 1495T627 1532Q745 1532 840 1495T1005 1379T1113 1176T1151 887V633ZM1061 633V887Q1061 1038 1029 1147T938 1322T802 1417T627 1446Q193 1446 193 887V633Q193 74 627 74Q722 74 801 103T939 199T1029 374T1061 633Z"  />
<glyph unicode="P" horiz-adv-x="1065" d="M1014 1081Q1014 848 872 746T457 643Q349 643 233 651V39Q233 23 224 12T199 0H178Q163 0 153 12T143 39V1483Q143 1497 153 1508T178 1522Q285 1528 335 1530T457 1532Q1014 1532 1014 1116V1081ZM924 1081V1116Q924 1301 810 1376T457 1452Q323 1452 233 1446V731Q361 723 457 723Q580 723 665 743T809 806T896 915T924 1081Z"  />
<glyph unicode="Q" horiz-adv-x="1253" d="M1151 633Q1151 417 1089 276T909 61Q927 1 971 -26T1110 -53H1200Q1241 -53 1241 -86V-100Q1241 -133 1200 -133H1110Q1030 -133 974 -118T884 -71T827 20Q729 -12 627 -12Q471 -12 353 55T168 267T102 633V887Q102 1052 140 1176T249 1379T415 1495T627 1532Q745 1532 840 1495T1005 1379T1113 1176T1151 887V633ZM1061 633V887Q1061 1038 1029 1147T938 1322T802 1417T627 1446Q193 1446 193 887V633Q193 74 627 74Q722 74 801 103T939 199T1029 374T1061 633Z"  />
<glyph unicode="R" horiz-adv-x="1184" d="M1112 31Q1112 0 1079 0H1053Q1036 0 1022 18L586 686H553H498Q417 687 348 687T233 688V39Q233 23 224 12T199 0H178Q163 0 153 12T143 39V1485Q143 1499 153 1510T178 1524Q217 1526 334 1529T498 1532Q643 1532 745 1510T915 1440T1019 1311T1055 1114V1104Q1055 1012 1032 942T964 823T850 744T688 696L1102 59Q1112 42 1112 31ZM965 1104V1114Q965 1299 852 1372T498 1446Q316 1446 233 1438V774Q312 774 371 774T498 772Q662 772 764 801T915 903T965 1104Z"  />
<glyph unicode="S" horiz-adv-x="1044" d="M973 379Q973 309 953 241T883 116T742 24T516 -12Q403 -12 303 13T129 72Q119 77 110 82T96 96T92 115V143Q92 156 101 164T131 162Q328 74 516 74Q654 74 734 113T847 220T879 379Q879 452 849 502T759 596T563 725L434 805Q324 873 258 926T153 1046T113 1200Q113 1380 238 1456T532 1532Q602 1532 678 1519T812 1488T897 1456Q920 1446 926 1439T932 1415V1393Q932 1354 893 1370Q857 1386 804 1402T678 1432T532 1446Q205 1446 205 1198Q205 1135 235 1086T319 994T481 885L612 805Q735 732 813 671T932 539T973 379Z"  />
<glyph unicode="T" horiz-adv-x="1128" d="M1087 1468Q1087 1438 1049 1438H610V39Q610 22 600 11T575 0H555Q540 0 530 12T520 39V1438H80Q41 1438 41 1468V1487Q41 1503 52 1512T80 1522H1049Q1066 1522 1076 1513T1087 1487V1468Z"  />
<glyph unicode="U" horiz-adv-x="1255" d="M1112 541Q1112 274 993 131T629 -12Q385 -12 264 131T143 541V1483Q143 1498 153 1510T178 1522H199Q214 1522 223 1511T233 1483V541Q233 389 273 285T401 127T629 72Q836 72 929 191T1022 541V1483Q1022 1498 1032 1510T1057 1522H1077Q1092 1522 1102 1511T1112 1483V541Z"  />
<glyph unicode="V" horiz-adv-x="1249" d="M1180 1485Q1180 1475 1178 1470L758 88Q728 -12 625 -12Q521 -12 492 88L72 1470Q70 1475 70 1485Q70 1522 104 1522H127Q138 1522 147 1514T160 1493L578 115Q590 74 625 74Q660 74 672 115L1090 1493Q1097 1522 1122 1522H1145Q1162 1522 1171 1512T1180 1485Z"  />
<glyph unicode="W" horiz-adv-x="1573" d="M1501 1485V1475L1249 84Q1232 -12 1151 -12Q1110 -12 1089 11T1053 80L803 872Q796 897 786 897Q777 897 770 872L520 80Q505 35 484 12T422 -12Q341 -12 324 84L72 1475V1485Q72 1501 80 1511T104 1522H125Q137 1522 148 1513T162 1489L410 102Q415 72 422 72Q429 72 438 102L694 899Q720 979 786 979Q853 979 879 899L1135 102Q1140 84 1143 78T1151 72Q1158 72 1163 102L1411 1489Q1414 1504 1425 1513T1448 1522H1468Q1484 1522 1492 1512T1501 1485Z"  />
<glyph unicode="X" horiz-adv-x="1192" d="M1128 33Q1128 0 1096 0H1079Q1061 0 1047 18L596 700L145 18Q132 0 113 0H94Q61 0 61 33Q61 49 70 59L543 778L92 1460Q82 1477 82 1491Q82 1522 113 1522H135Q154 1522 168 1503L594 856L1022 1503Q1028 1511 1038 1516T1055 1522H1073Q1106 1522 1106 1489Q1106 1471 1098 1460L647 776L1120 59Q1128 48 1128 33Z"  />
<glyph unicode="Y" horiz-adv-x="1087" d="M1014 1493Q1014 1483 1008 1466L684 752Q639 653 588 633V39Q588 24 578 12T553 0H532Q518 0 508 12T498 39V633Q447 653 401 752L78 1466Q72 1483 72 1493Q72 1522 106 1522H127Q136 1522 145 1514T160 1497L481 780Q503 734 514 722T543 709Q561 709 572 722T604 780L926 1497Q939 1522 958 1522H979Q1014 1522 1014 1493Z"  />
<glyph unicode="Z" horiz-adv-x="1178" d="M1075 33Q1075 17 1063 9T1032 0H229Q119 0 119 88Q119 128 141 162L918 1411Q922 1417 922 1425Q922 1438 905 1438H164Q121 1438 121 1468V1489Q121 1503 134 1512T164 1522H905Q965 1522 989 1505Q1024 1485 1024 1440Q1024 1406 1001 1370L219 106Q215 98 215 92Q215 84 229 84H1032Q1075 84 1075 53V33Z"  />
<glyph unicode="[" horiz-adv-x="569" d="M549 -367Q549 -399 510 -399H199Q184 -399 174 -387T164 -360V1483Q164 1498 174 1510T199 1522H510Q526 1522 537 1513T549 1487V1470Q549 1438 510 1438H254V-315H510Q526 -315 537 -324T549 -350V-367Z"  />
<glyph unicode="\" horiz-adv-x="625" d="M604 12Q604 -12 584 -12H539Q518 -12 506 27L25 1493Q23 1497 23 1507Q23 1532 45 1532H88Q102 1532 108 1523T121 1493L602 27Q604 23 604 12Z"  />
<glyph unicode="]" horiz-adv-x="569" d="M406 -360Q406 -375 396 -387T371 -399H59Q20 -399 20 -367V-350Q20 -334 31 -325T59 -315H315V1438H59Q20 1438 20 1470V1487Q20 1503 31 1512T59 1522H371Q386 1522 396 1510T406 1483V-360Z"  />
<glyph unicode="^" horiz-adv-x="1147" d="M926 1165Q926 1147 903 1147H866Q855 1147 847 1151T832 1165T813 1188L573 1473L334 1188Q322 1174 315 1165T300 1152T281 1147H244Q221 1147 221 1165Q221 1175 231 1188L471 1495Q500 1532 526 1532H621Q647 1532 676 1495L915 1188Q926 1175 926 1165Z"  />
<glyph unicode="_" horiz-adv-x="911" d="M993 -168Q993 -184 982 -192T952 -201H-41Q-57 -201 -69 -192T-82 -168V-147Q-82 -115 -41 -115H952Q993 -115 993 -147V-168Z"  />
<glyph unicode="`" horiz-adv-x="635" d="M414 1280Q414 1266 395 1266H350Q339 1266 334 1269T320 1282T305 1300L86 1563Q78 1571 78 1579Q78 1593 100 1593H154Q175 1593 201 1563L406 1300Q414 1292 414 1280Z"  />
<glyph unicode="a" horiz-adv-x="958" d="M459 1032Q392 1032 320 1016T193 979Q150 962 150 999V1012Q150 1043 188 1057Q240 1076 313 1093T463 1110Q600 1110 681 1071T799 948T836 733V74Q836 55 830 45T805 31Q649 -12 496 -12Q344 -12 252 23T121 130T82 317V344Q82 509 197 584T588 659H745V733Q745 853 715 918T624 1008T459 1032ZM745 92V578H588Q356 578 265 527T174 344V317Q174 228 200 176T295 96T496 68Q563 68 633 76T745 92Z"  />
<glyph unicode="b" horiz-adv-x="991" d="M899 485Q899 333 857 222T725 49T498 -12Q339 -12 154 27Q137 31 130 39T123 66V1483Q123 1498 133 1510T158 1522H178Q193 1522 203 1511T213 1483V1079Q347 1110 498 1110Q698 1110 798 987T899 621V485ZM809 485V621Q809 760 778 849T679 984T498 1030Q426 1030 351 1024T213 1004V94Q373 68 498 68Q664 68 736 173T809 485Z"  />
<glyph unicode="c" horiz-adv-x="854" d="M498 -12Q356 -12 266 50T134 223T92 483V621Q92 770 133 878T266 1048T498 1110Q566 1110 633 1094T745 1057Q766 1049 775 1039T784 1012V999Q784 962 741 979Q609 1030 498 1030Q329 1030 256 926T182 621V483Q182 350 213 258T313 117T498 68Q615 68 741 119Q784 136 784 98V86Q784 68 775 59T745 41Q697 19 630 4T498 -12Z"  />
<glyph unicode="d" horiz-adv-x="991" d="M868 66Q868 46 862 39T838 27Q653 -12 494 -12Q356 -12 267 49T135 222T92 485V621Q92 1110 494 1110Q644 1110 778 1079V1483Q778 1498 788 1510T813 1522H834Q849 1522 858 1511T868 1483V66ZM778 94V1004Q715 1017 640 1023T494 1030Q329 1030 256 929T182 621V485Q182 280 254 174T494 68Q620 68 778 94Z"  />
<glyph unicode="e" horiz-adv-x="1006" d="M913 567Q913 550 902 539T874 528H182V485Q182 249 277 159T539 68Q688 68 858 139Q874 146 883 141T893 125V100Q893 84 886 76T854 55Q818 38 766 23T651 -2T539 -12Q338 -12 215 102T92 485V621Q92 763 140 874T282 1047T506 1110Q642 1110 734 1050T869 880T913 623V567ZM823 610V623Q823 826 749 928T506 1030Q395 1030 323 980T217 837T182 621V610H823Z"  />
<glyph unicode="f" horiz-adv-x="731" d="M680 1479Q680 1452 637 1452H535Q460 1452 427 1417T393 1290V1100H637Q655 1100 665 1091T676 1067V1049Q676 1016 637 1016H393V39Q393 23 383 12T356 0H342Q326 0 315 11T303 39V1016H100Q61 1016 61 1049V1067Q61 1082 72 1091T100 1100H303V1290Q303 1532 535 1532Q601 1532 641 1526Q680 1521 680 1493V1479Z"  />
<glyph unicode="g" horiz-adv-x="1053" d="M868 -2Q868 -123 845 -200T775 -321T660 -382T498 -399Q320 -399 180 -340Q156 -330 149 -323T141 -295V-285Q141 -249 184 -262Q251 -284 333 -301T498 -319Q585 -319 636 -307T720 -259T766 -164T780 -2V20Q741 7 654 -2T516 -12Q333 -12 213 86T92 481V621Q92 797 138 906T278 1062T516 1110Q563 1110 625 1104T741 1090T838 1071Q868 1064 868 1032V-2ZM778 98V1004Q620 1030 516 1030Q395 1030 323 996T217 873T182 621V481Q182 313 224 222T337 100T516 68Q569 68 653 77T778 98Z"  />
<glyph unicode="h" horiz-adv-x="993" d="M881 39Q881 0 846 0H825Q811 0 802 11T793 39V717Q793 873 721 951T489 1030Q338 1030 213 993V39Q213 22 203 11T178 0H158Q143 0 133 12T123 39V1483Q123 1498 133 1510T158 1522H178Q193 1522 203 1511T213 1483V1073Q273 1090 347 1100T489 1110Q627 1110 714 1061T841 924T881 717V39Z"  />
<glyph unicode="i" horiz-adv-x="377" d="M233 1341Q233 1325 222 1314T195 1303H182Q166 1303 155 1314T143 1341V1493Q143 1508 155 1520T182 1532H195Q210 1532 221 1521T233 1493V1341ZM233 39Q233 23 222 12T195 0H182Q167 0 155 12T143 39V1061Q143 1076 155 1088T182 1100H195Q210 1100 221 1089T233 1061V39Z"  />
<glyph unicode="j" horiz-adv-x="377" d="M233 1341Q233 1325 222 1314T195 1303H182Q166 1303 155 1314T143 1341V1493Q143 1508 155 1520T182 1532H195Q210 1532 221 1521T233 1493V1341ZM233 -176Q233 -303 182 -351T23 -399Q-18 -399 -63 -393Q-84 -390 -91 -384T-98 -365V-346Q-98 -322 -55 -322H23Q93 -322 118 -294T143 -176V1061Q143 1078 152 1089T176 1100H199Q215 1100 224 1089T233 1061V-176Z"  />
<glyph unicode="k" horiz-adv-x="868" d="M809 20Q809 -12 770 -12Q733 -12 709 12L213 543V39Q213 23 201 12T174 0H162Q147 0 135 12T123 39V1483Q123 1498 135 1510T162 1522H174Q189 1522 201 1511T213 1483V621L717 1092Q738 1110 766 1110Q785 1110 796 1099T807 1073Q807 1055 793 1042L291 584L795 51Q809 34 809 20Z"  />
<glyph unicode="l" horiz-adv-x="377" d="M233 39Q233 23 224 12T199 0H178Q163 0 153 12T143 39V1483Q143 1498 153 1510T178 1522H199Q214 1522 223 1511T233 1483V39Z"  />
<glyph unicode="m" horiz-adv-x="1487" d="M1364 39Q1364 0 1329 0H1309Q1274 0 1274 39V772Q1274 917 1216 973T1034 1030Q903 1030 758 961Q788 881 788 780V39Q788 0 758 0H727Q698 0 698 39V780Q698 872 677 927T611 1006T492 1030Q422 1030 333 1018T213 997V39Q213 0 182 0H154Q123 0 123 39V1022Q123 1053 160 1063Q196 1072 251 1083T369 1102T492 1110Q653 1110 719 1026Q894 1110 1049 1110Q1196 1110 1280 1031T1364 772V39Z"  />
<glyph unicode="n" horiz-adv-x="1026" d="M903 39Q903 23 892 12T864 0H850Q834 0 824 11T813 39V719Q813 835 782 903T684 1000T512 1030Q451 1030 354 1018T213 995V39Q213 23 201 12T174 0H162Q147 0 135 12T123 39V1022Q123 1055 160 1063Q237 1083 341 1096T516 1110Q709 1110 806 1018T903 719V39Z"  />
<glyph unicode="o" horiz-adv-x="1028" d="M936 477Q936 323 889 213T747 46T514 -12Q376 -12 281 45T139 213T92 477V621Q92 775 139 885T281 1052T514 1110Q652 1110 747 1053T889 885T936 621V477ZM846 477V621Q846 749 813 840T706 981T514 1030Q396 1030 323 981T216 841T182 621V477Q182 280 261 174T514 68Q688 68 767 174T846 477Z"  />
<glyph unicode="p" horiz-adv-x="991" d="M899 477Q899 316 855 207T721 43T498 -12Q350 -12 213 18V-360Q213 -377 203 -388T178 -399H158Q143 -399 133 -387T123 -360V1032Q123 1050 129 1058T154 1071Q339 1110 498 1110Q635 1110 724 1049T856 876T899 612V477ZM809 477V612Q809 821 737 925T498 1030Q426 1030 357 1023T213 1004V94Q340 68 498 68Q610 68 678 113T778 248T809 477Z"  />
<glyph unicode="q" horiz-adv-x="991" d="M868 -360Q868 -377 859 -388T834 -399H813Q798 -399 788 -387T778 -360V18Q727 7 640 -2T494 -12Q92 -12 92 477V612Q92 764 134 875T266 1048T494 1110Q653 1110 838 1071Q868 1064 868 1032V-360ZM778 94V1004Q708 1016 638 1023T494 1030Q327 1030 255 925T182 612V477Q182 378 199 301T254 172T351 94T494 68Q651 68 778 94Z"  />
<glyph unicode="r" horiz-adv-x="592" d="M512 1030Q451 1030 354 1018T213 995V39Q213 23 201 12T174 0H162Q147 0 135 12T123 39V1022Q123 1055 160 1063Q238 1083 340 1096T512 1110Q553 1110 553 1079V1063Q553 1030 512 1030Z"  />
<glyph unicode="s" horiz-adv-x="860" d="M778 272Q778 120 682 54T424 -12Q353 -12 267 5T127 43Q96 57 89 64T82 90V98Q82 120 93 125T129 123Q206 96 279 81T428 66Q552 66 620 111T688 272Q688 335 644 380T471 496L340 567Q250 617 200 655T121 742T92 858Q92 949 135 1005T251 1085T414 1110Q498 1110 577 1094T711 1057Q730 1050 735 1044T741 1020V1008Q741 967 698 981Q644 998 568 1014T414 1030Q301 1030 242 995T182 858Q182 795 229 750T381 645L518 569Q660 491 719 430T778 272Z"  />
<glyph unicode="t" horiz-adv-x="737" d="M676 27Q676 -1 641 -6Q595 -12 535 -12Q417 -12 360 36T303 209V1016H100Q61 1016 61 1049V1069Q61 1100 100 1100H303V1311Q303 1350 338 1350H360Q375 1350 384 1339T393 1311V1100H637Q676 1100 676 1069V1049Q676 1016 637 1016H393V209Q393 123 426 96T535 68H633Q676 68 676 39V27Z"  />
<glyph unicode="u" horiz-adv-x="1026" d="M123 1061Q123 1077 134 1088T162 1100H176Q192 1100 202 1089T213 1061V381Q213 209 283 140T514 70Q575 70 672 82T813 104V1061Q813 1076 825 1088T852 1100H864Q879 1100 891 1089T903 1061V78Q903 45 866 37Q792 18 684 4T510 -10Q319 -10 221 82T123 381V1061Z"  />
<glyph unicode="v" horiz-adv-x="942" d="M883 1069Q883 1055 881 1049L612 117Q591 40 558 14T473 -12Q423 -12 387 15T330 117L61 1049Q59 1055 59 1065Q59 1081 68 1090T92 1100H113Q139 1100 150 1063L412 139Q434 66 473 66Q492 66 504 79T530 139L793 1063Q803 1100 829 1100H854Q883 1100 883 1069Z"  />
<glyph unicode="w" horiz-adv-x="1499" d="M1419 1061Q1419 1058 1419 1056T1417 1051L1192 98Q1183 59 1170 35T1136 -1T1085 -12Q1040 -12 1019 15T981 104L764 883Q760 901 752 901H750H748Q740 901 735 883L518 104Q501 43 481 16T414 -12Q367 -12 345 12T307 98L82 1051Q82 1055 82 1057T80 1061Q80 1077 91 1088T119 1100H131Q141 1100 151 1091T164 1071L385 119Q395 68 410 68H414Q426 68 440 117L662 907Q681 981 750 981Q817 981 838 907L1059 117Q1073 68 1085 68H1090Q1104 68 1114 119L1335 1071Q1338 1082 1348 1091T1368 1100H1380Q1396 1100 1407 1089T1419 1061Z"  />
<glyph unicode="x" horiz-adv-x="969" d="M911 29Q911 0 883 0H866Q840 0 827 16L487 492L154 16Q140 0 131 0H96Q68 0 68 25Q68 40 78 53L438 563L90 1051Q82 1063 82 1073Q82 1100 119 1100H131Q160 1100 170 1083L494 633L807 1079Q813 1089 824 1094T846 1100H864Q895 1100 895 1075Q895 1063 881 1040L543 559L905 51Q911 42 911 29Z"  />
<glyph unicode="y" horiz-adv-x="954" d="M895 1065Q895 1055 893 1049L557 -115Q525 -227 485 -287T384 -373T225 -399Q172 -399 98 -387Q57 -380 57 -358V-336Q57 -307 88 -307H100Q193 -319 233 -319Q290 -319 328 -309T393 -274T438 -209T477 -96L504 0H475Q425 0 399 22T350 115L74 1051Q72 1055 72 1065Q72 1100 106 1100H125Q134 1100 144 1091T158 1071L434 129Q447 84 481 84H528L809 1073Q817 1100 846 1100H864Q895 1100 895 1065Z"  />
<glyph unicode="z" horiz-adv-x="872" d="M811 33Q811 17 800 9T770 0H176Q119 0 90 24T61 84Q61 127 86 160L698 977Q707 991 707 997Q707 1016 678 1016H139Q98 1016 98 1047V1067Q98 1081 110 1090T139 1100H680Q728 1100 761 1076T795 1012Q795 963 762 920L168 123Q156 103 156 98Q156 84 176 84H770Q811 84 811 53V33Z"  />
<glyph unicode="{" horiz-adv-x="573" d="M553 -365Q553 -399 514 -399H420Q323 -399 269 -379T192 -310T168 -174V244Q168 322 159 367T123 448T41 524V598Q96 638 122 674T158 755T168 879V1296Q168 1383 192 1431T270 1501T420 1522H514Q530 1522 541 1513T553 1487V1470Q553 1438 514 1438H420Q351 1438 317 1427T270 1386T258 1296V879Q258 765 231 693T127 559Q201 500 229 428T258 244V-174Q258 -234 270 -264T314 -304T420 -315H514Q532 -315 542 -324T553 -348V-365Z"  />
<glyph unicode="|" horiz-adv-x="418" d="M254 -360Q254 -377 244 -388T219 -399H199Q184 -399 174 -387T164 -360V1483Q164 1498 174 1510T199 1522H219Q234 1522 244 1511T254 1483V-360Z"  />
<glyph unicode="}" horiz-adv-x="573" d="M532 524Q476 483 451 448T416 367T406 244V-174Q406 -261 383 -309T305 -378T154 -399H59Q20 -399 20 -365V-348Q20 -333 31 -324T59 -315H154Q227 -315 259 -305T303 -264T315 -174V244Q315 355 343 427T446 559Q394 601 366 646T326 747T315 879V1296Q315 1386 286 1412T154 1438H59Q20 1438 20 1470V1487Q20 1503 31 1512T59 1522H154Q248 1522 303 1501T382 1432T406 1296V879Q406 801 415 756T450 675T532 598V524Z"  />
<glyph unicode="~" horiz-adv-x="1147" d="M954 940Q954 727 770 727Q724 727 687 742T612 793L496 905Q462 939 435 958T383 977Q272 977 272 838V776Q272 753 269 745T250 737H219Q193 737 193 776V838Q193 946 243 1000T381 1055Q466 1055 539 985L655 872Q723 809 768 809Q824 809 849 837T874 940V1004Q874 1024 878 1032T897 1040H928Q954 1040 954 1004V940Z"  />
<glyph unicode="&#xA0;" horiz-adv-x="1147" />
<glyph unicode="&#xA1;" horiz-adv-x="377" d="M233 920Q233 904 222 893T195 881H182Q167 881 155 893T143 920V1071Q143 1087 154 1098T182 1110H195Q211 1110 222 1099T233 1071V920ZM233 -385Q233 -401 222 -412T195 -424H182Q167 -424 155 -412T143 -385V705Q143 720 154 731T182 743H195Q211 743 222 732T233 705V-385Z"  />
<glyph unicode="&#xA2;" horiz-adv-x="1147" d="M535 1108V1317Q535 1334 544 1345T567 1356H588Q602 1356 611 1345T621 1317V1108Q737 1096 825 1057Q846 1049 855 1039T864 1012V999Q864 962 821 979Q689 1030 578 1030Q409 1030 336 926T262 621V483Q262 350 293 258T393 117T578 68Q695 68 821 119Q864 136 864 98V86Q864 68 855 59T825 41Q789 25 731 10T621 -10V-219Q621 -236 612 -247T588 -258H567Q553 -258 544 -247T535 -219V-10Q407 0 327 65T209 236T172 483V621Q172 760 208 866T326 1035T535 1108Z"  />
<glyph unicode="&#xA3;" horiz-adv-x="1147" d="M678 1530Q853 1530 985 1485Q1007 1478 1015 1469T1024 1440V1423Q1024 1383 975 1399Q810 1444 678 1444Q551 1444 483 1392T390 1243T365 995V844H866Q903 844 903 809V791Q903 775 891 766T862 756H365V346Q365 199 299 84H983Q1024 84 1024 55V33Q1024 0 983 0H221Q200 0 190 13T180 41Q180 54 186 63Q231 140 250 199T270 346V756H162Q125 756 125 791V809Q125 824 137 834T166 844H270V1014Q270 1136 291 1229T359 1390T486 1494T678 1530Z"  />
<glyph unicode="&#xA4;" horiz-adv-x="1147" d="M1004 330Q1004 316 993 305L979 291Q969 281 956 281Q940 281 926 295L760 463Q653 379 520 379Q386 379 283 461L119 297Q105 283 88 283Q76 283 66 293L51 307Q41 317 41 330Q41 346 55 360L217 522Q131 631 131 766Q131 899 215 1006L55 1165Q41 1181 41 1196Q41 1209 51 1221L66 1235Q74 1243 86 1243Q105 1243 119 1229L279 1069Q384 1153 518 1153Q653 1153 762 1067L926 1231Q940 1245 956 1245Q969 1245 979 1235L993 1221Q1004 1208 1004 1198Q1004 1184 989 1167L825 1004Q907 902 907 766Q907 631 823 526L989 360Q1004 345 1004 330ZM823 766Q823 830 800 884T735 979T638 1044T520 1067Q439 1067 369 1027T258 918T217 766Q217 684 257 614T368 504T520 463Q602 463 672 503T782 614T823 766Z"  />
<glyph unicode="&#xA5;" horiz-adv-x="1147" d="M1075 520Q1075 505 1064 496T1034 487H618V39Q618 23 609 12T584 0H563Q548 0 538 12T528 39V487H109Q72 487 72 520V539Q72 553 83 562T113 571H528V633L403 881H109Q72 881 72 913V932Q72 946 83 955T113 965H360L109 1466Q100 1480 100 1493Q100 1522 137 1522H162Q180 1522 195 1497L575 739L954 1497Q969 1522 987 1522H1010Q1047 1522 1047 1493Q1047 1483 1038 1466L786 965H1038Q1075 965 1075 932V913Q1075 898 1064 890T1034 881H743L618 633V571H1038Q1075 571 1075 539V520Z"  />
<glyph unicode="&#xA6;" horiz-adv-x="418" d="M254 739Q254 722 244 711T219 700H199Q184 700 174 712T164 739V1452Q164 1467 173 1479T199 1491H219Q235 1491 244 1480T254 1452V739ZM254 -393Q254 -410 244 -421T219 -432H199Q184 -432 174 -420T164 -393V319Q164 334 173 346T199 358H219Q235 358 244 347T254 319V-393Z"  />
<glyph unicode="&#xA7;" horiz-adv-x="1026" d="M877 371Q877 442 854 490T774 585T600 705L395 829Q315 878 254 926Q203 869 203 770Q203 710 224 667T296 581T453 473L653 350Q784 271 844 213Q877 281 877 371ZM874 -59Q874 11 852 59T774 154T600 274L395 399Q301 458 250 498T169 579T126 666T113 770Q113 912 184 989Q144 1035 129 1084T113 1200Q113 1381 238 1456T530 1532Q600 1532 676 1519T810 1488T895 1456Q918 1446 924 1439T930 1415V1393Q930 1354 891 1370Q836 1396 735 1423T530 1450Q368 1450 286 1388T203 1200Q203 1140 224 1097T296 1011T453 903L653 780Q784 700 850 638T941 513T967 371Q967 231 907 143Q967 63 967 -59Q967 -129 947 -197T876 -323T735 -416T510 -451Q394 -451 296 -427T123 -367Q113 -361 104 -356T90 -342T86 -324V-295Q86 -283 95 -275T125 -276Q209 -315 308 -340T510 -365Q713 -365 793 -283T874 -59Z"  />
<glyph unicode="&#xA8;" horiz-adv-x="635" d="M516 1354Q516 1337 505 1326T477 1315H465Q449 1315 438 1326T426 1354V1505Q426 1520 437 1532T465 1544H477Q494 1544 505 1533T516 1505V1354ZM209 1354Q209 1338 198 1327T170 1315H158Q142 1315 131 1326T119 1354V1505Q119 1520 130 1532T158 1544H170Q187 1544 198 1532T209 1505V1354Z"  />
<glyph unicode="&#xA9;" horiz-adv-x="750" d="M285 1257V1241Q285 1120 375 1120Q400 1120 457 1135Q483 1142 483 1116V1114Q483 1097 469 1090Q432 1069 375 1069Q317 1069 271 1108T225 1241V1257Q225 1352 271 1391T375 1430Q429 1430 469 1409Q483 1402 483 1384V1382Q483 1357 457 1364Q451 1365 437 1369T408 1375T375 1378Q285 1378 285 1257ZM678 1245Q678 1184 654 1127T589 1030T493 966T375 942Q294 942 224 982T113 1092T72 1245Q72 1326 112 1396T223 1507T375 1548Q455 1548 525 1507T636 1397T678 1245ZM125 1245Q125 1177 159 1120T250 1029T375 995Q443 995 500 1029T591 1120T625 1245Q625 1313 591 1370T500 1461T375 1495Q307 1495 250 1461T159 1370T125 1245Z"  />
<glyph unicode="&#xAA;" horiz-adv-x="508" d="M451 961Q451 933 428 928Q350 905 262 905Q139 905 88 949T37 1090V1104Q37 1165 64 1204T149 1263T307 1282H383V1311Q383 1395 356 1427T258 1460Q189 1460 106 1450H102Q72 1450 72 1477V1483Q72 1507 104 1511Q176 1522 258 1522Q365 1522 408 1467T451 1311V961ZM383 979V1219H309Q225 1219 182 1208T121 1172T102 1104V1090Q102 1023 134 995T262 967Q308 967 383 979Z"  />
<glyph unicode="&#xAB;" horiz-adv-x="1055" d="M967 188Q967 175 956 166L942 152Q934 143 922 143Q908 143 889 158L524 492Q496 517 496 551Q496 582 524 610L889 944Q907 958 922 958Q934 958 942 950L956 936Q967 927 967 913Q967 895 950 883L588 551L950 219Q967 207 967 188ZM496 188Q496 175 485 166L471 152Q463 143 451 143Q437 143 418 158L53 492Q25 517 25 551Q25 582 53 610L418 944Q436 958 451 958Q463 958 471 950L485 936Q496 927 496 913Q496 897 479 883L117 551L479 219Q496 205 496 188Z"  />
<glyph unicode="&#xAC;" horiz-adv-x="1147" d="M989 594Q989 553 956 553H936Q903 553 903 594V963H201Q160 963 160 995V1016Q160 1031 171 1040T201 1049H956Q971 1049 980 1038T989 1012V594Z"  />
<glyph unicode="&#xAD;" horiz-adv-x="664" d="M578 559Q578 544 568 535T539 526H125Q108 526 97 535T86 559V575Q86 592 97 602T125 612H539Q556 612 567 602T578 575V559Z"  />
<glyph unicode="&#xAE;" horiz-adv-x="750" d="M315 1206V1098Q315 1077 295 1077H274Q256 1077 256 1098V1397Q256 1419 279 1423Q315 1427 358 1427Q439 1427 472 1400T506 1317Q506 1243 438 1219L508 1104Q515 1094 513 1086T500 1077H465Q454 1077 446 1090L379 1206H315ZM446 1317Q446 1347 428 1362T358 1378H315V1255H358Q402 1255 424 1269T446 1317ZM678 1245Q678 1184 654 1127T589 1030T493 966T375 942Q294 942 224 982T113 1092T72 1245Q72 1326 112 1396T223 1507T375 1548Q455 1548 525 1507T636 1397T678 1245ZM125 1245Q125 1177 159 1120T250 1029T375 995Q443 995 500 1029T591 1120T625 1245Q625 1313 591 1370T500 1461T375 1495Q307 1495 250 1461T159 1370T125 1245Z"  />
<glyph unicode="&#xAF;" horiz-adv-x="911" d="M993 1670Q993 1654 982 1646T952 1637H-41Q-57 1637 -69 1646T-82 1670V1691Q-82 1723 -41 1723H952Q993 1723 993 1691V1670Z"  />
<glyph unicode="&#xB0;" horiz-adv-x="637" d="M596 1255Q596 1182 559 1118T457 1017T319 979Q245 979 181 1016T79 1118T41 1255Q41 1329 79 1393T181 1494T319 1532Q374 1532 425 1510T514 1451T574 1362T596 1255ZM518 1255Q518 1309 491 1355T418 1428T319 1456Q264 1456 219 1429T148 1356T121 1255Q121 1202 148 1157T220 1084T319 1057Q371 1057 417 1084T491 1156T518 1255Z"  />
<glyph unicode="&#xB1;" horiz-adv-x="1147" d="M1030 791Q1030 758 989 758H616V387Q616 346 584 346H563Q548 346 539 358T530 387V758H160Q119 758 119 791V811Q119 844 160 844H530V1217Q530 1257 563 1257H584Q616 1257 616 1217V844H989Q1030 844 1030 811V791ZM1030 33Q1030 0 989 0H160Q119 0 119 33V53Q119 86 160 86H989Q1030 86 1030 53V33Z"  />
<glyph unicode="&#xB2;" horiz-adv-x="635" d="M573 1337Q573 1261 537 1214T412 1104L299 1028Q207 963 182 920T156 805V776H520Q537 776 547 768T557 743V731Q557 698 520 698H111Q94 698 84 710T74 737V805Q74 894 110 956T252 1092L365 1169Q413 1203 438 1225T475 1274T487 1337Q487 1454 336 1454Q282 1454 222 1442T127 1417Q84 1403 84 1446V1454Q84 1471 89 1478T113 1493Q224 1532 336 1532Q573 1532 573 1337Z"  />
<glyph unicode="&#xB3;" horiz-adv-x="635" d="M307 686Q252 686 195 697T109 723Q93 731 86 739T78 762V768Q78 815 127 797Q220 766 299 766Q481 766 481 934V948Q481 1011 447 1051T340 1092H135Q98 1092 98 1128V1137Q98 1154 108 1162T135 1171H340Q410 1171 445 1212T481 1309V1325Q481 1397 442 1425T326 1454Q226 1454 127 1421Q102 1412 90 1416T78 1446V1454Q78 1473 84 1480T111 1495Q237 1532 326 1532Q437 1532 502 1485T567 1325V1309Q567 1184 467 1128Q567 1072 567 948V934Q567 815 495 751T307 686Z"  />
<glyph unicode="&#xB4;" horiz-adv-x="635" d="M557 1579Q557 1571 549 1563L330 1300Q317 1284 308 1275T285 1266H240Q221 1266 221 1280Q221 1292 229 1300L434 1563Q460 1593 481 1593H535Q557 1593 557 1579Z"  />
<glyph unicode="&#xB5;" horiz-adv-x="1026" d="M903 78Q903 65 896 55T877 41Q798 16 704 2T526 -12Q320 -12 213 106V-360Q213 -377 203 -388T178 -399H158Q143 -399 133 -387T123 -360V1061Q123 1077 134 1088T162 1100H176Q192 1100 202 1089T213 1061V379Q213 224 289 146T526 68Q593 68 676 79T813 106V1061Q813 1076 825 1088T852 1100H864Q879 1100 891 1089T903 1061V78Z"  />
<glyph unicode="&#xB6;" horiz-adv-x="1186" d="M1063 -360Q1063 -377 1053 -388T1028 -399H1008Q993 -399 983 -387T973 -360V1438H858V-360Q858 -377 848 -388T823 -399H803Q788 -399 778 -387T768 -360V563H545Q329 563 201 683T72 1020V1065Q72 1208 130 1312T295 1469T545 1522H1030Q1063 1522 1063 1483V-360Z"  />
<glyph unicode="&#xB7;" horiz-adv-x="303" d="M197 737Q197 721 186 710T158 698H145Q129 698 118 709T106 737V889Q106 904 118 916T145 928H158Q173 928 185 916T197 889V737Z"  />
<glyph unicode="&#xB8;" horiz-adv-x="635" d="M412 -78Q412 -86 403 -94L184 -356Q181 -360 172 -372T156 -387T139 -391H94Q76 -391 76 -377Q76 -364 84 -356L289 -94Q304 -76 312 -70T336 -63H389Q412 -63 412 -78Z"  />
<glyph unicode="&#xB9;" horiz-adv-x="518" d="M311 1489V735Q311 698 274 698H260Q225 698 225 735V1444L106 1432H98Q83 1432 78 1441T72 1466Q72 1486 79 1493T109 1505L272 1528H281Q311 1528 311 1489Z"  />
<glyph unicode="&#xBA;" horiz-adv-x="547" d="M506 1176Q506 1048 447 977T274 905Q160 905 101 977T41 1176V1251Q41 1334 67 1395T145 1489T274 1522Q388 1522 447 1451T506 1251V1176ZM438 1176V1251Q438 1460 274 1460Q109 1460 109 1251V1176Q109 967 274 967Q438 967 438 1176Z"  />
<glyph unicode="&#xBB;" horiz-adv-x="1055" d="M1030 551Q1030 516 1001 492L637 158Q618 143 604 143Q592 143 584 152L569 166Q559 176 559 188Q559 206 575 219L938 551L575 883Q559 896 559 913Q559 926 569 936L584 950Q592 958 604 958Q620 958 637 944L1001 610Q1030 583 1030 551ZM559 551Q559 516 530 492L166 158Q147 143 133 143Q121 143 113 152L98 166Q88 176 88 188Q88 206 104 219L467 551L104 883Q88 896 88 913Q88 926 98 936L113 950Q121 958 133 958Q149 958 166 944L530 610Q559 583 559 551Z"  />
<glyph unicode="&#xBC;" horiz-adv-x="1432" d="M1128 1522H1163Q1190 1522 1190 1503Q1190 1494 1182 1483L326 27Q313 3 304 -4T272 -12H233Q213 -12 213 4Q213 9 221 27L1077 1483Q1093 1508 1102 1515T1128 1522ZM1178 295V729L893 307Q891 305 891 301Q891 295 899 295H1178ZM1264 217V37Q1264 0 1227 0H1212Q1178 0 1178 37V217H889Q803 217 803 287Q803 307 809 323T829 360L1128 799Q1153 834 1200 834Q1264 834 1264 766V295H1354Q1370 295 1380 287T1391 262V252Q1391 236 1380 227T1354 217H1264ZM311 1489V735Q311 698 274 698H260Q225 698 225 735V1444L106 1432H98Q83 1432 78 1441T72 1466Q72 1486 79 1493T109 1505L272 1528H281Q311 1528 311 1489Z"  />
<glyph unicode="&#xBD;" horiz-adv-x="1425" d="M1128 1522H1163Q1190 1522 1190 1503Q1190 1494 1182 1483L326 27Q313 3 304 -4T272 -12H233Q213 -12 213 4Q213 9 221 27L1077 1483Q1093 1508 1102 1515T1128 1522ZM311 1489V735Q311 698 274 698H260Q225 698 225 735V1444L106 1432H98Q83 1432 78 1441T72 1466Q72 1486 79 1493T109 1505L272 1528H281Q311 1528 311 1489ZM1440 639Q1440 587 1423 548T1372 479T1278 406L1165 330Q1073 265 1048 222T1022 106V78H1386Q1403 78 1413 70T1423 45V33Q1423 0 1386 0H977Q960 0 950 12T940 39V106Q940 165 953 210T1006 299T1118 393L1231 471Q1275 500 1303 525T1342 576T1354 639Q1354 756 1202 756Q1157 756 1093 744T993 719Q987 717 975 717Q950 717 950 748V756Q950 771 956 779T979 795Q1093 834 1202 834Q1311 834 1375 787T1440 639Z"  />
<glyph unicode="&#xBE;" horiz-adv-x="1538" d="M1223 1522H1257Q1277 1522 1282 1511T1276 1483L420 27Q407 3 398 -4T367 -12H328Q313 -12 309 -1T315 27L1171 1483Q1187 1508 1196 1515T1223 1522ZM305 686Q251 686 194 697T106 723Q93 730 85 738T76 762V768Q76 815 125 797Q218 766 297 766Q479 766 479 934V948Q479 1011 445 1051T338 1092H133Q96 1092 96 1128V1137Q96 1154 106 1162T133 1171H338Q408 1171 443 1212T479 1309V1325Q479 1397 440 1425T324 1454Q224 1454 125 1421Q100 1412 88 1416T76 1446V1454Q76 1473 82 1480T109 1495Q235 1532 324 1532Q435 1532 500 1485T565 1325V1309Q565 1184 465 1128Q565 1072 565 948V934Q565 815 493 751T305 686ZM1272 295V729L987 307Q979 295 993 295H1272ZM1358 217V37Q1358 0 1321 0H1307Q1272 0 1272 37V217H983Q897 217 897 287Q897 322 924 360L1223 799Q1246 834 1294 834Q1358 834 1358 766V295H1448Q1464 295 1474 287T1485 262V252Q1485 236 1474 227T1448 217H1358Z"  />
<glyph unicode="&#xBF;" horiz-adv-x="827" d="M102 -121Q102 -28 150 54T328 266L389 328Q466 403 489 450T512 582V705Q512 722 523 732T551 743H563Q579 743 590 733T602 705V582Q602 516 589 467T546 373T451 262L393 205Q275 87 238 22T201 -121V-137Q201 -354 465 -354Q541 -354 602 -340T745 -299Q764 -294 770 -300T776 -324V-340Q776 -356 769 -364T741 -379Q597 -434 459 -434Q370 -434 289 -405T155 -310T102 -137V-121ZM512 1071Q512 1087 523 1098T551 1110H563Q579 1110 590 1100T602 1071V920Q602 904 590 893T563 881H551Q536 881 524 893T512 920V1071Z"  />
<glyph unicode="&#xC0;" horiz-adv-x="1227" d="M1169 25Q1169 -6 1137 -6H1112Q1086 -6 1079 20L907 575H317L150 20Q139 -6 117 -6H90Q59 -6 59 27Q59 39 61 45L481 1432Q497 1480 531 1506T614 1532Q663 1532 697 1507T745 1434L1165 45Q1169 33 1169 25ZM885 666L662 1409Q648 1450 614 1450Q577 1450 567 1411L342 666H885ZM715 1639Q715 1625 696 1625H651Q640 1625 635 1628T621 1641T606 1659L387 1922Q379 1930 379 1938Q379 1952 401 1952H455Q476 1952 502 1922L707 1659Q715 1651 715 1639Z"  />
<glyph unicode="&#xC1;" horiz-adv-x="1227" d="M1169 25Q1169 -6 1137 -6H1112Q1086 -6 1079 20L907 575H317L150 20Q139 -6 117 -6H90Q59 -6 59 27Q59 39 61 45L481 1432Q497 1480 531 1506T614 1532Q663 1532 697 1507T745 1434L1165 45Q1169 33 1169 25ZM885 666L662 1409Q648 1450 614 1450Q577 1450 567 1411L342 666H885ZM823 1940Q823 1932 815 1924L596 1661Q583 1645 574 1636T551 1627H506Q487 1627 487 1641Q487 1653 495 1661L700 1924Q726 1954 747 1954H801Q823 1954 823 1940Z"  />
<glyph unicode="&#xC2;" horiz-adv-x="1227" d="M1169 25Q1169 -6 1137 -6H1112Q1086 -6 1079 20L907 575H317L150 20Q139 -6 117 -6H90Q59 -6 59 27Q59 39 61 45L481 1432Q497 1480 531 1506T614 1532Q663 1532 697 1507T745 1434L1165 45Q1169 33 1169 25ZM885 666L662 1409Q648 1450 614 1450Q577 1450 567 1411L342 666H885ZM913 1641Q913 1627 895 1627H850Q836 1627 829 1633T805 1661L612 1893L420 1661Q407 1645 398 1636T375 1627H330Q311 1627 311 1641Q311 1653 320 1661L524 1924Q550 1954 571 1954H653Q675 1954 701 1924L905 1661Q913 1653 913 1641Z"  />
<glyph unicode="&#xC3;" horiz-adv-x="1227" d="M1169 25Q1169 -6 1137 -6H1112Q1086 -6 1079 20L907 575H317L150 20Q139 -6 117 -6H90Q59 -6 59 27Q59 39 61 45L481 1432Q497 1480 531 1506T614 1532Q663 1532 697 1507T745 1434L1165 45Q1169 33 1169 25ZM885 666L662 1409Q648 1450 614 1450Q577 1450 567 1411L342 666H885ZM952 1801Q952 1709 910 1662T792 1614Q712 1614 655 1667L556 1764Q526 1794 507 1807T458 1821Q374 1821 374 1712V1659Q374 1626 354 1626H319Q296 1626 296 1659V1712Q296 1803 339 1851T458 1899Q536 1899 593 1846L692 1749Q749 1692 792 1692Q874 1692 874 1801V1854Q874 1887 894 1887H929Q952 1887 952 1854V1801Z"  />
<glyph unicode="&#xC4;" horiz-adv-x="1227" d="M1169 25Q1169 -6 1137 -6H1112Q1086 -6 1079 20L907 575H317L150 20Q139 -6 117 -6H90Q59 -6 59 27Q59 39 61 45L481 1432Q497 1480 531 1506T614 1532Q663 1532 697 1507T745 1434L1165 45Q1169 33 1169 25ZM885 666L662 1409Q648 1450 614 1450Q577 1450 567 1411L342 666H885ZM809 1706Q809 1689 798 1678T770 1667H758Q742 1667 731 1678T719 1706V1857Q719 1872 730 1884T758 1896H770Q787 1896 798 1885T809 1857V1706ZM502 1706Q502 1690 491 1679T463 1667H451Q435 1667 424 1678T412 1706V1857Q412 1872 423 1884T451 1896H463Q480 1896 491 1884T502 1857V1706Z"  />
<glyph unicode="&#xC5;" horiz-adv-x="1227" d="M1169 25Q1169 -6 1137 -6H1112Q1086 -6 1079 20L907 575H317L150 20Q139 -6 117 -6H90Q59 -6 59 27Q59 39 61 45L481 1432Q497 1480 531 1506T614 1532Q663 1532 697 1507T745 1434L1165 45Q1169 33 1169 25ZM885 666L662 1409Q648 1450 614 1450Q577 1450 567 1411L342 666H885ZM803 1778Q803 1699 746 1643T612 1587Q536 1587 479 1644T422 1778Q422 1856 478 1912T612 1968Q691 1968 747 1913T803 1778ZM731 1778Q731 1828 697 1862T612 1896Q563 1896 530 1862T496 1778Q496 1728 529 1694T612 1659Q663 1659 697 1693T731 1778Z"  />
<glyph unicode="&#xC6;" horiz-adv-x="1755" d="M1663 35Q1663 0 1624 0H1018Q929 0 889 40T848 166V575H299L131 20Q122 -6 98 -6H72Q41 -6 41 27Q41 39 43 45L463 1421Q477 1468 511 1495T596 1522H1624Q1640 1522 1651 1513T1663 1487V1470Q1663 1438 1624 1438H938V842H1624Q1642 842 1652 833T1663 809V788Q1663 754 1624 754H938V166Q938 122 953 103T1018 84H1624Q1663 84 1663 51V35ZM848 666V1438H596Q560 1438 549 1399L324 666H848Z"  />
<glyph unicode="&#xC7;" horiz-adv-x="1059" d="M604 -12Q501 -12 413 20T254 127T143 326T102 625V895Q102 1070 142 1194T254 1393T413 1500T604 1532Q709 1532 807 1505T958 1450Q978 1441 987 1433T997 1409V1391Q997 1370 988 1365T958 1366Q854 1404 779 1425T604 1446Q516 1446 442 1416T311 1320T224 1146T193 895V625Q193 339 305 207T604 74Q662 74 707 81T801 102T884 128T958 154Q981 160 989 155T997 129V111Q997 96 988 88T958 70Q797 -12 604 -12ZM713 -78Q713 -86 705 -94L485 -356Q482 -360 473 -372T457 -387T440 -391H395Q377 -391 377 -377Q377 -364 385 -356L590 -94Q605 -76 613 -70T637 -63H690Q713 -63 713 -78Z"  />
<glyph unicode="&#xC8;" horiz-adv-x="1051" d="M958 35Q958 19 948 10T920 0H391Q310 0 256 22T172 94T143 229V1292Q143 1377 172 1427T256 1500T391 1522H920Q937 1522 947 1513T958 1487V1470Q958 1455 948 1447T920 1438H391Q310 1438 272 1409T233 1292V842H920Q938 842 948 833T958 809V788Q958 773 948 764T920 754H233V229Q233 140 271 112T391 84H920Q938 84 948 76T958 51V35ZM694 1641Q694 1627 675 1627H630Q619 1627 614 1630T600 1643T585 1661L366 1924Q358 1932 358 1940Q358 1954 380 1954H434Q455 1954 481 1924L686 1661Q694 1653 694 1641Z"  />
<glyph unicode="&#xC9;" horiz-adv-x="1051" d="M958 35Q958 19 948 10T920 0H391Q310 0 256 22T172 94T143 229V1292Q143 1377 172 1427T256 1500T391 1522H920Q937 1522 947 1513T958 1487V1470Q958 1455 948 1447T920 1438H391Q310 1438 272 1409T233 1292V842H920Q938 842 948 833T958 809V788Q958 773 948 764T920 754H233V229Q233 140 271 112T391 84H920Q938 84 948 76T958 51V35ZM805 1940Q805 1932 797 1924L578 1661Q565 1645 556 1636T533 1627H488Q469 1627 469 1641Q469 1653 477 1661L682 1924Q708 1954 729 1954H783Q805 1954 805 1940Z"  />
<glyph unicode="&#xCA;" horiz-adv-x="1051" d="M958 35Q958 19 948 10T920 0H391Q310 0 256 22T172 94T143 229V1292Q143 1377 172 1427T256 1500T391 1522H920Q937 1522 947 1513T958 1487V1470Q958 1455 948 1447T920 1438H391Q310 1438 272 1409T233 1292V842H920Q938 842 948 833T958 809V788Q958 773 948 764T920 754H233V229Q233 140 271 112T391 84H920Q938 84 948 76T958 51V35ZM856 1641Q856 1627 838 1627H793Q779 1627 772 1633T748 1661L555 1893L363 1661Q350 1645 341 1636T318 1627H273Q254 1627 254 1641Q254 1653 263 1661L467 1924Q493 1954 514 1954H596Q618 1954 644 1924L848 1661Q856 1653 856 1641Z"  />
<glyph unicode="&#xCB;" horiz-adv-x="1051" d="M958 35Q958 19 948 10T920 0H391Q310 0 256 22T172 94T143 229V1292Q143 1377 172 1427T256 1500T391 1522H920Q937 1522 947 1513T958 1487V1470Q958 1455 948 1447T920 1438H391Q310 1438 272 1409T233 1292V842H920Q938 842 948 833T958 809V788Q958 773 948 764T920 754H233V229Q233 140 271 112T391 84H920Q938 84 948 76T958 51V35ZM760 1704Q760 1687 749 1676T721 1665H709Q693 1665 682 1676T670 1704V1855Q670 1870 681 1882T709 1894H721Q738 1894 749 1883T760 1855V1704ZM453 1704Q453 1688 442 1677T414 1665H402Q386 1665 375 1676T363 1704V1855Q363 1870 374 1882T402 1894H414Q431 1894 442 1882T453 1855V1704Z"  />
<glyph unicode="&#xCC;" horiz-adv-x="418" d="M254 39Q254 22 244 11T219 0H199Q184 0 174 12T164 39V1483Q164 1498 174 1510T199 1522H219Q234 1522 244 1511T254 1483V39ZM307 1641Q307 1627 288 1627H243Q232 1627 227 1630T213 1643T198 1661L-21 1924Q-29 1932 -29 1940Q-29 1954 -7 1954H47Q68 1954 94 1924L299 1661Q307 1653 307 1641Z"  />
<glyph unicode="&#xCD;" horiz-adv-x="418" d="M254 39Q254 22 244 11T219 0H199Q184 0 174 12T164 39V1483Q164 1498 174 1510T199 1522H219Q234 1522 244 1511T254 1483V39ZM451 1940Q451 1932 443 1924L224 1661Q211 1645 202 1636T179 1627H134Q115 1627 115 1641Q115 1653 123 1661L328 1924Q354 1954 375 1954H429Q451 1954 451 1940Z"  />
<glyph unicode="&#xCE;" horiz-adv-x="418" d="M254 39Q254 22 244 11T219 0H199Q184 0 174 12T164 39V1483Q164 1498 174 1510T199 1522H219Q234 1522 244 1511T254 1483V39ZM516 1641Q516 1627 498 1627H453Q439 1627 432 1633T408 1661L215 1893L23 1661Q10 1645 1 1636T-22 1627H-67Q-86 1627 -86 1641Q-86 1653 -77 1661L127 1924Q153 1954 174 1954H256Q278 1954 304 1924L508 1661Q516 1653 516 1641Z"  />
<glyph unicode="&#xCF;" horiz-adv-x="418" d="M254 39Q254 22 244 11T219 0H199Q184 0 174 12T164 39V1483Q164 1498 174 1510T199 1522H219Q234 1522 244 1511T254 1483V39ZM408 1706Q408 1689 397 1678T369 1667H357Q341 1667 330 1678T318 1706V1857Q318 1872 329 1884T357 1896H369Q386 1896 397 1885T408 1857V1706ZM101 1706Q101 1690 90 1679T62 1667H50Q34 1667 23 1678T11 1706V1857Q11 1872 22 1884T50 1896H62Q79 1896 90 1884T101 1857V1706Z"  />
<glyph unicode="&#xD0;" horiz-adv-x="1214" d="M1112 633Q1112 296 952 142T514 -12Q274 -12 178 4Q163 7 153 18T143 43V754H-2Q-41 754 -41 788V809Q-41 824 -31 833T-2 842H143V1477Q143 1506 178 1516Q274 1532 514 1532Q650 1532 758 1498T946 1388T1068 1188T1112 887V633ZM1022 633V887Q1022 1097 958 1221T780 1399T514 1452Q422 1452 381 1450T233 1440V842H408Q426 842 436 833T446 809V788Q446 773 436 764T408 754H233V76Q354 68 514 68Q665 68 779 121T957 300T1022 633Z"  />
<glyph unicode="&#xD1;" horiz-adv-x="1292" d="M1149 92Q1149 46 1123 17T1057 -12Q980 -12 950 49L260 1432Q253 1446 244 1446Q233 1446 233 1432V39Q233 23 224 12T199 0H178Q163 0 153 12T143 39V1432Q143 1478 170 1505T236 1532Q313 1532 342 1468L1030 88Q1037 74 1047 74Q1057 74 1057 92V1483Q1057 1500 1066 1511T1090 1522H1114Q1149 1522 1149 1483V92ZM975 1801Q975 1709 933 1662T815 1614Q735 1614 678 1667L579 1764Q549 1794 530 1807T481 1821Q397 1821 397 1712V1659Q397 1626 377 1626H342Q319 1626 319 1659V1712Q319 1803 362 1851T481 1899Q559 1899 616 1846L715 1749Q772 1692 815 1692Q897 1692 897 1801V1854Q897 1887 917 1887H952Q975 1887 975 1854V1801Z"  />
<glyph unicode="&#xD2;" horiz-adv-x="1253" d="M1151 633Q1151 411 1085 267T901 56T627 -12Q471 -12 353 55T168 267T102 633V887Q102 1052 140 1176T249 1379T415 1495T627 1532Q745 1532 840 1495T1005 1379T1113 1176T1151 887V633ZM1061 633V887Q1061 1038 1029 1147T938 1322T802 1417T627 1446Q193 1446 193 887V633Q193 74 627 74Q722 74 801 103T939 199T1029 374T1061 633ZM778 1639Q778 1625 759 1625H714Q703 1625 698 1628T684 1641T669 1659L450 1922Q442 1930 442 1938Q442 1952 464 1952H518Q539 1952 565 1922L770 1659Q778 1651 778 1639Z"  />
<glyph unicode="&#xD3;" horiz-adv-x="1253" d="M1151 633Q1151 411 1085 267T901 56T627 -12Q471 -12 353 55T168 267T102 633V887Q102 1052 140 1176T249 1379T415 1495T627 1532Q745 1532 840 1495T1005 1379T1113 1176T1151 887V633ZM1061 633V887Q1061 1038 1029 1147T938 1322T802 1417T627 1446Q193 1446 193 887V633Q193 74 627 74Q722 74 801 103T939 199T1029 374T1061 633ZM811 1938Q811 1930 803 1922L584 1659Q571 1643 562 1634T539 1625H494Q475 1625 475 1639Q475 1651 483 1659L688 1922Q714 1952 735 1952H789Q811 1952 811 1938Z"  />
<glyph unicode="&#xD4;" horiz-adv-x="1253" d="M1151 633Q1151 411 1085 267T901 56T627 -12Q471 -12 353 55T168 267T102 633V887Q102 1052 140 1176T249 1379T415 1495T627 1532Q745 1532 840 1495T1005 1379T1113 1176T1151 887V633ZM1061 633V887Q1061 1038 1029 1147T938 1322T802 1417T627 1446Q193 1446 193 887V633Q193 74 627 74Q722 74 801 103T939 199T1029 374T1061 633ZM930 1641Q930 1627 912 1627H867Q853 1627 846 1633T822 1661L629 1893L437 1661Q424 1645 415 1636T392 1627H347Q328 1627 328 1641Q328 1653 337 1661L541 1924Q567 1954 588 1954H670Q692 1954 718 1924L922 1661Q930 1653 930 1641Z"  />
<glyph unicode="&#xD5;" horiz-adv-x="1253" d="M1151 633Q1151 411 1085 267T901 56T627 -12Q471 -12 353 55T168 267T102 633V887Q102 1052 140 1176T249 1379T415 1495T627 1532Q745 1532 840 1495T1005 1379T1113 1176T1151 887V633ZM1061 633V887Q1061 1038 1029 1147T938 1322T802 1417T627 1446Q193 1446 193 887V633Q193 74 627 74Q722 74 801 103T939 199T1029 374T1061 633ZM961 1801Q961 1709 919 1662T801 1614Q721 1614 664 1667L565 1764Q535 1794 516 1807T467 1821Q383 1821 383 1712V1659Q383 1626 363 1626H328Q305 1626 305 1659V1712Q305 1803 348 1851T467 1899Q545 1899 602 1846L701 1749Q758 1692 801 1692Q883 1692 883 1801V1854Q883 1887 903 1887H938Q961 1887 961 1854V1801Z"  />
<glyph unicode="&#xD6;" horiz-adv-x="1253" d="M1151 633Q1151 411 1085 267T901 56T627 -12Q471 -12 353 55T168 267T102 633V887Q102 1052 140 1176T249 1379T415 1495T627 1532Q745 1532 840 1495T1005 1379T1113 1176T1151 887V633ZM1061 633V887Q1061 1038 1029 1147T938 1322T802 1417T627 1446Q193 1446 193 887V633Q193 74 627 74Q722 74 801 103T939 199T1029 374T1061 633ZM815 1704Q815 1687 804 1676T776 1665H764Q748 1665 737 1676T725 1704V1855Q725 1870 736 1882T764 1894H776Q793 1894 804 1883T815 1855V1704ZM508 1704Q508 1688 497 1677T469 1665H457Q441 1665 430 1676T418 1704V1855Q418 1870 429 1882T457 1894H469Q486 1894 497 1882T508 1855V1704Z"  />
<glyph unicode="&#xD7;" horiz-adv-x="1147" d="M942 1122Q942 1108 926 1092L633 801L926 508Q942 492 942 477Q942 465 932 455L918 440Q906 430 895 430Q880 430 864 446L573 739L283 449Q266 432 252 432Q241 432 229 442L215 457Q205 467 205 479Q205 494 221 510L512 801L221 1092Q205 1108 205 1122Q205 1133 215 1143L229 1157Q241 1167 252 1167Q265 1167 283 1151L573 860L864 1153Q880 1169 895 1169Q906 1169 918 1159L932 1145Q942 1135 942 1122Z"  />
<glyph unicode="&#xD8;" horiz-adv-x="1253" d="M1200 1499Q1200 1492 1194 1483L1061 1298Q1151 1140 1151 887V633Q1151 411 1085 267T901 56T627 -12Q376 -12 240 152L150 27Q120 -12 96 -12H76Q53 -12 53 10Q53 17 59 27L195 215Q102 370 102 633V887Q102 1052 140 1176T249 1379T415 1495T627 1532Q705 1532 777 1515T912 1459T1018 1364L1104 1483Q1133 1522 1157 1522H1178Q1200 1522 1200 1499ZM965 1288Q909 1369 824 1407T627 1446Q193 1446 193 887V633Q193 424 252 297L965 1288ZM1061 633V887Q1061 992 1046 1074T1004 1217L293 227Q404 74 627 74Q722 74 801 103T939 199T1029 374T1061 633Z"  />
<glyph unicode="&#xD9;" horiz-adv-x="1255" d="M1112 541Q1112 274 993 131T629 -12Q385 -12 264 131T143 541V1483Q143 1498 153 1510T178 1522H199Q214 1522 223 1511T233 1483V541Q233 389 273 285T401 127T629 72Q836 72 929 191T1022 541V1483Q1022 1498 1032 1510T1057 1522H1077Q1092 1522 1102 1511T1112 1483V541ZM764 1641Q764 1627 745 1627H700Q689 1627 684 1630T670 1643T655 1661L436 1924Q428 1932 428 1940Q428 1954 450 1954H504Q525 1954 551 1924L756 1661Q764 1653 764 1641Z"  />
<glyph unicode="&#xDA;" horiz-adv-x="1255" d="M1112 541Q1112 274 993 131T629 -12Q385 -12 264 131T143 541V1483Q143 1498 153 1510T178 1522H199Q214 1522 223 1511T233 1483V541Q233 389 273 285T401 127T629 72Q836 72 929 191T1022 541V1483Q1022 1498 1032 1510T1057 1522H1077Q1092 1522 1102 1511T1112 1483V541ZM883 1938Q883 1930 875 1922L656 1659Q643 1643 634 1634T611 1625H566Q547 1625 547 1639Q547 1651 555 1659L760 1922Q786 1952 807 1952H861Q883 1952 883 1938Z"  />
<glyph unicode="&#xDB;" horiz-adv-x="1255" d="M1112 541Q1112 274 993 131T629 -12Q385 -12 264 131T143 541V1483Q143 1498 153 1510T178 1522H199Q214 1522 223 1511T233 1483V541Q233 389 273 285T401 127T629 72Q836 72 929 191T1022 541V1483Q1022 1498 1032 1510T1057 1522H1077Q1092 1522 1102 1511T1112 1483V541ZM942 1641Q942 1627 924 1627H879Q865 1627 858 1633T834 1661L641 1893L449 1661Q436 1645 427 1636T404 1627H359Q340 1627 340 1641Q340 1653 349 1661L553 1924Q579 1954 600 1954H682Q704 1954 730 1924L934 1661Q942 1653 942 1641Z"  />
<glyph unicode="&#xDC;" horiz-adv-x="1255" d="M1112 541Q1112 274 993 131T629 -12Q385 -12 264 131T143 541V1483Q143 1498 153 1510T178 1522H199Q214 1522 223 1511T233 1483V541Q233 389 273 285T401 127T629 72Q836 72 929 191T1022 541V1483Q1022 1498 1032 1510T1057 1522H1077Q1092 1522 1102 1511T1112 1483V541ZM823 1706Q823 1689 812 1678T784 1667H772Q756 1667 745 1678T733 1706V1857Q733 1872 744 1884T772 1896H784Q801 1896 812 1885T823 1857V1706ZM516 1706Q516 1690 505 1679T477 1667H465Q449 1667 438 1678T426 1706V1857Q426 1872 437 1884T465 1896H477Q494 1896 505 1884T516 1857V1706Z"  />
<glyph unicode="&#xDD;" horiz-adv-x="1087" d="M1014 1493Q1014 1483 1008 1466L684 752Q639 653 588 633V39Q588 24 578 12T553 0H532Q518 0 508 12T498 39V633Q447 653 401 752L78 1466Q72 1483 72 1493Q72 1522 106 1522H127Q136 1522 145 1514T160 1497L481 780Q503 734 514 722T543 709Q561 709 572 722T604 780L926 1497Q939 1522 958 1522H979Q1014 1522 1014 1493ZM784 1940Q784 1932 776 1924L557 1661Q544 1645 535 1636T512 1627H467Q448 1627 448 1641Q448 1653 456 1661L661 1924Q687 1954 708 1954H762Q784 1954 784 1940Z"  />
<glyph unicode="&#xDE;" horiz-adv-x="1065" d="M1014 885Q1014 651 872 549T457 446Q364 446 233 455V39Q233 23 224 12T199 0H178Q163 0 153 12T143 39V1483Q143 1498 153 1510T178 1522H199Q214 1522 223 1511T233 1483V1329Q338 1335 457 1335Q1014 1335 1014 920V885ZM924 885V920Q924 1105 810 1180T457 1255Q323 1255 233 1249V535Q348 526 457 526Q580 526 665 546T809 609T896 719T924 885Z"  />
<glyph unicode="&#xDF;" horiz-adv-x="1071" d="M979 428Q979 201 845 95T502 -12Q490 -12 483 -12T465 -10T443 -7T420 -6Q403 -6 391 4T379 31V47Q379 72 414 72H420Q449 71 467 70T502 68Q692 68 790 155T889 428V444Q889 533 845 604T716 717T514 758H430Q389 758 389 791V809Q389 824 401 833T430 842H514Q601 842 666 866T771 931T832 1027T852 1141V1155Q852 1298 777 1375T543 1452Q400 1452 312 1359T223 1053V41Q223 0 188 0H164Q133 0 133 41V1051Q133 1209 184 1317T328 1479T543 1532Q724 1532 833 1435T942 1155V1141Q942 1021 871 931T700 801Q784 776 845 727T943 606T979 444V428Z"  />
<glyph unicode="&#xE0;" horiz-adv-x="958" d="M459 1032Q392 1032 320 1016T193 979Q150 962 150 999V1012Q150 1043 188 1057Q240 1076 313 1093T463 1110Q600 1110 681 1071T799 948T836 733V74Q836 55 830 45T805 31Q649 -12 496 -12Q344 -12 252 23T121 130T82 317V344Q82 509 197 584T588 659H745V733Q745 853 715 918T624 1008T459 1032ZM745 92V578H588Q356 578 265 527T174 344V317Q174 228 200 176T295 96T496 68Q563 68 633 76T745 92ZM598 1280Q598 1266 579 1266H534Q523 1266 518 1269T504 1282T489 1300L270 1563Q262 1571 262 1579Q262 1593 284 1593H338Q359 1593 385 1563L590 1300Q598 1292 598 1280Z"  />
<glyph unicode="&#xE1;" horiz-adv-x="958" d="M459 1032Q392 1032 320 1016T193 979Q150 962 150 999V1012Q150 1043 188 1057Q240 1076 313 1093T463 1110Q600 1110 681 1071T799 948T836 733V74Q836 55 830 45T805 31Q649 -12 496 -12Q344 -12 252 23T121 130T82 317V344Q82 509 197 584T588 659H745V733Q745 853 715 918T624 1008T459 1032ZM745 92V578H588Q356 578 265 527T174 344V317Q174 228 200 176T295 96T496 68Q563 68 633 76T745 92ZM715 1579Q715 1571 707 1563L488 1300Q475 1284 466 1275T443 1266H398Q379 1266 379 1280Q379 1292 387 1300L592 1563Q618 1593 639 1593H693Q715 1593 715 1579Z"  />
<glyph unicode="&#xE2;" horiz-adv-x="958" d="M459 1032Q392 1032 320 1016T193 979Q150 962 150 999V1012Q150 1043 188 1057Q240 1076 313 1093T463 1110Q600 1110 681 1071T799 948T836 733V74Q836 55 830 45T805 31Q649 -12 496 -12Q344 -12 252 23T121 130T82 317V344Q82 509 197 584T588 659H745V733Q745 853 715 918T624 1008T459 1032ZM745 92V578H588Q356 578 265 527T174 344V317Q174 228 200 176T295 96T496 68Q563 68 633 76T745 92ZM784 1280Q784 1266 766 1266H721Q707 1266 700 1272T676 1300L483 1532L291 1300Q278 1284 269 1275T246 1266H201Q182 1266 182 1280Q182 1292 191 1300L395 1563Q421 1593 442 1593H524Q546 1593 572 1563L776 1300Q784 1292 784 1280Z"  />
<glyph unicode="&#xE3;" horiz-adv-x="958" d="M459 1032Q392 1032 320 1016T193 979Q150 962 150 999V1012Q150 1043 188 1057Q240 1076 313 1093T463 1110Q600 1110 681 1071T799 948T836 733V74Q836 55 830 45T805 31Q649 -12 496 -12Q344 -12 252 23T121 130T82 317V344Q82 509 197 584T588 659H745V733Q745 853 715 918T624 1008T459 1032ZM745 92V578H588Q356 578 265 527T174 344V317Q174 228 200 176T295 96T496 68Q563 68 633 76T745 92ZM797 1473Q797 1381 755 1334T637 1286Q557 1286 500 1339L401 1436Q371 1466 352 1479T303 1493Q219 1493 219 1384V1331Q219 1298 199 1298H164Q141 1298 141 1331V1384Q141 1475 184 1523T303 1571Q381 1571 438 1518L537 1421Q594 1364 637 1364Q719 1364 719 1473V1526Q719 1559 739 1559H774Q797 1559 797 1526V1473Z"  />
<glyph unicode="&#xE4;" horiz-adv-x="958" d="M459 1032Q392 1032 320 1016T193 979Q150 962 150 999V1012Q150 1043 188 1057Q240 1076 313 1093T463 1110Q600 1110 681 1071T799 948T836 733V74Q836 55 830 45T805 31Q649 -12 496 -12Q344 -12 252 23T121 130T82 317V344Q82 509 197 584T588 659H745V733Q745 853 715 918T624 1008T459 1032ZM745 92V578H588Q356 578 265 527T174 344V317Q174 228 200 176T295 96T496 68Q563 68 633 76T745 92ZM678 1369Q678 1352 667 1341T639 1330H627Q611 1330 600 1341T588 1369V1520Q588 1535 599 1547T627 1559H639Q656 1559 667 1548T678 1520V1369ZM371 1369Q371 1353 360 1342T332 1330H320Q304 1330 293 1341T281 1369V1520Q281 1535 292 1547T320 1559H332Q349 1559 360 1547T371 1520V1369Z"  />
<glyph unicode="&#xE5;" horiz-adv-x="958" d="M459 1032Q392 1032 320 1016T193 979Q150 962 150 999V1012Q150 1043 188 1057Q240 1076 313 1093T463 1110Q600 1110 681 1071T799 948T836 733V74Q836 55 830 45T805 31Q649 -12 496 -12Q344 -12 252 23T121 130T82 317V344Q82 509 197 584T588 659H745V733Q745 853 715 918T624 1008T459 1032ZM745 92V578H588Q356 578 265 527T174 344V317Q174 228 200 176T295 96T496 68Q563 68 633 76T745 92ZM680 1430Q680 1351 623 1295T489 1239Q413 1239 356 1296T299 1430Q299 1508 355 1564T489 1620Q568 1620 624 1565T680 1430ZM608 1430Q608 1480 574 1514T489 1548Q440 1548 407 1514T373 1430Q373 1380 406 1346T489 1311Q540 1311 574 1345T608 1430Z"  />
<glyph unicode="&#xE6;" horiz-adv-x="1659" d="M1192 68Q1341 68 1511 139Q1527 146 1536 141T1546 125V100Q1546 84 1539 76T1507 55Q1451 29 1360 9T1192 -12Q1099 -12 1021 4T882 62T786 182Q734 91 641 40T395 -12Q261 -12 172 65T82 317V344Q82 509 197 584T588 659H745V733Q745 853 715 918T624 1008T459 1032Q392 1032 320 1016T193 979Q150 962 150 999V1012Q150 1043 188 1057Q240 1076 313 1093T463 1110Q611 1110 696 1062T813 913Q924 1110 1159 1110Q1296 1110 1388 1050T1523 880T1567 623V567Q1567 551 1556 540T1528 528H836V418Q836 306 863 237T939 131T1051 81T1192 68ZM745 430V578H588Q356 578 265 527T174 344V317Q174 68 395 68Q577 68 659 148T745 401V430ZM1477 610V623Q1477 826 1403 928T1159 1030Q999 1030 919 925T836 639V610H1477Z"  />
<glyph unicode="&#xE7;" horiz-adv-x="854" d="M498 -12Q356 -12 266 50T134 223T92 483V621Q92 770 133 878T266 1048T498 1110Q566 1110 633 1094T745 1057Q766 1049 775 1039T784 1012V999Q784 962 741 979Q609 1030 498 1030Q329 1030 256 926T182 621V483Q182 350 213 258T313 117T498 68Q615 68 741 119Q784 136 784 98V86Q784 68 775 59T745 41Q697 19 630 4T498 -12ZM569 -78Q569 -86 561 -94L342 -356Q322 -380 317 -385T297 -391H252Q233 -391 233 -377Q233 -365 242 -356L446 -94Q466 -72 472 -68T494 -63H547Q569 -63 569 -78Z"  />
<glyph unicode="&#xE8;" horiz-adv-x="1006" d="M913 567Q913 550 902 539T874 528H182V485Q182 249 277 159T539 68Q688 68 858 139Q874 146 883 141T893 125V100Q893 84 886 76T854 55Q818 38 766 23T651 -2T539 -12Q338 -12 215 102T92 485V621Q92 763 140 874T282 1047T506 1110Q642 1110 734 1050T869 880T913 623V567ZM823 610V623Q823 826 749 928T506 1030Q395 1030 323 980T217 837T182 621V610H823ZM598 1280Q598 1266 579 1266H534Q523 1266 518 1269T504 1282T489 1300L270 1563Q262 1571 262 1579Q262 1593 284 1593H338Q359 1593 385 1563L590 1300Q598 1292 598 1280Z"  />
<glyph unicode="&#xE9;" horiz-adv-x="1006" d="M913 567Q913 550 902 539T874 528H182V485Q182 249 277 159T539 68Q688 68 858 139Q874 146 883 141T893 125V100Q893 84 886 76T854 55Q818 38 766 23T651 -2T539 -12Q338 -12 215 102T92 485V621Q92 763 140 874T282 1047T506 1110Q642 1110 734 1050T869 880T913 623V567ZM823 610V623Q823 826 749 928T506 1030Q395 1030 323 980T217 837T182 621V610H823ZM762 1579Q762 1571 754 1563L535 1300Q522 1284 513 1275T490 1266H445Q426 1266 426 1280Q426 1292 434 1300L639 1563Q665 1593 686 1593H740Q762 1593 762 1579Z"  />
<glyph unicode="&#xEA;" horiz-adv-x="1006" d="M913 567Q913 550 902 539T874 528H182V485Q182 249 277 159T539 68Q688 68 858 139Q874 146 883 141T893 125V100Q893 84 886 76T854 55Q818 38 766 23T651 -2T539 -12Q338 -12 215 102T92 485V621Q92 763 140 874T282 1047T506 1110Q642 1110 734 1050T869 880T913 623V567ZM823 610V623Q823 826 749 928T506 1030Q395 1030 323 980T217 837T182 621V610H823ZM817 1280Q817 1266 799 1266H754Q740 1266 733 1272T709 1300L516 1532L324 1300Q311 1284 302 1275T279 1266H234Q215 1266 215 1280Q215 1292 224 1300L428 1563Q454 1593 475 1593H557Q579 1593 605 1563L809 1300Q817 1292 817 1280Z"  />
<glyph unicode="&#xEB;" horiz-adv-x="1006" d="M913 567Q913 550 902 539T874 528H182V485Q182 249 277 159T539 68Q688 68 858 139Q874 146 883 141T893 125V100Q893 84 886 76T854 55Q818 38 766 23T651 -2T539 -12Q338 -12 215 102T92 485V621Q92 763 140 874T282 1047T506 1110Q642 1110 734 1050T869 880T913 623V567ZM823 610V623Q823 826 749 928T506 1030Q395 1030 323 980T217 837T182 621V610H823ZM723 1354Q723 1337 712 1326T684 1315H672Q656 1315 645 1326T633 1354V1505Q633 1520 644 1532T672 1544H684Q701 1544 712 1533T723 1505V1354ZM416 1354Q416 1338 405 1327T377 1315H365Q349 1315 338 1326T326 1354V1505Q326 1520 337 1532T365 1544H377Q394 1544 405 1532T416 1505V1354Z"  />
<glyph unicode="&#xEC;" horiz-adv-x="377" d="M233 39Q233 23 222 12T195 0H182Q167 0 155 12T143 39V1061Q143 1076 155 1088T182 1100H195Q210 1100 221 1089T233 1061V39ZM309 1280Q309 1266 290 1266H245Q234 1266 229 1269T215 1282T200 1300L-19 1563Q-27 1571 -27 1579Q-27 1593 -5 1593H49Q70 1593 96 1563L301 1300Q309 1292 309 1280Z"  />
<glyph unicode="&#xED;" horiz-adv-x="377" d="M233 39Q233 23 222 12T195 0H182Q167 0 155 12T143 39V1061Q143 1076 155 1088T182 1100H195Q210 1100 221 1089T233 1061V39ZM408 1579Q408 1571 400 1563L181 1300Q168 1284 159 1275T136 1266H91Q72 1266 72 1280Q72 1292 80 1300L285 1563Q311 1593 332 1593H386Q408 1593 408 1579Z"  />
<glyph unicode="&#xEE;" horiz-adv-x="377" d="M233 39Q233 23 222 12T195 0H182Q167 0 155 12T143 39V1061Q143 1076 155 1088T182 1100H195Q210 1100 221 1089T233 1061V39ZM489 1280Q489 1266 471 1266H426Q412 1266 405 1272T381 1300L188 1532L-4 1300Q-17 1284 -26 1275T-49 1266H-94Q-113 1266 -113 1280Q-113 1292 -104 1300L100 1563Q126 1593 147 1593H229Q251 1593 277 1563L481 1300Q489 1292 489 1280Z"  />
<glyph unicode="&#xEF;" horiz-adv-x="377" d="M233 39Q233 23 222 12T195 0H182Q167 0 155 12T143 39V1061Q143 1076 155 1088T182 1100H195Q210 1100 221 1089T233 1061V39ZM389 1354Q389 1337 378 1326T350 1315H338Q322 1315 311 1326T299 1354V1505Q299 1520 310 1532T338 1544H350Q367 1544 378 1533T389 1505V1354ZM82 1354Q82 1338 71 1327T43 1315H31Q15 1315 4 1326T-8 1354V1505Q-8 1520 3 1532T31 1544H43Q60 1544 71 1532T82 1505V1354Z"  />
<glyph unicode="&#xF0;" horiz-adv-x="1028" d="M936 692V621V477Q936 323 889 213T747 46T514 -12Q376 -12 281 45T139 213T92 477V621Q92 775 139 885T281 1052T514 1110Q716 1110 821 991Q756 1232 479 1354L281 1204Q265 1192 254 1192Q245 1192 231 1204L221 1217Q215 1223 215 1233Q215 1249 236 1266L393 1389Q287 1426 174 1448Q141 1456 141 1479Q141 1485 143 1489L150 1509Q157 1532 176 1532Q188 1532 195 1530Q365 1490 473 1448L682 1608Q693 1616 707 1616Q723 1616 733 1606L745 1593Q754 1585 754 1577Q754 1567 733 1548L555 1413Q726 1326 809 1211T914 975T936 692ZM846 477V621Q846 749 813 840T706 981T514 1030Q396 1030 323 981T216 841T182 621V477Q182 280 261 174T514 68Q688 68 767 174T846 477Z"  />
<glyph unicode="&#xF1;" horiz-adv-x="1026" d="M903 39Q903 23 892 12T864 0H850Q834 0 824 11T813 39V719Q813 835 782 903T684 1000T512 1030Q451 1030 354 1018T213 995V39Q213 23 201 12T174 0H162Q147 0 135 12T123 39V1022Q123 1055 160 1063Q237 1083 341 1096T516 1110Q709 1110 806 1018T903 719V39ZM842 1473Q842 1381 800 1334T682 1286Q602 1286 545 1339L446 1436Q416 1466 397 1479T348 1493Q264 1493 264 1384V1331Q264 1298 244 1298H209Q186 1298 186 1331V1384Q186 1475 229 1523T348 1571Q426 1571 483 1518L582 1421Q639 1364 682 1364Q764 1364 764 1473V1526Q764 1559 784 1559H819Q842 1559 842 1526V1473Z"  />
<glyph unicode="&#xF2;" horiz-adv-x="1028" d="M936 477Q936 323 889 213T747 46T514 -12Q376 -12 281 45T139 213T92 477V621Q92 775 139 885T281 1052T514 1110Q652 1110 747 1053T889 885T936 621V477ZM846 477V621Q846 749 813 840T706 981T514 1030Q396 1030 323 981T216 841T182 621V477Q182 280 261 174T514 68Q688 68 767 174T846 477ZM618 1280Q618 1266 599 1266H554Q543 1266 538 1269T524 1282T509 1300L290 1563Q282 1571 282 1579Q282 1593 304 1593H358Q379 1593 405 1563L610 1300Q618 1292 618 1280Z"  />
<glyph unicode="&#xF3;" horiz-adv-x="1028" d="M936 477Q936 323 889 213T747 46T514 -12Q376 -12 281 45T139 213T92 477V621Q92 775 139 885T281 1052T514 1110Q652 1110 747 1053T889 885T936 621V477ZM846 477V621Q846 749 813 840T706 981T514 1030Q396 1030 323 981T216 841T182 621V477Q182 280 261 174T514 68Q688 68 767 174T846 477ZM733 1579Q733 1571 725 1563L506 1300Q493 1284 484 1275T461 1266H416Q397 1266 397 1280Q397 1292 405 1300L610 1563Q636 1593 657 1593H711Q733 1593 733 1579Z"  />
<glyph unicode="&#xF4;" horiz-adv-x="1028" d="M936 477Q936 323 889 213T747 46T514 -12Q376 -12 281 45T139 213T92 477V621Q92 775 139 885T281 1052T514 1110Q652 1110 747 1053T889 885T936 621V477ZM846 477V621Q846 749 813 840T706 981T514 1030Q396 1030 323 981T216 841T182 621V477Q182 280 261 174T514 68Q688 68 767 174T846 477ZM815 1280Q815 1266 797 1266H752Q738 1266 731 1272T707 1300L514 1532L322 1300Q309 1284 300 1275T277 1266H232Q213 1266 213 1280Q213 1292 222 1300L426 1563Q452 1593 473 1593H555Q577 1593 603 1563L807 1300Q815 1292 815 1280Z"  />
<glyph unicode="&#xF5;" horiz-adv-x="1028" d="M936 477Q936 323 889 213T747 46T514 -12Q376 -12 281 45T139 213T92 477V621Q92 775 139 885T281 1052T514 1110Q652 1110 747 1053T889 885T936 621V477ZM846 477V621Q846 749 813 840T706 981T514 1030Q396 1030 323 981T216 841T182 621V477Q182 280 261 174T514 68Q688 68 767 174T846 477ZM838 1473Q838 1381 796 1334T678 1286Q598 1286 541 1339L442 1436Q412 1466 393 1479T344 1493Q260 1493 260 1384V1331Q260 1298 240 1298H205Q182 1298 182 1331V1384Q182 1475 225 1523T344 1571Q422 1571 479 1518L578 1421Q635 1364 678 1364Q760 1364 760 1473V1526Q760 1559 780 1559H815Q838 1559 838 1526V1473Z"  />
<glyph unicode="&#xF6;" horiz-adv-x="1028" d="M936 477Q936 323 889 213T747 46T514 -12Q376 -12 281 45T139 213T92 477V621Q92 775 139 885T281 1052T514 1110Q652 1110 747 1053T889 885T936 621V477ZM846 477V621Q846 749 813 840T706 981T514 1030Q396 1030 323 981T216 841T182 621V477Q182 280 261 174T514 68Q688 68 767 174T846 477ZM713 1354Q713 1337 702 1326T674 1315H662Q646 1315 635 1326T623 1354V1505Q623 1520 634 1532T662 1544H674Q691 1544 702 1533T713 1505V1354ZM406 1354Q406 1338 395 1327T367 1315H355Q339 1315 328 1326T316 1354V1505Q316 1520 327 1532T355 1544H367Q384 1544 395 1532T406 1505V1354Z"  />
<glyph unicode="&#xF7;" horiz-adv-x="1147" d="M618 1047Q618 1030 607 1019T580 1008H567Q551 1008 540 1019T528 1047V1198Q528 1213 539 1225T567 1237H580Q597 1237 607 1226T618 1198V1047ZM989 791Q989 758 948 758H201Q160 758 160 791V811Q160 844 201 844H948Q989 844 989 811V791ZM618 403Q618 387 607 376T580 365H567Q551 365 540 376T528 403V555Q528 570 540 582T567 594H580Q595 594 606 583T618 555V403Z"  />
<glyph unicode="&#xF8;" horiz-adv-x="1028" d="M997 1147Q997 1132 989 1124L856 946Q936 822 936 621V477Q936 323 889 213T747 46T514 -12Q331 -12 223 88L121 -51Q104 -72 88 -72H47Q31 -72 31 -55Q31 -44 39 -33L174 150Q92 275 92 477V621Q92 775 139 885T281 1052T514 1110Q698 1110 807 1006L907 1143Q924 1163 940 1163H981Q997 1163 997 1147ZM756 938Q672 1030 514 1030Q396 1030 323 981T216 841T182 621V477Q182 322 229 225L756 938ZM846 477V621Q846 771 801 868L274 158Q358 68 514 68Q688 68 767 174T846 477Z"  />
<glyph unicode="&#xF9;" horiz-adv-x="1026" d="M123 1061Q123 1077 134 1088T162 1100H176Q192 1100 202 1089T213 1061V381Q213 209 283 140T514 70Q575 70 672 82T813 104V1061Q813 1076 825 1088T852 1100H864Q879 1100 891 1089T903 1061V78Q903 45 866 37Q792 18 684 4T510 -10Q319 -10 221 82T123 381V1061ZM647 1280Q647 1266 628 1266H583Q572 1266 567 1269T553 1282T538 1300L319 1563Q311 1571 311 1579Q311 1593 333 1593H387Q408 1593 434 1563L639 1300Q647 1292 647 1280Z"  />
<glyph unicode="&#xFA;" horiz-adv-x="1026" d="M123 1061Q123 1077 134 1088T162 1100H176Q192 1100 202 1089T213 1061V381Q213 209 283 140T514 70Q575 70 672 82T813 104V1061Q813 1076 825 1088T852 1100H864Q879 1100 891 1089T903 1061V78Q903 45 866 37Q792 18 684 4T510 -10Q319 -10 221 82T123 381V1061ZM762 1579Q762 1571 754 1563L535 1300Q522 1284 513 1275T490 1266H445Q426 1266 426 1280Q426 1292 434 1300L639 1563Q665 1593 686 1593H740Q762 1593 762 1579Z"  />
<glyph unicode="&#xFB;" horiz-adv-x="1026" d="M123 1061Q123 1077 134 1088T162 1100H176Q192 1100 202 1089T213 1061V381Q213 209 283 140T514 70Q575 70 672 82T813 104V1061Q813 1076 825 1088T852 1100H864Q879 1100 891 1089T903 1061V78Q903 45 866 37Q792 18 684 4T510 -10Q319 -10 221 82T123 381V1061ZM821 1280Q821 1266 803 1266H758Q744 1266 737 1272T713 1300L520 1532L328 1300Q315 1284 306 1275T283 1266H238Q219 1266 219 1280Q219 1292 228 1300L432 1563Q458 1593 479 1593H561Q583 1593 609 1563L813 1300Q821 1292 821 1280Z"  />
<glyph unicode="&#xFC;" horiz-adv-x="1026" d="M123 1061Q123 1077 134 1088T162 1100H176Q192 1100 202 1089T213 1061V381Q213 209 283 140T514 70Q575 70 672 82T813 104V1061Q813 1076 825 1088T852 1100H864Q879 1100 891 1089T903 1061V78Q903 45 866 37Q792 18 684 4T510 -10Q319 -10 221 82T123 381V1061ZM713 1354Q713 1337 702 1326T674 1315H662Q646 1315 635 1326T623 1354V1505Q623 1520 634 1532T662 1544H674Q691 1544 702 1533T713 1505V1354ZM406 1354Q406 1338 395 1327T367 1315H355Q339 1315 328 1326T316 1354V1505Q316 1520 327 1532T355 1544H367Q384 1544 395 1532T406 1505V1354Z"  />
<glyph unicode="&#xFD;" horiz-adv-x="954" d="M895 1065Q895 1055 893 1049L557 -115Q525 -227 485 -287T384 -373T225 -399Q172 -399 98 -387Q57 -380 57 -358V-336Q57 -307 88 -307H100Q193 -319 233 -319Q290 -319 328 -309T393 -274T438 -209T477 -96L504 0H475Q425 0 399 22T350 115L74 1051Q72 1055 72 1065Q72 1100 106 1100H125Q134 1100 144 1091T158 1071L434 129Q447 84 481 84H528L809 1073Q817 1100 846 1100H864Q895 1100 895 1065ZM758 1579Q758 1571 750 1563L531 1300Q518 1284 509 1275T486 1266H441Q422 1266 422 1280Q422 1292 430 1300L635 1563Q661 1593 682 1593H736Q758 1593 758 1579Z"  />
<glyph unicode="&#xFE;" horiz-adv-x="991" d="M899 477Q899 316 855 207T721 43T498 -12Q350 -12 213 18V-360Q213 -377 203 -388T178 -399H158Q143 -399 133 -387T123 -360V1483Q123 1498 133 1510T158 1522H178Q193 1522 203 1511T213 1483V1083Q368 1110 498 1110Q635 1110 724 1049T856 876T899 612V477ZM809 477V612Q809 821 737 925T498 1030Q426 1030 357 1023T213 1004V94Q340 68 498 68Q610 68 678 113T778 248T809 477Z"  />
<glyph unicode="&#xFF;" horiz-adv-x="954" d="M895 1065Q895 1055 893 1049L557 -115Q525 -227 485 -287T384 -373T225 -399Q172 -399 98 -387Q57 -380 57 -358V-336Q57 -307 88 -307H100Q193 -319 233 -319Q290 -319 328 -309T393 -274T438 -209T477 -96L504 0H475Q425 0 399 22T350 115L74 1051Q72 1055 72 1065Q72 1100 106 1100H125Q134 1100 144 1091T158 1071L434 129Q447 84 481 84H528L809 1073Q817 1100 846 1100H864Q895 1100 895 1065ZM700 1354Q700 1337 689 1326T661 1315H649Q633 1315 622 1326T610 1354V1505Q610 1520 621 1532T649 1544H661Q678 1544 689 1533T700 1505V1354ZM393 1354Q393 1338 382 1327T354 1315H342Q326 1315 315 1326T303 1354V1505Q303 1520 314 1532T342 1544H354Q371 1544 382 1532T393 1505V1354Z"  />
<glyph unicode="&#x100;" horiz-adv-x="1227" d="M1169 25Q1169 -6 1137 -6H1112Q1086 -6 1079 20L907 575H317L150 20Q139 -6 117 -6H90Q59 -6 59 27Q59 39 61 45L481 1432Q497 1480 531 1506T614 1532Q663 1532 697 1507T745 1434L1165 45Q1169 33 1169 25ZM885 666L662 1409Q648 1450 614 1450Q577 1450 567 1411L342 666H885ZM926 1737Q926 1704 885 1704H340Q299 1704 299 1737V1759Q299 1790 340 1790H885Q926 1790 926 1759V1737Z"  />
<glyph unicode="&#x101;" horiz-adv-x="958" d="M459 1032Q392 1032 320 1016T193 979Q150 962 150 999V1012Q150 1043 188 1057Q240 1076 313 1093T463 1110Q600 1110 681 1071T799 948T836 733V74Q836 55 830 45T805 31Q649 -12 496 -12Q344 -12 252 23T121 130T82 317V344Q82 509 197 584T588 659H745V733Q745 853 715 918T624 1008T459 1032ZM745 92V578H588Q356 578 265 527T174 344V317Q174 228 200 176T295 96T496 68Q563 68 633 76T745 92ZM793 1442Q793 1409 752 1409H207Q166 1409 166 1442V1464Q166 1495 207 1495H752Q793 1495 793 1464V1442Z"  />
<glyph unicode="&#x102;" horiz-adv-x="1227" d="M1169 25Q1169 -6 1137 -6H1112Q1086 -6 1079 20L907 575H317L150 20Q139 -6 117 -6H90Q59 -6 59 27Q59 39 61 45L481 1432Q497 1480 531 1506T614 1532Q663 1532 697 1507T745 1434L1165 45Q1169 33 1169 25ZM885 666L662 1409Q648 1450 614 1450Q577 1450 567 1411L342 666H885ZM905 1920Q905 1836 866 1770T760 1665T612 1627Q534 1627 466 1665T359 1769T320 1920Q320 1954 344 1954H385Q400 1954 404 1949T408 1920Q408 1804 474 1758T612 1711Q685 1711 751 1757T817 1920Q817 1941 821 1947T840 1954H881Q905 1954 905 1920Z"  />
<glyph unicode="&#x103;" horiz-adv-x="958" d="M459 1032Q392 1032 320 1016T193 979Q150 962 150 999V1012Q150 1043 188 1057Q240 1076 313 1093T463 1110Q600 1110 681 1071T799 948T836 733V74Q836 55 830 45T805 31Q649 -12 496 -12Q344 -12 252 23T121 130T82 317V344Q82 509 197 584T588 659H745V733Q745 853 715 918T624 1008T459 1032ZM745 92V578H588Q356 578 265 527T174 344V317Q174 228 200 176T295 96T496 68Q563 68 633 76T745 92ZM807 1559Q807 1475 768 1409T662 1304T514 1266Q436 1266 368 1304T261 1408T222 1559Q222 1593 246 1593H287Q302 1593 306 1588T310 1559Q310 1443 376 1397T514 1350Q587 1350 653 1396T719 1559Q719 1580 723 1586T742 1593H783Q807 1593 807 1559Z"  />
<glyph unicode="&#x104;" horiz-adv-x="1268" d="M1069 -49Q1020 -74 984 -94T924 -134T889 -176T877 -225Q877 -275 910 -296T1012 -317Q1050 -317 1090 -310T1165 -293Q1168 -291 1172 -291T1180 -291Q1194 -291 1194 -303V-342Q1194 -358 1171 -365Q1162 -368 1146 -373T1108 -382T1062 -390T1010 -393Q936 -393 893 -377T828 -335T799 -280T793 -225Q793 -182 809 -151T852 -94T917 -48T997 -6L1096 41L928 582H338L170 27Q167 17 158 9T137 0H111Q95 0 88 9T80 33Q80 38 80 42T82 51L502 1438Q516 1484 550 1511T635 1538Q684 1538 718 1512T766 1440L1186 51Q1188 45 1189 40T1190 29Q1190 12 1176 4L1069 -49ZM682 1415Q677 1431 667 1443T635 1456Q612 1456 603 1445T588 1417L362 672H905L682 1415Z"  />
<glyph unicode="&#x105;" horiz-adv-x="958" d="M836 -348Q836 -365 813 -371Q794 -377 748 -388T637 -399Q565 -399 518 -383T443 -342T403 -286T391 -225Q391 -189 401 -161T432 -110T485 -65T563 -20L586 -8Q563 -10 540 -11T496 -12Q379 -12 300 8T172 69T103 171T82 317V344Q82 425 108 484T195 582T351 640T588 659H745V733Q745 825 728 883T676 975T587 1020T459 1032Q420 1032 382 1027T309 1014T244 997T193 979Q170 970 160 976T150 999V1012Q150 1029 158 1039T188 1057Q208 1064 237 1073T303 1091T380 1104T463 1110Q566 1110 637 1088T752 1019T816 902T836 733V82Q836 57 829 49T805 31L627 -63Q579 -89 548 -108T498 -146T472 -182T465 -223Q465 -283 511 -307T637 -332Q662 -332 687 -329T735 -323T777 -315T809 -307Q814 -305 818 -304T825 -303Q836 -303 836 -317V-348ZM745 578H588Q472 578 393 566T265 527T195 454T174 344V317Q174 255 187 209T235 131T333 84T496 68Q534 68 572 70T643 77T703 85T745 92V578Z"  />
<glyph unicode="&#x106;" horiz-adv-x="1059" d="M604 -12Q501 -12 413 20T254 127T143 326T102 625V895Q102 1070 142 1194T254 1393T413 1500T604 1532Q709 1532 807 1505T958 1450Q978 1441 987 1433T997 1409V1391Q997 1370 988 1365T958 1366Q854 1404 779 1425T604 1446Q516 1446 442 1416T311 1320T224 1146T193 895V625Q193 339 305 207T604 74Q662 74 707 81T801 102T884 128T958 154Q981 160 989 155T997 129V111Q997 96 988 88T958 70Q797 -12 604 -12ZM872 1940Q872 1932 864 1924L645 1661Q632 1645 623 1636T600 1627H555Q536 1627 536 1641Q536 1653 544 1661L749 1924Q775 1954 796 1954H850Q872 1954 872 1940Z"  />
<glyph unicode="&#x107;" horiz-adv-x="854" d="M498 -12Q356 -12 266 50T134 223T92 483V621Q92 770 133 878T266 1048T498 1110Q566 1110 633 1094T745 1057Q766 1049 775 1039T784 1012V999Q784 962 741 979Q609 1030 498 1030Q329 1030 256 926T182 621V483Q182 350 213 258T313 117T498 68Q615 68 741 119Q784 136 784 98V86Q784 68 775 59T745 41Q697 19 630 4T498 -12ZM743 1579Q743 1571 735 1563L516 1300Q503 1284 494 1275T471 1266H426Q407 1266 407 1280Q407 1292 415 1300L620 1563Q646 1593 667 1593H721Q743 1593 743 1579Z"  />
<glyph unicode="&#x10C;" horiz-adv-x="1059" d="M604 -12Q501 -12 413 20T254 127T143 326T102 625V895Q102 1070 142 1194T254 1393T413 1500T604 1532Q709 1532 807 1505T958 1450Q978 1441 987 1433T997 1409V1391Q997 1370 988 1365T958 1366Q854 1404 779 1425T604 1446Q516 1446 442 1416T311 1320T224 1146T193 895V625Q193 339 305 207T604 74Q662 74 707 81T801 102T884 128T958 154Q981 160 989 155T997 129V111Q997 96 988 88T958 70Q797 -12 604 -12ZM883 1940Q883 1928 875 1920L671 1657Q658 1641 648 1634T623 1627H541Q527 1627 519 1632T494 1657L290 1920Q281 1928 281 1940Q281 1954 300 1954H345Q359 1954 366 1948T390 1920L582 1688L775 1920Q793 1942 799 1948T820 1954H865Q883 1954 883 1940Z"  />
<glyph unicode="&#x10D;" horiz-adv-x="854" d="M498 -12Q356 -12 266 50T134 223T92 483V621Q92 770 133 878T266 1048T498 1110Q566 1110 633 1094T745 1057Q766 1049 775 1039T784 1012V999Q784 962 741 979Q609 1030 498 1030Q329 1030 256 926T182 621V483Q182 350 213 258T313 117T498 68Q615 68 741 119Q784 136 784 98V86Q784 68 775 59T745 41Q697 19 630 4T498 -12ZM786 1579Q786 1567 778 1559L574 1296Q561 1280 551 1273T526 1266H444Q430 1266 422 1271T397 1296L193 1559Q184 1567 184 1579Q184 1593 203 1593H248Q262 1593 269 1587T293 1559L485 1327L678 1559Q696 1581 702 1587T723 1593H768Q786 1593 786 1579Z"  />
<glyph unicode="&#x10E;" horiz-adv-x="1214" d="M1112 633Q1112 296 952 142T514 -12Q274 -12 178 4Q163 7 153 18T143 43V1477Q143 1506 178 1516Q274 1532 514 1532Q650 1532 758 1498T946 1388T1068 1188T1112 887V633ZM1022 633V887Q1022 1097 958 1221T780 1399T514 1452Q422 1452 381 1450T233 1440V76Q354 68 514 68Q665 68 779 121T957 300T1022 633ZM907 1940Q907 1928 899 1920L695 1657Q682 1641 672 1634T647 1627H565Q551 1627 543 1632T518 1657L314 1920Q305 1928 305 1940Q305 1954 324 1954H369Q383 1954 390 1948T414 1920L606 1688L799 1920Q817 1942 823 1948T844 1954H889Q907 1954 907 1940Z"  />
<glyph unicode="&#x10F;" horiz-adv-x="1141" d="M868 66Q868 47 862 40T838 27Q804 20 763 13T676 1T584 -8T494 -12Q388 -12 312 24T187 125T115 282T92 485V621Q92 865 192 987T494 1110Q524 1110 560 1108T635 1102T710 1092T778 1079V1483Q778 1498 788 1510T813 1522H834Q849 1522 858 1510T868 1483V66ZM778 1004Q749 1010 712 1015T637 1023T561 1028T494 1030Q409 1030 350 1004T254 927T199 799T182 621V485Q182 386 198 309T252 178T348 96T494 68Q531 68 569 70T645 76T717 84T778 94V1004ZM1155 1499Q1155 1496 1155 1492T1153 1483L1055 1130Q1049 1109 1040 1101T1016 1092H985Q974 1092 971 1097T967 1112Q967 1115 967 1120T969 1130L1053 1483Q1058 1504 1068 1513T1094 1522H1133Q1155 1522 1155 1499Z"  />
<glyph unicode="&#x110;" horiz-adv-x="1214" d="M1112 633Q1112 456 1068 334T944 134T754 23T514 -12Q390 -12 307 -8T178 4Q164 7 154 18T143 43V754H-2Q-19 754 -30 763T-41 788V809Q-41 824 -30 833T-2 842H143V1477Q143 1491 153 1501T178 1516Q223 1524 306 1528T514 1532Q644 1532 754 1499T943 1389T1067 1190T1112 887V633ZM1022 887Q1022 1050 983 1159T876 1333T715 1425T514 1452Q469 1452 433 1451T363 1449T299 1445T233 1440V842H408Q425 842 435 833T446 809V788Q446 773 436 764T408 754H233V76Q267 74 298 73T363 70T432 69T514 68Q622 68 714 95T875 188T983 362T1022 633V887Z"  />
<glyph unicode="&#x111;" horiz-adv-x="1032" d="M889 66Q889 47 883 40T858 27Q824 20 783 13T696 1T605 -8T514 -12Q408 -12 332 24T208 125T136 282T113 485V621Q113 865 213 987T514 1110Q544 1110 580 1108T655 1102T731 1092T799 1079V1266H473Q456 1266 445 1273T434 1296V1317Q434 1332 445 1340T473 1348H799V1483Q799 1498 808 1510T834 1522H854Q869 1522 879 1510T889 1483V1348H1006Q1023 1348 1033 1340T1044 1317V1296Q1044 1281 1034 1274T1006 1266H889V66ZM799 1004Q770 1010 733 1015T658 1023T582 1028T514 1030Q430 1030 371 1004T274 927T220 799T203 621V485Q203 386 219 309T272 178T368 96T514 68Q551 68 589 70T665 76T737 84T799 94V1004Z"  />
<glyph unicode="&#x112;" horiz-adv-x="1051" d="M958 35Q958 19 948 10T920 0H391Q310 0 256 22T172 94T143 229V1292Q143 1377 172 1427T256 1500T391 1522H920Q937 1522 947 1513T958 1487V1470Q958 1455 948 1447T920 1438H391Q310 1438 272 1409T233 1292V842H920Q938 842 948 833T958 809V788Q958 773 948 764T920 754H233V229Q233 140 271 112T391 84H920Q938 84 948 76T958 51V35ZM879 1737Q879 1704 838 1704H293Q252 1704 252 1737V1759Q252 1790 293 1790H838Q879 1790 879 1759V1737Z"  />
<glyph unicode="&#x113;" horiz-adv-x="1006" d="M913 567Q913 550 902 539T874 528H182V485Q182 249 277 159T539 68Q688 68 858 139Q874 146 883 141T893 125V100Q893 84 886 76T854 55Q818 38 766 23T651 -2T539 -12Q338 -12 215 102T92 485V621Q92 763 140 874T282 1047T506 1110Q642 1110 734 1050T869 880T913 623V567ZM823 610V623Q823 826 749 928T506 1030Q395 1030 323 980T217 837T182 621V610H823ZM815 1442Q815 1409 774 1409H229Q188 1409 188 1442V1464Q188 1495 229 1495H774Q815 1495 815 1464V1442Z"  />
<glyph unicode="&#x116;" horiz-adv-x="1051" d="M958 35Q958 19 948 10T920 0H391Q310 0 256 22T172 94T143 229V1292Q143 1377 172 1427T256 1500T391 1522H920Q937 1522 947 1513T958 1487V1470Q958 1455 948 1447T920 1438H391Q310 1438 272 1409T233 1292V842H920Q938 842 948 833T958 809V788Q958 773 948 764T920 754H233V229Q233 140 271 112T391 84H920Q938 84 948 76T958 51V35ZM618 1706Q618 1689 607 1678T580 1667H567Q551 1667 540 1678T528 1706V1857Q528 1872 539 1884T567 1896H580Q597 1896 607 1885T618 1857V1706Z"  />
<glyph unicode="&#x117;" horiz-adv-x="1006" d="M913 567Q913 550 902 539T874 528H182V485Q182 249 277 159T539 68Q688 68 858 139Q874 146 883 141T893 125V100Q893 84 886 76T854 55Q818 38 766 23T651 -2T539 -12Q338 -12 215 102T92 485V621Q92 763 140 874T282 1047T506 1110Q642 1110 734 1050T869 880T913 623V567ZM823 610V623Q823 826 749 928T506 1030Q395 1030 323 980T217 837T182 621V610H823ZM547 1352Q547 1335 536 1324T509 1313H496Q480 1313 469 1324T457 1352V1503Q457 1518 468 1530T496 1542H509Q526 1542 536 1531T547 1503V1352Z"  />
<glyph unicode="&#x118;" horiz-adv-x="1051" d="M958 35Q958 19 948 10T920 0H872L760 -63Q712 -90 681 -109T632 -144T607 -178T600 -217Q600 -247 613 -267T650 -300T706 -318T778 -324Q797 -324 819 -321T862 -315T902 -307T934 -299Q939 -297 943 -296T950 -295Q961 -295 961 -309V-348Q961 -365 938 -371Q929 -374 913 -379T875 -388T828 -396T776 -399Q696 -399 646 -382T566 -339T527 -281T516 -219Q516 -181 527 -154T561 -106T615 -64T688 -20L723 0H391Q333 0 287 11T209 50T160 120T143 229V1292Q143 1356 160 1400T209 1471T287 1510T391 1522H920Q937 1522 947 1512T958 1487V1470Q958 1455 948 1447T920 1438H391Q354 1438 325 1433T276 1413T244 1369T233 1292V842H920Q937 842 947 833T958 809V788Q958 773 948 764T920 754H233V229Q233 181 244 153T275 109T325 89T391 84H920Q937 84 947 76T958 51V35Z"  />
<glyph unicode="&#x119;" horiz-adv-x="1006" d="M913 -348Q913 -366 891 -371Q872 -377 826 -388T715 -399Q643 -399 596 -383T521 -342T481 -286T469 -225Q469 -165 502 -112T614 -8Q596 -11 576 -11T539 -12Q449 -12 368 11T226 91T128 244T92 485V621Q92 727 118 816T197 971T327 1073T506 1110Q612 1110 688 1075T815 975T889 822T913 623V567Q913 550 902 539T874 528H182V485Q182 356 211 275T289 148T402 85T539 68Q619 68 701 88T858 139Q877 147 885 141T893 125V100Q893 83 885 75T854 55Q848 52 843 50T831 45L705 -27Q657 -54 626 -79T577 -129T551 -177T543 -223Q543 -283 589 -307T715 -332Q740 -332 765 -329T813 -323T855 -315T887 -307Q892 -305 896 -304T903 -303Q913 -303 913 -317V-348ZM823 623Q823 720 806 795T751 923T653 1002T506 1030Q421 1030 360 1001T259 917T201 788T182 621V610H823V623Z"  />
<glyph unicode="&#x11A;" horiz-adv-x="1051" d="M958 35Q958 19 948 10T920 0H391Q310 0 256 22T172 94T143 229V1292Q143 1377 172 1427T256 1500T391 1522H920Q937 1522 947 1513T958 1487V1470Q958 1455 948 1447T920 1438H391Q310 1438 272 1409T233 1292V842H920Q938 842 948 833T958 809V788Q958 773 948 764T920 754H233V229Q233 140 271 112T391 84H920Q938 84 948 76T958 51V35ZM854 1940Q854 1928 846 1920L642 1657Q629 1641 619 1634T594 1627H512Q498 1627 490 1632T465 1657L261 1920Q252 1928 252 1940Q252 1954 271 1954H316Q330 1954 337 1948T361 1920L553 1688L746 1920Q764 1942 770 1948T791 1954H836Q854 1954 854 1940Z"  />
<glyph unicode="&#x11B;" horiz-adv-x="1006" d="M913 567Q913 550 902 539T874 528H182V485Q182 249 277 159T539 68Q688 68 858 139Q874 146 883 141T893 125V100Q893 84 886 76T854 55Q818 38 766 23T651 -2T539 -12Q338 -12 215 102T92 485V621Q92 763 140 874T282 1047T506 1110Q642 1110 734 1050T869 880T913 623V567ZM823 610V623Q823 826 749 928T506 1030Q395 1030 323 980T217 837T182 621V610H823ZM803 1579Q803 1567 795 1559L591 1296Q578 1280 568 1273T543 1266H461Q447 1266 439 1271T414 1296L210 1559Q201 1567 201 1579Q201 1593 220 1593H265Q279 1593 286 1587T310 1559L502 1327L695 1559Q713 1581 719 1587T740 1593H785Q803 1593 803 1579Z"  />
<glyph unicode="&#x11E;" horiz-adv-x="1163" d="M616 1448Q436 1448 315 1320T193 887V633Q193 352 303 213T616 74Q721 74 803 80T928 92V743Q928 782 963 782H983Q1018 782 1018 743V53Q1018 38 1008 27T983 14Q883 2 804 -5T616 -12Q466 -12 351 56T169 270T102 633V887Q102 1127 176 1271T367 1473T616 1532Q728 1532 840 1504T1001 1450Q1021 1441 1030 1433T1040 1409V1391Q1040 1370 1031 1365T1001 1366Q908 1400 816 1424T616 1448ZM915 1920Q915 1836 876 1770T770 1665T622 1627Q544 1627 476 1665T369 1769T330 1920Q330 1954 354 1954H395Q410 1954 414 1949T418 1920Q418 1804 484 1758T622 1711Q695 1711 761 1757T827 1920Q827 1941 831 1947T850 1954H891Q915 1954 915 1920Z"  />
<glyph unicode="&#x11F;" horiz-adv-x="1053" d="M868 -2Q868 -123 845 -200T775 -321T660 -382T498 -399Q320 -399 180 -340Q156 -330 149 -323T141 -295V-285Q141 -249 184 -262Q251 -284 333 -301T498 -319Q585 -319 636 -307T720 -259T766 -164T780 -2V20Q741 7 654 -2T516 -12Q333 -12 213 86T92 481V621Q92 797 138 906T278 1062T516 1110Q563 1110 625 1104T741 1090T838 1071Q868 1064 868 1032V-2ZM778 98V1004Q620 1030 516 1030Q395 1030 323 996T217 873T182 621V481Q182 313 224 222T337 100T516 68Q569 68 653 77T778 98ZM819 1559Q819 1475 780 1409T674 1304T526 1266Q448 1266 380 1304T273 1408T234 1559Q234 1593 258 1593H299Q314 1593 318 1588T322 1559Q322 1443 388 1397T526 1350Q599 1350 665 1396T731 1559Q731 1580 735 1586T754 1593H795Q819 1593 819 1559Z"  />
<glyph unicode="&#x122;" horiz-adv-x="1163" d="M616 1448Q436 1448 315 1320T193 887V633Q193 352 303 213T616 74Q721 74 803 80T928 92V743Q928 782 963 782H983Q1018 782 1018 743V53Q1018 38 1008 27T983 14Q883 2 804 -5T616 -12Q466 -12 351 56T169 270T102 633V887Q102 1127 176 1271T367 1473T616 1532Q728 1532 840 1504T1001 1450Q1021 1441 1030 1433T1040 1409V1391Q1040 1370 1031 1365T1001 1366Q908 1400 816 1424T616 1448ZM658 -113Q666 -113 674 -117T682 -133Q682 -136 682 -141T678 -152L563 -360Q554 -379 544 -389T514 -399H496Q487 -399 482 -394T477 -381Q477 -378 477 -374T480 -367L568 -152Q576 -132 584 -123T609 -113H658Z"  />
<glyph unicode="&#x123;" horiz-adv-x="1053" d="M868 -2Q868 -123 845 -200T775 -321T660 -382T498 -399Q320 -399 180 -340Q156 -330 149 -323T141 -295V-285Q141 -249 184 -262Q251 -284 333 -301T498 -319Q585 -319 636 -307T720 -259T766 -164T780 -2V20Q741 7 654 -2T516 -12Q333 -12 213 86T92 481V621Q92 797 138 906T278 1062T516 1110Q563 1110 625 1104T741 1090T838 1071Q868 1064 868 1032V-2ZM778 98V1004Q620 1030 516 1030Q395 1030 323 996T217 873T182 621V481Q182 313 224 222T337 100T516 68Q569 68 653 77T778 98ZM481 1264Q473 1264 465 1268T457 1284Q457 1287 457 1292T461 1303L575 1511Q585 1530 595 1540T625 1550H643Q652 1550 657 1545T662 1532Q662 1529 662 1525T659 1518L571 1303Q563 1283 555 1274T530 1264H481Z"  />
<glyph unicode="&#x12A;" horiz-adv-x="418" d="M254 39Q254 22 244 11T219 0H199Q184 0 174 12T164 39V1483Q164 1498 174 1510T199 1522H219Q234 1522 244 1511T254 1483V39ZM524 1739Q524 1706 483 1706H-62Q-103 1706 -103 1739V1761Q-103 1792 -62 1792H483Q524 1792 524 1761V1739Z"  />
<glyph unicode="&#x12B;" horiz-adv-x="377" d="M233 39Q233 23 222 12T195 0H182Q167 0 155 12T143 39V1061Q143 1076 155 1088T182 1100H195Q210 1100 221 1089T233 1061V39ZM503 1442Q503 1409 462 1409H-83Q-124 1409 -124 1442V1464Q-124 1495 -83 1495H462Q503 1495 503 1464V1442Z"  />
<glyph unicode="&#x12E;" horiz-adv-x="459" d="M184 1483Q184 1498 194 1510T219 1522H240Q255 1522 264 1510T274 1483V33Q274 19 270 12T258 0L215 -25Q167 -52 137 -74T90 -117T66 -158T59 -201Q59 -266 96 -297T225 -328Q276 -328 323 -319T397 -301Q402 -299 406 -298T414 -297Q424 -297 424 -311V-348Q424 -366 401 -371Q383 -377 337 -388T225 -399Q154 -399 107 -382T31 -336T-8 -273T-20 -203Q-20 -167 -10 -137T22 -81T75 -30T152 20L184 41V1483Z"  />
<glyph unicode="&#x12F;" horiz-adv-x="418" d="M164 1061Q164 1076 173 1088T199 1100H219Q235 1100 244 1088T254 1061V33Q254 19 250 12T238 0L195 -25Q147 -52 117 -74T70 -117T46 -158T39 -201Q39 -266 76 -297T205 -328Q230 -328 255 -325T303 -318T345 -310T377 -301Q382 -299 386 -298T393 -297Q403 -297 403 -311V-348Q403 -366 381 -371Q362 -377 316 -388T205 -399Q133 -399 86 -382T11 -336T-29 -273T-41 -203Q-41 -167 -31 -138T1 -82T55 -32T131 20L164 41V1061ZM254 1341Q254 1324 243 1314T215 1303H203Q187 1303 176 1313T164 1341V1493Q164 1508 175 1520T203 1532H215Q231 1532 242 1520T254 1493V1341Z"  />
<glyph unicode="&#x130;" horiz-adv-x="418" d="M254 39Q254 22 244 11T219 0H199Q184 0 174 12T164 39V1483Q164 1498 174 1510T199 1522H219Q234 1522 244 1511T254 1483V39ZM255 1706Q255 1689 244 1678T217 1667H204Q188 1667 177 1678T165 1706V1857Q165 1872 176 1884T204 1896H217Q234 1896 244 1885T255 1857V1706Z"  />
<glyph unicode="&#x131;" horiz-adv-x="377" d="M233 39Q233 23 222 12T195 0H182Q167 0 155 12T143 39V1061Q143 1076 155 1088T182 1100H195Q210 1100 221 1089T233 1061V39Z"  />
<glyph unicode="&#x136;" horiz-adv-x="1069" d="M1028 29Q1028 -4 989 -4Q958 -4 942 12L233 750V39Q233 23 224 12T199 0H178Q163 0 153 12T143 39V1483Q143 1498 155 1510T182 1522H195Q210 1522 221 1511T233 1483V827L930 1507Q954 1530 977 1530Q993 1530 1004 1520T1016 1495Q1016 1473 999 1458L311 791L1014 61Q1028 47 1028 29ZM589 -113Q597 -113 605 -117T613 -133Q613 -136 613 -141T609 -152L494 -360Q485 -379 475 -389T445 -399H427Q418 -399 413 -394T408 -381Q408 -378 408 -374T411 -367L499 -152Q507 -132 515 -123T540 -113H589Z"  />
<glyph unicode="&#x137;" horiz-adv-x="868" d="M809 20Q809 -12 770 -12Q733 -12 709 12L213 543V39Q213 23 201 12T174 0H162Q147 0 135 12T123 39V1483Q123 1498 135 1510T162 1522H174Q189 1522 201 1511T213 1483V621L717 1092Q738 1110 766 1110Q785 1110 796 1099T807 1073Q807 1055 793 1042L291 584L795 51Q809 34 809 20ZM476 -113Q484 -113 492 -117T500 -133Q500 -136 500 -141T496 -152L381 -360Q372 -379 362 -389T332 -399H314Q305 -399 300 -394T295 -381Q295 -378 295 -374T298 -367L386 -152Q394 -132 402 -123T427 -113H476Z"  />
<glyph unicode="&#x139;" horiz-adv-x="948" d="M897 35Q897 0 858 0H391Q310 0 256 22T172 94T143 229V1483Q143 1498 153 1510T178 1522H199Q214 1522 223 1511T233 1483V229Q233 140 271 112T391 84H858Q897 84 897 51V35ZM795 1940Q795 1932 787 1924L568 1661Q555 1645 546 1636T523 1627H478Q459 1627 459 1641Q459 1653 467 1661L672 1924Q698 1954 719 1954H773Q795 1954 795 1940Z"  />
<glyph unicode="&#x13A;" horiz-adv-x="377" d="M233 39Q233 23 224 12T199 0H178Q163 0 153 12T143 39V1483Q143 1498 153 1510T178 1522H199Q214 1522 223 1511T233 1483V39ZM435 1938Q435 1930 427 1922L208 1659Q195 1643 186 1634T163 1625H118Q99 1625 99 1639Q99 1651 107 1659L312 1922Q338 1952 359 1952H413Q435 1952 435 1938Z"  />
<glyph unicode="&#x13B;" horiz-adv-x="948" d="M897 35Q897 0 858 0H391Q310 0 256 22T172 94T143 229V1483Q143 1498 153 1510T178 1522H199Q214 1522 223 1511T233 1483V229Q233 140 271 112T391 84H858Q897 84 897 51V35ZM552 -113Q560 -113 568 -117T576 -133Q576 -136 576 -141T572 -152L457 -360Q448 -379 438 -389T408 -399H390Q381 -399 376 -394T371 -381Q371 -378 371 -374T374 -367L462 -152Q470 -132 478 -123T503 -113H552Z"  />
<glyph unicode="&#x13C;" horiz-adv-x="377" d="M233 39Q233 23 224 12T199 0H178Q163 0 153 12T143 39V1483Q143 1498 153 1510T178 1522H199Q214 1522 223 1511T233 1483V39ZM221 -113Q229 -113 237 -117T245 -133Q245 -136 245 -141T241 -152L126 -360Q117 -379 107 -389T77 -399H59Q50 -399 45 -394T40 -381Q40 -378 40 -374T43 -367L131 -152Q139 -132 147 -123T172 -113H221Z"  />
<glyph unicode="&#x13D;" horiz-adv-x="948" d="M897 35Q897 19 886 10T858 0H391Q333 0 287 11T209 50T160 120T143 229V1483Q143 1498 153 1510T178 1522H199Q214 1522 223 1510T233 1483V229Q233 181 244 153T275 109T325 89T391 84H858Q875 84 886 76T897 51V35ZM752 1507Q752 1504 752 1500T750 1491L651 1139Q645 1117 637 1109T612 1100H582Q571 1100 567 1105T563 1120Q563 1123 563 1128T565 1139L649 1491Q654 1513 664 1521T690 1530H729Q752 1530 752 1507Z"  />
<glyph unicode="&#x13E;" horiz-adv-x="516" d="M233 39Q233 23 224 12T199 0H178Q163 0 153 11T143 39V1483Q143 1498 153 1510T178 1522H199Q214 1522 223 1510T233 1483V39ZM530 1499Q530 1496 530 1492T528 1483L430 1130Q424 1109 416 1101T391 1092H360Q349 1092 346 1097T342 1112Q342 1115 342 1120T344 1130L428 1483Q433 1504 443 1513T469 1522H508Q530 1522 530 1499Z"  />
<glyph unicode="&#x141;" horiz-adv-x="948" d="M897 35Q897 0 858 0H391Q310 0 256 22T172 94T143 229V668L-4 455Q-15 440 -27 440Q-43 440 -43 453V512Q-43 540 -27 563L143 809V1483Q143 1498 153 1510T178 1522H199Q214 1522 223 1511T233 1483V938L381 1151Q392 1165 403 1165Q420 1165 420 1153V1094Q420 1066 403 1042L233 797V229Q233 140 271 112T391 84H858Q897 84 897 51V35Z"  />
<glyph unicode="&#x142;" horiz-adv-x="377" d="M420 1081Q420 1069 406 1049L233 797V39Q233 23 224 12T199 0H178Q163 0 153 12T143 39V668L-4 455Q-16 436 -31 436Q-43 436 -43 453V524Q-43 541 -31 557L143 809V1483Q143 1498 153 1510T178 1522H199Q214 1522 223 1511T233 1483V938L381 1151Q398 1174 408 1174Q420 1174 420 1157V1085V1081Z"  />
<glyph unicode="&#x143;" horiz-adv-x="1292" d="M1149 92Q1149 46 1123 17T1057 -12Q980 -12 950 49L260 1432Q253 1446 244 1446Q233 1446 233 1432V39Q233 23 224 12T199 0H178Q163 0 153 12T143 39V1432Q143 1478 170 1505T236 1532Q313 1532 342 1468L1030 88Q1037 74 1047 74Q1057 74 1057 92V1483Q1057 1500 1066 1511T1090 1522H1114Q1149 1522 1149 1483V92ZM942 1940Q942 1932 934 1924L715 1661Q702 1645 693 1636T670 1627H625Q606 1627 606 1641Q606 1653 614 1661L819 1924Q845 1954 866 1954H920Q942 1954 942 1940Z"  />
<glyph unicode="&#x144;" horiz-adv-x="1026" d="M903 39Q903 23 892 12T864 0H850Q834 0 824 11T813 39V719Q813 835 782 903T684 1000T512 1030Q451 1030 354 1018T213 995V39Q213 23 201 12T174 0H162Q147 0 135 12T123 39V1022Q123 1055 160 1063Q237 1083 341 1096T516 1110Q709 1110 806 1018T903 719V39ZM780 1579Q780 1571 772 1563L553 1300Q540 1284 531 1275T508 1266H463Q444 1266 444 1280Q444 1292 452 1300L657 1563Q683 1593 704 1593H758Q780 1593 780 1579Z"  />
<glyph unicode="&#x145;" horiz-adv-x="1292" d="M1149 92Q1149 46 1123 17T1057 -12Q980 -12 950 49L260 1432Q253 1446 244 1446Q233 1446 233 1432V39Q233 23 224 12T199 0H178Q163 0 153 12T143 39V1432Q143 1478 170 1505T236 1532Q313 1532 342 1468L1030 88Q1037 74 1047 74Q1057 74 1057 92V1483Q1057 1500 1066 1511T1090 1522H1114Q1149 1522 1149 1483V92ZM668 -113Q676 -113 684 -117T692 -133Q692 -136 692 -141T688 -152L573 -360Q564 -379 554 -389T524 -399H506Q497 -399 492 -394T487 -381Q487 -378 487 -374T490 -367L578 -152Q586 -132 594 -123T619 -113H668Z"  />
<glyph unicode="&#x146;" horiz-adv-x="1026" d="M903 39Q903 23 892 12T864 0H850Q834 0 824 11T813 39V719Q813 835 782 903T684 1000T512 1030Q451 1030 354 1018T213 995V39Q213 23 201 12T174 0H162Q147 0 135 12T123 39V1022Q123 1055 160 1063Q237 1083 341 1096T516 1110Q709 1110 806 1018T903 719V39ZM543 -113Q551 -113 559 -117T567 -133Q567 -136 567 -141T563 -152L448 -360Q439 -379 429 -389T399 -399H381Q372 -399 367 -394T362 -381Q362 -378 362 -374T365 -367L453 -152Q461 -132 469 -123T494 -113H543Z"  />
<glyph unicode="&#x147;" horiz-adv-x="1292" d="M1149 92Q1149 46 1123 17T1057 -12Q980 -12 950 49L260 1432Q253 1446 244 1446Q233 1446 233 1432V39Q233 23 224 12T199 0H178Q163 0 153 12T143 39V1432Q143 1478 170 1505T236 1532Q313 1532 342 1468L1030 88Q1037 74 1047 74Q1057 74 1057 92V1483Q1057 1500 1066 1511T1090 1522H1114Q1149 1522 1149 1483V92ZM950 1940Q950 1928 942 1920L738 1657Q725 1641 715 1634T690 1627H608Q594 1627 586 1632T561 1657L357 1920Q348 1928 348 1940Q348 1954 367 1954H412Q426 1954 433 1948T457 1920L649 1688L842 1920Q860 1942 866 1948T887 1954H932Q950 1954 950 1940Z"  />
<glyph unicode="&#x148;" horiz-adv-x="1026" d="M903 39Q903 23 892 12T864 0H850Q834 0 824 11T813 39V719Q813 835 782 903T684 1000T512 1030Q451 1030 354 1018T213 995V39Q213 23 201 12T174 0H162Q147 0 135 12T123 39V1022Q123 1055 160 1063Q237 1083 341 1096T516 1110Q709 1110 806 1018T903 719V39ZM813 1579Q813 1567 805 1559L601 1296Q588 1280 578 1273T553 1266H471Q457 1266 449 1271T424 1296L220 1559Q211 1567 211 1579Q211 1593 230 1593H275Q289 1593 296 1587T320 1559L512 1327L705 1559Q723 1581 729 1587T750 1593H795Q813 1593 813 1579Z"  />
<glyph unicode="&#x14C;" horiz-adv-x="1253" d="M1151 633Q1151 411 1085 267T901 56T627 -12Q471 -12 353 55T168 267T102 633V887Q102 1052 140 1176T249 1379T415 1495T627 1532Q745 1532 840 1495T1005 1379T1113 1176T1151 887V633ZM1061 633V887Q1061 1038 1029 1147T938 1322T802 1417T627 1446Q193 1446 193 887V633Q193 74 627 74Q722 74 801 103T939 199T1029 374T1061 633ZM940 1737Q940 1704 899 1704H354Q313 1704 313 1737V1759Q313 1790 354 1790H899Q940 1790 940 1759V1737Z"  />
<glyph unicode="&#x14D;" horiz-adv-x="1028" d="M936 477Q936 323 889 213T747 46T514 -12Q376 -12 281 45T139 213T92 477V621Q92 775 139 885T281 1052T514 1110Q652 1110 747 1053T889 885T936 621V477ZM846 477V621Q846 749 813 840T706 981T514 1030Q396 1030 323 981T216 841T182 621V477Q182 280 261 174T514 68Q688 68 767 174T846 477ZM828 1442Q828 1409 787 1409H242Q201 1409 201 1442V1464Q201 1495 242 1495H787Q828 1495 828 1464V1442Z"  />
<glyph unicode="&#x150;" horiz-adv-x="1253" d="M1151 633Q1151 411 1085 267T901 56T627 -12Q471 -12 353 55T168 267T102 633V887Q102 1052 140 1176T249 1379T415 1495T627 1532Q745 1532 840 1495T1005 1379T1113 1176T1151 887V633ZM1061 633V887Q1061 1038 1029 1147T938 1322T802 1417T627 1446Q193 1446 193 887V633Q193 74 627 74Q722 74 801 103T939 199T1029 374T1061 633ZM1062 1940Q1062 1932 1054 1924L835 1661Q822 1645 813 1636T790 1627H745Q726 1627 726 1641Q726 1653 734 1661L939 1924Q965 1954 986 1954H1040Q1062 1954 1062 1940ZM775 1940Q775 1932 767 1924L548 1661Q530 1639 524 1633T503 1627H458Q440 1627 440 1641Q440 1653 448 1661L653 1924Q678 1954 700 1954H753Q775 1954 775 1940Z"  />
<glyph unicode="&#x151;" horiz-adv-x="1028" d="M936 477Q936 323 889 213T747 46T514 -12Q376 -12 281 45T139 213T92 477V621Q92 775 139 885T281 1052T514 1110Q652 1110 747 1053T889 885T936 621V477ZM846 477V621Q846 749 813 840T706 981T514 1030Q396 1030 323 981T216 841T182 621V477Q182 280 261 174T514 68Q688 68 767 174T846 477ZM956 1579Q956 1571 948 1563L729 1300Q716 1284 707 1275T684 1266H639Q620 1266 620 1280Q620 1292 628 1300L833 1563Q859 1593 880 1593H934Q956 1593 956 1579ZM669 1579Q669 1571 661 1563L442 1300Q424 1278 418 1272T397 1266H352Q334 1266 334 1280Q334 1292 342 1300L547 1563Q572 1593 594 1593H647Q669 1593 669 1579Z"  />
<glyph unicode="&#x152;" horiz-adv-x="1970" d="M1878 35Q1878 0 1839 0H1233Q1144 0 1104 40T1063 166V205Q993 100 879 44T627 -12Q480 -12 360 52T171 240T102 530V989Q102 1115 141 1216T252 1388T420 1495T627 1532Q768 1532 881 1477T1063 1317V1354Q1063 1442 1103 1482T1233 1522H1839Q1855 1522 1866 1513T1878 1487V1470Q1878 1438 1839 1438H1233Q1184 1438 1169 1419T1153 1354V842H1839Q1857 842 1867 833T1878 809V788Q1878 754 1839 754H1153V166Q1153 122 1168 103T1233 84H1839Q1878 84 1878 51V35ZM1063 516V530V989V1004V1010Q1057 1214 933 1330T627 1446Q509 1446 410 1393T252 1236T193 989V530Q193 387 251 284T409 127T627 74Q808 74 932 190T1063 510V516Z"  />
<glyph unicode="&#x153;" horiz-adv-x="1759" d="M1667 567Q1667 550 1656 539T1628 528H936V485Q936 249 1031 159T1292 68Q1441 68 1612 139Q1628 147 1637 141T1647 125V100Q1647 86 1640 78T1608 55Q1572 38 1520 23T1404 -2T1292 -12Q1151 -12 1047 42T891 221Q795 -12 514 -12Q376 -12 281 45T139 213T92 477V621Q92 775 139 885T281 1052T514 1110Q796 1110 893 870Q941 983 1033 1046T1260 1110Q1396 1110 1488 1050T1623 880T1667 623V567ZM846 459V621Q846 749 813 840T706 981T514 1030Q396 1030 323 981T216 841T182 621V477Q182 280 261 174T514 68Q629 68 701 114T809 249T846 459ZM1577 610V623Q1577 826 1503 928T1260 1030Q1148 1030 1076 979T970 836T936 621V610H1577Z"  />
<glyph unicode="&#x154;" horiz-adv-x="1184" d="M1112 31Q1112 0 1079 0H1053Q1036 0 1022 18L586 686H553H498Q417 687 348 687T233 688V39Q233 23 224 12T199 0H178Q163 0 153 12T143 39V1485Q143 1499 153 1510T178 1524Q217 1526 334 1529T498 1532Q643 1532 745 1510T915 1440T1019 1311T1055 1114V1104Q1055 1012 1032 942T964 823T850 744T688 696L1102 59Q1112 42 1112 31ZM965 1104V1114Q965 1299 852 1372T498 1446Q316 1446 233 1438V774Q312 774 371 774T498 772Q662 772 764 801T915 903T965 1104ZM842 1940Q842 1932 834 1924L615 1661Q602 1645 593 1636T570 1627H525Q506 1627 506 1641Q506 1653 514 1661L719 1924Q745 1954 766 1954H820Q842 1954 842 1940Z"  />
<glyph unicode="&#x155;" horiz-adv-x="592" d="M512 1030Q451 1030 354 1018T213 995V39Q213 23 201 12T174 0H162Q147 0 135 12T123 39V1022Q123 1055 160 1063Q238 1083 340 1096T512 1110Q553 1110 553 1079V1063Q553 1030 512 1030ZM594 1579Q594 1571 586 1563L367 1300Q354 1284 345 1275T322 1266H277Q258 1266 258 1280Q258 1292 266 1300L471 1563Q497 1593 518 1593H572Q594 1593 594 1579Z"  />
<glyph unicode="&#x156;" horiz-adv-x="1184" d="M1112 31Q1112 0 1079 0H1053Q1036 0 1022 18L586 686H553H498Q417 687 348 687T233 688V39Q233 23 224 12T199 0H178Q163 0 153 12T143 39V1485Q143 1499 153 1510T178 1524Q217 1526 334 1529T498 1532Q643 1532 745 1510T915 1440T1019 1311T1055 1114V1104Q1055 1012 1032 942T964 823T850 744T688 696L1102 59Q1112 42 1112 31ZM965 1104V1114Q965 1299 852 1372T498 1446Q316 1446 233 1438V774Q312 774 371 774T498 772Q662 772 764 801T915 903T965 1104ZM640 -113Q648 -113 656 -117T664 -133Q664 -136 664 -141T660 -152L545 -360Q536 -379 526 -389T496 -399H478Q469 -399 464 -394T459 -381Q459 -378 459 -374T462 -367L550 -152Q558 -132 566 -123T591 -113H640Z"  />
<glyph unicode="&#x157;" horiz-adv-x="592" d="M512 1030Q451 1030 354 1018T213 995V39Q213 23 201 12T174 0H162Q147 0 135 12T123 39V1022Q123 1055 160 1063Q238 1083 340 1096T512 1110Q553 1110 553 1079V1063Q553 1030 512 1030ZM329 -113Q337 -113 345 -117T353 -133Q353 -136 353 -141T349 -152L234 -360Q225 -379 215 -389T185 -399H167Q158 -399 153 -394T148 -381Q148 -378 148 -374T151 -367L239 -152Q247 -132 255 -123T280 -113H329Z"  />
<glyph unicode="&#x158;" horiz-adv-x="1184" d="M1112 31Q1112 0 1079 0H1053Q1036 0 1022 18L586 686H553H498Q417 687 348 687T233 688V39Q233 23 224 12T199 0H178Q163 0 153 12T143 39V1485Q143 1499 153 1510T178 1524Q217 1526 334 1529T498 1532Q643 1532 745 1510T915 1440T1019 1311T1055 1114V1104Q1055 1012 1032 942T964 823T850 744T688 696L1102 59Q1112 42 1112 31ZM965 1104V1114Q965 1299 852 1372T498 1446Q316 1446 233 1438V774Q312 774 371 774T498 772Q662 772 764 801T915 903T965 1104ZM893 1940Q893 1928 885 1920L681 1657Q668 1641 658 1634T633 1627H551Q537 1627 529 1632T504 1657L300 1920Q291 1928 291 1940Q291 1954 310 1954H355Q369 1954 376 1948T400 1920L592 1688L785 1920Q803 1942 809 1948T830 1954H875Q893 1954 893 1940Z"  />
<glyph unicode="&#x159;" horiz-adv-x="592" d="M512 1030Q451 1030 354 1018T213 995V39Q213 23 201 12T174 0H162Q147 0 135 12T123 39V1022Q123 1055 160 1063Q238 1083 340 1096T512 1110Q553 1110 553 1079V1063Q553 1030 512 1030ZM633 1579Q633 1567 625 1559L421 1296Q408 1280 398 1273T373 1266H291Q277 1266 269 1271T244 1296L40 1559Q31 1567 31 1579Q31 1593 50 1593H95Q109 1593 116 1587T140 1559L332 1327L525 1559Q543 1581 549 1587T570 1593H615Q633 1593 633 1579Z"  />
<glyph unicode="&#x15A;" horiz-adv-x="1044" d="M973 379Q973 309 953 241T883 116T742 24T516 -12Q403 -12 303 13T129 72Q119 77 110 82T96 96T92 115V143Q92 156 101 164T131 162Q328 74 516 74Q654 74 734 113T847 220T879 379Q879 452 849 502T759 596T563 725L434 805Q324 873 258 926T153 1046T113 1200Q113 1380 238 1456T532 1532Q602 1532 678 1519T812 1488T897 1456Q920 1446 926 1439T932 1415V1393Q932 1354 893 1370Q857 1386 804 1402T678 1432T532 1446Q205 1446 205 1198Q205 1135 235 1086T319 994T481 885L612 805Q735 732 813 671T932 539T973 379ZM836 1940Q836 1932 828 1924L609 1661Q596 1645 587 1636T564 1627H519Q500 1627 500 1641Q500 1653 508 1661L713 1924Q739 1954 760 1954H814Q836 1954 836 1940Z"  />
<glyph unicode="&#x15B;" horiz-adv-x="860" d="M778 272Q778 120 682 54T424 -12Q353 -12 267 5T127 43Q96 57 89 64T82 90V98Q82 120 93 125T129 123Q206 96 279 81T428 66Q552 66 620 111T688 272Q688 335 644 380T471 496L340 567Q250 617 200 655T121 742T92 858Q92 949 135 1005T251 1085T414 1110Q498 1110 577 1094T711 1057Q730 1050 735 1044T741 1020V1008Q741 967 698 981Q644 998 568 1014T414 1030Q301 1030 242 995T182 858Q182 795 229 750T381 645L518 569Q660 491 719 430T778 272ZM692 1579Q692 1571 684 1563L465 1300Q452 1284 443 1275T420 1266H375Q356 1266 356 1280Q356 1292 364 1300L569 1563Q595 1593 616 1593H670Q692 1593 692 1579Z"  />
<glyph unicode="&#x15E;" horiz-adv-x="1044" d="M973 379Q973 316 955 247T886 121T747 26T516 -12Q451 -12 394 -4T287 16T198 43T129 72Q112 81 102 88T92 115V143Q92 153 100 162T131 162Q210 127 308 101T516 74Q625 74 695 98T806 163T863 260T879 379Q879 436 862 477T807 555T709 632T563 725L434 805Q364 848 305 889T204 977T137 1078T113 1200Q113 1300 153 1364T255 1466T390 1518T532 1532Q593 1532 651 1524T758 1503T843 1478T897 1456Q909 1451 916 1447T926 1438T931 1428T932 1415V1393Q932 1373 920 1369T893 1370Q875 1378 840 1391T756 1416T651 1437T532 1446Q371 1446 288 1386T205 1198Q205 1150 222 1111T274 1036T361 963T481 885L612 805Q697 754 764 708T878 612T948 506T973 379ZM578 -127Q578 -134 569 -143L350 -406Q336 -423 329 -431T305 -440H260Q242 -440 242 -426Q242 -421 243 -416T250 -406L455 -143Q469 -126 477 -120T502 -113H555Q578 -113 578 -127Z"  />
<glyph unicode="&#x15F;" horiz-adv-x="860" d="M778 272Q778 190 750 136T673 48T560 2T424 -12Q386 -12 344 -7T261 5T186 23T127 43Q113 49 105 53T91 62T84 73T82 90V98Q82 121 94 126T129 123Q159 112 194 102T268 84T347 71T428 66Q483 66 530 75T613 107T668 170T688 272Q688 303 679 329T644 380T577 432T471 496L340 567Q282 598 236 628T158 692T109 766T92 858Q92 930 118 978T189 1055T292 1097T414 1110Q463 1110 507 1105T590 1092T658 1075T711 1057Q728 1051 734 1045T741 1020V1008Q741 989 731 981T698 981Q679 987 648 995T579 1011T499 1024T414 1030Q365 1030 323 1024T249 999T200 947T182 858Q182 824 195 797T234 744T297 695T381 645L518 569Q582 534 630 502T712 436T761 363T778 272ZM504 -125Q504 -133 496 -141L276 -403Q262 -420 255 -429T231 -438H186Q168 -438 168 -424Q168 -419 169 -414T176 -403L381 -141Q395 -124 404 -118T428 -111H481Q504 -111 504 -125Z"  />
<glyph unicode="&#x160;" horiz-adv-x="1044" d="M973 379Q973 309 953 241T883 116T742 24T516 -12Q403 -12 303 13T129 72Q119 77 110 82T96 96T92 115V143Q92 156 101 164T131 162Q328 74 516 74Q654 74 734 113T847 220T879 379Q879 452 849 502T759 596T563 725L434 805Q324 873 258 926T153 1046T113 1200Q113 1380 238 1456T532 1532Q602 1532 678 1519T812 1488T897 1456Q920 1446 926 1439T932 1415V1393Q932 1354 893 1370Q857 1386 804 1402T678 1432T532 1446Q205 1446 205 1198Q205 1135 235 1086T319 994T481 885L612 805Q735 732 813 671T932 539T973 379ZM827 1942Q827 1930 819 1922L615 1659Q602 1643 592 1636T567 1629H485Q471 1629 463 1634T438 1659L234 1922Q225 1930 225 1942Q225 1956 244 1956H289Q303 1956 310 1950T334 1922L526 1690L719 1922Q737 1944 743 1950T764 1956H809Q827 1956 827 1942Z"  />
<glyph unicode="&#x161;" horiz-adv-x="860" d="M778 272Q778 120 682 54T424 -12Q353 -12 267 5T127 43Q96 57 89 64T82 90V98Q82 120 93 125T129 123Q206 96 279 81T428 66Q552 66 620 111T688 272Q688 335 644 380T471 496L340 567Q250 617 200 655T121 742T92 858Q92 949 135 1005T251 1085T414 1110Q498 1110 577 1094T711 1057Q730 1050 735 1044T741 1020V1008Q741 967 698 981Q644 998 568 1014T414 1030Q301 1030 242 995T182 858Q182 795 229 750T381 645L518 569Q660 491 719 430T778 272ZM723 1579Q723 1567 715 1559L511 1296Q498 1280 488 1273T463 1266H381Q367 1266 359 1271T334 1296L130 1559Q121 1567 121 1579Q121 1593 140 1593H185Q199 1593 206 1587T230 1559L422 1327L615 1559Q633 1581 639 1587T660 1593H705Q723 1593 723 1579Z"  />
<glyph unicode="&#x162;" horiz-adv-x="1128" d="M1087 1468Q1087 1438 1049 1438H610V39Q610 22 600 11T575 0H555Q540 0 530 12T520 39V1438H80Q41 1438 41 1468V1487Q41 1503 52 1512T80 1522H1049Q1066 1522 1076 1513T1087 1487V1468ZM601 -113Q609 -113 617 -117T625 -133Q625 -136 625 -141T621 -152L506 -360Q497 -379 487 -389T457 -399H439Q430 -399 425 -394T420 -381Q420 -378 420 -374T423 -367L511 -152Q519 -132 527 -123T552 -113H601Z"  />
<glyph unicode="&#x163;" horiz-adv-x="737" d="M676 27Q676 -1 641 -6Q595 -12 535 -12Q417 -12 360 36T303 209V1016H100Q61 1016 61 1049V1069Q61 1100 100 1100H303V1311Q303 1350 338 1350H360Q375 1350 384 1339T393 1311V1100H637Q676 1100 676 1069V1049Q676 1016 637 1016H393V209Q393 123 426 96T535 68H633Q676 68 676 39V27ZM447 -113Q455 -113 463 -117T471 -133Q471 -136 471 -141T467 -152L352 -360Q343 -379 333 -389T303 -399H285Q276 -399 271 -394T266 -381Q266 -378 266 -374T269 -367L357 -152Q365 -132 373 -123T398 -113H447Z"  />
<glyph unicode="&#x164;" horiz-adv-x="1128" d="M1087 1468Q1087 1438 1049 1438H610V39Q610 22 600 11T575 0H555Q540 0 530 12T520 39V1438H80Q41 1438 41 1468V1487Q41 1503 52 1512T80 1522H1049Q1066 1522 1076 1513T1087 1487V1468ZM864 1940Q864 1928 856 1920L652 1657Q639 1641 629 1634T604 1627H522Q508 1627 500 1632T475 1657L271 1920Q262 1928 262 1940Q262 1954 281 1954H326Q340 1954 347 1948T371 1920L563 1688L756 1920Q774 1942 780 1948T801 1954H846Q864 1954 864 1940Z"  />
<glyph unicode="&#x165;" horiz-adv-x="737" d="M684 1499Q684 1496 684 1492T682 1483L602 1204Q596 1183 588 1174T563 1165H532Q521 1165 518 1171T514 1186Q514 1189 514 1194T516 1204L582 1483Q587 1504 597 1513T623 1522H662Q684 1522 684 1499ZM676 27Q676 14 670 6T641 -6Q618 -9 590 -10T535 -12Q480 -12 437 -2T364 32T319 100T303 209V1016H100Q83 1016 72 1024T61 1049V1069Q61 1085 72 1092T100 1100H303V1311Q303 1326 312 1338T338 1350H360Q376 1350 384 1338T393 1311V1100H637Q654 1100 665 1093T676 1069V1049Q676 1033 665 1025T637 1016H393V209Q393 163 402 135T430 92T474 73T535 68H633Q656 68 666 61T676 39V27Z"  />
<glyph unicode="&#x16A;" horiz-adv-x="1255" d="M1112 541Q1112 274 993 131T629 -12Q385 -12 264 131T143 541V1483Q143 1498 153 1510T178 1522H199Q214 1522 223 1511T233 1483V541Q233 389 273 285T401 127T629 72Q836 72 929 191T1022 541V1483Q1022 1498 1032 1510T1057 1522H1077Q1092 1522 1102 1511T1112 1483V541ZM940 1737Q940 1704 899 1704H354Q313 1704 313 1737V1759Q313 1790 354 1790H899Q940 1790 940 1759V1737Z"  />
<glyph unicode="&#x16B;" horiz-adv-x="1026" d="M123 1061Q123 1077 134 1088T162 1100H176Q192 1100 202 1089T213 1061V381Q213 209 283 140T514 70Q575 70 672 82T813 104V1061Q813 1076 825 1088T852 1100H864Q879 1100 891 1089T903 1061V78Q903 45 866 37Q792 18 684 4T510 -10Q319 -10 221 82T123 381V1061ZM826 1442Q826 1409 785 1409H240Q199 1409 199 1442V1464Q199 1495 240 1495H785Q826 1495 826 1464V1442Z"  />
<glyph unicode="&#x16E;" horiz-adv-x="1255" d="M1112 541Q1112 274 993 131T629 -12Q385 -12 264 131T143 541V1483Q143 1498 153 1510T178 1522H199Q214 1522 223 1511T233 1483V541Q233 389 273 285T401 127T629 72Q836 72 929 191T1022 541V1483Q1022 1498 1032 1510T1057 1522H1077Q1092 1522 1102 1511T1112 1483V541ZM817 1776Q817 1697 760 1641T626 1585Q550 1585 493 1642T436 1776Q436 1854 492 1910T626 1966Q705 1966 761 1911T817 1776ZM745 1776Q745 1826 711 1860T626 1894Q577 1894 544 1860T510 1776Q510 1726 543 1692T626 1657Q677 1657 711 1691T745 1776Z"  />
<glyph unicode="&#x16F;" horiz-adv-x="1026" d="M123 1061Q123 1077 134 1088T162 1100H176Q192 1100 202 1089T213 1061V381Q213 209 283 140T514 70Q575 70 672 82T813 104V1061Q813 1076 825 1088T852 1100H864Q879 1100 891 1089T903 1061V78Q903 45 866 37Q792 18 684 4T510 -10Q319 -10 221 82T123 381V1061ZM703 1430Q703 1351 646 1295T512 1239Q436 1239 379 1296T322 1430Q322 1508 378 1564T512 1620Q591 1620 647 1565T703 1430ZM631 1430Q631 1480 597 1514T512 1548Q463 1548 430 1514T396 1430Q396 1380 429 1346T512 1311Q563 1311 597 1345T631 1430Z"  />
<glyph unicode="&#x170;" horiz-adv-x="1255" d="M1112 541Q1112 274 993 131T629 -12Q385 -12 264 131T143 541V1483Q143 1498 153 1510T178 1522H199Q214 1522 223 1511T233 1483V541Q233 389 273 285T401 127T629 72Q836 72 929 191T1022 541V1483Q1022 1498 1032 1510T1057 1522H1077Q1092 1522 1102 1511T1112 1483V541ZM1036 1940Q1036 1932 1028 1924L809 1661Q796 1645 787 1636T764 1627H719Q700 1627 700 1641Q700 1653 708 1661L913 1924Q939 1954 960 1954H1014Q1036 1954 1036 1940ZM749 1940Q749 1932 741 1924L522 1661Q504 1639 498 1633T477 1627H432Q414 1627 414 1641Q414 1653 422 1661L627 1924Q652 1954 674 1954H727Q749 1954 749 1940Z"  />
<glyph unicode="&#x171;" horiz-adv-x="1026" d="M123 1061Q123 1077 134 1088T162 1100H176Q192 1100 202 1089T213 1061V381Q213 209 283 140T514 70Q575 70 672 82T813 104V1061Q813 1076 825 1088T852 1100H864Q879 1100 891 1089T903 1061V78Q903 45 866 37Q792 18 684 4T510 -10Q319 -10 221 82T123 381V1061ZM948 1579Q948 1571 940 1563L721 1300Q708 1284 699 1275T676 1266H631Q612 1266 612 1280Q612 1292 620 1300L825 1563Q851 1593 872 1593H926Q948 1593 948 1579ZM661 1579Q661 1571 653 1563L434 1300Q416 1278 410 1272T389 1266H344Q326 1266 326 1280Q326 1292 334 1300L539 1563Q564 1593 586 1593H639Q661 1593 661 1579Z"  />
<glyph unicode="&#x172;" horiz-adv-x="1255" d="M852 -348Q852 -366 829 -371Q811 -377 765 -388T653 -399Q582 -399 535 -383T459 -342T420 -286T408 -225Q408 -189 418 -162T450 -112T503 -68T580 -20L594 -10Q478 -6 393 34T253 145T170 316T143 541V1483Q143 1498 153 1510T178 1522H199Q214 1522 223 1510T233 1483V541Q233 430 254 343T323 195T446 104T629 72Q736 72 811 103T933 195T1001 342T1022 541V1483Q1022 1498 1031 1510T1057 1522H1077Q1093 1522 1102 1510T1112 1483V541Q1112 428 1091 336T1025 174T914 61T754 -2L643 -63Q595 -90 564 -110T515 -148T489 -183T481 -223Q481 -283 528 -307T653 -332Q678 -332 703 -329T751 -323T793 -315T825 -307Q830 -305 834 -304T842 -303Q852 -303 852 -317V-348Z"  />
<glyph unicode="&#x173;" horiz-adv-x="1026" d="M909 -348Q909 -366 887 -371Q868 -377 822 -388T711 -399Q639 -399 592 -383T517 -342T477 -286T465 -225Q465 -189 475 -162T507 -112T560 -68T637 -20L676 2Q631 -4 588 -7T510 -10Q418 -10 346 11T225 78T149 199T123 381V1061Q123 1076 134 1088T162 1100H176Q192 1100 202 1088T213 1061V381Q213 293 230 234T285 138T379 86T514 70Q545 70 587 73T671 82T751 93T813 104V1061Q813 1076 824 1088T852 1100H864Q880 1100 891 1088T903 1061V78Q903 64 899 55T883 39L700 -63Q652 -90 621 -110T572 -148T547 -183T539 -223Q539 -283 585 -307T711 -332Q736 -332 761 -329T809 -323T851 -315T883 -307Q888 -305 892 -304T899 -303Q909 -303 909 -317V-348Z"  />
<glyph unicode="&#x178;" horiz-adv-x="1087" d="M1014 1493Q1014 1483 1008 1466L684 752Q639 653 588 633V39Q588 24 578 12T553 0H532Q518 0 508 12T498 39V633Q447 653 401 752L78 1466Q72 1483 72 1493Q72 1522 106 1522H127Q136 1522 145 1514T160 1497L481 780Q503 734 514 722T543 709Q561 709 572 722T604 780L926 1497Q939 1522 958 1522H979Q1014 1522 1014 1493ZM739 1686Q739 1669 728 1658T700 1647H688Q672 1647 661 1658T649 1686V1837Q649 1852 660 1864T688 1876H700Q717 1876 728 1865T739 1837V1686ZM432 1686Q432 1670 421 1659T393 1647H381Q365 1647 354 1658T342 1686V1837Q342 1852 353 1864T381 1876H393Q410 1876 421 1864T432 1837V1686Z"  />
<glyph unicode="&#x179;" horiz-adv-x="1178" d="M1075 33Q1075 17 1063 9T1032 0H229Q119 0 119 88Q119 128 141 162L918 1411Q922 1417 922 1425Q922 1438 905 1438H164Q121 1438 121 1468V1489Q121 1503 134 1512T164 1522H905Q965 1522 989 1505Q1024 1485 1024 1440Q1024 1406 1001 1370L219 106Q215 98 215 92Q215 84 229 84H1032Q1075 84 1075 53V33ZM858 1940Q858 1932 850 1924L631 1661Q618 1645 609 1636T586 1627H541Q522 1627 522 1641Q522 1653 530 1661L735 1924Q761 1954 782 1954H836Q858 1954 858 1940Z"  />
<glyph unicode="&#x17A;" horiz-adv-x="872" d="M811 33Q811 17 800 9T770 0H176Q119 0 90 24T61 84Q61 127 86 160L698 977Q707 991 707 997Q707 1016 678 1016H139Q98 1016 98 1047V1067Q98 1081 110 1090T139 1100H680Q728 1100 761 1076T795 1012Q795 963 762 920L168 123Q156 103 156 98Q156 84 176 84H770Q811 84 811 53V33ZM743 1579Q743 1571 735 1563L516 1300Q503 1284 494 1275T471 1266H426Q407 1266 407 1280Q407 1292 415 1300L620 1563Q646 1593 667 1593H721Q743 1593 743 1579Z"  />
<glyph unicode="&#x17B;" horiz-adv-x="1178" d="M1075 33Q1075 17 1063 9T1032 0H229Q119 0 119 88Q119 128 141 162L918 1411Q922 1417 922 1425Q922 1438 905 1438H164Q121 1438 121 1468V1489Q121 1503 134 1512T164 1522H905Q965 1522 989 1505Q1024 1485 1024 1440Q1024 1406 1001 1370L219 106Q215 98 215 92Q215 84 229 84H1032Q1075 84 1075 53V33ZM633 1704Q633 1687 622 1676T595 1665H582Q566 1665 555 1676T543 1704V1855Q543 1870 554 1882T582 1894H595Q612 1894 622 1883T633 1855V1704Z"  />
<glyph unicode="&#x17C;" horiz-adv-x="872" d="M811 33Q811 17 800 9T770 0H176Q119 0 90 24T61 84Q61 127 86 160L698 977Q707 991 707 997Q707 1016 678 1016H139Q98 1016 98 1047V1067Q98 1081 110 1090T139 1100H680Q728 1100 761 1076T795 1012Q795 963 762 920L168 123Q156 103 156 98Q156 84 176 84H770Q811 84 811 53V33ZM510 1352Q510 1335 499 1324T472 1313H459Q443 1313 432 1324T420 1352V1503Q420 1518 431 1530T459 1542H472Q489 1542 499 1531T510 1503V1352Z"  />
<glyph unicode="&#x17D;" horiz-adv-x="1178" d="M1075 33Q1075 17 1063 9T1032 0H229Q119 0 119 88Q119 128 141 162L918 1411Q922 1417 922 1425Q922 1438 905 1438H164Q121 1438 121 1468V1489Q121 1503 134 1512T164 1522H905Q965 1522 989 1505Q1024 1485 1024 1440Q1024 1406 1001 1370L219 106Q215 98 215 92Q215 84 229 84H1032Q1075 84 1075 53V33ZM881 1940Q881 1928 873 1920L669 1657Q656 1641 646 1634T621 1627H539Q525 1627 517 1632T492 1657L288 1920Q279 1928 279 1940Q279 1954 298 1954H343Q357 1954 364 1948T388 1920L580 1688L773 1920Q791 1942 797 1948T818 1954H863Q881 1954 881 1940Z"  />
<glyph unicode="&#x17E;" horiz-adv-x="872" d="M811 33Q811 17 800 9T770 0H176Q119 0 90 24T61 84Q61 127 86 160L698 977Q707 991 707 997Q707 1016 678 1016H139Q98 1016 98 1047V1067Q98 1081 110 1090T139 1100H680Q728 1100 761 1076T795 1012Q795 963 762 920L168 123Q156 103 156 98Q156 84 176 84H770Q811 84 811 53V33ZM756 1579Q756 1567 748 1559L544 1296Q531 1280 521 1273T496 1266H414Q400 1266 392 1271T367 1296L163 1559Q154 1567 154 1579Q154 1593 173 1593H218Q232 1593 239 1587T263 1559L455 1327L648 1559Q666 1581 672 1587T693 1593H738Q756 1593 756 1579Z"  />
<glyph unicode="&#x192;" horiz-adv-x="1147" d="M1022 1499V1493L1020 1479Q1017 1452 973 1452H870Q819 1452 788 1437T736 1386T709 1290L647 844H952Q985 844 985 813V809L983 791Q981 775 969 766T940 756H635L528 -12Q511 -140 444 -197T264 -254Q199 -254 160 -248Q125 -243 125 -221V-215L127 -201Q130 -174 174 -174H276Q327 -174 359 -159T411 -108T438 -12L545 756H281Q246 756 246 786V791L248 809Q250 820 255 827T271 839T293 844H557L618 1290Q652 1532 883 1532Q948 1532 987 1526Q1022 1521 1022 1499Z"  />
<glyph unicode="&#x218;" horiz-adv-x="1044" d="M973 379Q973 309 953 241T883 116T742 24T516 -12Q403 -12 303 13T129 72Q119 77 110 82T96 96T92 115V143Q92 156 101 164T131 162Q328 74 516 74Q654 74 734 113T847 220T879 379Q879 452 849 502T759 596T563 725L434 805Q324 873 258 926T153 1046T113 1200Q113 1380 238 1456T532 1532Q602 1532 678 1519T812 1488T897 1456Q920 1446 926 1439T932 1415V1393Q932 1354 893 1370Q857 1386 804 1402T678 1432T532 1446Q205 1446 205 1198Q205 1135 235 1086T319 994T481 885L612 805Q735 732 813 671T932 539T973 379ZM574 -113Q582 -113 590 -117T598 -133Q598 -136 598 -141T594 -152L479 -360Q470 -379 460 -389T430 -399H412Q403 -399 398 -394T393 -381Q393 -378 393 -374T396 -367L484 -152Q492 -132 500 -123T525 -113H574Z"  />
<glyph unicode="&#x219;" horiz-adv-x="860" d="M778 272Q778 120 682 54T424 -12Q353 -12 267 5T127 43Q96 57 89 64T82 90V98Q82 120 93 125T129 123Q206 96 279 81T428 66Q552 66 620 111T688 272Q688 335 644 380T471 496L340 567Q250 617 200 655T121 742T92 858Q92 949 135 1005T251 1085T414 1110Q498 1110 577 1094T711 1057Q730 1050 735 1044T741 1020V1008Q741 967 698 981Q644 998 568 1014T414 1030Q301 1030 242 995T182 858Q182 795 229 750T381 645L518 569Q660 491 719 430T778 272ZM478 -113Q486 -113 494 -117T502 -133Q502 -136 502 -141T498 -152L383 -360Q374 -379 364 -389T334 -399H316Q307 -399 302 -394T297 -381Q297 -378 297 -374T300 -367L388 -152Q396 -132 404 -123T429 -113H478Z"  />
<glyph unicode="&#x21A;" horiz-adv-x="1128" d="M1087 1468Q1087 1453 1077 1446T1049 1438H610V39Q610 23 601 12T575 0H555Q540 0 530 11T520 39V1438H80Q63 1438 52 1445T41 1468V1487Q41 1502 52 1512T80 1522H1049Q1066 1522 1076 1512T1087 1487V1468ZM600 -113Q608 -113 616 -117T625 -133Q625 -136 625 -141T621 -152L506 -360Q497 -379 487 -389T457 -399H438Q429 -399 425 -394T420 -381Q420 -378 420 -374T422 -367L510 -152Q518 -132 526 -123T551 -113H600Z"  />
<glyph unicode="&#x21B;" horiz-adv-x="737" d="M676 27Q676 14 670 6T641 -6Q618 -9 590 -10T535 -12Q480 -12 437 -2T364 32T319 100T303 209V1016H100Q83 1016 72 1024T61 1049V1069Q61 1085 72 1092T100 1100H303V1311Q303 1326 312 1338T338 1350H360Q376 1350 384 1338T393 1311V1100H637Q654 1100 665 1093T676 1069V1049Q676 1033 665 1025T637 1016H393V209Q393 163 402 135T430 92T474 73T535 68H633Q656 68 666 61T676 39V27ZM446 -113Q454 -113 462 -117T471 -133Q471 -136 471 -141T467 -152L352 -360Q343 -379 333 -389T303 -399H285Q275 -399 271 -394T266 -381Q266 -378 266 -374T268 -367L356 -152Q364 -132 373 -123T397 -113H446Z"  />
<glyph unicode="&#x2C6;" horiz-adv-x="635" d="M618 1280Q618 1266 600 1266H555Q541 1266 534 1272T510 1300L317 1532L125 1300Q112 1284 103 1275T80 1266H35Q16 1266 16 1280Q16 1292 25 1300L229 1563Q255 1593 276 1593H358Q380 1593 406 1563L610 1300Q618 1292 618 1280Z"  />
<glyph unicode="&#x2C7;" horiz-adv-x="635" d="M618 1579Q618 1567 610 1559L406 1296Q393 1280 383 1273T358 1266H276Q262 1266 254 1271T229 1296L25 1559Q16 1567 16 1579Q16 1593 35 1593H80Q94 1593 101 1587T125 1559L317 1327L510 1559Q528 1581 534 1587T555 1593H600Q618 1593 618 1579Z"  />
<glyph unicode="&#x2C9;" horiz-adv-x="635" d="M631 1442Q631 1409 590 1409H45Q4 1409 4 1442V1464Q4 1495 45 1495H590Q631 1495 631 1464V1442Z"  />
<glyph unicode="&#x2D8;" horiz-adv-x="635" d="M610 1559Q610 1475 571 1409T465 1304T317 1266Q239 1266 171 1304T64 1408T25 1559Q25 1593 49 1593H90Q105 1593 109 1588T113 1559Q113 1443 179 1397T317 1350Q390 1350 456 1396T522 1559Q522 1580 526 1586T545 1593H586Q610 1593 610 1559Z"  />
<glyph unicode="&#x2D9;" horiz-adv-x="635" d="M362 1352Q362 1335 351 1324T324 1313H311Q295 1313 284 1324T272 1352V1503Q272 1518 283 1530T311 1542H324Q341 1542 351 1531T362 1503V1352Z"  />
<glyph unicode="&#x2DA;" horiz-adv-x="635" d="M508 1430Q508 1351 451 1295T317 1239Q241 1239 184 1296T127 1430Q127 1508 183 1564T317 1620Q396 1620 452 1565T508 1430ZM436 1430Q436 1480 402 1514T317 1548Q268 1548 235 1514T201 1430Q201 1380 234 1346T317 1311Q368 1311 402 1345T436 1430Z"  />
<glyph unicode="&#x2DB;" horiz-adv-x="635" d="M547 -348Q547 -366 524 -371Q440 -399 362 -399Q233 -399 177 -324T121 -129Q121 -53 152 57Q154 69 159 72T178 76H211Q229 76 229 66Q229 57 227 51Q205 -61 205 -129Q205 -218 240 -271T362 -324Q418 -324 520 -299Q532 -295 537 -295Q547 -295 547 -309V-348Z"  />
<glyph unicode="&#x2DC;" horiz-adv-x="965" d="M797 1473Q797 1381 755 1334T637 1286Q557 1286 500 1339L401 1436Q371 1466 352 1479T303 1493Q219 1493 219 1384V1331Q219 1298 199 1298H164Q141 1298 141 1331V1384Q141 1475 184 1523T303 1571Q381 1571 438 1518L537 1421Q594 1364 637 1364Q719 1364 719 1473V1526Q719 1559 739 1559H774Q797 1559 797 1526V1473Z"  />
<glyph unicode="&#x2DD;" horiz-adv-x="635" d="M731 1579Q731 1571 723 1563L504 1300Q491 1284 482 1275T459 1266H414Q395 1266 395 1280Q395 1292 403 1300L608 1563Q634 1593 655 1593H709Q731 1593 731 1579ZM444 1579Q444 1571 436 1563L217 1300Q199 1278 193 1272T172 1266H127Q109 1266 109 1280Q109 1292 117 1300L322 1563Q347 1593 369 1593H422Q444 1593 444 1579Z"  />
<glyph unicode="&#x3C0;" horiz-adv-x="1083" d="M1061 1032H920V274Q920 182 924 144T947 88T1012 70H1059Q1108 70 1108 37V31Q1108 6 1079 -2T991 -10Q933 -10 900 11T851 71T832 153T829 274V1032H270V39Q270 0 231 0H219Q180 0 180 39V1032H39Q0 1032 0 1071V1081Q0 1120 39 1120H1061Q1100 1120 1100 1081V1071Q1100 1032 1061 1032Z"  />
<glyph unicode="&#x401;" horiz-adv-x="1051" d="M958 35Q958 19 948 10T920 0H391Q310 0 256 22T172 94T143 229V1292Q143 1377 172 1427T256 1500T391 1522H920Q937 1522 947 1513T958 1487V1470Q958 1455 948 1447T920 1438H391Q310 1438 272 1409T233 1292V842H920Q938 842 948 833T958 809V788Q958 773 948 764T920 754H233V229Q233 140 271 112T391 84H920Q938 84 948 76T958 51V35ZM760 1704Q760 1687 749 1676T721 1665H709Q693 1665 682 1676T670 1704V1855Q670 1870 681 1882T709 1894H721Q738 1894 749 1883T760 1855V1704ZM453 1704Q453 1688 442 1677T414 1665H402Q386 1665 375 1676T363 1704V1855Q363 1870 374 1882T402 1894H414Q431 1894 442 1882T453 1855V1704Z"  />
<glyph unicode="&#x402;" horiz-adv-x="1625" d="M1049 66Q1133 66 1201 82T1317 141T1391 256T1418 442V469Q1418 540 1402 592T1358 682T1293 742T1212 778T1123 796T1031 801Q991 801 937 797T826 786T712 768T611 743V39Q611 23 601 12T576 0H555Q540 0 531 11T521 39V1438H80Q63 1438 52 1445T41 1468V1487Q41 1502 52 1512T80 1522H1049Q1066 1522 1077 1512T1088 1487V1468Q1088 1453 1077 1446T1049 1438H611V825Q667 843 724 855T837 875T942 886T1033 889Q1130 889 1217 869T1369 800T1472 671T1510 469V442Q1510 305 1475 217T1379 78T1233 6T1049 -14H1020Q1003 -14 991 -9T979 14V35Q979 52 991 59T1020 66H1049Z"  />
<glyph unicode="&#x403;" horiz-adv-x="990" d="M234 39Q234 23 225 12T199 0H179Q163 0 154 11T144 39V1292Q144 1356 161 1400T209 1471T287 1510T392 1522H920Q937 1522 948 1512T959 1487V1470Q959 1455 948 1447T920 1438H392Q355 1438 326 1433T276 1413T245 1369T234 1292V39ZM842 1939Q842 1931 834 1923L615 1661Q601 1644 593 1635T570 1626H525Q506 1626 506 1640Q506 1653 515 1661L719 1923Q733 1940 742 1947T766 1954H820Q842 1954 842 1939Z"  />
<glyph unicode="&#x404;" horiz-adv-x="1074" d="M220 745V655Q220 476 253 363T343 184T476 95T637 70Q679 70 714 74T781 85T842 102T901 123Q914 128 925 131T943 135Q959 135 965 126T971 97V91Q971 68 961 62T935 48Q883 25 808 6T639 -14Q574 -14 512 -3T393 37T288 114T205 237T150 415T130 655V856Q130 993 150 1096T205 1273T288 1395T392 1471T511 1511T639 1522Q682 1522 724 1517T803 1504T873 1485T930 1463Q947 1455 959 1447T971 1416V1410Q971 1388 964 1381T944 1373Q930 1373 900 1385T828 1410Q786 1423 738 1430T646 1438Q587 1438 533 1428T431 1393T345 1326T278 1219T235 1065T220 856V834H842Q859 834 870 825T881 801V780Q881 765 870 755T842 745H220Z"  />
<glyph unicode="&#x405;" horiz-adv-x="1044" d="M973 379Q973 309 953 241T883 116T742 24T516 -12Q403 -12 303 13T129 72Q119 77 110 82T96 96T92 115V143Q92 156 101 164T131 162Q328 74 516 74Q654 74 734 113T847 220T879 379Q879 452 849 502T759 596T563 725L434 805Q324 873 258 926T153 1046T113 1200Q113 1380 238 1456T532 1532Q602 1532 678 1519T812 1488T897 1456Q920 1446 926 1439T932 1415V1393Q932 1354 893 1370Q857 1386 804 1402T678 1432T532 1446Q205 1446 205 1198Q205 1135 235 1086T319 994T481 885L612 805Q735 732 813 671T932 539T973 379Z"  />
<glyph unicode="&#x406;" horiz-adv-x="418" d="M254 39Q254 22 244 11T219 0H199Q184 0 174 12T164 39V1483Q164 1498 174 1510T199 1522H219Q234 1522 244 1511T254 1483V39Z"  />
<glyph unicode="&#x407;" horiz-adv-x="418" d="M254 39Q254 22 244 11T219 0H199Q184 0 174 12T164 39V1483Q164 1498 174 1510T199 1522H219Q234 1522 244 1511T254 1483V39ZM407 1706Q407 1689 396 1678T368 1667H356Q340 1667 329 1678T317 1706V1857Q317 1872 328 1884T356 1896H368Q385 1896 396 1885T407 1857V1706ZM100 1706Q100 1690 89 1679T61 1667H49Q33 1667 22 1678T10 1706V1857Q10 1872 21 1884T49 1896H61Q78 1896 89 1884T100 1857V1706Z"  />
<glyph unicode="&#x408;" horiz-adv-x="418" d="M254 -123Q254 -220 227 -280T135 -370T-41 -399H-70Q-111 -399 -111 -371V-350Q-111 -319 -70 -319H-41Q45 -319 88 -304T147 -247T164 -123V1483Q164 1498 174 1510T199 1522H219Q234 1522 244 1511T254 1483V-123Z"  />
<glyph unicode="&#x409;" horiz-adv-x="1959" d="M615 1438Q592 1438 583 1428T568 1401L150 10Q147 1 138 -7T117 -16H91Q75 -16 68 -7T60 16Q60 21 60 25T62 35L482 1421Q496 1468 530 1495T615 1522H979Q1004 1522 1016 1509T1029 1477V864Q1089 870 1154 873T1285 877Q1349 877 1416 871T1547 846T1667 798T1765 719T1831 604T1856 446V416Q1856 325 1832 258T1765 143T1667 65T1548 17T1417 -7T1285 -14Q1204 -14 1126 -10T977 2Q938 5 938 41V1438H615ZM1029 80Q1062 78 1092 76T1152 72T1214 69T1285 68Q1377 68 1463 80T1617 130T1725 236T1766 416V446Q1766 557 1726 625T1618 731T1464 782T1285 795Q1247 795 1215 794T1152 791T1092 787T1029 782V80Z"  />
<glyph unicode="&#x40A;" horiz-adv-x="2055" d="M1141 864Q1201 870 1266 873T1397 877Q1461 877 1528 871T1660 846T1780 798T1878 719T1944 604T1969 446V416Q1969 325 1945 258T1878 143T1780 65T1660 17T1529 -7T1397 -14Q1317 -14 1237 -10T1088 2Q1071 2 1062 13T1053 41V772H234V39Q234 23 225 12T199 0H179Q163 0 154 11T144 39V1483Q144 1498 153 1510T179 1522H199Q215 1522 224 1510T234 1483V856H1053V1483Q1053 1498 1062 1510T1088 1522H1106Q1123 1522 1132 1510T1141 1483V864ZM1141 80Q1174 78 1204 76T1264 72T1327 69T1397 68Q1458 68 1518 73T1631 92T1729 130T1808 193T1859 287T1878 416V446Q1878 557 1838 625T1730 731T1576 782T1397 795Q1359 795 1327 794T1265 791T1204 787T1141 782V80Z"  />
<glyph unicode="&#x40B;" horiz-adv-x="1547" d="M611 39Q611 23 601 12T576 0H555Q540 0 531 11T521 39V1438H80Q63 1438 52 1445T41 1468V1487Q41 1502 52 1512T80 1522H1049Q1066 1522 1077 1512T1088 1487V1468Q1088 1453 1077 1446T1049 1438H611V903Q643 918 688 933T786 960T894 979T1002 987Q1100 987 1178 968T1311 904T1395 784T1424 596V39Q1424 23 1413 12T1385 0H1371Q1355 0 1345 11T1334 39V596Q1334 689 1314 749T1253 844T1147 893T996 907Q947 907 895 901T793 884T696 857T611 823V39Z"  />
<glyph unicode="&#x40C;" horiz-adv-x="1070" d="M1029 29Q1029 15 1019 6T990 -4Q979 -4 966 -1T943 12L234 750V39Q234 23 225 12T199 0H179Q163 0 154 11T144 39V1483Q144 1498 155 1510T183 1522H195Q211 1522 222 1510T234 1483V827L930 1507Q946 1521 957 1525T977 1530Q994 1530 1005 1519T1016 1495Q1016 1486 1012 1476T1000 1458L312 791L1014 61Q1029 46 1029 29ZM822 1939Q822 1931 814 1923L594 1661Q580 1644 573 1635T549 1626H504Q486 1626 486 1640Q486 1653 494 1661L699 1923Q713 1940 721 1947T746 1954H799Q822 1954 822 1939Z"  />
<glyph unicode="&#x40E;" horiz-adv-x="1164" d="M1035 1520Q1078 1520 1059 1468L615 270Q585 190 555 136T487 48T397 1T275 -14Q240 -14 208 -11T148 -2Q123 2 115 8T107 35V47Q107 70 120 75T150 78Q162 76 180 74T216 71T250 68T277 66Q335 66 373 76T438 112T486 181T531 289L615 522H590Q566 522 548 526T515 542T488 577T465 637L138 1470Q127 1498 139 1509T170 1520H185Q205 1520 211 1511T222 1491L549 651Q559 619 571 613T596 606H648L975 1493Q980 1507 989 1513T1016 1520H1035ZM893 1919Q893 1855 871 1802T809 1709T716 1648T601 1626Q539 1626 486 1648T393 1709T331 1801T308 1919Q308 1936 312 1945T332 1954H373Q389 1954 392 1948T396 1919Q396 1854 418 1813T472 1749T539 1718T601 1710Q627 1710 662 1718T729 1749T783 1813T805 1919Q805 1941 808 1947T828 1954H869Q884 1954 888 1945T893 1919Z"  />
<glyph unicode="&#x40F;" horiz-adv-x="1285" d="M1053 1483Q1053 1498 1062 1510T1088 1522H1108Q1125 1522 1134 1510T1143 1483V205Q1143 138 1124 98T1073 36T1004 7T926 0H687V-233Q687 -249 678 -260T652 -272H633Q616 -272 607 -261T598 -233V0H357Q318 0 280 7T212 35T163 97T144 205V1483Q144 1498 153 1510T179 1522H199Q215 1522 224 1510T234 1483V205Q234 174 240 152T260 114T298 92T357 84H928Q999 84 1026 113T1053 205V1483Z"  />
<glyph unicode="&#x410;" horiz-adv-x="1227" d="M1169 25Q1169 -6 1137 -6H1112Q1086 -6 1079 20L907 575H317L150 20Q139 -6 117 -6H90Q59 -6 59 27Q59 39 61 45L481 1432Q497 1480 531 1506T614 1532Q663 1532 697 1507T745 1434L1165 45Q1169 33 1169 25ZM885 666L662 1409Q648 1450 614 1450Q577 1450 567 1411L342 666H885Z"  />
<glyph unicode="&#x411;" horiz-adv-x="1148" d="M179 1522H900Q917 1522 927 1512T938 1487V1470Q938 1455 928 1447T900 1438H234V864Q294 870 359 873T490 877Q554 877 621 871T752 846T872 798T970 719T1036 604T1061 446V416Q1061 325 1037 258T970 143T872 65T753 17T622 -7T490 -14Q409 -14 331 -10T183 2Q144 5 144 41V1483Q144 1498 151 1510T179 1522ZM234 80Q267 78 297 76T357 72T420 69T490 68Q551 68 611 73T724 92T822 130T901 193T952 287T971 416V446Q971 557 931 625T823 731T669 782T490 795Q452 795 420 794T358 791T297 787T234 782V80Z"  />
<glyph unicode="&#x412;" horiz-adv-x="1147" d="M1061 416Q1061 -14 489 -14Q329 -14 182 2Q143 5 143 41V1481Q143 1495 154 1506T182 1520Q350 1532 489 1532Q740 1532 896 1451T1053 1161V1139Q1053 1013 990 927T809 799Q929 764 995 675T1061 451V416ZM963 1139V1161Q963 1332 835 1392T489 1452Q420 1452 342 1449T233 1444V844H604Q803 844 883 925T963 1139ZM971 416V451Q971 587 888 671T604 756H233V80Q411 68 489 68Q627 68 733 95T905 199T971 416Z"  />
<glyph unicode="&#x413;" horiz-adv-x="990" d="M234 39Q234 23 225 12T199 0H179Q163 0 154 11T144 39V1292Q144 1356 161 1400T209 1471T287 1510T392 1522H920Q937 1522 948 1512T959 1487V1470Q959 1455 948 1447T920 1438H392Q355 1438 326 1433T276 1413T245 1369T234 1292V39Z"  />
<glyph unicode="&#x414;" horiz-adv-x="1334" d="M41 47Q41 67 49 75T74 84H123L531 1432Q545 1478 579 1505T664 1532Q714 1532 747 1506T795 1434L1203 84H1258Q1278 84 1285 76T1293 45V-205Q1293 -220 1283 -232T1258 -244H1237Q1222 -244 1213 -232T1203 -205V0H132V-205Q132 -220 122 -232T97 -244H76Q61 -244 51 -232T41 -205V47ZM220 84H1108L711 1409Q706 1425 696 1437T664 1450Q641 1450 632 1439T617 1411L220 84Z"  />
<glyph unicode="&#x415;" horiz-adv-x="1051" d="M958 35Q958 19 948 10T920 0H391Q310 0 256 22T172 94T143 229V1292Q143 1377 172 1427T256 1500T391 1522H920Q937 1522 947 1513T958 1487V1470Q958 1455 948 1447T920 1438H391Q310 1438 272 1409T233 1292V842H920Q938 842 948 833T958 809V788Q958 773 948 764T920 754H233V229Q233 140 271 112T391 84H920Q938 84 948 76T958 51V35Z"  />
<glyph unicode="&#x416;" horiz-adv-x="1762" d="M836 1483Q836 1498 847 1510T875 1522H887Q903 1522 914 1510T926 1483V827L1622 1507Q1638 1521 1649 1525T1670 1530Q1687 1530 1698 1519T1709 1495Q1709 1475 1692 1458L1004 791L1706 61Q1714 53 1717 45T1721 29Q1721 15 1711 6T1682 -4Q1671 -4 1658 -1T1635 12L926 750V39Q926 23 917 12T891 0H871Q855 0 846 11T836 39V750L127 12Q118 3 105 0T80 -4Q62 -4 52 5T41 29Q41 46 56 61L758 791L70 1458Q62 1466 58 1476T54 1495Q54 1507 65 1518T93 1530Q102 1530 113 1526T140 1507L836 827V1483Z"  />
<glyph unicode="&#x417;" horiz-adv-x="1147" d="M549 -12Q445 -12 345 8T190 53Q166 65 159 72T152 98V117Q152 158 201 141Q394 74 530 74Q718 74 808 159T899 422V463Q899 592 827 674T608 756H225Q208 756 197 766T186 793V807Q186 823 197 833T225 844H608Q754 844 826 927T899 1133V1157Q899 1263 862 1326T755 1416T584 1444Q429 1444 201 1374Q152 1358 152 1399V1413Q152 1432 160 1441T190 1458Q393 1530 584 1530Q703 1530 796 1493T942 1372T995 1157V1133Q995 899 793 797Q888 758 941 671T995 463V422Q995 281 938 183T780 36T549 -12Z"  />
<glyph unicode="&#x418;" horiz-adv-x="1293" d="M144 92V1483Q144 1498 153 1510T179 1522H203Q219 1522 227 1510T236 1483V92Q236 86 238 80T246 74Q256 74 263 88L951 1468Q965 1497 985 1514T1049 1532Q1094 1532 1121 1505T1149 1432V39Q1149 23 1140 12T1115 0H1094Q1079 0 1069 11T1059 39V1432Q1059 1440 1056 1443T1049 1446Q1043 1446 1040 1442T1033 1432L342 49Q334 34 325 22T306 2Q292 -9 277 -10T238 -12H236Q198 -12 171 15T144 92Z"  />
<glyph unicode="&#x419;" horiz-adv-x="1293" d="M924 1917Q924 1853 902 1800T839 1707T746 1646T631 1624Q569 1624 516 1646T423 1707T361 1799T338 1917Q338 1934 342 1943T363 1952H404Q419 1952 422 1946T426 1917Q426 1852 448 1811T503 1747T570 1716T631 1708Q657 1708 692 1716T760 1747T814 1811T836 1917Q836 1939 839 1945T859 1952H900Q915 1952 919 1943T924 1917ZM144 92V1483Q144 1498 153 1510T179 1522H203Q219 1522 227 1510T236 1483V92Q236 86 238 80T246 74Q256 74 263 88L951 1468Q965 1497 985 1514T1049 1532Q1094 1532 1121 1505T1149 1432V39Q1149 23 1140 12T1115 0H1094Q1079 0 1069 11T1059 39V1432Q1059 1440 1056 1443T1049 1446Q1043 1446 1040 1442T1033 1432L342 49Q334 34 325 22T306 2Q292 -9 277 -10T238 -12H236Q198 -12 171 15T144 92Z"  />
<glyph unicode="&#x41A;" horiz-adv-x="1069" d="M1028 29Q1028 -4 989 -4Q958 -4 942 12L233 750V39Q233 23 224 12T199 0H178Q163 0 153 12T143 39V1483Q143 1498 155 1510T182 1522H195Q210 1522 221 1511T233 1483V827L930 1507Q954 1530 977 1530Q993 1530 1004 1520T1016 1495Q1016 1473 999 1458L311 791L1014 61Q1028 47 1028 29Z"  />
<glyph unicode="&#x41B;" horiz-adv-x="1228" d="M662 1409Q657 1425 647 1437T615 1450Q592 1450 583 1439T568 1411L150 20Q147 11 138 3T117 -6H91Q75 -6 68 3T60 27Q60 32 60 36T62 45L482 1432Q496 1478 530 1505T615 1532Q664 1532 698 1506T746 1434L1166 45Q1168 40 1169 35T1170 25Q1170 -6 1137 -6H1113Q1100 -6 1092 1T1080 20L662 1409Z"  />
<glyph unicode="&#x41C;" horiz-adv-x="1475" d="M1321 39Q1321 23 1312 12T1286 0H1266Q1250 0 1241 11T1231 39V1432Q1231 1446 1217 1446Q1209 1446 1205 1442T1196 1427L842 680Q820 636 796 621T738 606Q703 606 679 621T633 680L279 1427Q274 1438 270 1442T258 1446Q244 1446 244 1432V39Q244 23 235 12T209 0H189Q173 0 164 11T154 39V1432Q154 1483 182 1507T258 1532Q295 1532 317 1513T352 1468L711 717Q717 703 722 697T738 690Q747 690 752 696T764 717L1123 1468Q1135 1494 1157 1513T1217 1532Q1265 1532 1293 1508T1321 1432V39H1321Z"  />
<glyph unicode="&#x41D;" horiz-adv-x="1284" d="M1141 39Q1141 0 1106 0H1087Q1053 0 1053 39V772H233V39Q233 23 224 12T199 0H178Q163 0 153 12T143 39V1483Q143 1498 153 1510T178 1522H199Q214 1522 223 1511T233 1483V856H1053V1483Q1053 1522 1087 1522H1106Q1122 1522 1131 1511T1141 1483V39Z"  />
<glyph unicode="&#x41E;" horiz-adv-x="1253" d="M1151 633Q1151 411 1085 267T901 56T627 -12Q471 -12 353 55T168 267T102 633V887Q102 1052 140 1176T249 1379T415 1495T627 1532Q745 1532 840 1495T1005 1379T1113 1176T1151 887V633ZM1061 633V887Q1061 1038 1029 1147T938 1322T802 1417T627 1446Q193 1446 193 887V633Q193 74 627 74Q722 74 801 103T939 199T1029 374T1061 633Z"  />
<glyph unicode="&#x41F;" horiz-adv-x="1285" d="M1053 1317Q1053 1379 1026 1408T928 1438H357Q322 1438 298 1431T260 1408T240 1371T234 1317V39Q234 23 225 12T199 0H179Q163 0 154 11T144 39V1317Q144 1384 163 1424T212 1486T280 1515T357 1522H926Q965 1522 1003 1515T1073 1486T1123 1424T1143 1317V39Q1143 23 1134 12T1108 0H1088Q1071 0 1062 11T1053 39V1317Z"  />
<glyph unicode="&#x420;" horiz-adv-x="1065" d="M1014 1081Q1014 848 872 746T457 643Q349 643 233 651V39Q233 23 224 12T199 0H178Q163 0 153 12T143 39V1483Q143 1497 153 1508T178 1522Q285 1528 335 1530T457 1532Q1014 1532 1014 1116V1081ZM924 1081V1116Q924 1301 810 1376T457 1452Q323 1452 233 1446V731Q361 723 457 723Q580 723 665 743T809 806T896 915T924 1081Z"  />
<glyph unicode="&#x421;" horiz-adv-x="1059" d="M604 -12Q501 -12 413 20T254 127T143 326T102 625V895Q102 1070 142 1194T254 1393T413 1500T604 1532Q709 1532 807 1505T958 1450Q978 1441 987 1433T997 1409V1391Q997 1370 988 1365T958 1366Q854 1404 779 1425T604 1446Q516 1446 442 1416T311 1320T224 1146T193 895V625Q193 339 305 207T604 74Q662 74 707 81T801 102T884 128T958 154Q981 160 989 155T997 129V111Q997 96 988 88T958 70Q797 -12 604 -12Z"  />
<glyph unicode="&#x422;" horiz-adv-x="1128" d="M1087 1468Q1087 1438 1049 1438H610V39Q610 22 600 11T575 0H555Q540 0 530 12T520 39V1438H80Q41 1438 41 1468V1487Q41 1503 52 1512T80 1522H1049Q1066 1522 1076 1513T1087 1487V1468Z"  />
<glyph unicode="&#x423;" horiz-adv-x="1164" d="M1035 1520Q1078 1520 1059 1468L615 270Q585 190 555 136T487 48T397 1T275 -14Q240 -14 208 -11T148 -2Q123 2 115 8T107 35V47Q107 70 120 75T150 78Q162 76 180 74T216 71T250 68T277 66Q335 66 373 76T438 112T486 181T531 289L615 522H590Q566 522 548 526T515 542T488 577T465 637L138 1470Q127 1498 139 1509T170 1520H185Q205 1520 211 1511T222 1491L549 651Q559 619 571 613T596 606H648L975 1493Q980 1507 989 1513T1016 1520H1035Z"  />
<glyph unicode="&#x424;" horiz-adv-x="1631" d="M1489 891Q1489 986 1460 1050T1373 1154T1233 1210T1043 1227Q1011 1227 987 1227T942 1226T902 1224T861 1221V506Q885 504 906 503T949 501T994 499T1043 498Q1154 498 1238 517T1377 579T1461 690T1489 856V891ZM771 426Q749 424 729 423T688 421T642 419T588 418Q465 418 366 441T198 517T90 652T52 856V891Q52 1002 90 1080T197 1209T366 1283T588 1307Q638 1307 683 1305T771 1300V1485Q771 1500 780 1512T805 1524H826Q841 1524 851 1512T861 1485V1300Q903 1302 948 1304T1043 1307Q1166 1307 1265 1284T1434 1210T1541 1081T1579 891V856Q1579 736 1542 653T1434 517T1265 442T1043 418Q1013 418 989 418T944 420T902 423T861 426V39Q861 23 851 12T826 0H805Q790 0 781 11T771 39V426ZM142 856Q142 758 170 690T253 580T393 518T588 498Q640 498 681 500T771 506V1221Q748 1222 729 1223T690 1225T645 1226T588 1227Q481 1227 398 1210T258 1154T172 1051T142 891V856Z"  />
<glyph unicode="&#x425;" horiz-adv-x="1192" d="M1128 33Q1128 0 1096 0H1079Q1061 0 1047 18L596 700L145 18Q132 0 113 0H94Q61 0 61 33Q61 49 70 59L543 778L92 1460Q82 1477 82 1491Q82 1522 113 1522H135Q154 1522 168 1503L594 856L1022 1503Q1028 1511 1038 1516T1055 1522H1073Q1106 1522 1106 1489Q1106 1471 1098 1460L647 776L1120 59Q1128 48 1128 33Z"  />
<glyph unicode="&#x426;" horiz-adv-x="1285" d="M1053 1483Q1053 1498 1062 1510T1088 1522H1108Q1125 1522 1134 1510T1143 1483V205Q1143 165 1136 136T1117 84H1235Q1267 84 1286 72T1305 23V-233Q1305 -249 1296 -260T1270 -272H1252Q1235 -272 1226 -261T1217 -233V0H357Q318 0 280 7T212 35T163 97T144 205V1483Q144 1498 153 1510T179 1522H199Q215 1522 224 1510T234 1483V205Q234 174 240 152T260 114T298 92T357 84H928Q999 84 1026 113T1053 205V1483Z"  />
<glyph unicode="&#x427;" horiz-adv-x="1117" d="M103 1483Q103 1498 112 1510T138 1522H158Q174 1522 183 1510T193 1483V1081Q193 973 217 904T297 794T442 739T660 723Q713 723 774 725T883 731V1483Q883 1498 893 1510T918 1522H938Q954 1522 963 1510T973 1483V39Q973 23 964 12T938 0H918Q903 0 893 11T883 39V651Q840 648 780 646T660 643Q520 643 416 662T242 730T138 864T103 1081V1483Z"  />
<glyph unicode="&#x428;" horiz-adv-x="1758" d="M1614 205Q1614 138 1596 98T1547 36T1480 7T1403 0H357Q318 0 280 7T212 35T163 97T144 205V1483Q144 1498 153 1510T179 1522H199Q215 1522 224 1510T234 1483V205Q234 174 240 152T260 114T298 92T357 84H836V1483Q836 1498 845 1510T871 1522H889Q906 1522 915 1510T924 1483V84H1403Q1474 84 1500 113T1526 205V1483Q1526 1498 1535 1510T1561 1522H1579Q1596 1522 1605 1510T1614 1483V205Z"  />
<glyph unicode="&#x429;" horiz-adv-x="1758" d="M1709 84Q1741 84 1759 72T1778 23V-233Q1778 -249 1769 -260T1743 -272H1725Q1708 -272 1699 -261T1690 -233V0H357Q318 0 280 7T212 35T163 97T144 205V1483Q144 1498 153 1510T179 1522H199Q215 1522 224 1510T234 1483V205Q234 174 240 152T260 114T298 92T357 84H836V1483Q836 1498 845 1510T871 1522H889Q906 1522 915 1510T924 1483V84H1401Q1472 84 1499 113T1526 205V1483Q1526 1498 1535 1510T1561 1522H1582Q1599 1522 1607 1510T1616 1483V205Q1616 165 1609 136T1590 84H1709Z"  />
<glyph unicode="&#x42A;" horiz-adv-x="1271" d="M613 877Q677 877 744 871T875 846T995 798T1093 719T1159 604T1184 446V416Q1184 325 1160 258T1093 143T995 65T876 17T745 -7T613 -14Q532 -14 454 -10T306 2Q267 5 267 41V1438H19Q2 1438 -9 1445T-20 1468V1487Q-20 1502 -9 1512T19 1522H322Q344 1522 350 1510T357 1483V864Q417 870 482 873T613 877ZM357 80Q390 78 420 76T480 72T542 69T613 68Q674 68 734 73T847 92T945 130T1024 193T1075 287T1094 416V446Q1094 557 1054 625T946 731T792 782T613 795Q575 795 543 794T480 791T420 787T357 782V80Z"  />
<glyph unicode="&#x42B;" horiz-adv-x="1574" d="M490 877Q554 877 621 871T752 846T872 798T970 719T1036 604T1061 446V416Q1061 325 1037 258T970 143T872 65T753 17T622 -7T490 -14Q409 -14 331 -10T183 2Q144 5 144 41V1483Q144 1498 151 1510T179 1522H199Q221 1522 227 1510T234 1483V864Q294 870 359 873T490 877ZM234 80Q267 78 297 76T357 72T420 69T490 68Q551 68 611 73T724 92T822 130T901 193T952 287T971 416V446Q971 557 931 625T823 731T669 782T490 795Q452 795 420 794T358 791T297 787T234 782V80ZM1430 39Q1430 23 1421 12T1395 0H1375Q1359 0 1350 11T1340 39V1483Q1340 1498 1349 1510T1375 1522H1395Q1411 1522 1420 1510T1430 1483V39Z"  />
<glyph unicode="&#x42C;" horiz-adv-x="1148" d="M490 877Q554 877 621 871T752 846T872 798T970 719T1036 604T1061 446V416Q1061 325 1037 258T970 143T872 65T753 17T622 -7T490 -14Q409 -14 331 -10T183 2Q144 5 144 41V1483Q144 1498 151 1510T179 1522H199Q221 1522 227 1510T234 1483V864Q294 870 359 873T490 877ZM234 80Q267 78 297 76T357 72T420 69T490 68Q551 68 611 73T724 92T822 130T901 193T952 287T971 416V446Q971 557 931 625T823 731T669 782T490 795Q452 795 420 794T358 791T297 787T234 782V80Z"  />
<glyph unicode="&#x42D;" horiz-adv-x="1074" d="M218 745Q201 745 190 755T179 780V801Q179 816 190 825T218 834H840V856Q840 975 825 1064T783 1219T717 1326T631 1393T531 1428T420 1438Q372 1438 323 1431T232 1410Q190 1398 160 1386T116 1373Q103 1373 96 1380T89 1410V1416Q89 1439 101 1447T130 1463Q154 1474 186 1484T256 1503T335 1517T419 1522Q484 1522 547 1511T667 1472T772 1395T855 1273T910 1096T930 856V655Q930 518 910 415T855 238T773 115T669 38T550 -2T423 -14Q329 -14 253 5T125 48Q110 55 100 61T89 91V97Q89 116 95 125T117 135Q123 135 134 132T159 123Q189 112 218 103T278 86T343 74T419 70Q477 70 530 80T631 115T716 183T782 291T825 446T840 655V745H218Z"  />
<glyph unicode="&#x42E;" horiz-adv-x="1744" d="M254 39Q254 23 245 12T220 0H199Q184 0 174 11T164 39V1483Q164 1498 174 1510T199 1522H220Q235 1522 244 1510T254 1483V803H592V887Q592 1058 631 1180T739 1380T905 1495T1117 1532Q1231 1532 1327 1496T1493 1381T1602 1180T1641 887V633Q1641 462 1602 340T1494 139T1328 25T1117 -12Q1002 -12 906 24T740 139T631 339T592 633V719H254V39ZM1551 887Q1551 1044 1518 1151T1427 1323T1289 1417T1117 1446Q1024 1446 945 1418T807 1324T715 1151T682 887V633Q682 476 715 369T806 197T944 103T1117 74Q1210 74 1289 102T1426 196T1518 369T1551 633V887Z"  />
<glyph unicode="&#x42F;" horiz-adv-x="1215" d="M103 31Q103 42 113 59L527 696Q436 711 368 741T253 821T184 940T160 1104V1114Q160 1231 195 1311T300 1440T474 1510T717 1532Q750 1532 794 1532T883 1530T969 1527T1037 1524Q1051 1522 1061 1511T1072 1485V39Q1072 23 1062 12T1037 0H1016Q1001 0 991 11T981 39V688Q928 687 879 687Q837 686 792 686T717 686H662H629L193 18Q188 12 179 6T162 0H136Q119 0 111 9T103 31ZM250 1104Q250 1006 278 942T364 840T510 787T717 772Q739 772 775 772T851 773T925 773T981 774V1438Q958 1440 926 1441T859 1444T786 1445T717 1446Q603 1446 516 1430T369 1376T280 1274T250 1114V1104Z"  />
<glyph unicode="&#x430;" horiz-adv-x="958" d="M459 1032Q392 1032 320 1016T193 979Q150 962 150 999V1012Q150 1043 188 1057Q240 1076 313 1093T463 1110Q600 1110 681 1071T799 948T836 733V74Q836 55 830 45T805 31Q649 -12 496 -12Q344 -12 252 23T121 130T82 317V344Q82 509 197 584T588 659H745V733Q745 853 715 918T624 1008T459 1032ZM745 92V578H588Q356 578 265 527T174 344V317Q174 228 200 176T295 96T496 68Q563 68 633 76T745 92Z"  />
<glyph unicode="&#x431;" horiz-adv-x="1029" d="M936 477Q936 361 910 270T831 117T699 21T515 -12Q410 -12 331 21T199 116T120 270T93 477V807Q93 940 118 1032T196 1187T326 1285T512 1343L646 1370Q698 1381 732 1397T788 1431T819 1469T834 1507Q837 1521 845 1530T873 1540H895Q915 1540 921 1529T922 1493Q905 1416 841 1366T668 1294L529 1266Q453 1250 396 1228T297 1170T231 1085T193 963Q247 1029 326 1063T515 1098Q620 1098 699 1065T830 969T909 815T936 608V477ZM846 608Q846 702 828 778T770 907T668 989T515 1018Q427 1018 365 991T262 912T202 789T183 627V477Q183 382 201 307T259 178T362 97T515 68Q605 68 667 96T770 178T828 306T846 477V608Z"  />
<glyph unicode="&#x432;" horiz-adv-x="1019" d="M912 821Q912 784 903 747T874 676T823 615T750 571Q804 551 838 521T891 457T918 386T926 319V305Q926 216 890 155T789 57T632 3T431 -14Q402 -14 364 -14T288 -12T213 -8T150 -2Q136 0 130 3T123 16V1079Q123 1095 146 1098Q170 1101 203 1103T275 1106T353 1109T431 1110Q491 1110 550 1107T662 1093T761 1064T840 1015T893 940T912 834V821ZM834 319Q834 397 803 439T724 501T618 524T504 528H211V70Q283 67 334 65T431 63Q537 63 613 76T739 119T811 194T834 305V319ZM824 834Q824 898 795 937T714 996T590 1023T431 1030Q409 1030 380 1030T319 1028T259 1026T211 1024V610H504Q541 610 579 611T652 619T719 638T774 674T810 733T824 821V834Z"  />
<glyph unicode="&#x433;" horiz-adv-x="689" d="M336 1016Q301 1016 277 1009T239 986T219 949T213 895V39Q213 23 204 12T179 0H158Q143 0 133 11T123 39V895Q123 962 142 1002T191 1064T260 1093T336 1100H609Q627 1100 637 1091T648 1065V1051Q648 1032 638 1024T609 1016H336Z"  />
<glyph unicode="&#x434;" horiz-adv-x="1134" d="M146 82L433 1026Q447 1072 481 1099T566 1126Q615 1126 649 1101T697 1028L984 82H1051Q1068 82 1080 70T1092 41V-238Q1092 -255 1080 -267T1051 -279H1043Q1026 -279 1014 -267T1002 -238V0H132V-238Q132 -255 120 -267T91 -279H82Q65 -279 53 -267T41 -238V41Q41 58 53 70T82 82H146ZM242 82H889L613 1004Q608 1019 598 1031T566 1044Q543 1044 534 1034T519 1006L242 82Z"  />
<glyph unicode="&#x435;" horiz-adv-x="1006" d="M913 567Q913 550 902 539T874 528H182V485Q182 249 277 159T539 68Q688 68 858 139Q874 146 883 141T893 125V100Q893 84 886 76T854 55Q818 38 766 23T651 -2T539 -12Q338 -12 215 102T92 485V621Q92 763 140 874T282 1047T506 1110Q642 1110 734 1050T869 880T913 623V567ZM823 610V623Q823 826 749 928T506 1030Q395 1030 323 980T217 837T182 621V610H823Z"  />
<glyph unicode="&#x436;" horiz-adv-x="1402" d="M656 1061Q656 1076 667 1088T695 1100H707Q723 1100 734 1088T746 1061V621L1250 1092Q1261 1101 1274 1105T1299 1110Q1317 1110 1328 1099T1340 1073Q1340 1065 1337 1057T1326 1042L824 584L1328 51Q1334 43 1338 36T1342 20Q1342 6 1332 -3T1303 -12Q1284 -12 1271 -8T1242 12L746 543V39Q746 23 735 12T707 0H695Q679 0 668 11T656 39V543L160 12Q145 -3 131 -7T99 -12Q80 -12 70 -3T60 20Q60 28 64 35T74 51L578 584L76 1042Q68 1049 65 1057T62 1073Q62 1087 73 1098T103 1110Q115 1110 128 1106T152 1092L656 621V1061Z"  />
<glyph unicode="&#x437;" horiz-adv-x="896" d="M469 612Q546 612 595 630T672 678T712 748T723 831V846Q723 904 704 943T649 1005T561 1039T444 1049Q383 1049 320 1040T201 1018Q178 1013 154 1008T110 1002Q92 1002 87 1009T82 1029V1039Q82 1056 89 1062T123 1076Q145 1082 180 1090T259 1105T348 1117T438 1122Q517 1122 585 1110T704 1066T782 981T811 846V831Q811 754 777 687T662 575Q710 550 740 516T786 447T808 377T814 317V301Q814 217 787 158T706 60T576 4T400 -14Q359 -14 319 -10T243 1T176 14T123 27Q95 34 89 42T82 67V77Q82 90 87 98T107 106Q116 106 129 104T158 99T189 92T219 85Q240 80 261 76T305 68T356 62T415 59Q491 59 549 72T645 113T703 188T723 301V317Q723 366 711 407T669 477T590 523T469 539H132Q116 539 105 546T93 571V578Q93 595 104 603T132 612H469Z"  />
<glyph unicode="&#x438;" horiz-adv-x="1027" d="M721 1024Q734 1048 746 1062T770 1085T795 1097T824 1100Q864 1100 884 1071T904 977V39Q904 19 892 10T865 0H852Q837 0 826 9T814 39V977Q814 987 805 987Q798 987 793 977L310 76Q297 52 286 37T262 14T236 3T203 0Q165 0 144 29T123 123V1061Q123 1081 135 1090T164 1100H173Q190 1100 201 1091T213 1061V123Q213 113 222 113Q225 113 229 115T236 123L721 1024Z"  />
<glyph unicode="&#x439;" horiz-adv-x="1027" d="M799 1559Q799 1495 777 1442T714 1349T621 1288T506 1266Q444 1266 391 1288T298 1349T236 1441T213 1559Q213 1576 218 1584T238 1593H279Q294 1593 298 1587T302 1559Q302 1493 324 1453T378 1389T445 1358T506 1350Q532 1350 567 1358T635 1389T689 1452T711 1559Q711 1580 714 1586T734 1593H775Q790 1593 794 1585T799 1559ZM721 1024Q734 1048 746 1062T770 1085T795 1097T824 1100Q864 1100 884 1071T904 977V39Q904 19 892 10T865 0H852Q837 0 826 9T814 39V977Q814 987 805 987Q798 987 793 977L310 76Q297 52 286 37T262 14T236 3T203 0Q165 0 144 29T123 123V1061Q123 1081 135 1090T164 1100H173Q190 1100 201 1091T213 1061V123Q213 113 222 113Q225 113 229 115T236 123L721 1024Z"  />
<glyph unicode="&#x43A;" horiz-adv-x="869" d="M809 20Q809 6 799 -3T771 -12Q752 -12 739 -8T709 12L213 543V39Q213 23 202 12T175 0H162Q147 0 135 11T123 39V1061Q123 1076 135 1088T162 1100H175Q190 1100 201 1088T213 1061V621L717 1092Q728 1101 741 1105T766 1110Q785 1110 796 1099T807 1073Q807 1065 804 1057T793 1042L291 584L795 51Q801 43 805 36T809 20Z"  />
<glyph unicode="&#x43B;" horiz-adv-x="984" d="M539 1004Q534 1019 524 1031T492 1044Q469 1044 460 1034T445 1006L150 27Q147 17 138 9T117 0H91Q75 0 68 9T60 33Q60 38 60 42T62 51L359 1026Q373 1072 407 1099T492 1126Q542 1126 575 1101T623 1028L920 51Q922 46 923 41T924 31Q924 0 891 0H867Q854 0 846 8T834 27L539 1004Z"  />
<glyph unicode="&#x43C;" horiz-adv-x="1250" d="M1127 25Q1127 9 1115 -2T1088 -14H1076Q1060 -14 1049 -3T1037 25V1004Q1037 1018 1035 1025T1020 1032Q1006 1032 992 1006L728 547Q715 523 702 510T675 489T650 481T625 479Q613 479 601 480T576 489T550 509T523 547L259 1006Q243 1032 230 1032Q217 1032 215 1025T213 1004V25Q213 9 202 -2T175 -14H162Q147 -14 135 -3T123 25V1004Q123 1038 132 1059T156 1093T189 1109T226 1114Q254 1114 281 1100T330 1049L592 594Q600 582 606 575T625 567Q638 567 644 574T658 594L920 1049Q942 1086 969 1100T1024 1114Q1043 1114 1061 1110T1094 1093T1118 1060T1127 1004V25Z"  />
<glyph unicode="&#x43D;" horiz-adv-x="1027" d="M213 545V39Q213 23 202 12T175 0H162Q147 0 135 11T123 39V1065Q123 1080 135 1092T162 1104H175Q190 1104 201 1092T213 1065V629H814V1065Q814 1080 825 1092T852 1104H865Q880 1104 892 1092T904 1065V39Q904 23 892 12T865 0H852Q837 0 826 11T814 39V545H213Z"  />
<glyph unicode="&#x43E;" horiz-adv-x="1028" d="M936 477Q936 323 889 213T747 46T514 -12Q376 -12 281 45T139 213T92 477V621Q92 775 139 885T281 1052T514 1110Q652 1110 747 1053T889 885T936 621V477ZM846 477V621Q846 749 813 840T706 981T514 1030Q396 1030 323 981T216 841T182 621V477Q182 280 261 174T514 68Q688 68 767 174T846 477Z"  />
<glyph unicode="&#x43F;" horiz-adv-x="1027" d="M814 895Q814 957 787 986T689 1016H336Q301 1016 277 1009T239 986T219 949T213 895V39Q213 23 204 12T179 0H158Q143 0 133 11T123 39V895Q123 962 142 1002T191 1064T260 1093T336 1100H687Q725 1100 764 1093T834 1064T884 1002T904 895V39Q904 23 895 12T869 0H848Q831 0 823 11T814 39V895Z"  />
<glyph unicode="&#x440;" horiz-adv-x="991" d="M899 477Q899 316 855 207T721 43T498 -12Q350 -12 213 18V-360Q213 -377 203 -388T178 -399H158Q143 -399 133 -387T123 -360V1032Q123 1050 129 1058T154 1071Q339 1110 498 1110Q635 1110 724 1049T856 876T899 612V477ZM809 477V612Q809 821 737 925T498 1030Q426 1030 357 1023T213 1004V94Q340 68 498 68Q610 68 678 113T778 248T809 477Z"  />
<glyph unicode="&#x441;" horiz-adv-x="854" d="M498 -12Q356 -12 266 50T134 223T92 483V621Q92 770 133 878T266 1048T498 1110Q566 1110 633 1094T745 1057Q766 1049 775 1039T784 1012V999Q784 962 741 979Q609 1030 498 1030Q329 1030 256 926T182 621V483Q182 350 213 258T313 117T498 68Q615 68 741 119Q784 136 784 98V86Q784 68 775 59T745 41Q697 19 630 4T498 -12Z"  />
<glyph unicode="&#x442;" horiz-adv-x="959" d="M859 1100Q876 1100 887 1090T898 1065V1047Q898 1031 887 1024T859 1016H525V39Q525 23 513 12T486 0H474Q458 0 447 11T435 39V1016H101Q84 1016 73 1023T62 1047V1065Q62 1080 73 1090T101 1100H859H859Z"  />
<glyph unicode="&#x443;" horiz-adv-x="954" d="M895 1065Q895 1055 893 1049L557 -115Q525 -227 485 -287T384 -373T225 -399Q172 -399 98 -387Q57 -380 57 -358V-336Q57 -307 88 -307H100Q193 -319 233 -319Q290 -319 328 -309T393 -274T438 -209T477 -96L504 0H475Q425 0 399 22T350 115L74 1051Q72 1055 72 1065Q72 1100 106 1100H125Q134 1100 144 1091T158 1071L434 129Q447 84 481 84H528L809 1073Q817 1100 846 1100H864Q895 1100 895 1065Z"  />
<glyph unicode="&#x444;" horiz-adv-x="1549" d="M93 612Q93 723 111 814T176 971T299 1073T494 1110Q562 1110 618 1102T730 1083V1483Q730 1498 739 1510T764 1522H785Q800 1522 810 1510T820 1483V1083Q875 1094 930 1102T1055 1110Q1173 1110 1250 1074T1374 972T1438 815T1457 612V477Q1457 356 1436 265T1367 112T1243 19T1055 -12Q995 -12 939 -4T820 18V-360Q820 -376 810 -387T785 -399H764Q749 -399 740 -388T730 -360V18Q668 4 611 -4T494 -12Q383 -12 307 19T183 111T114 264T93 477V612ZM1366 612Q1366 711 1354 789T1308 920T1213 1002T1055 1030Q1018 1030 987 1028T928 1022T874 1013T820 1004V94Q879 82 937 75T1055 68Q1147 68 1207 94T1302 171T1352 299T1366 477V612ZM183 477Q183 376 197 300T246 172T341 94T494 68Q554 68 612 75T730 94V1004Q702 1008 676 1013T621 1021T562 1027T494 1030Q396 1030 336 1002T241 921T195 789T183 612V477Z"  />
<glyph unicode="&#x445;" horiz-adv-x="969" d="M911 29Q911 0 883 0H866Q840 0 827 16L487 492L154 16Q140 0 131 0H96Q68 0 68 25Q68 40 78 53L438 563L90 1051Q82 1063 82 1073Q82 1100 119 1100H131Q160 1100 170 1083L494 633L807 1079Q813 1089 824 1094T846 1100H864Q895 1100 895 1075Q895 1063 881 1040L543 559L905 51Q911 42 911 29Z"  />
<glyph unicode="&#x446;" horiz-adv-x="1068" d="M814 1061Q814 1076 822 1088T848 1100H869Q886 1100 895 1088T904 1061V205Q904 165 897 136T877 84H998Q1030 84 1048 72T1067 23V-233Q1067 -249 1059 -260T1033 -272H1014Q997 -272 988 -261T979 -233V0H336Q298 0 260 7T192 35T142 97T123 205V1061Q123 1076 133 1088T158 1100H179Q194 1100 203 1088T213 1061V205Q213 174 219 152T239 114T277 92T336 84H689Q760 84 787 113T814 205V1061Z"  />
<glyph unicode="&#x447;" horiz-adv-x="974" d="M93 1065Q93 1080 101 1092T127 1104H148Q163 1104 172 1092T181 1065V793Q181 718 197 660T250 561T344 500T484 479Q517 479 553 481T626 489T696 501T760 516V1065Q760 1080 770 1092T795 1104H816Q831 1104 840 1092T850 1065V27Q850 11 841 0T816 -12H795Q780 -12 770 -1T760 27V436Q730 428 696 422T626 410T554 402T484 399Q377 399 303 428T182 509T114 634T93 793V1065H93Z"  />
<glyph unicode="&#x448;" horiz-adv-x="1553" d="M1340 1061Q1340 1076 1349 1088T1375 1100H1395Q1412 1100 1421 1088T1430 1061V205Q1430 138 1411 98T1360 36T1290 7T1213 0H336Q298 0 260 7T192 35T142 97T123 205V1061Q123 1076 133 1088T158 1100H179Q194 1100 203 1088T213 1061V205Q213 174 219 152T239 114T277 92T336 84H732V1061Q732 1076 743 1088T771 1100H783Q798 1100 810 1088T822 1061V84H1215Q1286 84 1313 113T1340 205V1061Z"  />
<glyph unicode="&#x449;" horiz-adv-x="1615" d="M1340 1061Q1340 1076 1349 1088T1375 1100H1395Q1412 1100 1421 1088T1430 1061V205Q1430 165 1423 136T1403 84H1524Q1556 84 1575 72T1594 23V-233Q1594 -249 1585 -260T1559 -272H1541Q1524 -272 1515 -261T1506 -233V0H336Q298 0 260 7T192 35T142 97T123 205V1061Q123 1076 133 1088T158 1100H179Q194 1100 203 1088T213 1061V205Q213 174 219 152T239 114T277 92T336 84H732V1061Q732 1076 743 1088T771 1100H783Q798 1100 810 1088T822 1061V84H1215Q1286 84 1313 113T1340 205V1061Z"  />
<glyph unicode="&#x44A;" horiz-adv-x="1127" d="M263 1020H60Q43 1020 32 1026T21 1051V1065Q21 1084 32 1092T60 1100H316Q336 1100 343 1088T351 1061V684Q378 685 407 686T464 688T520 689T570 690Q681 690 772 673T928 617T1029 514T1065 356V319Q1065 225 1029 161T928 58T772 3T570 -14Q541 -14 503 -14T427 -12T352 -8T289 -2Q275 0 269 3T263 16V1020ZM351 70Q422 67 473 65T570 63Q676 63 752 77T878 121T950 200T973 319V356Q973 426 950 475T878 554T753 598T570 612Q525 612 474 611T351 606V70Z"  />
<glyph unicode="&#x44B;" horiz-adv-x="1398" d="M211 70Q283 67 334 65T431 63Q537 63 613 77T739 121T811 200T834 319V356Q834 426 811 475T739 554T614 598T431 612Q386 612 335 611T211 606V70ZM123 1061Q123 1076 131 1088T158 1100H177Q197 1100 204 1088T211 1061V684Q265 687 325 688T431 690Q541 690 632 673T788 617T890 514T926 356V319Q926 225 890 161T789 58T632 3T431 -14Q402 -14 364 -14T288 -12T213 -8T150 -2Q136 0 130 3T123 16V1061ZM1274 39Q1274 23 1265 12T1240 0H1219Q1204 0 1194 11T1184 39V1061Q1184 1076 1194 1088T1219 1100H1240Q1255 1100 1264 1088T1274 1061V39Z"  />
<glyph unicode="&#x44C;" horiz-adv-x="1009" d="M211 70Q283 67 334 65T431 63Q537 63 613 77T739 121T811 200T834 319V356Q834 426 811 475T739 554T614 598T431 612Q386 612 335 611T211 606V70ZM123 1061Q123 1076 131 1088T158 1100H177Q197 1100 204 1088T211 1061V684Q265 687 325 688T431 690Q541 690 632 673T788 617T890 514T926 356V319Q926 225 890 161T789 58T632 3T431 -14Q402 -14 364 -14T288 -12T213 -8T150 -2Q136 0 130 3T123 16V1061Z"  />
<glyph unicode="&#x44D;" horiz-adv-x="855" d="M195 526Q178 526 167 535T156 559V578Q156 593 167 601T195 610H672V621Q672 726 658 803T609 930T512 1005T357 1030Q322 1030 297 1029T251 1024T209 1016T164 1005Q149 1001 140 999T123 994T110 991T95 990Q86 990 78 996T70 1016V1033Q70 1050 78 1057T109 1072Q169 1092 230 1101T357 1110Q472 1110 549 1080T674 989T741 837T762 621V483Q762 373 746 282T684 125T560 24T357 -12Q318 -12 286 -10T225 -2T167 10T109 28Q86 36 78 43T70 68V79Q70 95 78 102T98 109Q109 109 120 106T148 98Q189 86 239 77T344 68Q446 68 510 95T610 174T659 304T672 483V526H195Z"  />
<glyph unicode="&#x44E;" horiz-adv-x="1535" d="M234 39Q234 23 223 12T195 0H183Q167 0 156 11T144 39V1061Q144 1076 155 1088T183 1100H195Q211 1100 222 1088T234 1061V612H598V621Q598 737 624 828T704 981T836 1077T1020 1110Q1125 1110 1204 1077T1336 982T1415 828T1442 621V477Q1442 361 1416 270T1337 117T1205 21T1020 -12Q915 -12 836 21T704 116T625 270T598 477V522H234V39ZM1352 621Q1352 715 1334 790T1276 919T1173 1001T1020 1030Q930 1030 868 1002T765 920T707 791T689 621V477Q689 382 707 307T765 178T867 97T1020 68Q1110 68 1173 96T1276 178T1334 306T1352 477V621Z"  />
<glyph unicode="&#x44F;" horiz-adv-x="972" d="M760 489Q715 486 665 485T562 483Q495 483 426 489L164 39Q149 13 139 7T109 0H95Q69 0 64 16T76 61L334 508Q280 521 234 544T153 601T100 683T80 793V801Q80 893 121 953T230 1048T384 1096T562 1110Q637 1110 706 1107T826 1098Q848 1095 848 1079V39Q848 23 839 12T814 0H793Q778 0 768 11T758 39L760 489ZM168 793Q168 728 197 684T278 613T402 575T562 563Q583 563 609 563T663 565T715 567T760 569V1024Q741 1025 716 1026T663 1028T610 1029T562 1030Q475 1030 403 1019T278 980T197 909T168 801V793Z"  />
<glyph unicode="&#x451;" horiz-adv-x="1006" d="M913 567Q913 550 902 539T874 528H182V485Q182 249 277 159T539 68Q688 68 858 139Q874 146 883 141T893 125V100Q893 84 886 76T854 55Q818 38 766 23T651 -2T539 -12Q338 -12 215 102T92 485V621Q92 763 140 874T282 1047T506 1110Q642 1110 734 1050T869 880T913 623V567ZM823 610V623Q823 826 749 928T506 1030Q395 1030 323 980T217 837T182 621V610H823ZM723 1354Q723 1337 712 1326T684 1315H672Q656 1315 645 1326T633 1354V1505Q633 1520 644 1532T672 1544H684Q701 1544 712 1533T723 1505V1354ZM416 1354Q416 1338 405 1327T377 1315H365Q349 1315 338 1326T326 1354V1505Q326 1520 337 1532T365 1544H377Q394 1544 405 1532T416 1505V1354Z"  />
<glyph unicode="&#x452;" horiz-adv-x="994" d="M881 -176Q881 -242 868 -285T827 -353T761 -389T670 -399Q644 -399 626 -398T584 -393Q562 -390 556 -384T549 -365V-346Q549 -332 559 -327T592 -322H670Q704 -322 727 -317T765 -295T786 -251T793 -176V717Q793 792 777 850T724 949T630 1009T490 1030Q457 1030 421 1028T348 1020T277 1009T213 993V39Q213 23 204 12T179 0H158Q143 0 133 11T123 39V1294H-16Q-55 1294 -55 1329V1339Q-55 1374 -16 1374H123V1483Q123 1498 132 1510T158 1522H179Q199 1522 206 1510T213 1483V1374H574Q592 1374 602 1366T613 1339V1329Q613 1311 603 1303T574 1294H213V1073Q243 1081 277 1087T348 1099T420 1107T490 1110Q597 1110 671 1081T792 1000T860 875T881 717V-176H881Z"  />
<glyph unicode="&#x453;" horiz-adv-x="720" d="M660 1579Q660 1571 652 1563L433 1300Q419 1283 411 1275T388 1266H342Q324 1266 324 1280Q324 1285 325 1290T332 1300L537 1563Q551 1580 560 1586T584 1593H637Q660 1593 660 1579ZM336 1016Q301 1016 277 1009T239 986T219 949T213 895V39Q213 23 204 12T179 0H158Q143 0 133 11T123 39V895Q123 962 142 1002T191 1064T260 1093T336 1100H609Q627 1100 637 1091T648 1065V1051Q648 1032 638 1024T609 1016H336Z"  />
<glyph unicode="&#x454;" horiz-adv-x="855" d="M183 526V483Q183 390 199 314T254 183T356 98T511 68Q565 68 615 77T707 98Q723 103 734 106T757 109Q769 109 777 102T785 79V68Q785 51 777 44T746 28Q716 18 688 11T631 -2T569 -9T498 -12Q386 -12 309 27T184 135T115 292T93 483V621Q93 723 115 812T185 967T311 1072T498 1110Q564 1110 625 1101T746 1072Q769 1064 777 1057T785 1033V1016Q785 1002 777 996T760 990Q751 990 745 991T732 994T716 998T691 1005Q667 1011 647 1015T605 1023T558 1028T498 1030Q411 1030 351 1001T253 919T200 790T183 621V610H660Q677 610 688 602T699 578V559Q699 544 688 535T660 526H183Z"  />
<glyph unicode="&#x455;" horiz-adv-x="860" d="M778 272Q778 120 682 54T424 -12Q353 -12 267 5T127 43Q96 57 89 64T82 90V98Q82 120 93 125T129 123Q206 96 279 81T428 66Q552 66 620 111T688 272Q688 335 644 380T471 496L340 567Q250 617 200 655T121 742T92 858Q92 949 135 1005T251 1085T414 1110Q498 1110 577 1094T711 1057Q730 1050 735 1044T741 1020V1008Q741 967 698 981Q644 998 568 1014T414 1030Q301 1030 242 995T182 858Q182 795 229 750T381 645L518 569Q660 491 719 430T778 272Z"  />
<glyph unicode="&#x456;" horiz-adv-x="377" d="M233 1341Q233 1325 222 1314T195 1303H182Q166 1303 155 1314T143 1341V1493Q143 1508 155 1520T182 1532H195Q210 1532 221 1521T233 1493V1341ZM233 39Q233 23 222 12T195 0H182Q167 0 155 12T143 39V1061Q143 1076 155 1088T182 1100H195Q210 1100 221 1089T233 1061V39Z"  />
<glyph unicode="&#x457;" horiz-adv-x="377" d="M233 39Q233 23 222 12T195 0H182Q167 0 155 12T143 39V1061Q143 1076 155 1088T182 1100H195Q210 1100 221 1089T233 1061V39ZM388 1354Q388 1337 377 1326T349 1315H337Q321 1315 310 1326T298 1354V1505Q298 1520 309 1532T337 1544H349Q366 1544 377 1533T388 1505V1354ZM81 1354Q81 1338 70 1327T42 1315H30Q14 1315 3 1326T-9 1354V1505Q-9 1520 2 1532T30 1544H42Q59 1544 70 1532T81 1505V1354Z"  />
<glyph unicode="&#x458;" horiz-adv-x="377" d="M233 1341Q233 1325 222 1314T195 1303H182Q166 1303 155 1314T143 1341V1493Q143 1508 155 1520T182 1532H195Q210 1532 221 1521T233 1493V1341ZM233 -176Q233 -303 182 -351T23 -399Q-18 -399 -63 -393Q-84 -390 -91 -384T-98 -365V-346Q-98 -322 -55 -322H23Q93 -322 118 -294T143 -176V1061Q143 1078 152 1089T176 1100H199Q215 1100 224 1089T233 1061V-176Z"  />
<glyph unicode="&#x459;" horiz-adv-x="1592" d="M787 1100Q804 1100 814 1088T824 1059V684Q876 687 933 688T1035 690Q1146 690 1237 677T1393 628T1494 532T1530 377V340Q1530 245 1494 178T1393 69T1237 6T1035 -14Q1012 -14 979 -13T909 -10T836 -6T773 0Q757 0 746 11T734 39V1016H467Q444 1016 435 1006T420 979L132 27Q128 17 119 9T99 0H72Q57 0 49 9T41 33Q41 38 41 42T43 51L334 999Q348 1046 382 1073T467 1100H787ZM1035 63Q1141 63 1217 80T1343 131T1415 218T1438 340V377Q1438 447 1415 492T1343 564T1218 601T1035 612Q991 612 942 611T824 606V68Q892 64 941 64T1035 63Z"  />
<glyph unicode="&#x45A;" horiz-adv-x="1678" d="M814 545H213V39Q213 23 202 12T175 0H162Q147 0 135 11T123 39V1096Q123 1111 135 1123T162 1135H175Q190 1135 201 1123T213 1096V629H814V1087Q814 1103 822 1114T848 1126H867Q887 1126 894 1115T902 1087V684Q929 685 958 686T1015 688T1071 689T1121 690Q1232 690 1323 677T1479 628T1580 532T1616 377V340Q1616 245 1580 178T1479 69T1323 6T1121 -14Q1092 -14 1054 -14T978 -12T903 -8T840 -2Q826 0 820 3T814 16V545ZM902 70Q973 67 1024 65T1121 63Q1227 63 1303 80T1429 131T1501 218T1524 340V377Q1524 447 1501 492T1429 564T1304 601T1121 612Q1076 612 1025 611T902 606V70Z"  />
<glyph unicode="&#x45B;" horiz-adv-x="994" d="M883 39Q883 23 874 12T848 0H828Q812 0 803 11T793 39V717Q793 792 777 850T724 949T630 1009T490 1030Q457 1030 421 1028T348 1020T277 1009T213 993V39Q213 23 204 12T179 0H158Q143 0 133 11T123 39V1294H-16Q-33 1294 -44 1302T-55 1325V1339Q-55 1355 -44 1364T-16 1374H123V1483Q123 1498 133 1510T158 1522H179Q194 1522 203 1510T213 1483V1374H574Q591 1374 602 1365T613 1339V1325Q613 1310 602 1302T574 1294H213V1073Q243 1081 277 1087T348 1099T420 1107T490 1110Q597 1110 671 1081T792 1000T860 875T881 717L883 39Z"  />
<glyph unicode="&#x45C;" horiz-adv-x="869" d="M809 20Q809 6 799 -3T771 -12Q752 -12 739 -8T709 12L213 543V39Q213 23 202 12T175 0H162Q147 0 135 11T123 39V1061Q123 1076 135 1088T162 1100H175Q190 1100 201 1088T213 1061V621L717 1092Q728 1101 741 1105T766 1110Q785 1110 796 1099T807 1073Q807 1065 804 1057T793 1042L291 584L795 51Q801 43 805 36T809 20ZM728 1579Q728 1572 719 1563L500 1300Q486 1283 479 1275T455 1266H410Q392 1266 392 1280Q392 1285 393 1290T400 1300L605 1563Q619 1580 627 1586T652 1593H705Q728 1593 728 1579Z"  />
<glyph unicode="&#x45E;" horiz-adv-x="954" d="M895 1065Q895 1055 893 1049L557 -115Q525 -227 485 -287T384 -373T225 -399Q172 -399 98 -387Q57 -380 57 -358V-336Q57 -307 88 -307H100Q193 -319 233 -319Q290 -319 328 -309T393 -274T438 -209T477 -96L504 0H475Q425 0 399 22T350 115L74 1051Q72 1055 72 1065Q72 1100 106 1100H125Q134 1100 144 1091T158 1071L434 129Q447 84 481 84H528L809 1073Q817 1100 846 1100H864Q895 1100 895 1065ZM786 1559Q786 1475 747 1409T641 1304T493 1266Q415 1266 347 1304T240 1408T201 1559Q201 1593 225 1593H266Q281 1593 285 1588T289 1559Q289 1443 355 1397T493 1350Q566 1350 632 1396T698 1559Q698 1580 702 1586T721 1593H762Q786 1593 786 1559Z"  />
<glyph unicode="&#x45F;" horiz-adv-x="1027" d="M814 1061Q814 1076 822 1088T848 1100H869Q886 1100 895 1088T904 1061V205Q904 138 885 98T834 36T764 7T687 0H558V-184Q558 -200 549 -211T519 -223H506Q486 -223 477 -212T467 -184V0H336Q298 0 260 7T192 35T142 97T123 205V1061Q123 1076 133 1088T158 1100H179Q194 1100 203 1088T213 1061V205Q213 174 219 152T239 114T277 92T336 84H689Q760 84 787 113T814 205V1061Z"  />
<glyph unicode="&#x462;" horiz-adv-x="1353" d="M349 1126H52Q35 1126 24 1135T13 1159V1176Q13 1191 24 1200T52 1210H349V1483Q349 1498 358 1510T383 1522H404Q419 1522 429 1510T439 1483V1210H818Q835 1210 846 1201T857 1176V1159Q857 1144 846 1135T818 1126H439V864Q499 870 564 873T695 877Q759 877 826 872T957 852T1077 808T1175 735T1241 623T1266 467V436Q1266 345 1242 277T1175 158T1077 75T958 22T827 -6T695 -14Q614 -14 536 -10T388 2Q349 5 349 41V1126ZM439 80Q472 78 502 76T562 72T624 69T695 68Q756 68 816 74T929 97T1027 141T1106 208T1157 305T1176 436V467Q1176 578 1136 643T1028 742T874 785T695 795Q657 795 625 794T562 791T502 787T439 782V80Z"  />
<glyph unicode="&#x463;" horiz-adv-x="1019" d="M123 1100V1483Q123 1498 131 1510T158 1522H177Q197 1522 204 1510T211 1483V1100H580Q619 1100 619 1065V1051Q619 1016 580 1016H211V684Q265 687 325 688T431 690Q541 690 632 673T788 617T890 514T926 356V319Q926 225 890 161T789 58T632 3T431 -14Q402 -14 364 -14T288 -12T213 -8T150 -2Q136 0 130 3T123 16V1016H21Q-18 1016 -18 1051V1065Q-18 1100 21 1100H123ZM211 70Q283 67 334 65T431 63Q537 63 613 77T739 121T811 200T834 319V356Q834 426 811 475T739 554T614 598T431 612Q386 612 335 611T211 606V70Z"  />
<glyph unicode="&#x472;" horiz-adv-x="1254" d="M1151 633Q1151 462 1112 340T1004 139T838 25T627 -12Q513 -12 417 24T251 139T142 339T103 633V887Q103 1058 142 1180T250 1380T416 1495T627 1532Q741 1532 837 1496T1003 1381T1112 1180T1151 887V633ZM1061 649Q1032 611 991 596T902 580Q829 580 773 609T672 680L490 858Q464 883 444 900T406 929T369 946T328 952Q290 952 264 942T222 909T200 851T193 764V633Q193 476 226 369T317 197T454 103T627 74Q720 74 799 102T937 196T1028 369T1061 633V649ZM1061 899Q1059 1052 1026 1156T935 1325T798 1418T627 1446Q543 1446 469 1421T339 1341T245 1197T197 983Q216 1008 249 1020T326 1032Q386 1032 439 1000T541 922L711 758Q753 718 798 691T902 664Q940 664 969 674T1019 710T1050 777T1061 881V899Z"  />
<glyph unicode="&#x473;" horiz-adv-x="1029" d="M936 477Q936 361 910 270T831 117T699 21T515 -12Q410 -12 331 21T199 116T120 270T93 477V621Q93 737 119 828T198 981T330 1077T515 1110Q620 1110 699 1077T830 982T909 828T936 621V477ZM515 1030Q432 1030 373 1006T273 938T212 829T185 684Q218 711 285 711Q330 711 371 690T447 635L578 510Q610 479 644 457T723 434Q752 434 775 442T813 469T837 520T846 600V621Q846 715 828 790T770 919T668 1001T515 1030ZM515 68Q595 68 653 90T751 155T813 257T842 395Q819 374 788 365T723 356Q674 356 627 373T549 422L410 559Q390 578 375 592T346 616T318 630T287 635Q257 635 238 627T206 602T189 557T183 492V477Q183 382 201 307T259 178T362 97T515 68Z"  />
<glyph unicode="&#x474;" horiz-adv-x="1428" d="M1045 1382Q1068 1461 1117 1496T1242 1532Q1316 1532 1369 1494T1442 1386Q1450 1362 1444 1349T1414 1335H1389Q1374 1335 1368 1343T1356 1362Q1345 1389 1332 1405T1305 1431T1274 1443T1242 1446Q1208 1446 1179 1431T1133 1366L746 82Q732 35 698 10T615 -16Q564 -16 530 11T482 84L62 1470Q56 1492 63 1507T91 1522H117Q134 1522 140 1513T150 1495L568 104Q573 87 582 77T615 66Q637 66 647 78T662 106L1045 1382Z"  />
<glyph unicode="&#x475;" horiz-adv-x="1138" d="M807 981Q830 1059 871 1094T988 1130Q1062 1130 1106 1093T1170 995Q1178 971 1172 958T1141 944H1117Q1101 944 1095 952T1084 971Q1067 1013 1044 1028T988 1044Q971 1044 958 1041T933 1029T912 1005T895 965L623 72Q609 25 576 -1T492 -27Q441 -27 407 0T359 74L62 1049Q60 1054 60 1058T60 1067Q60 1081 67 1090T91 1100H117Q128 1100 137 1091T150 1073L445 94Q450 77 459 66T492 55Q514 55 524 68T539 96L807 981Z"  />
<glyph unicode="&#x490;" horiz-adv-x="990" d="M234 39Q234 23 225 12T199 0H179Q163 0 154 11T144 39V1292Q144 1356 161 1400T209 1471T287 1510T392 1522H869V1679Q869 1699 878 1708T904 1718H924Q940 1718 949 1709T959 1679V1470Q959 1455 948 1447T920 1438H392Q355 1438 326 1433T276 1413T245 1369T234 1292V39Z"  />
<glyph unicode="&#x491;" horiz-adv-x="720" d="M648 1051Q648 1032 638 1024T609 1016H336Q301 1016 277 1009T239 986T219 949T213 895V39Q213 23 204 12T179 0H158Q143 0 133 11T123 39V895Q123 962 142 1002T191 1064T260 1093T336 1100H558V1243Q558 1259 569 1270T596 1282H609Q624 1282 636 1271T648 1243V1051H648Z"  />
<glyph unicode="&#x492;" horiz-adv-x="1097" d="M871 788Q871 773 860 764T832 754H330V39Q330 23 321 12T295 0H275Q259 0 250 11T240 39V754H60Q43 754 32 763T21 788V809Q21 824 32 833T60 842H240V1292Q240 1356 257 1400T305 1471T383 1510T488 1522H1016Q1033 1522 1044 1512T1055 1487V1470Q1055 1455 1044 1447T1016 1438H488Q451 1438 422 1433T373 1413T341 1369T330 1292V842H832Q849 842 860 833T871 809V788H871Z"  />
<glyph unicode="&#x493;" horiz-adv-x="771" d="M252 532V39Q252 23 243 12T218 0H197Q182 0 172 11T162 39V532H60Q21 532 21 567V582Q21 616 60 616H162V895Q162 962 181 1002T230 1064T299 1093T375 1100H711Q750 1100 750 1065V1051Q750 1016 711 1016H375Q340 1016 316 1009T278 986T258 949T252 895V616H619Q658 616 658 582V567Q658 532 619 532H252Z"  />
<glyph unicode="&#x496;" horiz-adv-x="1762" d="M926 750V39Q926 23 917 12T891 0H871Q855 0 846 11T836 39V750L127 12Q118 3 105 0T80 -4Q62 -4 52 5T41 29Q41 46 56 61L758 791L70 1458Q62 1466 58 1476T54 1495Q54 1507 65 1518T93 1530Q102 1530 113 1526T140 1507L836 827V1483Q836 1498 847 1510T875 1522H887Q903 1522 914 1510T926 1483V827L1622 1507Q1638 1521 1649 1525T1670 1530Q1687 1530 1698 1519T1709 1495Q1709 1475 1692 1458L1004 791L1686 84Q1709 61 1713 42T1717 -6V-233Q1717 -249 1708 -260T1682 -272H1663Q1646 -272 1638 -261T1629 -233V20L926 750Z"  />
<glyph unicode="&#x497;" horiz-adv-x="1402" d="M1297 84Q1320 61 1324 42T1328 -6V-233Q1328 -249 1319 -260T1293 -272H1274Q1257 -272 1249 -261T1240 -233V14L746 543V39Q746 23 735 12T707 0H695Q679 0 668 11T656 39V543L160 12Q145 -3 131 -7T99 -12Q80 -12 70 -3T60 20Q60 28 64 35T74 51L578 584L76 1042Q68 1049 65 1057T62 1073Q62 1087 73 1098T103 1110Q115 1110 128 1106T152 1092L656 621V1061Q656 1076 667 1088T695 1100H707Q723 1100 734 1088T746 1061V621L1250 1092Q1261 1101 1274 1105T1299 1110Q1317 1110 1328 1099T1340 1073Q1340 1065 1337 1057T1326 1042L824 584L1297 84Z"  />
<glyph unicode="&#x49A;" horiz-adv-x="1070" d="M234 750V39Q234 23 225 12T199 0H179Q163 0 154 11T144 39V1483Q144 1498 155 1510T183 1522H195Q211 1522 222 1510T234 1483V827L930 1507Q946 1521 957 1525T977 1530Q994 1530 1005 1519T1016 1495Q1016 1486 1012 1476T1000 1458L312 791L992 84Q1014 61 1018 42T1022 -6V-233Q1022 -249 1014 -260T988 -272H969Q952 -272 943 -261T934 -233V20L234 750Z"  />
<glyph unicode="&#x49B;" horiz-adv-x="869" d="M213 543V39Q213 23 202 12T175 0H162Q147 0 135 11T123 39V1061Q123 1076 135 1088T162 1100H175Q190 1100 201 1088T213 1061V621L717 1092Q728 1101 741 1105T766 1110Q785 1110 796 1099T807 1073Q807 1065 804 1057T793 1042L291 584L764 84Q787 61 791 42T795 -6V-233Q795 -249 786 -260T760 -272H742Q725 -272 716 -261T707 -233V14L213 543Z"  />
<glyph unicode="&#x4A2;" horiz-adv-x="1285" d="M1141 84H1201Q1233 84 1251 72T1270 23V-233Q1270 -249 1261 -260T1235 -272H1217Q1200 -272 1191 -261T1182 -233V0H1088Q1071 0 1062 11T1053 39V772H234V39Q234 23 225 12T199 0H179Q163 0 154 11T144 39V1483Q144 1498 153 1510T179 1522H199Q215 1522 224 1510T234 1483V856H1053V1483Q1053 1498 1062 1510T1088 1522H1106Q1123 1522 1132 1510T1141 1483V84Z"  />
<glyph unicode="&#x4A3;" horiz-adv-x="1027" d="M904 84H961Q993 84 1012 72T1031 23V-233Q1031 -249 1022 -260T996 -272H977Q960 -272 952 -261T943 -233V0H848Q831 0 823 11T814 39V545H213V39Q213 23 202 12T175 0H162Q147 0 135 11T123 39V1065Q123 1080 135 1092T162 1104H175Q190 1104 201 1092T213 1065V629H814V1065Q814 1080 825 1092T852 1104H865Q880 1104 892 1092T904 1065V84Z"  />
<glyph unicode="&#x4AE;" horiz-adv-x="1087" d="M1014 1493Q1014 1483 1008 1466L684 752Q639 653 588 633V39Q588 24 578 12T553 0H532Q518 0 508 12T498 39V633Q447 653 401 752L78 1466Q72 1483 72 1493Q72 1522 106 1522H127Q136 1522 145 1514T160 1497L481 780Q503 734 514 722T543 709Q561 709 572 722T604 780L926 1497Q939 1522 958 1522H979Q1014 1522 1014 1493Z"  />
<glyph unicode="&#x4AF;" horiz-adv-x="943" d="M883 1069Q883 1064 883 1059T881 1049L613 117Q596 57 572 30T519 -6V-360Q519 -376 509 -387T484 -399H463Q448 -399 439 -388T429 -360V-6Q398 2 373 29T330 117L62 1049Q60 1054 60 1058T60 1065Q60 1080 68 1090T93 1100H113Q124 1100 134 1093T150 1063L412 139Q426 93 441 80T474 66Q491 66 504 79T531 139L793 1063Q799 1085 809 1092T830 1100H854Q870 1100 876 1092T883 1069Z"  />
<glyph unicode="&#x4B0;" horiz-adv-x="1088" d="M588 487V39Q588 23 579 12T553 0H533Q517 0 508 11T498 39V487H86Q69 487 59 497T48 522V543Q48 558 58 566T86 575H498V633Q475 642 452 668T402 752L78 1466Q72 1482 72 1493Q72 1522 107 1522H127Q137 1522 146 1514T160 1497L482 780Q492 758 499 744T513 723T527 712T543 709Q552 709 559 712T573 722T587 744T605 780L926 1497Q931 1506 940 1514T959 1522H979Q1014 1522 1014 1493Q1014 1482 1008 1466L685 752Q659 695 635 669T588 633V575H1000Q1017 575 1028 567T1039 543V522Q1039 507 1028 497T1000 487H588Z"  />
<glyph unicode="&#x4B1;" horiz-adv-x="943" d="M519 -358Q519 -374 509 -385T484 -397H463Q448 -397 439 -386T429 -358V-203H158Q141 -203 130 -193T119 -168V-147Q119 -132 130 -124T158 -115H429V-6Q398 2 373 29T330 117L62 1049Q60 1054 60 1058T60 1065Q60 1080 68 1090T93 1100H113Q124 1100 134 1093T150 1063L412 139Q426 93 441 80T474 66Q491 66 504 79T531 139L793 1063Q799 1085 809 1092T830 1100H854Q870 1100 876 1092T883 1069Q883 1064 883 1059T881 1049L613 117Q596 57 572 30T519 -6V-115H781Q798 -115 809 -123T820 -147V-168Q820 -183 809 -193T781 -203H519V-358H519Z"  />
<glyph unicode="&#x4B2;" horiz-adv-x="1193" d="M596 700L146 18Q141 12 130 6T113 0H95Q78 0 70 9T62 33Q62 39 63 46T70 59L543 778L93 1460Q82 1476 82 1491Q82 1503 90 1512T113 1522H136Q144 1522 153 1516T168 1503L594 856L1022 1503Q1027 1509 1038 1515T1055 1522H1074Q1091 1522 1098 1513T1106 1489Q1106 1481 1105 1474T1098 1460L648 776L1104 84Q1113 70 1119 60T1128 40T1133 20T1135 -6V-233Q1135 -249 1126 -260T1100 -272H1082Q1065 -272 1056 -261T1047 -233V18L596 700Z"  />
<glyph unicode="&#x4B3;" horiz-adv-x="970" d="M883 84Q893 70 899 60T908 40T913 20T914 -6V-233Q914 -249 905 -260T879 -272H861Q844 -272 835 -261T826 -233V16L488 492L154 16Q149 10 144 5T132 0H97Q68 0 68 25Q68 31 70 39T78 53L439 563L91 1051Q82 1062 82 1073Q82 1084 91 1092T119 1100H132Q146 1100 156 1094T170 1083L494 633L807 1079Q814 1089 825 1094T846 1100H865Q882 1100 888 1093T895 1075Q895 1067 891 1059T881 1040L543 559L883 84Z"  />
<glyph unicode="&#x4B6;" horiz-adv-x="1117" d="M973 84H1031Q1063 84 1081 72T1100 23V-233Q1100 -249 1091 -260T1065 -272H1047Q1030 -272 1021 -261T1012 -233V0H918Q901 0 892 11T883 39V651Q840 648 780 646T660 643Q520 643 416 662T242 730T138 864T103 1081V1483Q103 1498 112 1510T138 1522H158Q174 1522 183 1510T193 1483V1081Q193 973 217 904T297 794T442 739T660 723Q713 723 774 725T883 731V1483Q883 1498 893 1510T918 1522H938Q954 1522 963 1510T973 1483V84Z"  />
<glyph unicode="&#x4B7;" horiz-adv-x="1062" d="M938 84Q970 84 989 72T1008 23V-233Q1008 -249 999 -260T973 -272H955Q938 -272 929 -261T920 -233V0H826Q809 0 800 11T791 39V436Q761 428 727 422T657 410T585 402T515 399Q408 399 334 428T212 509T144 634T123 793V1063Q123 1078 132 1090T158 1102H179Q194 1102 202 1090T211 1063V793Q211 718 227 660T280 561T374 500T515 479Q548 479 584 481T657 489T727 501T791 516V1063Q791 1078 800 1090T826 1102H846Q862 1102 871 1090T881 1063V84H938Z"  />
<glyph unicode="&#x4BA;" horiz-adv-x="1117" d="M994 39Q994 23 984 12T959 0H938Q923 0 914 11T904 39V403Q904 475 900 532T883 633T846 708T779 759T676 788T529 797Q503 797 466 797T387 794T300 787T213 774V39Q213 23 204 12T179 0H158Q143 0 133 11T123 39V1483Q123 1498 133 1510T158 1522H179Q194 1522 203 1510T213 1483V854Q249 860 292 864T377 871T459 875T529 877Q669 877 759 853T901 773T974 626T994 403V39Z"  />
<glyph unicode="&#x4BB;" horiz-adv-x="993" d="M881 39Q881 0 846 0H825Q811 0 802 11T793 39V717Q793 873 721 951T489 1030Q338 1030 213 993V39Q213 22 203 11T178 0H158Q143 0 133 12T123 39V1483Q123 1498 133 1510T158 1522H178Q193 1522 203 1511T213 1483V1073Q273 1090 347 1100T489 1110Q627 1110 714 1061T841 924T881 717V39Z"  />
<glyph unicode="&#x4C0;" horiz-adv-x="418" d="M254 39Q254 22 244 11T219 0H199Q184 0 174 12T164 39V1483Q164 1498 174 1510T199 1522H219Q234 1522 244 1511T254 1483V39Z"  />
<glyph unicode="&#x4CF;" horiz-adv-x="377" d="M233 39Q233 23 224 12T199 0H178Q163 0 153 12T143 39V1483Q143 1498 153 1510T178 1522H199Q214 1522 223 1511T233 1483V39Z"  />
<glyph unicode="&#x4D8;" horiz-adv-x="1217" d="M103 737Q103 760 118 775T156 791H1061V850Q1061 1019 1026 1133T927 1317T775 1416T582 1446Q504 1446 431 1432T280 1386Q219 1361 191 1347T153 1332Q141 1332 136 1338T130 1370V1385Q130 1400 142 1413T183 1440Q283 1488 387 1510T583 1532Q718 1532 824 1491T1002 1365T1113 1153T1151 850V664Q1151 518 1125 395T1037 181T874 39T623 -12Q485 -12 387 34T225 168T133 380T103 662V737ZM193 662Q193 529 215 421T289 235T422 116T623 74Q753 74 838 119T972 243T1041 431T1061 664V707H193V662Z"  />
<glyph unicode="&#x4D9;" horiz-adv-x="986" d="M82 531Q82 548 93 559T121 570H813V613Q813 849 718 939T456 1030Q307 1030 137 959Q121 952 112 957T102 973V998Q102 1014 109 1022T141 1043Q177 1060 229 1075T344 1100T456 1110Q657 1110 780 996T903 613V477Q903 335 855 224T713 51T489 -12Q353 -12 261 48T126 218T82 475V531ZM172 488V475Q172 272 246 170T489 68Q600 68 672 118T778 261T813 477V488H172Z"  />
<glyph unicode="&#x4E2;" horiz-adv-x="1293" d="M979 1776Q979 1759 967 1751T938 1743H393Q376 1743 364 1751T352 1776V1798Q352 1815 364 1822T393 1829H938Q955 1829 967 1822T979 1798V1776ZM144 92V1483Q144 1498 153 1510T179 1522H203Q219 1522 227 1510T236 1483V92Q236 86 238 80T246 74Q256 74 263 88L951 1468Q965 1497 985 1514T1049 1532Q1094 1532 1121 1505T1149 1432V39Q1149 23 1140 12T1115 0H1094Q1079 0 1069 11T1059 39V1432Q1059 1440 1056 1443T1049 1446Q1043 1446 1040 1442T1033 1432L342 49Q334 34 325 22T306 2Q292 -9 277 -10T238 -12H236Q198 -12 171 15T144 92Z"  />
<glyph unicode="&#x4E3;" horiz-adv-x="1027" d="M846 1442Q846 1425 834 1417T805 1409H260Q243 1409 231 1417T219 1442V1464Q219 1481 231 1488T260 1495H805Q822 1495 834 1488T846 1464V1442ZM721 1024Q734 1048 746 1062T770 1085T795 1097T824 1100Q864 1100 884 1071T904 977V39Q904 19 892 10T865 0H852Q837 0 826 9T814 39V977Q814 987 805 987Q798 987 793 977L310 76Q297 52 286 37T262 14T236 3T203 0Q165 0 144 29T123 123V1061Q123 1081 135 1090T164 1100H173Q190 1100 201 1091T213 1061V123Q213 113 222 113Q225 113 229 115T236 123L721 1024Z"  />
<glyph unicode="&#x4E8;" horiz-adv-x="1254" d="M1151 633Q1151 462 1112 340T1004 139T838 25T627 -12Q513 -12 417 24T251 139T142 339T103 633V887Q103 1058 142 1180T250 1380T416 1495T627 1532Q741 1532 837 1496T1003 1381T1112 1180T1151 887V633ZM1061 754H193V633Q193 476 226 369T317 197T454 103T627 74Q720 74 799 102T937 196T1028 369T1061 633V754ZM193 842H1061V887Q1061 1044 1028 1151T937 1323T800 1417T627 1446Q534 1446 455 1418T317 1324T226 1151T193 887V842Z"  />
<glyph unicode="&#x4E9;" horiz-adv-x="1029" d="M936 477Q936 361 910 270T831 117T699 21T515 -12Q410 -12 331 21T199 116T120 270T93 477V621Q93 737 119 828T198 981T330 1077T515 1110Q620 1110 699 1077T830 982T909 828T936 621V477ZM183 590H846V621Q846 715 828 790T770 919T668 1001T515 1030Q425 1030 362 1002T259 920T201 791T183 621V590ZM846 502H183V477Q183 382 201 307T259 178T362 97T515 68Q605 68 667 96T770 178T828 306T846 477V502Z"  />
<glyph unicode="&#x4EE;" horiz-adv-x="1164" d="M924 1776Q924 1759 912 1751T883 1743H338Q321 1743 309 1751T297 1776V1798Q297 1815 309 1822T338 1829H883Q900 1829 912 1822T924 1798V1776ZM1035 1520Q1078 1520 1059 1468L615 270Q585 190 555 136T487 48T397 1T275 -14Q240 -14 208 -11T148 -2Q123 2 115 8T107 35V47Q107 70 120 75T150 78Q162 76 180 74T216 71T250 68T277 66Q335 66 373 76T438 112T486 181T531 289L615 522H590Q566 522 548 526T515 542T488 577T465 637L138 1470Q127 1498 139 1509T170 1520H185Q205 1520 211 1511T222 1491L549 651Q559 619 571 613T596 606H648L975 1493Q980 1507 989 1513T1016 1520H1035Z"  />
<glyph unicode="&#x4EF;" horiz-adv-x="954" d="M895 1065Q895 1055 893 1049L557 -115Q525 -227 485 -287T384 -373T225 -399Q172 -399 98 -387Q57 -380 57 -358V-336Q57 -307 88 -307H100Q193 -319 233 -319Q290 -319 328 -309T393 -274T438 -209T477 -96L504 0H475Q425 0 399 22T350 115L74 1051Q72 1055 72 1065Q72 1100 106 1100H125Q134 1100 144 1091T158 1071L434 129Q447 84 481 84H528L809 1073Q817 1100 846 1100H864Q895 1100 895 1065ZM791 1442Q791 1409 750 1409H205Q164 1409 164 1442V1464Q164 1495 205 1495H750Q791 1495 791 1464V1442Z"  />
<glyph unicode="&#x2013;" horiz-adv-x="963" d="M881 559Q881 544 871 535T842 526H121Q104 526 93 535T82 559V575Q82 592 93 602T121 612H842Q859 612 870 602T881 575V559Z"  />
<glyph unicode="&#x2014;" horiz-adv-x="1290" d="M1208 559Q1208 544 1198 535T1169 526H121Q104 526 93 535T82 559V575Q82 592 93 602T121 612H1169Q1186 612 1197 602T1208 575V559Z"  />
<glyph unicode="&#x2018;" horiz-adv-x="307" d="M248 1499Q248 1487 246 1481L162 1128Q154 1090 121 1090H82Q59 1090 59 1112Q59 1122 61 1128L160 1481Q171 1520 199 1520H229Q248 1520 248 1499Z"  />
<glyph unicode="&#x2019;" horiz-adv-x="307" d="M248 1499Q248 1489 246 1483L147 1130Q141 1109 133 1101T109 1092H78Q59 1092 59 1112Q59 1124 61 1130L145 1483Q155 1522 186 1522H225Q248 1522 248 1499Z"  />
<glyph unicode="&#x201A;" horiz-adv-x="307" d="M248 195Q248 184 246 178L147 -174Q136 -213 109 -213H78Q59 -213 59 -193Q59 -180 61 -174L145 178Q154 217 186 217H225Q248 217 248 195Z"  />
<glyph unicode="&#x201C;" horiz-adv-x="563" d="M504 1501Q504 1489 502 1483L418 1130Q410 1092 377 1092H338Q315 1092 315 1114Q315 1124 317 1130L416 1483Q427 1522 455 1522H485Q504 1522 504 1501ZM248 1501Q248 1489 246 1483L162 1130Q154 1092 121 1092H82Q59 1092 59 1114Q59 1124 61 1130L160 1483Q171 1522 199 1522H229Q248 1522 248 1501Z"  />
<glyph unicode="&#x201D;" horiz-adv-x="563" d="M504 1499Q504 1489 502 1483L403 1130Q397 1109 389 1101T365 1092H334Q315 1092 315 1112Q315 1124 317 1130L401 1483Q411 1522 442 1522H481Q504 1522 504 1499ZM248 1499Q248 1489 246 1483L147 1130Q141 1109 133 1101T109 1092H78Q59 1092 59 1112Q59 1124 61 1130L145 1483Q155 1522 186 1522H225Q248 1522 248 1499Z"  />
<glyph unicode="&#x201E;" horiz-adv-x="563" d="M504 195Q504 184 502 178L403 -174Q392 -213 365 -213H334Q315 -213 315 -193Q315 -180 317 -174L401 178Q410 217 442 217H481Q504 217 504 195ZM248 195Q248 184 246 178L147 -174Q136 -213 109 -213H78Q59 -213 59 -193Q59 -180 61 -174L145 178Q154 217 186 217H225Q248 217 248 195Z"  />
<glyph unicode="&#x2020;" horiz-adv-x="737" d="M676 1049Q676 1016 637 1016H393V29Q393 -12 360 -12H336Q303 -12 303 29V1016H100Q61 1016 61 1049V1069Q61 1100 100 1100H303V1483Q303 1522 338 1522H360Q375 1522 384 1511T393 1483V1100H637Q676 1100 676 1069V1049Z"  />
<glyph unicode="&#x2021;" horiz-adv-x="737" d="M676 618Q676 586 637 586H393V29Q393 -12 360 -12H336Q303 -12 303 29V586H100Q61 586 61 618V639Q61 670 100 670H303V1016H100Q61 1016 61 1049V1069Q61 1100 100 1100H303V1520Q303 1559 338 1559H360Q375 1559 384 1548T393 1520V1100H637Q676 1100 676 1069V1049Q676 1016 637 1016H393V670H637Q676 670 676 639V618Z"  />
<glyph unicode="&#x2022;" horiz-adv-x="815" d="M92 559V952Q92 969 104 981T133 993H526Q545 993 556 982T567 952V559Q567 542 555 530T526 518H133Q118 518 105 531T92 559Z"  />
<glyph unicode="&#x2026;" horiz-adv-x="999" d="M893 27Q893 11 882 0T854 -12H842Q826 -12 815 -1T803 27V178Q803 193 814 205T842 217H854Q871 217 882 205T893 178V27ZM545 27Q545 11 534 0T506 -12H494Q478 -12 467 -1T455 27V178Q455 193 466 205T494 217H506Q523 217 534 205T545 178V27ZM197 27Q197 11 186 0T158 -12H145Q129 -12 118 -1T106 27V178Q106 193 117 205T145 217H158Q175 217 186 205T197 178V27Z"  />
<glyph unicode="&#x2030;" horiz-adv-x="2185" d="M623 1001Q623 841 555 761T362 680Q241 680 172 760T102 1001V1212Q102 1319 133 1390T223 1497T362 1532Q445 1532 503 1497T592 1390T623 1212V1001ZM539 1001V1212Q539 1450 362 1450Q186 1450 186 1212V1001Q186 764 362 764Q539 764 539 1001ZM1231 1479L373 27Q359 4 351 -4T330 -12H274Q258 -12 258 0Q258 9 270 31L1126 1483Q1146 1513 1151 1517T1171 1522H1225Q1243 1522 1243 1509Q1243 1499 1231 1479ZM1407 309Q1407 148 1339 68T1147 -12Q1024 -12 956 68T887 309V520Q887 680 955 760T1147 840Q1271 840 1339 761T1407 520V309ZM1323 309V520Q1323 758 1147 758Q971 758 971 520V309Q971 72 1147 72Q1323 72 1323 309ZM2042 309Q2042 148 1974 68T1782 -12Q1659 -12 1591 68T1522 309V520Q1522 680 1590 760T1782 840Q1906 840 1974 761T2042 520V309ZM1958 309V520Q1958 758 1782 758Q1606 758 1606 520V309Q1606 72 1782 72Q1958 72 1958 309Z"  />
<glyph unicode="&#x2039;" horiz-adv-x="584" d="M496 188Q496 175 485 166L471 152Q463 143 451 143Q437 143 418 158L53 492Q25 517 25 551Q25 582 53 610L418 944Q436 958 451 958Q463 958 471 950L485 936Q496 927 496 913Q496 897 479 883L117 551L479 219Q496 205 496 188Z"  />
<glyph unicode="&#x203A;" horiz-adv-x="584" d="M559 551Q559 516 530 492L166 158Q147 143 133 143Q121 143 113 152L98 166Q88 176 88 188Q88 206 104 219L467 551L104 883Q88 896 88 913Q88 926 98 936L113 950Q121 958 133 958Q149 958 166 944L530 610Q559 583 559 551Z"  />
<glyph unicode="&#x2044;" horiz-adv-x="582" d="M721 1522H756Q781 1522 781 1503Q781 1493 774 1483L-82 27Q-96 2 -105 -5T-135 -12H-174Q-194 -12 -194 4Q-194 15 -186 27L670 1483Q682 1505 693 1513T721 1522Z"  />
<glyph unicode="&#x20AC;" horiz-adv-x="1147" d="M168 571H78Q41 571 41 604V623Q41 637 52 646T82 655H168V874H78Q41 874 41 907V926Q41 940 52 949T82 958H170Q177 1117 219 1229T330 1408T482 1503T664 1532Q840 1532 1004 1450Q1042 1431 1042 1409V1391Q1042 1370 1033 1365T1004 1366Q985 1373 943 1389T861 1417T771 1438T664 1446Q579 1446 509 1419T385 1334T298 1182T258 958H932Q948 958 958 952T969 932V926L965 907Q958 874 924 874H258V655H866Q884 655 893 649T903 629V623L899 604Q892 571 858 571H258Q269 313 378 194T664 74Q722 74 765 81T850 101T945 133T1004 154Q1026 160 1034 155T1042 129V111Q1042 89 1004 70Q840 -12 664 -12Q568 -12 482 17T327 115T217 295T168 571Z"  />
<glyph unicode="&#x20B4;" horiz-adv-x="1024" d="M754 881Q707 846 648 808T512 725Q441 683 387 647T295 571H966Q983 571 992 563T1002 539V520Q1002 505 990 496T961 487H238Q217 439 217 379Q217 311 232 255T286 159T387 97T545 74Q717 74 893 162Q906 167 912 167Q923 167 927 160T932 143V115Q932 98 923 89T898 72Q832 37 740 13T543 -12Q412 -12 330 24T202 116T140 242T123 379Q123 437 138 487H36Q19 487 9 496T-1 520V539Q-1 554 11 562T40 571H177Q218 632 288 687T463 805L588 881H36Q-1 881 -1 913V932Q-1 947 11 956T40 965H713Q749 992 775 1018T817 1071T842 1130T850 1198Q850 1446 532 1446Q461 1446 392 1433T269 1402Q252 1397 236 1391T206 1379T180 1369T163 1365Q143 1365 143 1393V1415Q143 1431 148 1438T177 1456Q194 1466 231 1479T317 1504T420 1524T525 1532Q611 1532 684 1514T820 1456Q942 1379 942 1200Q942 1131 921 1075T849 965H966Q983 965 992 956T1002 932V913Q1002 898 990 890T961 881H754Z"  />
</font>
</defs>
</svg>
